<svg xmlns="http://www.w3.org/2000/svg" width="850.39" height="850.39" viewBox="0 0 850.39 850.39"><path opacity=".15" fill="#FFF" d="M79.747 646.365l-9.253 5.852.8 1.268-1.262.797c-.838-.66-1.61-.952-2.327-.886l-.8-1.264 11.775-7.453 1.067 1.685zm-1.893-2.996l-1.688 1.068-6.067-.287c-.075-.01-.228-.02-.473-.027-.234-.02-.396-.028-.48-.028h-.44c-.218 0-.378 0-.48.02-.104.01-.256.038-.442.065-.19.032-.35.07-.48.112-.133.048-.282.11-.452.19-.17.073-.33.158-.5.27-.462.292-.8.655-.988 1.08-.188.423-.15.838.104 1.243.15.24.338.41.564.504.226.098.48.12.744.08.264-.044.526-.12.792-.23.254-.106.526-.258.8-.428l.425-.264 1.064 1.687-.426.265c-1.103.696-2.102 1.004-3.016.913-.904-.085-1.677-.64-2.317-1.657-.602-.95-.8-1.855-.583-2.7.218-.843.81-1.567 1.78-2.186.358-.227.727-.41 1.074-.54.36-.144.727-.23 1.104-.28.377-.04.697-.07.952-.07.272-.01.604 0 1.026.024l5.653.55-2.666-4.21 1.686-1.065 3.728 5.9zm-6.088-9.885c.405.64.594 1.28.574 1.918-.02.636-.217 1.23-.594 1.77-.386.533-.913 1.023-1.602 1.457l-5.05 3.2c-1.085.682-2.093.974-3.017.88-.933-.1-1.715-.64-2.327-1.62-.622-.98-.77-1.91-.462-2.79.302-.895 1-1.677 2.082-2.354l5.04-3.193c1.057-.67 2.064-.952 3.017-.856.945.1 1.727.627 2.34 1.588zm-1.386.876c-.526-.838-1.498-.813-2.9.07l-5.052 3.194c-.234.15-.434.297-.61.43-.17.13-.34.29-.49.472-.16.17-.274.35-.34.514-.065.17-.095.354-.075.56.02.203.094.41.226.618.132.212.282.367.462.477.17.104.357.154.536.164.188.014.396-.02.612-.09.228-.066.435-.147.632-.246.197-.104.414-.226.65-.377l5.05-3.193c.273-.17.52-.354.727-.537.205-.185.395-.386.545-.61.15-.223.234-.463.244-.708.017-.248-.06-.494-.22-.74zm-10.212-.31l-.575.952c-.188-.302-.396-.48-.603-.518-.217-.05-.472.027-.773.216l.537.84-1.687 1.068-1.064-1.69c.632-.397 1.17-.722 1.603-.98.245-.142.452-.255.622-.34.17-.084.357-.148.547-.196.196-.053.367-.062.518-.032.15.026.293.1.443.207.16.106.31.267.432.474zm-14.256-53.955c.188.438.292.87.292 1.296 0 .415-.075.803-.227 1.16-.15.354-.377.697-.66 1.014-.282.314-.63.61-1.007.87-.388.255-.812.477-1.28.68l-4.128 1.743c-.52.226-1.02.404-1.49.52-.47.133-.95.204-1.422.223-.47.028-.904-.022-1.29-.142-.387-.113-.745-.32-1.075-.63-.32-.304-.584-.698-.79-1.18-.443-1.026-.48-1.94-.133-2.746.35-.802 1.056-1.428 2.11-1.88l.78 1.838c-.61.26-1.025.556-1.252.88-.217.325-.217.75 0 1.276.396.914 1.498.99 3.335.208l1.828-.78c-.754-.097-1.318-.576-1.687-1.443-.217-.512-.32-.987-.302-1.437.027-.438.17-.834.424-1.183.255-.34.574-.66.962-.923.386-.264.856-.523 1.402-.76.604-.258 1.18-.43 1.733-.514.547-.1 1.074-.104 1.574-.02.498.076.95.283 1.354.604.39.32.71.762.948 1.328zm-1.414 1.394c.057-.25.02-.495-.084-.76-.113-.265-.272-.456-.49-.59-.197-.127-.442-.196-.707-.196-.272 0-.546.033-.818.1-.274.07-.558.16-.868.29-.17.076-.312.133-.405.175-.094.037-.226.1-.396.18-.168.08-.302.146-.386.196-.095.054-.197.118-.33.198-.142.09-.234.155-.302.228-.064.07-.142.146-.226.244-.085.1-.143.188-.18.277-.028.1-.048.198-.065.302-.027.113-.02.23 0 .354.03.116.065.253.123.38.255.594.754.924 1.498.99l1.84-.772c.3-.133.573-.272.8-.425.235-.146.442-.32.63-.513.2-.204.32-.42.368-.66zm-1.827-9.032c.303.697.388 1.357.266 1.988-.122.627-.415 1.178-.876 1.645-.463.478-1.065.872-1.818 1.184l-5.494 2.337c-1.178.5-2.223.623-3.128.378-.895-.254-1.583-.91-2.025-1.98-.45-1.062-.45-2.006-.01-2.835.452-.82 1.263-1.49 2.44-1.98l5.493-2.336c1.148-.49 2.187-.604 3.108-.35s1.602.905 2.045 1.95zm-1.498.637c-.396-.92-1.348-1.05-2.884-.4l-5.493 2.326c-.254.11-.49.22-.678.32-.198.105-.387.237-.575.383-.18.146-.32.298-.414.457-.095.155-.15.335-.17.537-.01.202.028.42.123.65.095.234.228.415.377.542.16.126.33.21.51.248.18.048.387.048.612.02.234-.027.45-.075.667-.142.208-.066.443-.15.707-.264l5.493-2.338c.302-.12.575-.264.81-.414.236-.142.443-.312.632-.51.187-.19.31-.414.357-.653.057-.24.038-.495-.075-.762zm-10.025-1.965l-.727.848c-.142-.324-.302-.526-.51-.61-.206-.08-.47-.053-.79.088l.386.92-1.837.77-.772-1.83c.688-.3 1.27-.533 1.742-.713.265-.104.49-.175.67-.235.188-.058.377-.094.573-.104.198-.02.367 0 .51.058.142.047.28.142.415.272.132.13.236.31.34.536zm-7.095-61.39l-3.477.843.933 3.873-2.157.518-8.733-1.47-.584-2.422 8.245-1.997-.368-1.498 1.828-.443.367 1.498 3.477-.843.47 1.94zm-4.843 3.217l-.462-1.93-5.823 1.4 6.284.53zm3.09-11.08c.18.735.15 1.403-.075 2.007-.218.594-.604 1.093-1.132 1.48-.526.39-1.195.678-1.98.875l-5.812 1.394c-1.24.302-2.29.265-3.137-.132-.848-.392-1.413-1.15-1.687-2.28-.265-1.12-.112-2.06.462-2.8.584-.738 1.498-1.26 2.73-1.554l5.806-1.403c1.216-.302 2.252-.245 3.118.16.87.396 1.435 1.15 1.707 2.252zm-1.592.386c-.227-.97-1.16-1.262-2.77-.876l-5.806 1.404c-.272.066-.51.138-.716.218-.208.065-.415.16-.622.272-.198.123-.368.25-.49.387-.12.142-.206.302-.255.504-.048.2-.038.42.02.656.057.245.15.44.282.603.132.15.292.264.462.33.17.065.366.103.604.112.235.01.46 0 .678-.038.218-.028.463-.075.735-.137l5.814-1.403c.31-.08.603-.17.856-.278.254-.107.49-.245.706-.404.217-.16.368-.357.462-.595.095-.217.115-.476.04-.754zm-9.563-3.575l-.85.712c-.085-.35-.216-.575-.404-.688-.187-.112-.45-.122-.8-.047l.235.97-1.932.467-.473-1.936c.727-.17 1.338-.312 1.828-.42.282-.057.51-.1.706-.117.19-.03.387-.03.585-.01.197.01.366.056.488.126.133.08.255.188.368.344.107.16.19.348.25.598zm6.02-57.215c.085 1.125-.17 2.016-.763 2.646-.594.64-1.46 1.008-2.603 1.083l-.5.03-.142-1.985c.312-.02.575-.048.8-.08.218-.038.436-.095.66-.165.227-.07.406-.17.528-.287.132-.112.227-.27.31-.457.067-.193.096-.416.087-.675-.02-.265-.086-.48-.188-.66-.095-.18-.218-.315-.367-.413-.142-.09-.33-.16-.556-.2-.235-.046-.463-.068-.688-.068-.216 0-.48.005-.79.032-.802.057-1.405.255-1.81.594-.405.34-.595.857-.537 1.568l-1.988.138c-.058-.722-.236-1.226-.557-1.498-.32-.283-.84-.396-1.573-.34-.65.048-1.14.187-1.46.434-.32.24-.453.636-.415 1.196.02.265.084.48.18.66.103.18.226.32.366.41.143.1.33.164.566.207.227.04.462.06.678.07.217 0 .49-.01.802-.03l.132 1.984-.49.032c-1.14.085-2.045-.15-2.723-.702-.68-.55-1.063-1.39-1.14-2.51-.085-1.133.18-2.008.763-2.653.594-.64 1.46-1.004 2.602-1.088.79-.05 1.45.08 1.98.395.526.32.913.772 1.148 1.386.17-.658.536-1.187 1.103-1.572.575-.372 1.32-.604 2.225-.66 1.3-.094 2.337.11 3.09.622.77.497 1.185 1.353 1.27 2.553zm-.576-8.105c.057.754-.085 1.41-.404 1.96-.312.556-.765.98-1.357 1.275-.585.297-1.292.478-2.103.523l-5.965.424c-1.27.096-2.3-.127-3.07-.65-.772-.526-1.197-1.375-1.28-2.528-.086-1.154.216-2.05.913-2.68.697-.634 1.677-1 2.95-1.095l5.953-.424c1.243-.095 2.262.133 3.053.678.792.54 1.225 1.388 1.31 2.518zm-1.63.112c-.075-.998-.933-1.432-2.59-1.31l-5.956.425c-.282.02-.537.047-.754.084-.217.037-.434.1-.65.18-.226.083-.403.18-.546.296-.142.117-.255.27-.34.457-.075.188-.103.404-.094.65.02.254.085.46.188.63.104.18.235.313.396.405.16.1.356.17.584.217.226.053.452.08.678.086.217.005.473 0 .754-.02l5.955-.423c.33-.028.62-.066.896-.137.273-.062.528-.156.773-.278.235-.128.424-.292.546-.5.12-.222.18-.472.16-.762zm-8.847-5.105l-.962.564c-.027-.358-.12-.605-.29-.75-.16-.136-.425-.202-.773-.175l.066 1-1.98.137-.14-1.983c.744-.053 1.366-.095 1.875-.113.282-.01.518-.01.716 0 .188 0 .386.027.575.08.196.047.347.117.47.217.113.1.217.227.292.396.084.168.13.375.15.625zm14.538-54.71l-1.96-.315-4.36-4.23c-.058-.057-.17-.16-.34-.33-.16-.168-.283-.28-.34-.338-.066-.057-.18-.155-.34-.303-.16-.138-.282-.235-.367-.298-.084-.062-.207-.137-.377-.24-.16-.104-.3-.178-.434-.234-.132-.047-.282-.107-.462-.16-.188-.057-.367-.094-.556-.127-.547-.09-1.027-.037-1.45.156-.425.192-.68.526-.755 1.003-.04.276-.01.532.094.75.104.226.272.403.5.556.226.14.48.254.743.348.264.095.565.164.886.218l.49.075-.312 1.97-.488-.086c-1.29-.206-2.252-.64-2.874-1.31-.622-.663-.84-1.592-.65-2.778.18-1.116.632-1.917 1.356-2.412.717-.48 1.648-.64 2.78-.452.424.065.81.165 1.168.302.357.133.696.303 1.01.52.3.216.562.404.762.584.198.164.452.396.754.697l3.863 4.147.792-4.914 1.97.315-1.1 6.887zm1.96-11.367c-.197 1.226-.678 2.035-1.45 2.45-.773.413-1.818.508-3.166.296l.32-1.965.302.046c.264.038.49.07.688.08.198.015.396.01.604-.01.217-.022.396-.07.528-.145.142-.075.264-.188.377-.34.104-.15.18-.338.217-.563.028-.18.037-.345.01-.496-.02-.152-.058-.285-.105-.398-.037-.112-.122-.222-.235-.32-.104-.103-.207-.187-.302-.264-.104-.07-.235-.142-.414-.196-.18-.066-.33-.123-.453-.16-.12-.028-.3-.076-.526-.123-.226-.048-.396-.085-.518-.105-.133-.02-.312-.052-.565-.09-.11-.02-.197-.032-.254-.042-.217-.038-.405-.064-.564-.085-.16-.02-.33-.033-.52-.037-.187-.004-.34 0-.47.02-.133.028-.255.058-.397.113-.132.053-.245.122-.33.212-.085.09-.16.207-.234.354-.065.14-.112.305-.15.497-.046.35.01.67.198.962s.415.518.707.687l-.265 1.677-7.414-1.195.97-6.08 1.96.317-.688 4.3 3.316.66c-.245-.603-.302-1.29-.17-2.044.065-.443.198-.83.387-1.15.19-.314.425-.564.69-.748.27-.184.592-.316.97-.4.367-.084.744-.123 1.147-.123.396.01.84.047 1.31.123.595.094 1.113.213 1.584.348.473.143.905.32 1.32.548.415.228.754.5 1.01.802.253.308.44.685.545 1.117.12.427.13.92.036 1.468zm-9.09-7.028l-1.058.33c.058-.35.02-.617-.112-.793-.122-.18-.367-.29-.717-.35l-.16.99-1.96-.32.312-1.96c.735.112 1.355.228 1.855.32.273.057.5.108.688.16.188.048.377.118.547.208.18.094.312.196.404.32.094.12.16.27.197.45.04.182.04.395.002.645zm23.017-46.613l-1.932-.5-3.938-4.632c-.038-.05-.142-.174-.292-.36-.16-.18-.255-.304-.32-.368-.057-.07-.15-.18-.293-.33-.15-.154-.264-.264-.348-.335-.076-.062-.198-.155-.35-.276-.15-.113-.282-.207-.414-.265-.122-.07-.273-.13-.442-.206-.17-.07-.35-.133-.537-.18-.526-.142-1.017-.132-1.46.02-.433.15-.716.458-.84.923-.064.273-.064.527.022.764.094.23.234.43.45.595.22.16.453.303.707.42.254.117.536.212.856.297l.48.122-.5 1.923-.48-.123c-1.27-.33-2.176-.856-2.73-1.578-.556-.72-.69-1.668-.387-2.832.29-1.092.81-1.846 1.58-2.27.765-.415 1.697-.48 2.81-.19.414.105.802.247 1.14.41.34.167.66.374.953.618.292.24.518.463.706.65.178.188.403.44.678.768l3.458 4.5 1.253-4.814 1.92.498-1.753 6.753zM39.6 297.46c-.198.73-.528 1.304-1.01 1.737-.48.424-1.046.68-1.705.77-.65.086-1.365.03-2.157-.178l-5.775-1.504c-1.244-.325-2.148-.862-2.714-1.605-.557-.75-.698-1.687-.406-2.808.302-1.12.867-1.865 1.733-2.242.856-.382 1.903-.415 3.14-.085l5.774 1.503c1.207.315 2.11.854 2.677 1.615.573.766.724 1.698.443 2.796zm-1.584-.41c.244-.967-.425-1.66-2.035-2.073l-5.774-1.508c-.272-.075-.518-.122-.734-.16-.217-.034-.442-.048-.68-.042-.233.004-.44.04-.61.106-.17.065-.33.17-.463.32-.133.155-.227.35-.303.594-.057.24-.064.462-.02.66.04.196.123.372.246.51.112.142.28.27.48.39.196.118.404.217.61.297.208.075.442.146.717.217l5.775 1.504c.32.09.612.137.896.165.274.02.548.02.82-.02.265-.047.5-.14.68-.3.19-.16.32-.383.396-.66zm-6.746-7.68l-1.083.235c.085-.345.074-.612-.038-.802-.114-.184-.34-.32-.68-.415l-.255.97-1.922-.503.5-1.927c.726.188 1.327.354 1.817.5.264.084.49.15.67.222.178.07.356.154.527.27.17.107.292.227.377.353.074.127.13.287.15.467.02.187.002.395-.064.63zm33.806-51.275l-9.582-5.29-.726 1.305-1.31-.72c.178-1.047.057-1.87-.34-2.46l.716-1.306 12.2 6.73-.958 1.74zm2.158-3.91l-9.518-8.17-1.78 3.225-1.45-.802 2.693-4.88.84.462 10.137 8.488-.923 1.678zm-5.606-10.45l-1.11-.042c.18-.315.234-.575.17-.782s-.245-.4-.558-.57l-.48.878-1.742-.962.96-1.743c.65.358 1.207.67 1.64.925.236.15.436.276.596.387.16.11.302.234.44.386.133.152.23.298.274.436.047.15.057.31.037.498-.04.172-.105.376-.227.59zm42.295-39.064l-8.47-6.937-.952 1.153-1.147-.946c.357-1.004.386-1.828.104-2.486l.942-1.154 10.787 8.828-1.264 1.543zm4.637-5.443c-.782.96-1.61 1.422-2.487 1.395-.876-.038-1.838-.48-2.883-1.338l1.262-1.54.245.196c.198.17.387.307.547.42.16.107.34.207.527.29.198.087.378.134.528.144.16 0 .32-.027.49-.104.178-.076.33-.203.47-.383.123-.137.208-.277.266-.424.057-.142.104-.277.112-.4.02-.123.01-.254-.038-.4-.037-.145-.085-.268-.142-.38-.047-.114-.122-.236-.244-.388-.123-.142-.227-.265-.312-.357-.096-.1-.217-.223-.387-.377-.18-.16-.312-.272-.405-.356-.104-.076-.254-.2-.442-.358-.095-.075-.15-.122-.198-.164-.18-.138-.32-.26-.45-.354-.123-.1-.266-.197-.426-.297-.15-.098-.292-.173-.414-.22-.123-.048-.255-.076-.396-.1-.143-.02-.273-.015-.396.022-.122.028-.254.095-.387.188-.123.084-.255.207-.377.354-.227.278-.32.584-.312.928.01.35.096.664.265.952l-1.074 1.31-5.81-4.758 3.898-4.77 1.535 1.264-2.75 3.373 2.534 2.233c.094-.642.386-1.263.866-1.856.293-.35.594-.61.924-.79.32-.18.64-.284.97-.303.32-.02.67.022 1.037.132.367.112.706.272 1.056.48.35.2.697.46 1.074.763.46.376.866.744 1.196 1.094.33.356.622.733.866 1.145.235.404.396.806.462 1.197.075.39.038.804-.085 1.236-.13.45-.365.876-.713 1.3zm-4.326-10.65l-1.083-.244c.227-.282.33-.522.303-.744-.028-.218-.17-.436-.453-.66l-.62.772-1.546-1.263 1.27-1.538c.574.473 1.057.878 1.433 1.207.217.187.387.348.52.49.132.13.264.285.367.456.104.168.17.324.188.476.02.15 0 .315-.058.495-.055.174-.16.364-.32.55zm48.176-34.512l-6.973-8.442-1.15.95-.95-1.153c.546-.91.744-1.72.584-2.417l1.16-.952 8.866 10.742-1.536 1.273zm2.733-2.26l-1.27-1.532-.48-6.06c0-.07-.01-.22-.03-.465-.008-.236-.026-.396-.036-.48 0-.08-.028-.232-.047-.444-.028-.207-.058-.367-.076-.47-.027-.1-.074-.237-.13-.425-.05-.19-.105-.34-.17-.467-.067-.127-.144-.264-.246-.424-.095-.157-.198-.308-.32-.458-.357-.424-.754-.707-1.195-.848-.453-.132-.857-.047-1.227.264-.216.184-.356.39-.424.626-.075.236-.065.485.01.74.075.264.188.518.32.763.15.245.32.49.526.74l.312.386-1.527 1.268-.32-.386c-.827-1-1.262-1.96-1.29-2.878-.027-.91.425-1.748 1.348-2.51.878-.722 1.744-1.028 2.61-.92.866.11 1.67.608 2.395 1.494.273.33.5.664.678 1 .18.338.312.69.405 1.06.095.362.15.682.198.937.037.264.064.603.104 1.027l.16 5.672 3.835-3.17 1.27 1.53-5.382 4.428zm.5-13.325l-1.02-.447c.273-.226.425-.452.443-.67.02-.22-.085-.466-.303-.734l-.77.635-1.273-1.536 1.536-1.273c.48.575.867 1.065 1.18 1.47.17.217.31.415.413.575.112.16.196.335.272.52.075.187.104.357.094.508-.01.15-.057.306-.15.47-.095.165-.236.32-.423.48zm51.66-22.787l-5.475-9.48-1.3.75-.744-1.296c.688-.81 1.008-1.568.97-2.294l1.29-.745 6.982 12.065-1.723 1zm6.323-3.49c-.66.376-1.31.546-1.95.5-.632-.043-1.216-.27-1.742-.67-.52-.4-.99-.957-1.396-1.658l-2.987-5.173c-.64-1.112-.894-2.13-.753-3.053.133-.93.697-1.678 1.706-2.262 1-.575 1.94-.697 2.81-.35.875.35 1.63 1.07 2.27 2.178l2.987 5.168c.63 1.088.876 2.096.733 3.048-.14.947-.698 1.705-1.677 2.27zm-.82-1.414c.866-.505.877-1.47.048-2.908l-2.987-5.168c-.142-.245-.282-.457-.405-.63-.122-.18-.272-.36-.44-.52-.17-.16-.34-.282-.51-.357-.17-.076-.35-.113-.557-.104-.198.01-.405.08-.622.208-.217.12-.377.274-.49.443-.112.17-.17.35-.188.528-.02.185 0 .392.057.623.058.226.132.443.217.64.095.2.206.416.35.666l2.995 5.167c.16.287.33.532.51.754.17.217.367.406.583.566.217.165.452.254.697.283.24.016.486-.04.74-.19zm.716-10.19l-.934-.614c.312-.18.5-.372.557-.584.047-.212-.01-.476-.188-.777l-.856.5-.998-1.724 1.725-.998c.367.65.68 1.192.923 1.64.133.254.236.462.312.64.085.18.132.364.18.557.037.197.046.367.01.518-.03.14-.105.292-.228.438-.125.144-.285.285-.502.403zm57.324-16.193c-1.158.405-2.11.367-2.863-.113-.765-.48-1.357-1.352-1.8-2.6-.292-.816-.415-1.508-.358-2.093.047-.573.264-1.106.65-1.6-.527-.17-.98-.453-1.35-.85-.366-.395-.668-.94-.913-1.64-.386-1.083-.424-2.016-.11-2.798.3-.772.97-1.347 2.006-1.714 1.026-.363 1.902-.34 2.63.08.724.415 1.28 1.164 1.667 2.243.244.703.348 1.324.32 1.852-.038.533-.208 1.037-.52 1.503.612.146 1.11.43 1.517.848.396.42.735 1.03 1.027 1.842.44 1.244.518 2.3.244 3.146-.282.856-.998 1.492-2.148 1.897zm-2.807-7.928c.253-.09.423-.213.555-.388.122-.174.188-.377.188-.617.01-.245-.02-.47-.066-.697-.057-.226-.132-.485-.226-.782-.45-1.244-1.064-1.734-1.846-1.46-.792.283-.96 1.046-.52 2.3.104.29.207.546.312.753.11.206.243.395.396.583.15.18.33.297.537.35.197.064.424.045.67-.044zm1.58 6.476c.21.028.435-.01.69-.094.243-.09.433-.208.573-.358.15-.15.244-.302.302-.47.047-.17.065-.37.047-.604-.027-.235-.065-.462-.112-.67-.066-.206-.142-.45-.245-.734-.104-.31-.227-.584-.35-.82-.13-.226-.28-.443-.46-.63-.18-.19-.378-.307-.613-.37-.235-.055-.49-.027-.772.072-.272.1-.49.24-.64.433-.143.194-.237.416-.256.674-.02.255-.01.514.048.773.047.264.122.55.235.867.104.288.196.523.282.72.084.2.205.397.328.595.142.197.282.348.425.437.132.094.31.156.518.18zm3.007-9.893l-.8-.772c.34-.112.556-.28.65-.47.093-.208.084-.462-.038-.8l-.944.328-.66-1.875 1.876-.67c.255.708.452 1.302.612 1.782.076.273.142.5.188.688.05.188.066.387.075.584 0 .198-.02.368-.084.51-.065.135-.16.267-.302.395-.14.122-.337.216-.573.3zm67.65-7.015l-.45-12.536-3.572.88-.396-1.605 5.417-1.328.226.932.632 13.21-1.857.446zm3.883-11.198l-.727-.848c.35-.085.584-.222.697-.41.104-.188.122-.452.038-.796l-.97.235-.473-1.93 1.94-.472c.17.72.312 1.333.424 1.828.056.278.094.51.122.702.02.193.028.386.01.584-.01.198-.058.363-.133.495-.076.137-.19.254-.34.363s-.345.19-.59.25zm67.048 3.628c-.48 0-.914-.075-1.31-.236-.388-.16-.717-.376-.98-.655-.272-.278-.5-.612-.688-1.003-.18-.39-.32-.81-.396-1.272-.095-.452-.132-.933-.132-1.44l-.02-4.48c0-.57.028-1.1.104-1.58.064-.49.18-.95.34-1.394.17-.447.376-.82.63-1.14.265-.306.594-.556 1-.74s.875-.278 1.395-.278c1.122 0 1.98.31 2.582.952.612.63.914 1.517.914 2.667h-1.987c0-.66-.114-1.155-.33-1.49-.218-.33-.605-.5-1.17-.5-.998.01-1.488 1.01-1.488 2.997l.01 1.997c.388-.67 1.046-1.008 1.988-1.008.556 0 1.036.094 1.432.292.405.193.707.47.935.843.217.374.386.788.48 1.25.103.462.15.99.15 1.592 0 .65-.067 1.253-.19 1.8-.12.54-.318 1.026-.593 1.46-.264.434-.622.763-1.083 1-.453.243-.98.366-1.592.366zm-.745-1.843c.207.14.452.208.735.208.28 0 .526-.07.725-.212.208-.14.358-.338.462-.583.104-.25.18-.518.235-.792.047-.282.065-.584.065-.91V33.9c0-.105-.01-.246-.02-.435-.01-.188-.02-.33-.027-.424-.02-.103-.038-.23-.065-.386-.02-.16-.048-.278-.085-.367-.037-.085-.095-.188-.143-.297-.056-.118-.11-.207-.188-.27-.076-.065-.15-.122-.255-.187-.085-.066-.198-.104-.32-.132-.122-.022-.264-.032-.405-.032-.65 0-1.14.335-1.488 1.004v1.992c0 .335.027.632.074.91.058.273.122.532.235.782.104.245.265.443.463.58zm6.266-8.268l-.5-.994c.35 0 .612-.08.764-.235.15-.155.227-.41.227-.763h-.988l-.02-1.993 1.998-.005c0 .745 0 1.376-.02 1.88-.01.287-.02.52-.037.71-.02.194-.066.387-.123.576-.058.19-.142.344-.244.452-.104.108-.245.203-.415.27-.19.07-.396.102-.64.102zM485.18 40.7c-1.224-.216-2.034-.72-2.43-1.502-.397-.777-.48-1.833-.236-3.166l1.95.35-.047.306c-.047.254-.085.49-.104.683-.02.195-.01.397.01.605.01.207.065.39.133.532.075.137.18.264.33.377.14.108.33.188.556.226.18.028.34.038.5.02.15-.02.29-.048.404-.095.113-.042.227-.122.32-.23.103-.108.196-.208.272-.307.075-.094.14-.226.207-.405.075-.18.123-.33.17-.452.037-.12.084-.29.132-.517.047-.226.085-.405.104-.523.02-.127.058-.315.105-.565.02-.108.038-.198.047-.254.038-.215.075-.404.096-.56.027-.16.037-.33.047-.51.01-.188.01-.344-.02-.47-.01-.133-.048-.27-.095-.406-.057-.132-.122-.25-.207-.34-.094-.084-.207-.17-.35-.234-.15-.07-.31-.123-.51-.16-.338-.057-.668 0-.96.18-.292.178-.52.404-.696.696l-1.668-.302 1.31-7.396 6.067 1.09-.35 1.958-4.287-.768-.717 3.308c.613-.227 1.29-.278 2.056-.142.433.075.817.212 1.13.41.31.193.563.43.744.702.17.273.3.603.377.97.085.373.113.76.105 1.16-.01.4-.057.828-.142 1.31-.104.583-.235 1.11-.377 1.573-.143.46-.34.904-.574 1.31-.235.414-.51.744-.82.998-.302.245-.678.424-1.12.528-.425.105-.924.11-1.46.015zm4.693 2.715l-.32-1.065c.358.062.622.028.8-.104.182-.122.304-.358.36-.707l-.98-.18.35-1.96 1.96.35c-.133.734-.255 1.356-.35 1.85-.065.28-.112.505-.17.694-.057.188-.132.363-.226.537-.104.176-.208.313-.32.402-.123.09-.283.155-.463.193-.18.037-.395.032-.64-.01zm6.662-.688c-.472-.09-.887-.235-1.234-.47-.356-.223-.64-.5-.855-.82-.207-.322-.378-.698-.49-1.113-.104-.415-.17-.857-.17-1.314s.038-.947.133-1.44l.78-4.416c.105-.56.228-1.074.378-1.54.15-.463.35-.9.594-1.306.236-.405.51-.745.83-1.008.3-.254.678-.443 1.102-.546.443-.104.904-.113 1.423-.023 1.112.198 1.903.66 2.374 1.396.49.73.62 1.663.424 2.784l-1.96-.35c.113-.65.105-1.163-.057-1.525-.15-.368-.51-.594-1.063-.693-.98-.174-1.65.71-1.998 2.676l-.35 1.96c.5-.59 1.206-.797 2.14-.632.547.1 1 .278 1.356.542.35.264.612.594.764 1 .15.404.234.837.244 1.31.02.47-.027 1.003-.132 1.597-.112.64-.282 1.216-.5 1.73-.226.508-.508.96-.848 1.328-.34.377-.754.65-1.253.8-.483.154-1.03.177-1.632.074zm-.396-1.946c.18.175.404.288.687.335.282.047.526.02.754-.08.227-.1.406-.27.557-.494.15-.226.273-.47.367-.74.095-.268.17-.555.227-.88.038-.197.06-.34.076-.433.02-.104.047-.245.075-.433.022-.188.04-.33.04-.43.008-.1.008-.23.018-.39 0-.16 0-.283-.027-.368-.02-.094-.046-.198-.084-.33-.027-.117-.075-.216-.132-.297l-.207-.227c-.096-.08-.188-.137-.303-.188-.112-.047-.254-.08-.396-.108-.63-.108-1.178.132-1.64.716l-.357 1.965c-.056.325-.084.626-.084.91 0 .277.028.545.085.81.057.272.18.488.35.663zm7.64-7.018l-.312-1.07c.35.065.622.038.8-.095.17-.132.293-.357.35-.706l-.978-.18.35-1.958 1.97.35c-.133.734-.255 1.356-.358 1.85-.057.28-.112.505-.17.693-.057.188-.123.363-.227.537-.094.18-.197.31-.32.4-.113.09-.272.16-.46.193-.194.034-.4.03-.645-.013zm56.175 27.253c-1.158-.424-1.884-1.046-2.14-1.89-.254-.838-.16-1.888.303-3.16l1.875.68-.104.29c-.096.246-.16.472-.21.66-.046.188-.083.387-.103.594-.02.216 0 .395.048.545.047.15.132.292.264.434.13.13.3.235.508.315.17.06.33.1.49.1.15.008.3 0 .414-.02.123-.028.245-.085.367-.17l.31-.26c.086-.09.18-.202.273-.362.095-.17.18-.3.236-.414.063-.124.13-.28.225-.496.095-.22.15-.38.198-.504.037-.123.104-.297.188-.537.04-.104.076-.188.096-.235.074-.208.132-.396.188-.547.047-.145.095-.31.133-.49.037-.187.065-.338.065-.47.01-.132-.01-.264-.038-.41-.027-.14-.075-.27-.142-.368-.075-.108-.17-.202-.302-.297-.122-.094-.282-.18-.462-.235-.34-.123-.66-.118-.98.01-.32.122-.594.31-.81.564l-1.594-.575 2.554-7.067 5.795 2.1-.688 1.872-4.09-1.484-1.27 3.13c.642-.123 1.318-.053 2.044.207.423.155.772.353 1.056.603.272.254.48.518.603.82.132.306.197.64.216 1.017.01.387-.02.77-.094 1.16-.085.39-.198.81-.367 1.262-.198.56-.415 1.054-.632 1.492-.235.43-.5.83-.792 1.197-.3.362-.63.645-.978.837-.34.198-.744.307-1.196.335-.453.032-.943-.048-1.46-.237zm8.602-7.622l-.122-1.103c.33.123.604.132.802.038.196-.09.35-.302.47-.636l-.933-.344.68-1.87 1.875.684c-.256.697-.48 1.29-.66 1.757-.113.258-.208.475-.293.654-.085.17-.188.334-.31.494-.123.155-.246.27-.39.344-.13.066-.3.104-.478.108-.19 0-.407-.042-.643-.127zm50.947 31.05l1.667-3.16-3.522-1.857 1.036-1.96 6.878-5.597 2.195 1.158-3.947 7.51 1.366.716-.886 1.677-1.356-.72-1.668 3.16-1.762-.927zm.78-5.752l1.754.924 2.79-5.295-4.543 4.37zm2.64 9.81l.027-1.112c.312.17.575.217.782.15.207-.07.396-.26.557-.574l-.887-.462.933-1.762 1.753.928c-.34.665-.642 1.21-.897 1.654-.143.245-.265.443-.377.603-.096.16-.227.31-.378.452-.132.142-.28.226-.424.283-.142.047-.302.066-.49.042-.177-.018-.384-.09-.6-.202zm6.556 1.356c-.424-.222-.763-.49-1.035-.815-.273-.324-.463-.672-.565-1.04-.104-.372-.142-.777-.123-1.206.02-.434.095-.867.235-1.31.133-.438.32-.886.557-1.338l2.09-3.962c.266-.504.538-.957.82-1.353.292-.395.603-.752.96-1.068.36-.314.717-.55 1.094-.702.377-.16.782-.22 1.234-.188.442.028.896.16 1.356.405.99.523 1.603 1.206 1.848 2.044.234.85.085 1.772-.452 2.79l-1.753-.928c.302-.584.44-1.08.405-1.474-.038-.396-.303-.72-.802-.98-.886-.46-1.79.18-2.714 1.94l-.923 1.763c.65-.404 1.385-.39 2.223.048.5.264.877.57 1.132.928.264.354.404.75.424 1.183.02.428-.027.87-.15 1.328-.132.452-.33.942-.612 1.48-.302.573-.64 1.073-1.008 1.492-.368.42-.77.758-1.206 1.013-.442.254-.924.382-1.44.387-.52-.005-1.05-.142-1.596-.434zm.218-1.97c.104.218.292.397.536.53.255.13.51.187.755.15.233-.02.47-.124.677-.298.208-.17.396-.362.575-.594.16-.22.33-.485.48-.768.093-.18.16-.312.216-.396.037-.095.104-.222.188-.387.075-.17.132-.3.17-.405.037-.094.075-.207.122-.367.057-.14.094-.268.094-.357.01-.094.02-.207.02-.334.01-.128 0-.237-.046-.326-.03-.09-.076-.188-.123-.283-.058-.103-.133-.187-.228-.272-.104-.076-.217-.15-.34-.217-.574-.3-1.167-.235-1.79.19l-.923 1.76c-.15.293-.273.57-.357.84-.095.26-.142.527-.16.8-.027.275.02.516.133.737zm9.403-4.37l.02-1.113c.32.17.585.217.793.15.207-.065.396-.253.556-.57l-.887-.466.924-1.762 1.762.923c-.35.66-.642 1.215-.897 1.658-.143.245-.264.448-.367.603-.104.17-.235.314-.377.45-.143.143-.293.232-.435.284-.143.047-.303.066-.5.047-.17-.016-.377-.087-.594-.205zm42.712 41.07l2.224-2.803-3.118-2.474 1.385-1.74 7.792-4.215 1.95 1.545-5.276 6.643 1.196.96-1.16 1.47-1.205-.95-2.223 2.803-1.565-1.24zm1.836-5.512l1.563 1.234 3.714-4.688-5.276 3.454zm8.52 1.028l.225-1.088c.283.22.528.315.745.288.216-.02.434-.18.66-.448l-.783-.622 1.244-1.56 1.555 1.235c-.473.584-.867 1.074-1.188 1.46-.18.212-.34.387-.48.528-.132.137-.292.254-.45.368-.17.113-.33.18-.473.207-.16.02-.32 0-.5-.052-.19-.053-.36-.166-.557-.316zm37.207 50.2c-.727-.86-1.037-1.73-.934-2.59.105-.867.595-1.668 1.472-2.403l.387-.32 1.28 1.526c-.245.197-.443.377-.594.53-.15.156-.303.326-.443.524-.132.188-.227.367-.264.537-.038.164-.03.353.02.55.056.198.168.397.338.595.16.202.33.344.52.43.188.084.366.122.536.112.18-.01.367-.065.585-.165.206-.1.402-.223.583-.345.188-.123.396-.292.63-.49.612-.514.98-1.027 1.112-1.54.133-.514-.038-1.04-.49-1.588l1.518-1.28c.472.555.914.853 1.33.89.423.042.912-.175 1.478-.645.5-.424.82-.824.935-1.205.112-.387-.01-.787-.368-1.216-.17-.197-.34-.338-.537-.423-.18-.095-.356-.128-.537-.118-.17.004-.356.06-.573.164-.207.104-.405.217-.584.34-.188.132-.396.296-.633.494l-1.28-1.52.377-.322c.876-.734 1.743-1.083 2.62-1.03s1.677.503 2.393 1.36c.726.872 1.046 1.733.942 2.6-.104.863-.595 1.664-1.47 2.404-.605.504-1.217.78-1.828.838-.612.062-1.197-.095-1.743-.442.255.64.255 1.276.02 1.922-.235.642-.698 1.264-1.404 1.848-1 .84-1.96 1.27-2.863 1.31-.912.033-1.76-.41-2.532-1.333zm1.79 5.01l.452-1.02c.227.278.452.415.67.435.216.015.46-.09.725-.314l-.64-.76 1.524-1.285 1.28 1.525c-.573.48-1.055.877-1.46 1.19-.216.176-.404.315-.563.42-.17.104-.33.198-.52.272-.18.076-.356.108-.5.1-.16-.004-.31-.06-.478-.145-.16-.085-.32-.23-.49-.42zm5.567 3.734c-.302-.362-.526-.744-.648-1.146-.133-.4-.17-.795-.133-1.178.048-.387.16-.777.34-1.164.18-.396.425-.77.707-1.12.302-.357.642-.697 1.026-1.026l3.43-2.874c.442-.367.867-.685 1.282-.942.415-.264.84-.47 1.29-.63.442-.16.877-.235 1.28-.235.406 0 .803.095 1.207.288.396.192.772.493 1.104.898.716.857 1.025 1.715.933 2.587-.105.87-.595 1.672-1.47 2.407l-1.282-1.526c.51-.424.82-.83.933-1.206.115-.377-.01-.78-.365-1.216-.642-.763-1.726-.5-3.25.782l-1.527 1.28c.754-.126 1.44.16 2.045.887.357.436.594.857.706 1.292.103.424.084.838-.057 1.244-.143.413-.358.8-.65 1.178-.293.377-.67.753-1.12 1.14-.5.416-1 .75-1.5 1-.5.254-.998.413-1.507.48-.5.074-.99.008-1.47-.19-.474-.206-.907-.536-1.304-1.008zm.943-1.742c.02.24.123.472.302.697.18.217.396.357.63.425.246.062.49.058.746-.02.255-.08.51-.197.753-.335.245-.142.49-.315.735-.53.15-.124.265-.224.34-.293.085-.058.188-.156.32-.283.142-.132.245-.23.312-.302.075-.075.15-.174.265-.292.094-.117.17-.218.217-.302.037-.084.094-.185.14-.3.06-.114.086-.22.086-.316 0-.09 0-.198-.02-.308-.01-.112-.046-.227-.103-.338-.065-.11-.132-.228-.235-.336-.404-.494-.98-.654-1.715-.504l-1.525 1.286c-.255.212-.472.424-.65.642-.18.207-.33.438-.452.683-.116.235-.174.482-.145.727zm10.356-.492l.442-1.026c.235.278.462.424.68.434.217.02.46-.085.725-.31l-.64-.766 1.525-1.275 1.28 1.52c-.574.484-1.064.88-1.46 1.195-.217.17-.405.31-.574.415-.16.104-.33.197-.51.276-.188.072-.357.1-.508.1-.15-.01-.303-.057-.473-.15-.166-.087-.317-.224-.486-.414zm24.12 49.467c-.526-1-.658-1.91-.386-2.733.282-.824.923-1.507 1.932-2.054l.434-.236.942 1.753c-.273.143-.5.282-.688.396-.188.123-.357.264-.537.424-.17.16-.293.32-.366.48-.065.16-.103.34-.095.537.01.207.085.424.198.654.122.228.272.4.442.522.16.13.33.2.5.228.17.02.366.01.603-.047.228-.052.442-.123.642-.207.206-.095.442-.213.716-.358.707-.386 1.17-.81 1.403-1.285.234-.476.18-1.022-.15-1.648l1.752-.947c.34.64.707 1.027 1.112 1.145.403.12.933.01 1.572-.338.584-.308.97-.642 1.16-.994.187-.35.15-.77-.114-1.263-.112-.227-.264-.404-.434-.526-.17-.122-.33-.197-.5-.22-.18-.024-.377-.01-.604.04-.226.058-.45.133-.65.217-.206.09-.44.21-.715.358l-.943-1.762.443-.228c1-.545 1.922-.7 2.77-.48.85.23 1.536.83 2.073 1.824.526.997.67 1.907.387 2.727-.272.83-.914 1.513-1.923 2.06-.697.37-1.347.522-1.96.45-.612-.068-1.15-.333-1.61-.79.112.674-.01 1.306-.378 1.89-.368.575-.952 1.09-1.743 1.518-1.15.617-2.177.857-3.08.707-.896-.15-1.63-.753-2.207-1.813zm11.45-.04l.64-.907c.17.315.357.504.565.562.207.06.47.008.782-.156l-.472-.882 1.742-.938.942 1.748c-.65.356-1.207.65-1.67.876-.244.123-.47.223-.64.292-.18.076-.367.127-.565.16-.197.038-.367.038-.51-.004-.15-.038-.29-.118-.434-.236-.137-.117-.267-.298-.38-.515zm39.808 127.623l1.97-.305 5.464 2.666.414.207c.217.108.358.186.434.212.076.04.218.096.405.186.198.09.34.142.452.17.095.027.236.07.424.107.19.052.352.08.49.09.152.01.303.01.5.005.19 0 .368-.015.565-.048.537-.084.98-.293 1.328-.604.34-.314.48-.71.396-1.188-.048-.282-.15-.508-.32-.688-.17-.18-.388-.302-.65-.366-.265-.066-.527-.104-.81-.108-.284 0-.586.02-.906.07l-.498.08-.312-1.97.5-.08c1.29-.197 2.326-.085 3.127.357.802.443 1.292 1.253 1.48 2.44.18 1.116 0 2.017-.527 2.708-.537.692-1.366 1.117-2.507 1.305-.424.066-.83.096-1.206.076-.386-.02-.754-.076-1.11-.188-.358-.104-.67-.212-.915-.312-.234-.104-.556-.244-.933-.434l-4.966-2.74.78 4.918-1.97.312-1.098-6.877zm11.22 7.21l.905-.647c.057.354.17.594.35.72.178.124.44.16.79.105l-.16-.978 1.97-.31.312 1.968c-.734.113-1.356.198-1.865.27-.282.033-.51.052-.707.062-.198.008-.386 0-.584-.033-.2-.03-.358-.09-.48-.18-.132-.09-.245-.208-.33-.364-.098-.163-.163-.37-.2-.614zm-9.035 131.83l10.863 1.312.18-1.49 1.488.182c.235 1.036.65 1.757 1.244 2.156l-.18 1.48-13.832-1.67.237-1.97zm9.346 5.64l1.046-.37c-.048.35 0 .613.132.783s.377.283.726.32l.123-.99 1.98.24-.246 1.975c-.734-.093-1.355-.168-1.865-.243-.273-.048-.5-.095-.697-.133-.188-.047-.367-.104-.556-.193-.18-.088-.312-.183-.414-.295-.104-.118-.17-.265-.217-.442-.038-.19-.048-.397-.01-.65zM801.47 280.71l1.886-.647 5.852 1.666.442.132.472.137.424.106c.207.047.367.08.47.086.105.01.255.022.453.033.19.014.35.014.49 0 .143-.02.303-.04.49-.08.19-.028.368-.086.547-.146.52-.185.924-.458 1.206-.825.283-.367.34-.78.18-1.234-.095-.27-.235-.478-.434-.62-.2-.146-.436-.227-.708-.245-.273-.023-.546-.01-.82.038-.282.047-.574.127-.885.234l-.472.16-.65-1.88.472-.165c1.234-.428 2.28-.494 3.147-.197.866.293 1.498 1.008 1.884 2.145.377 1.068.358 1.988-.047 2.756-.404.77-1.148 1.348-2.232 1.725-.403.142-.8.236-1.178.283-.367.058-.754.062-1.13.02-.378-.048-.69-.095-.942-.15-.255-.058-.584-.142-.99-.265l-5.378-1.817 1.64 4.702-1.886.65-2.302-6.6zm.896 8.65l.77-.792c.124.334.284.557.48.642.2.104.463.085.793-.028l-.33-.94 1.895-.65.65 1.88c-.707.25-1.31.447-1.79.594-.264.09-.5.146-.688.192-.18.042-.377.065-.573.065-.198 0-.367-.023-.51-.084-.132-.067-.264-.166-.386-.304-.132-.152-.225-.338-.31-.577zm3.862 5.475c-.16-.442-.227-.876-.197-1.3.02-.43.123-.803.292-1.15.18-.344.425-.67.734-.97.3-.302.658-.57 1.063-.8.405-.23.84-.426 1.32-.592l4.228-1.465c.547-.188 1.057-.33 1.527-.424.49-.1.96-.142 1.432-.132.48.015.904.09 1.28.235.377.142.727.382 1.026.707.303.32.548.73.718 1.225.356 1.063.34 1.978-.058 2.76-.405.772-1.14 1.35-2.232 1.725l-.65-1.884c.622-.217 1.065-.48 1.3-.792.255-.31.283-.733.096-1.27-.33-.943-1.433-1.085-3.316-.43l-1.884.654c.753.146 1.29.66 1.602 1.55.18.532.244 1.014.188 1.456-.047.434-.217.82-.5 1.148-.28.33-.62.617-1.018.857-.404.244-.895.472-1.46.67-.622.207-1.206.348-1.762.396-.547.06-1.074.027-1.564-.086-.5-.113-.933-.35-1.31-.697-.366-.34-.657-.808-.856-1.392zm1.5-1.29c-.066.234-.048.49.046.764.096.27.245.478.442.62.198.146.435.227.697.244.272.02.547.01.82-.042.282-.047.573-.118.886-.227.19-.07.32-.117.425-.146.095-.04.226-.086.405-.152.17-.074.302-.127.396-.178.096-.04.208-.096.34-.176.142-.07.254-.14.31-.2.076-.066.15-.14.246-.228.094-.096.16-.18.188-.264.037-.096.065-.19.104-.303.027-.114.038-.228.02-.355-.02-.128-.058-.26-.105-.396-.208-.608-.69-.967-1.434-1.085l-1.875.65c-.318.107-.593.23-.838.367s-.472.297-.67.476c-.205.18-.337.39-.403.626zm9.855 3.24l.77-.8c.124.333.284.55.48.648.19.09.463.08.793-.038l-.32-.938 1.874-.654.66 1.885c-.707.244-1.3.442-1.78.6-.272.078-.5.145-.69.187-.188.042-.387.065-.583.07-.2 0-.368-.022-.5-.095-.143-.057-.273-.16-.397-.3-.12-.14-.223-.33-.308-.565zm14.614 119.4l10.946-.114-.01-1.497 1.498-.01c.368.998.867 1.648 1.508 1.97l.01 1.497-13.936.143-.017-1.99zm-1.952 4.09l.99-.504c0 .355.084.613.233.76.16.15.416.227.774.223l-.01-.994 1.987-.02.02 1.992c-.743.004-1.375.004-1.884 0-.282-.01-.52-.023-.706-.04-.188-.018-.388-.056-.575-.12-.188-.057-.33-.143-.452-.24-.104-.1-.197-.24-.273-.415-.064-.185-.102-.396-.102-.642zm1.922 6.413c-.01-.47.066-.908.227-1.3.16-.387.377-.717.65-.99.282-.27.612-.503.998-.687.387-.187.81-.33 1.263-.414.462-.084.942-.137 1.45-.14l4.478-.048c.574-.006 1.103.02 1.583.084.488.065.95.175 1.394.334.452.166.83.373 1.14.627.312.255.565.59.744.994.19.404.283.87.293 1.395.01 1.117-.3 1.988-.923 2.596-.63.608-1.517.914-2.666.924l-.02-1.987c.66-.01 1.16-.117 1.49-.34.34-.222.488-.61.488-1.177-.01-1-1.018-1.49-2.996-1.46l-1.997.018c.67.377 1.01 1.036 1.02 1.98.01.555-.096 1.04-.283 1.437-.188.396-.462.71-.83.928-.377.23-.79.397-1.253.496-.453.1-.99.154-1.593.165-.65.005-1.244-.057-1.79-.18-.547-.12-1.037-.32-1.46-.584-.436-.264-.773-.625-1.02-1.082-.264-.436-.387-.973-.387-1.586zm1.837-.745c-.142.203-.207.447-.207.734.01.283.075.527.217.727.142.207.34.354.595.45.243.105.508.182.79.23.273.04.574.06.904.06.198 0 .35-.003.452-.003.095 0 .245-.005.435-.015.18-.01.32-.023.424-.032.104-.02.234-.038.387-.057.16-.03.272-.062.358-.095.094-.038.188-.085.3-.142.114-.052.208-.113.265-.188.066-.075.123-.16.188-.254.065-.096.104-.203.123-.33.027-.123.036-.26.036-.405 0-.64-.34-1.14-1.008-1.482l-1.987.02c-.33.005-.643.027-.905.08-.273.057-.537.132-.782.234-.256.11-.454.27-.586.47zm8.31 6.205l.99-.504c0 .353.084.61.234.758.16.15.415.222.772.222l-.02-.998 1.998-.02.02 1.993c-.745.003-1.376.003-1.885-.007-.282-.005-.51-.02-.707-.037-.188-.02-.386-.057-.573-.113-.18-.065-.33-.14-.452-.25-.113-.107-.198-.24-.273-.41-.066-.178-.102-.385-.102-.635zM85.758 626.833l.51.857-7.707 4.522-.5-.856 7.697-4.523zm-27.342-61.078l.358.928-8.34 3.213-.357-.924 8.34-3.217zM41.54 496.13l.198.97-8.763 1.8-.198-.97 8.763-1.8zm-4.315-66.898l.057.988-8.923.49-.06-1 8.925-.478zm7.112-64.744l-.13.988-8.857-1.158.122-.994 8.865 1.164zm17.725-62.592l-.228.976-8.696-2.03.228-.976 8.696 2.03zm29.604-58.94l-.472.887-7.896-4.202.472-.876 7.896 4.192zm37.245-52.1l-.61.786-7.066-5.465.61-.79 7.067 5.468zm46.123-45.484l-.744.668-5.994-6.623.744-.67 5.993 6.625zm51.04-35.908l-.877.47-4.27-7.852.887-.476 4.26 7.858zm54.477-26.867l-.932.34-3.062-8.39.934-.34 3.06 8.39zm67.2-19.34l-.98.2-1.732-8.768.98-.194 1.732 8.762zm62.09-15.805h1v8.937h-1V47.45zm76.97 13.44l-.978-.145 1.29-8.843.98.146-1.29 8.843zm68.113 19.59l-.942-.34 3.025-8.405.942.34-3.024 8.404zm62.223 29.88l-.838-.54 4.833-7.51.84.537-4.834 7.513zm50.598 36.188l-.753-.65 5.852-6.766.754.66-5.852 6.756zm47.648 48.22l-.604-.8 7.16-5.36.595.8-7.15 5.36zm32.14 44.04l-.463-.885 7.94-4.098.463.885-7.942 4.1zm30.564 61.853l-.255-.968 8.632-2.316.265.96-8.64 2.323zm18.27 61.88l-.132-.99 8.855-1.225.13.988-8.854 1.226zm7.603 62.82h8.94v1h-8.94v-1zm-3.317 67.356l.112-.99 8.876 1.02-.11.983-8.877-1.014z"/><g opacity=".05" fill="#FFF"><path d="M419.952 821.52c0-1.02.818-1.85 1.837-1.85 1.026 0 1.846.83 1.846 1.844 0 1.022-.82 1.848-1.847 1.848-1.01-.002-1.838-.826-1.838-1.843zM410.737 821.372c.02-1.018.856-1.823 1.884-1.8 1.02.02 1.83.867 1.8 1.885-.027 1.018-.875 1.828-1.883 1.8-1.028-.028-1.828-.867-1.8-1.885zM429.175 821.447c-.027-1.02.782-1.856 1.79-1.884 1.02-.028 1.866.77 1.885 1.79.028 1.025-.77 1.864-1.79 1.894h-.047c-1 0-1.818-.8-1.838-1.8zM403.273 822.927c-1.018-.047-1.8-.914-1.752-1.922.05-1.018.905-1.8 1.924-1.762 1.018.057 1.81.914 1.762 1.932-.058.984-.866 1.752-1.847 1.752h-.087zM438.38 821.16c-.047-1.02.735-1.88 1.753-1.927 1.02-.048 1.885.733 1.923 1.752.058 1.018-.734 1.885-1.753 1.928-.027.004-.057.004-.085.004-.97 0-1.79-.768-1.837-1.757zM394.03 822.38c-1.018-.075-1.78-.95-1.704-1.97.075-1.007.94-1.78 1.96-1.704 1.018.064 1.78.95 1.715 1.96-.065.978-.885 1.714-1.836 1.714-.058.01-.095.01-.133 0zM447.596 820.656c-.085-1.02.688-1.903 1.705-1.97 1.01-.075 1.904.688 1.96 1.705.086 1.02-.687 1.904-1.704 1.97-.048.006-.085.006-.123.006-.96 0-1.77-.74-1.837-1.71zM384.797 821.617c-1.008-.104-1.762-1-1.658-2.018.095-1.01.998-1.753 2.006-1.658 1.01.095 1.752.993 1.658 2.007-.094.955-.895 1.677-1.828 1.677-.065 0-.122-.01-.18-.01zM456.772 819.926c-.094-1.013.65-1.908 1.668-2.012v.005c1.01-.1 1.903.645 2.008 1.652.104 1.018-.65 1.913-1.658 2.017-.058 0-.122.01-.18.01-.933 0-1.733-.722-1.838-1.674zM375.583 820.618v.01c-1.008-.123-1.733-1.046-1.61-2.055.112-1.008 1.035-1.733 2.054-1.61 1.01.122 1.725 1.036 1.61 2.044-.113.938-.904 1.63-1.828 1.63-.086-.01-.152-.01-.227-.02zM465.95 818.988c-.112-1.02.604-1.94 1.61-2.06 1.01-.118 1.924.6 2.056 1.61.122 1.01-.604 1.928-1.61 2.05-.076.01-.152.02-.228.02-.924 0-1.716-.69-1.827-1.62zM366.406 819.403c-1.02-.143-1.715-1.08-1.564-2.088.15-1.01 1.074-1.71 2.082-1.56 1.02.15 1.715 1.083 1.564 2.092-.133.914-.925 1.573-1.818 1.573-.095.002-.18.002-.264-.017zM475.09 817.81c-.142-1.007.546-1.943 1.554-2.09 1.01-.143 1.95.55 2.103 1.56.142 1.004-.557 1.937-1.556 2.087-.103.02-.187.027-.28.027-.897 0-1.688-.665-1.82-1.583zM357.238 817.97c-1-.168-1.668-1.12-1.498-2.12.17-1.007 1.11-1.686 2.12-1.507.997.165 1.667 1.122 1.507 2.12-.15.905-.934 1.536-1.818 1.536-.095 0-.19-.01-.312-.03zM484.21 816.426c-.17-1.01.5-1.96 1.51-2.13.997-.17 1.95.5 2.118 1.508.18 1-.5 1.95-1.507 2.12-.103.02-.207.038-.3.038-.887 0-1.678-.647-1.82-1.536zM348.127 816.308c-1-.184-1.648-1.153-1.45-2.15.187-1 1.158-1.66 2.157-1.457 1.008.185 1.647 1.155 1.46 2.158-.17.88-.942 1.493-1.81 1.493-.112 0-.234-.01-.357-.042zM493.294 814.813c-.208-1.01.452-1.97 1.45-2.166 1-.193 1.96.46 2.168 1.45.188 1.003-.462 1.975-1.46 2.172-.123.022-.245.03-.358.03-.858.003-1.63-.61-1.8-1.487zM339.062 814.438c-.998-.227-1.62-1.206-1.402-2.2.217-.994 1.195-1.625 2.186-1.404 1.01.222 1.63 1.207 1.413 2.2-.198.857-.962 1.445-1.81 1.445-.124 0-.255-.014-.388-.042zM502.33 812.978c-.228-.99.404-1.98 1.395-2.194.998-.217 1.98.403 2.195 1.402.217.99-.405 1.98-1.395 2.195h-.01c-.133.03-.265.048-.388.048-.846 0-1.61-.593-1.797-1.45zM330.036 812.346v-.01c-.99-.24-1.592-1.238-1.348-2.228.244-.985 1.234-1.588 2.224-1.354h.01c.98.245 1.593 1.244 1.338 2.233-.197.843-.95 1.402-1.78 1.402-.152.003-.303-.016-.444-.044zM511.308 810.933c-.244-.98.358-1.987 1.35-2.232.987-.244 1.986.364 2.23 1.35.246.993-.356 1.992-1.347 2.236-.15.033-.3.053-.44.053-.83-.003-1.575-.57-1.792-1.407zM321.065 810.02c-.98-.265-1.563-1.28-1.3-2.263.272-.98 1.28-1.562 2.27-1.295.98.27 1.556 1.276 1.292 2.256-.228.83-.96 1.362-1.78 1.362-.16.005-.32-.015-.482-.06zM520.24 808.66c-.254-.983.32-1.99 1.3-2.26.98-.273 2 .312 2.272 1.296.265.98-.312 1.997-1.3 2.266-.16.047-.32.07-.49.07-.81-.004-1.546-.546-1.78-1.37zM312.153 807.483c-.972-.29-1.526-1.31-1.234-2.3.28-.97 1.31-1.524 2.29-1.233.97.288 1.524 1.313 1.233 2.295-.236.796-.972 1.313-1.764 1.313-.17.002-.348-.018-.527-.075zM529.126 806.175c-.292-.976.272-1.998 1.244-2.29.97-.292 2.007.265 2.3 1.234.29.978-.274 2.006-1.244 2.298-.17.052-.35.075-.527.075-.795 0-1.54-.51-1.774-1.318zM303.305 804.732c-.96-.307-1.498-1.348-1.178-2.312.302-.976 1.348-1.503 2.317-1.183.97.31 1.508 1.352 1.18 2.316-.246.782-.98 1.27-1.744 1.27-.19-.006-.386-.034-.575-.09zM537.945 803.48c-.312-.972.217-2.013 1.188-2.318.96-.315 1.997.217 2.31 1.188.31.96-.218 1.998-1.18 2.318-.187.065-.386.094-.564.094-.784 0-1.51-.505-1.755-1.283zM294.496 801.755c-.96-.34-1.46-1.395-1.12-2.346.338-.967 1.395-1.47 2.345-1.132.963.335 1.463 1.395 1.133 2.352-.265.758-.972 1.234-1.743 1.234-.2 0-.416-.038-.614-.11zM546.688 800.568c-.34-.962.16-2.018 1.12-2.355.962-.33 2.018.17 2.348 1.13.33.96-.16 2.008-1.12 2.348-.198.075-.406.105-.613.105-.764-.002-1.47-.474-1.735-1.227zM285.76 798.57c-.95-.367-1.422-1.433-1.062-2.38.356-.945 1.423-1.433 2.374-1.068.952.357 1.433 1.423 1.074 2.375-.282.73-.98 1.187-1.725 1.187-.215.01-.432-.038-.66-.114zM555.367 797.436c-.368-.946.112-2.012 1.063-2.37.95-.356 2.018.113 2.384 1.064.358.952-.12 2.018-1.073 2.375-.226.094-.44.127-.658.127-.745 0-1.442-.452-1.715-1.196zM277.12 795.165c-.94-.387-1.393-1.466-1.017-2.395.387-.95 1.47-1.398 2.41-1.013.944.38 1.397 1.45 1.01 2.397-.29.712-.978 1.145-1.705 1.145-.234 0-.47-.036-.697-.135zM563.96 794.104c-.377-.938.065-2.008 1.008-2.395.942-.387 2.026.065 2.403 1.008.387.934-.065 2.007-1.008 2.394-.235.095-.472.142-.706.142-.718 0-1.414-.434-1.696-1.15zM268.566 791.56c-.95-.408-1.366-1.496-.96-2.43.413-.934 1.497-1.353 2.42-.947.934.4 1.366 1.493.962 2.422-.312.7-.98 1.106-1.696 1.106-.236 0-.49-.046-.726-.15zM572.438 790.576c-.403-.93.02-2.018.942-2.427.933-.405 2.026.02 2.422.95.414.934-.01 2.018-.94 2.422v.01c-.236.104-.49.15-.728.15-.714 0-1.393-.413-1.696-1.106zM260.095 787.745c-.923-.435-1.317-1.527-.895-2.445.424-.93 1.526-1.33 2.45-.9.923.435 1.317 1.522.895 2.45-.312.675-.98 1.064-1.678 1.064-.253 0-.527-.057-.772-.17zM580.825 786.85c-.425-.93-.028-2.025.904-2.45.913-.434 2.016-.032 2.448.887.424.924.028 2.025-.895 2.46-.266.112-.52.17-.782.17-.695-.012-1.355-.398-1.675-1.067zM589.145 782.906c-.45-.92-.085-2.025.83-2.475.903-.45 2.024-.083 2.47.83.46.91.083 2.026-.83 2.475-.266.127-.548.192-.82.192-.68.002-1.34-.375-1.65-1.02zM251.72 783.722c-.915-.453-1.292-1.555-.83-2.47.452-.913 1.556-1.295 2.47-.838.923.452 1.29 1.555.83 2.474-.32.65-.963 1.027-1.65 1.027-.274 0-.557-.06-.82-.193zM597.35 778.766c-.478-.904-.12-2.02.774-2.49.904-.486 2.024-.14 2.496.767.472.9.112 2.017-.78 2.497-.274.14-.567.207-.85.207-.668-.002-1.31-.36-1.64-.98zM243.456 779.495c-.904-.477-1.243-1.587-.77-2.492.47-.898 1.592-1.243 2.485-.763.897.47 1.245 1.583.773 2.486-.33.628-.96.984-1.63.984-.282.002-.584-.078-.857-.215zM605.464 774.422c-.49-.886-.18-2.017.697-2.51.904-.496 2.017-.176 2.517.7.49.9.18 2.017-.707 2.516-.292.16-.594.236-.896.236-.64.01-1.27-.34-1.61-.942zM235.287 775.076c-.886-.494-1.206-1.61-.697-2.51.49-.888 1.61-1.207 2.497-.712.896.504 1.206 1.62.716 2.51-.34.604-.97.942-1.61.942-.313.002-.623-.075-.906-.23zM613.463 769.89c-.51-.886-.227-2.007.66-2.524.866-.515 1.997-.227 2.515.66.52.87.228 2.007-.66 2.516-.29.18-.61.254-.922.254-.632-.002-1.254-.327-1.593-.906zM227.24 770.46c-.875-.514-1.168-1.645-.65-2.53.52-.87 1.642-1.16 2.518-.646.876.514 1.17 1.654.65 2.52-.35.585-.962.91-1.594.91-.3.005-.62-.08-.923-.254zM621.36 765.15c-.538-.857-.274-1.997.593-2.53.856-.532 1.998-.277 2.534.594.527.862.272 1.998-.594 2.54-.302.187-.64.272-.97.272-.613 0-1.215-.3-1.564-.876zM219.308 765.646c-.867-.532-1.132-1.673-.595-2.53.537-.87 1.678-1.13 2.544-.583.857.526 1.12 1.667.584 2.528-.348.558-.95.873-1.562.873-.33 0-.67-.09-.97-.287zM629.142 760.24c-.557-.853-.32-1.987.527-2.543.847-.557 1.987-.32 2.543.527.565.85.33 1.987-.528 2.543-.31.208-.66.303-1.008.303-.602.01-1.177-.292-1.535-.83zM211.496 760.656c-.838-.565-1.083-1.706-.527-2.555.564-.838 1.704-1.083 2.554-.52.848.55 1.083 1.7.526 2.54-.35.545-.94.838-1.545.838-.36-.01-.697-.1-1.01-.302zM636.802 755.144c-.575-.848-.368-1.986.47-2.57.84-.58 1.99-.368 2.563.47.575.85.358 1.99-.47 2.573-.32.212-.69.32-1.047.32-.583 0-1.158-.275-1.516-.793zM203.81 755.474c-.83-.584-1.05-1.73-.474-2.562.575-.84 1.726-1.046 2.572-.47.83.577 1.046 1.723.472 2.56-.368.52-.934.797-1.526.797-.368 0-.735-.11-1.045-.326zM644.33 749.85c-.604-.82-.414-1.97.406-2.572.827-.595 1.98-.414 2.57.404.605.834.426 1.98-.404 2.582-.32.235-.706.35-1.083.35-.557-.002-1.132-.265-1.49-.765zM196.252 750.103c-.83-.603-1.018-1.757-.415-2.58.604-.82 1.753-1 2.572-.4.828.603 1.007 1.757.414 2.577-.368.494-.924.754-1.49.754-.385-.002-.762-.115-1.082-.35zM651.746 744.384c-.622-.806-.462-1.97.35-2.582.8-.62 1.96-.466 2.58.34.613.807.462 1.97-.348 2.586-.33.256-.728.378-1.112.378-.556-.002-1.103-.252-1.47-.722zM188.817 744.55c-.8-.618-.96-1.776-.35-2.583.622-.806 1.78-.956 2.592-.334.81.612.96 1.77.34 2.58-.36.474-.906.718-1.462.718-.395 0-.79-.113-1.12-.38zM659.02 738.735c-.642-.797-.51-1.955.282-2.597.79-.63 1.95-.51 2.59.292.643.792.51 1.95-.28 2.592-.33.272-.745.404-1.15.404-.54-.007-1.076-.234-1.443-.69zM181.524 738.825c-.79-.642-.923-1.8-.282-2.602.64-.78 1.8-.904 2.582-.272.79.642.923 1.8.282 2.592-.367.452-.896.688-1.434.688-.402 0-.81-.13-1.148-.405zM666.162 732.912c-.65-.777-.558-1.937.217-2.596.78-.66 1.94-.557 2.6.217.66.782.557 1.94-.218 2.6-.348.293-.77.436-1.195.436-.52-.003-1.038-.22-1.405-.658zM174.373 732.927c-.78-.65-.876-1.817-.217-2.592.66-.78 1.818-.876 2.6-.216.773.658.868 1.816.21 2.59-.358.434-.878.66-1.404.66-.416 0-.84-.15-1.19-.443zM673.162 726.925c-.678-.764-.604-1.922.16-2.6.754-.675 1.922-.605 2.592.154.678.763.603 1.917-.15 2.595v.005c-.35.307-.792.467-1.226.467-.51 0-1.01-.217-1.376-.622zM167.363 726.858c-.764-.67-.83-1.832-.15-2.592.68-.763 1.837-.834 2.6-.15.755.67.83 1.828.15 2.592-.356.405-.866.622-1.375.622-.434 0-.868-.15-1.225-.472zM680.01 720.763c-.696-.75-.647-1.902.096-2.6.744-.698 1.923-.66 2.61.094.697.748.65 1.912-.095 2.604-.357.33-.81.496-1.252.496-.5-.01-.998-.198-1.357-.593zM160.513 720.636c-.754-.692-.792-1.86-.095-2.61.688-.738 1.856-.785 2.602-.09.743.702.78 1.856.085 2.602-.358.396-.85.584-1.338.584-.463-.002-.905-.162-1.254-.486zM686.72 714.45c-.707-.735-.688-1.904.028-2.61.734-.712 1.903-.702 2.62.028.706.726.687 1.897-.038 2.61-.358.344-.83.52-1.29.52-.48.003-.96-.19-1.32-.548zM153.804 714.242c-.733-.706-.743-1.88-.027-2.602.707-.733 1.875-.743 2.6-.036.735.706.745 1.885.04 2.604-.358.377-.84.556-1.32.556-.472.002-.934-.173-1.293-.522zM693.278 707.958c-.727-.707-.744-1.885-.037-2.605h.01c.707-.73 1.875-.738 2.6-.027.728.712.746 1.87.03 2.604-.358.367-.84.546-1.32.546-.462 0-.924-.17-1.282-.518zM147.255 707.685c-.706-.726-.696-1.897.038-2.608.727-.707 1.895-.688 2.602.037.716.726.707 1.895-.037 2.61-.35.338-.812.526-1.282.526-.472 0-.962-.188-1.32-.565zM699.675 701.315c-.744-.697-.78-1.865-.104-2.605.697-.74 1.866-.787 2.61-.09.744.688.782 1.855.095 2.602-.357.396-.856.584-1.348.584-.44.007-.902-.16-1.252-.49zM140.868 700.985c-.697-.744-.65-1.912.104-2.602.735-.697 1.903-.66 2.602.09v.006c.688.742.64 1.91-.104 2.6-.35.33-.8.5-1.253.5-.49 0-.99-.208-1.35-.595zM705.904 694.522c-.754-.675-.83-1.844-.15-2.605.678-.75 1.847-.82 2.59-.146.773.68.84 1.84.17 2.603-.367.405-.876.622-1.385.622-.435-.002-.868-.162-1.226-.473zM134.65 694.122c-.68-.76-.605-1.918.15-2.597.763-.67 1.932-.604 2.608.16.67.76.604 1.912-.16 2.597-.35.306-.782.466-1.215.466-.508 0-1.026-.207-1.384-.626zM711.98 687.578c-.78-.65-.876-1.82-.217-2.59.65-.778 1.818-.878 2.602-.218.77.653.867 1.817.217 2.59-.367.434-.896.66-1.413.66-.416 0-.85-.14-1.19-.442zM128.6 687.126c-.67-.773-.564-1.94.208-2.592.78-.67 1.94-.564 2.6.217.66.774.558 1.942-.227 2.593-.338.3-.77.442-1.186.442-.528-.01-1.045-.235-1.393-.66zM717.88 680.492c-.793-.63-.915-1.79-.274-2.58.642-.793 1.79-.92 2.592-.284.792.64.914 1.8.282 2.586-.366.457-.903.693-1.44.693-.407 0-.812-.14-1.16-.415zM122.702 679.983c-.64-.797-.51-1.955.282-2.592.802-.648 1.95-.508 2.602.283.63.792.508 1.95-.293 2.592-.33.273-.744.404-1.148.404-.538 0-1.075-.24-1.443-.687zM723.618 673.266c-.802-.61-.96-1.77-.34-2.582.61-.81 1.78-.956 2.582-.334.81.617.96 1.768.34 2.577-.358.477-.905.726-1.46.726-.397-.002-.793-.132-1.122-.387zM116.992 672.69c-.612-.802-.452-1.96.35-2.58.81-.613 1.96-.463 2.58.348.613.8.463 1.97-.338 2.582-.34.254-.734.376-1.13.376-.548.005-1.095-.245-1.462-.726zM729.176 665.897c-.83-.595-1-1.748-.405-2.567.596-.83 1.754-1.01 2.573-.405.82.6 1.01 1.748.405 2.577-.367.49-.914.754-1.488.754-.377 0-.754-.118-1.084-.36zM111.462 665.275c-.604-.82-.425-1.975.405-2.572.82-.593 1.97-.414 2.572.41.593.818.413 1.974-.416 2.566-.32.244-.697.357-1.074.357-.566.002-1.13-.263-1.488-.762zM734.556 658.407c-.83-.575-1.036-1.72-.46-2.563.573-.838 1.724-1.046 2.56-.462.84.575 1.047 1.726.472 2.56-.357.504-.933.79-1.526.79-.357 0-.725-.1-1.046-.325zM106.11 657.738c-.575-.84-.368-1.988.47-2.563.83-.584 1.99-.367 2.563.473.585.832.377 1.986-.472 2.554-.31.226-.678.324-1.045.324-.582-.002-1.158-.27-1.516-.788zM739.757 650.774c-.848-.552-1.083-1.7-.527-2.543.565-.856 1.705-1.094 2.544-.527.857.552 1.094 1.696.527 2.55-.348.54-.932.833-1.534.833-.348 0-.697-.095-1.01-.312zM100.938 650.063c-.558-.845-.32-1.992.537-2.55.848-.556 1.996-.32 2.544.533.563.843.327 1.987-.53 2.54-.31.206-.668.3-.997.3-.605.007-1.198-.282-1.555-.823zM744.77 643.03c-.865-.537-1.13-1.68-.584-2.544.537-.857 1.668-1.122 2.534-.585.857.533 1.12 1.68.584 2.535-.34.562-.95.876-1.562.876-.33.003-.66-.096-.972-.28zM95.953 642.276c-.527-.872-.273-1.998.594-2.535.866-.54 2.007-.286 2.534.586.547.862.274 2.007-.583 2.534-.302.192-.64.283-.97.283-.613 0-1.216-.316-1.574-.867zM749.604 635.157c-.886-.514-1.178-1.653-.66-2.52.51-.887 1.65-1.17 2.525-.656.875.516 1.168 1.647.65 2.522-.34.584-.962.904-1.584.904-.32.006-.65-.083-.932-.25zM91.166 634.366c-.508-.88-.217-2.013.66-2.52.876-.52 2.007-.235 2.516.65.52.875.228 2.006-.65 2.524-.3.164-.61.254-.933.254-.633 0-1.246-.328-1.594-.908zM754.23 627.163c-.887-.5-1.207-1.61-.707-2.506.5-.887 1.62-1.207 2.507-.707.896.5 1.206 1.61.716 2.506-.34.604-.97.938-1.62.938-.302 0-.605-.07-.897-.23zM86.568 626.343c-.5-.885-.17-2.006.716-2.496.886-.504 2.017-.188 2.497.7.51.893.19 2.01-.706 2.513-.282.16-.593.235-.885.235-.65-.01-1.283-.35-1.622-.952zM758.677 619.07c-.904-.48-1.253-1.59-.77-2.498.478-.896 1.582-1.243 2.485-.772.904.48 1.253 1.593.772 2.497-.33.626-.97.984-1.64.984-.28 0-.573-.07-.847-.21zM82.168 618.222c-.47-.903-.122-2.017.773-2.492.904-.47 2.007-.127 2.497.772.472.91.123 2.012-.772 2.492-.272.142-.575.207-.856.207-.672.01-1.312-.357-1.642-.978zM762.918 610.858c-.904-.447-1.29-1.552-.84-2.475.453-.904 1.563-1.28 2.47-.83.914.458 1.3 1.557.84 2.47-.313.65-.972 1.027-1.65 1.027-.275.002-.557-.065-.82-.192zM77.965 609.986c-.452-.904-.074-2.018.83-2.46.913-.46 2.017-.09 2.468.82.452.913.086 2.025-.828 2.478-.256.132-.547.188-.82.188-.678.002-1.33-.37-1.65-1.026zM73.962 601.667c-.425-.924-.027-2.02.896-2.455.924-.424 2.017-.027 2.44.9.423.914.037 2.016-.887 2.448-.253.113-.518.17-.77.17-.69 0-1.368-.394-1.678-1.063zM766.96 602.553c-.914-.434-1.32-1.525-.896-2.45.435-.923 1.526-1.323 2.45-.898.923.433 1.328 1.52.904 2.443v.01c-.32.67-.99 1.064-1.688 1.064-.252 0-.517-.057-.77-.17zM70.164 593.253c-.404-.933.02-2.017.96-2.43.925-.406 2.02.018 2.423.95.405.924-.02 2.017-.95 2.427-.236.1-.49.15-.735.15-.708 0-1.397-.41-1.698-1.097zM770.812 594.14c-.94-.405-1.365-1.49-.96-2.423.413-.928 1.497-1.355 2.43-.94.934.395 1.357 1.478.952 2.416-.302.69-.98 1.106-1.695 1.106-.237-.01-.492-.05-.728-.16zM66.574 584.75c-.386-.947.066-2.026 1.01-2.408.95-.382 2.024.075 2.4 1.013.388.942-.057 2.018-.998 2.398-.227.094-.46.14-.706.14-.726 0-1.413-.432-1.706-1.144zM774.44 585.64c-.94-.377-1.395-1.46-1.01-2.4.39-.936 1.462-1.397 2.396-1.01.94.387 1.395 1.46 1.018 2.402-.302.716-.98 1.15-1.715 1.15-.228.004-.454-.05-.69-.142zM63.183 576.128c-.367-.947.112-2.02 1.063-2.38.952-.357 2.017.118 2.375 1.075.358.94-.112 2.007-1.064 2.374-.217.08-.44.118-.658.118-.736 0-1.434-.457-1.715-1.187zM777.86 577.056c-.95-.36-1.423-1.432-1.063-2.374.357-.95 1.422-1.433 2.374-1.073.943.356 1.434 1.422 1.065 2.383-.272.726-.97 1.188-1.716 1.188-.217 0-.442-.044-.66-.124zM59.988 567.422c-.32-.96.17-2.012 1.14-2.346.952-.345 2.008.16 2.348 1.126.34.96-.17 2.007-1.132 2.346-.207.07-.414.104-.61.104-.756.004-1.473-.47-1.746-1.23zM781.092 568.388c-.97-.344-1.48-1.403-1.14-2.36.35-.955 1.395-1.464 2.354-1.125.96.344 1.46 1.39 1.12 2.36-.263.748-.978 1.226-1.73 1.226-.208-.003-.405-.036-.604-.102zM57.03 558.646c-.32-.96.207-2.002 1.168-2.317.97-.313 2.007.216 2.327 1.187.31.96-.217 2.008-1.18 2.313-.195.07-.386.1-.572.1-.773-.013-1.49-.503-1.743-1.284zM784.088 559.63c-.97-.314-1.498-1.343-1.178-2.312.302-.962 1.348-1.505 2.317-1.18.96.312 1.498 1.34 1.18 2.31-.246.776-.973 1.27-1.754 1.27-.188.002-.376-.027-.565-.088zM54.26 549.808c-.293-.98.264-1.998 1.243-2.29.98-.292 1.997.26 2.29 1.24.29.975-.265 2-1.234 2.293-.19.05-.358.076-.538.076-.782-.01-1.518-.518-1.763-1.318zM786.878 550.844c-.98-.292-1.536-1.31-1.253-2.294.302-.98 1.32-1.52 2.3-1.24.98.304 1.535 1.32 1.243 2.295-.236.802-.97 1.314-1.77 1.314-.172 0-.35-.03-.52-.076zM51.726 540.898c-.273-.984.31-1.992 1.3-2.267.98-.263 1.998.313 2.252 1.297.272.984-.3 2.002-1.29 2.267-.16.047-.32.065-.49.065-.803 0-1.556-.54-1.772-1.362zM789.44 541.987c-.98-.27-1.555-1.28-1.29-2.258.264-.99 1.28-1.56 2.26-1.307.98.273 1.564 1.287 1.302 2.27-.227.82-.97 1.356-1.78 1.356-.162.003-.33-.026-.49-.063zM49.398 531.934c-.245-.988.356-1.997 1.347-2.24.99-.236 1.988.365 2.233 1.354.234.99-.367 1.98-1.357 2.23-.15.03-.29.05-.44.05-.82 0-1.575-.556-1.782-1.394zM791.796 533.064c-.99-.235-1.593-1.234-1.348-2.225.245-.99 1.233-1.59 2.224-1.354.99.25 1.593 1.25 1.356 2.23-.207.85-.962 1.408-1.79 1.408-.15.002-.29-.018-.442-.06zM47.287 522.917c-.217-1 .415-1.98 1.404-2.195 1-.227 1.988.404 2.195 1.396.228.998-.404 1.98-1.395 2.194-.142.027-.264.048-.405.048-.837-.002-1.6-.595-1.798-1.443zM793.925 524.113c-.99-.228-1.63-1.206-1.395-2.205.217-.99 1.196-1.62 2.186-1.403 1 .217 1.63 1.205 1.414 2.204-.188.856-.96 1.432-1.8 1.432-.13 0-.273-.01-.405-.03zM45.412 513.843c-.207-.998.453-1.97 1.45-2.167 1-.188 1.97.462 2.168 1.46.198 1-.462 1.97-1.46 2.158-.113.028-.235.038-.358.038-.867 0-1.63-.612-1.8-1.49zM795.847 515.087c-.998-.188-1.647-1.16-1.46-2.158.198-1.01 1.16-1.658 2.157-1.46 1.01.197 1.65 1.158 1.46 2.166-.17.876-.932 1.488-1.8 1.488-.13-.01-.243-.02-.357-.037zM43.735 504.723c-.16-1 .51-1.95 1.517-2.12 1-.17 1.95.505 2.12 1.504.18 1.003-.51 1.964-1.507 2.123-.104.02-.198.03-.302.03-.895 0-1.667-.633-1.828-1.537zM797.535 506.022c-1-.17-1.678-1.116-1.508-2.125.18-.998 1.12-1.683 2.13-1.503.998.164 1.677 1.116 1.507 2.12-.15.904-.934 1.535-1.81 1.535-.103 0-.208-.008-.32-.028zM42.302 495.573c-.15-1.008.548-1.94 1.556-2.087 1.01-.146 1.94.552 2.092 1.55.15 1.01-.546 1.94-1.555 2.092-.095.02-.188.028-.282.028-.897 0-1.677-.664-1.81-1.583zM799.013 496.92c-1.008-.15-1.705-1.083-1.563-2.09.15-1.01 1.084-1.71 2.092-1.556 1.018.142 1.706 1.084 1.563 2.082-.132.92-.914 1.593-1.827 1.593-.085-.006-.18-.02-.265-.03zM41.078 486.396c-.113-1.018.604-1.932 1.61-2.054 1.01-.118 1.933.604 2.046 1.61.122 1.01-.594 1.923-1.61 2.045-.066.015-.143.023-.218.023-.914 0-1.715-.69-1.828-1.624zM800.275 487.79c-1.018-.12-1.732-1.045-1.62-2.053.123-1.01 1.046-1.73 2.055-1.61 1.008.116 1.733 1.035 1.61 2.053-.112.934-.904 1.62-1.827 1.62-.075 0-.142 0-.218-.01zM40.08 477.182c-.095-1.013.64-1.913 1.658-2.007 1.008-.104 1.912.642 2.007 1.653.094 1.013-.642 1.917-1.66 2.017-.055.004-.11.004-.178.004-.932 0-1.734-.717-1.827-1.668zM801.303 478.628c-1.018-.1-1.753-1.004-1.668-2.007.095-1.012 1-1.756 2.018-1.662 1.008.094 1.762.994 1.657 2.007-.095.952-.896 1.673-1.838 1.673-.047 0-.112 0-.17-.01zM39.297 467.948c-.075-1.01.697-1.904 1.715-1.965 1.01-.075 1.895.69 1.97 1.7.065 1.02-.697 1.902-1.715 1.97-.038.01-.086.01-.133.01-.95 0-1.76-.74-1.837-1.715zM802.113 469.446c-1.02-.08-1.78-.96-1.705-1.97.074-1.02.952-1.78 1.97-1.71 1.008.08 1.77.955 1.705 1.97-.075.966-.876 1.71-1.837 1.71h-.133zM38.75 458.7c-.056-1.015.728-1.87 1.744-1.927 1.018-.044 1.885.738 1.94 1.746.037 1.02-.744 1.89-1.763 1.937h-.084c-.978 0-1.797-.763-1.835-1.757zM802.707 460.23c-1.008-.037-1.8-.903-1.742-1.917.047-1.02.904-1.806 1.922-1.758 1.008.047 1.8.914 1.752 1.933-.048.988-.857 1.743-1.838 1.743h-.095zM38.412 449.447c-.028-1.02.772-1.86 1.79-1.88 1.018-.027 1.865.78 1.894 1.79.02 1.02-.78 1.865-1.8 1.895h-.037c-1 0-1.83-.796-1.848-1.805zM803.075 451.03c-1.01-.023-1.82-.862-1.79-1.88.026-1.026.866-1.818 1.894-1.8 1.007.02 1.817.86 1.79 1.874v.006c-.03 1.004-.85 1.805-1.848 1.805-.01 0-.03 0-.047-.005zM38.29 440.19v-.005c0-1.014.828-1.843 1.837-1.843 1.027 0 1.848.83 1.855 1.843 0 1.018-.828 1.842-1.848 1.847-1.016-.005-1.845-.83-1.845-1.843zM801.396 439.964c0-.065 0-.137.01-.207-.01-.065-.01-.137-.01-.217-.01-1.02.82-1.838 1.84-1.847 1.017 0 1.836.828 1.846 1.847 0 .07-.01.142-.02.207.01.075.02.142.02.217 0 1.015-.83 1.843-1.847 1.843-1.018.004-1.84-.82-1.84-1.843zM40.202 432.805c-1.027-.02-1.818-.863-1.8-1.886.02-1.02.856-1.818 1.875-1.796 1.018.022 1.828.867 1.81 1.885-.027 1.002-.85 1.795-1.847 1.795h-.038zM801.275 430.368h-.01c-.02-1.015.79-1.86 1.81-1.89 1.008-.02 1.854.78 1.875 1.8.037 1.008-.765 1.86-1.78 1.89h-.058c-1 0-1.818-.797-1.837-1.8zM40.476 423.59c-1.02-.044-1.8-.906-1.754-1.924.058-1.018.914-1.81 1.933-1.757 1.018.046 1.8.908 1.752 1.926-.037.99-.866 1.753-1.837 1.753h-.094zM800.926 421.195c-.048-1.02.735-1.88 1.753-1.928 1.018-.052 1.894.73 1.93 1.748.05 1.02-.726 1.89-1.752 1.933h-.085c-.97.004-1.79-.762-1.847-1.753zM40.975 414.383c-1.01-.07-1.77-.95-1.705-1.97.074-1.017.95-1.774 1.97-1.71 1.017.08 1.78.957 1.704 1.975-.075.977-.876 1.715-1.837 1.715-.04 0-.086 0-.132-.01zM800.38 412.042c-.086-1.022.687-1.897 1.705-1.976 1.018-.074 1.902.688 1.97 1.705.074 1.01-.69 1.897-1.706 1.972-.048 0-.086.01-.133.01-.962 0-1.77-.745-1.838-1.71zM41.7 405.195c-1.018-.094-1.762-.993-1.668-2.016.095-1.01 1-1.754 2.017-1.66 1.008.096 1.75 1 1.657 2.018-.094.95-.895 1.668-1.837 1.668-.057-.005-.104-.005-.17-.01zM799.606 402.896c-.104-1.018.642-1.912 1.648-2.006 1.018-.104 1.923.64 2.017 1.647.105 1.02-.647 1.913-1.656 2.017-.058.01-.122.01-.18.01-.94 0-1.743-.714-1.828-1.668zM42.632 396.02c-1.008-.123-1.725-1.03-1.602-2.045.113-1.013 1.036-1.732 2.045-1.61 1.008.122 1.724 1.036 1.602 2.045-.104.933-.903 1.625-1.817 1.625-.077.003-.152-.002-.228-.015zM798.607 393.78c-.12-1.007.595-1.927 1.61-2.058 1.01-.12 1.924.603 2.056 1.61.112 1.02-.604 1.933-1.61 2.054-.075.01-.15.016-.228.016-.922 0-1.722-.692-1.828-1.62zM43.8 386.88c-1.008-.15-1.715-1.084-1.562-2.097.15-1.003 1.083-1.7 2.082-1.56 1.01.145 1.715 1.083 1.563 2.09-.132.915-.914 1.585-1.817 1.585-.086 0-.18-.007-.266-.018zM797.393 384.675c-.142-.998.557-1.937 1.563-2.082 1-.15 1.932.552 2.092 1.56.142 1.004-.556 1.938-1.563 2.088-.095.02-.18.02-.272.02-.897-.002-1.688-.66-1.82-1.585zM45.176 377.76c-1-.17-1.677-1.12-1.507-2.12.168-1.01 1.12-1.687 2.128-1.513 1 .17 1.678 1.12 1.498 2.13-.15.9-.933 1.53-1.81 1.53-.092 0-.196-.01-.31-.028zM795.96 375.62c-.17-.998.5-1.955 1.5-2.125 1.007-.175 1.97.505 2.13 1.504.178 1.007-.5 1.958-1.51 2.123-.094.02-.206.033-.31.033-.886 0-1.66-.635-1.81-1.536zM46.78 368.682c-1-.193-1.66-1.154-1.462-2.152.197-1.01 1.16-1.654 2.167-1.46 1 .19 1.648 1.163 1.46 2.16-.18.882-.94 1.495-1.818 1.495-.114 0-.226-.02-.348-.043zM794.302 366.594c-.197-.998.462-1.964 1.46-2.162 1-.192 1.96.457 2.158 1.457.188.996-.452 1.962-1.45 2.165-.123.02-.246.028-.358.028-.858 0-1.63-.608-1.81-1.49zM48.606 359.646c-1-.223-1.62-1.197-1.403-2.19.217-1 1.196-1.63 2.195-1.404.998.218 1.62 1.196 1.402 2.19-.188.86-.95 1.445-1.8 1.445-.13 0-.262-.01-.394-.04zM792.437 357.613c-.217-.997.404-1.98 1.396-2.194.998-.223 1.98.404 2.195 1.398.226.994-.396 1.98-1.396 2.195-.132.027-.264.04-.396.04-.848.01-1.61-.58-1.8-1.44zM50.65 350.65c-.998-.243-1.602-1.242-1.355-2.224.235-.99 1.234-1.592 2.224-1.355.988.24 1.592 1.244 1.355 2.232-.207.84-.96 1.404-1.79 1.404-.142.002-.292-.017-.434-.056zM790.345 348.684c-.245-.99.357-1.988 1.35-2.225.978-.246 1.978.356 2.23 1.347.235.984-.367 1.983-1.348 2.225-.15.037-.302.056-.442.056-.83-.002-1.583-.563-1.79-1.404zM52.912 341.715c-.99-.27-1.573-1.275-1.3-2.267.264-.98 1.27-1.56 2.252-1.29.99.264 1.573 1.27 1.3 2.25-.217.82-.97 1.367-1.78 1.367-.152.01-.32-.018-.472-.06zM788.037 339.807c-.273-.988.31-1.996 1.29-2.266.99-.27 1.998.308 2.263 1.296.272.98-.302 1.998-1.29 2.268-.16.04-.32.06-.49.06-.803-.005-1.556-.538-1.773-1.357zM55.38 332.835c-.97-.293-1.525-1.324-1.243-2.29.292-.98 1.32-1.536 2.3-1.25.97.298 1.517 1.314 1.242 2.296-.235.803-.98 1.315-1.772 1.315-.18.004-.347-.02-.528-.07zM785.52 330.98c-.3-.972.266-2 1.235-2.29.97-.293 1.997.264 2.29 1.233.3.98-.265 2.007-1.235 2.3-.18.05-.348.075-.526.075-.792 0-1.528-.52-1.763-1.32zM58.076 324.02c-.97-.315-1.508-1.356-1.188-2.322.312-.972 1.356-1.498 2.318-1.188.97.315 1.507 1.353 1.188 2.317-.255.78-.98 1.28-1.743 1.28-.197.002-.386-.037-.574-.086zM782.78 322.227c-.313-.968.216-2.01 1.177-2.318.97-.316 2.017.206 2.328 1.177.31.97-.217 2.007-1.178 2.327-.198.062-.388.095-.575.095-.773-.013-1.51-.507-1.753-1.283zM60.987 315.23c-.96-.336-1.46-1.392-1.12-2.343.338-.96 1.384-1.47 2.345-1.126.962.336 1.47 1.392 1.13 2.343-.263.764-.978 1.233-1.74 1.233-.21 0-.416-.036-.615-.106zM779.83 313.542c-.34-.96.16-2.01 1.12-2.35.953-.34 2.018.163 2.355 1.12.33.96-.17 2.006-1.13 2.355-.208.064-.415.1-.612.1-.763 0-1.46-.475-1.733-1.225zM64.115 306.532c-.95-.362-1.432-1.423-1.074-2.374.36-.956 1.435-1.434 2.376-1.08.96.367 1.432 1.43 1.074 2.385-.283.735-.98 1.188-1.725 1.188-.206 0-.433-.04-.65-.118zM776.664 304.926c-.357-.956.113-2.017 1.074-2.38.95-.36 2.017.12 2.375 1.07.366.946-.113 2.017-1.057 2.375-.226.085-.452.123-.67.123-.732 0-1.44-.452-1.722-1.187zM67.45 297.906c-.933-.387-1.395-1.46-1.008-2.402.387-.94 1.46-1.398 2.402-1.013.95.382 1.403 1.455 1.02 2.402-.294.71-.98 1.146-1.707 1.146-.236 0-.47-.037-.706-.132zM773.31 296.39c-.387-.937.065-2.017.998-2.4.942-.388 2.026.063 2.403 1.007h.01c.377.938-.075 2.017-1.018 2.402-.227.09-.46.13-.697.13-.724.004-1.403-.425-1.695-1.14zM71.012 289.37c-.94-.414-1.365-1.498-.962-2.43.415-.93 1.5-1.358 2.433-.954.933.406 1.355 1.498.95 2.428-.29.702-.978 1.116-1.687 1.116-.244 0-.498-.06-.734-.16zM769.74 287.966c-.406-.933.018-2.016.95-2.42.934-.405 2.025.02 2.432.945.396.935-.02 2.022-.952 2.428-.235.104-.49.15-.734.15-.708 0-1.386-.41-1.697-1.102zM74.762 280.92c-.924-.426-1.318-1.523-.896-2.44.434-.92 1.536-1.32 2.46-.897.913.424 1.31 1.526.885 2.444-.31.675-.978 1.06-1.676 1.06-.263.01-.527-.046-.772-.168zM765.98 279.637c-.435-.923-.04-2.017.885-2.443.924-.43 2.025-.033 2.45.89.434.924.037 2.017-.887 2.45-.254.113-.52.17-.782.17-.696-.002-1.355-.397-1.667-1.067zM78.72 272.575c-.915-.457-1.292-1.56-.83-2.474.443-.91 1.546-1.28 2.46-.83.913.454 1.29 1.557.84 2.47-.33.647-.98 1.023-1.66 1.023-.274 0-.547-.06-.81-.188zM762.013 271.393c-.453-.914-.085-2.017.838-2.474.905-.447 2.008-.08 2.47.833.443.904.075 2.017-.84 2.47-.263.13-.545.192-.817.192-.68 0-1.33-.372-1.65-1.022zM82.875 264.32c-.896-.476-1.244-1.588-.77-2.48.47-.91 1.582-1.245 2.485-.783.904.477 1.253 1.594.782 2.492-.33.625-.97.988-1.63.988-.293 0-.594-.08-.867-.218zM757.838 263.242c-.47-.9-.122-2.018.77-2.487.906-.476 2.027-.132 2.498.77.473.898.123 2.016-.77 2.49-.274.147-.566.208-.858.208-.66.007-1.3-.35-1.64-.98zM87.237 256.176c-.886-.49-1.206-1.61-.716-2.506.5-.886 1.62-1.206 2.507-.707.896.495 1.216 1.61.717 2.502-.34.604-.97.946-1.61.946-.303 0-.605-.074-.897-.234zM753.476 255.195c-.5-.885-.18-2.008.718-2.506.885-.5 2.006-.18 2.495.706.5.89.187 2.017-.708 2.51-.28.16-.584.24-.895.24-.64 0-1.27-.337-1.61-.95zM91.788 248.14c-.876-.515-1.168-1.64-.64-2.522.508-.882 1.64-1.168 2.515-.654.876.515 1.17 1.647.65 2.524-.35.58-.952.904-1.594.904-.31.003-.63-.076-.932-.253zM748.925 247.258c-.526-.872-.227-2.007.642-2.52.886-.52 2.007-.228 2.524.65.52.876.236 2.007-.648 2.515-.293.175-.622.265-.934.265-.63 0-1.253-.326-1.583-.91zM96.537 240.225c-.867-.537-1.13-1.678-.594-2.543.526-.867 1.668-1.127 2.535-.595.865.54 1.12 1.683.593 2.544-.356.562-.95.867-1.572.867-.33 0-.65-.084-.96-.272zM744.168 239.428c-.537-.86-.264-1.996.594-2.54.866-.536 1.997-.276 2.543.595.528.867.273 1.998-.593 2.54-.302.187-.642.277-.97.277-.613 0-1.226-.307-1.574-.872zM101.475 232.418c-.857-.56-1.095-1.7-.537-2.55.563-.847 1.705-1.093 2.562-.526.848.557 1.084 1.696.52 2.544-.35.548-.942.83-1.536.83-.35 0-.71-.096-1.01-.298zM739.23 231.716c-.548-.856-.312-1.99.536-2.55.838-.562 1.98-.314 2.544.523.557.853.312 1.997-.526 2.553-.312.208-.66.307-1.01.307-.593 0-1.187-.286-1.545-.834zM106.59 224.74c-.83-.58-1.046-1.73-.462-2.57.584-.833 1.715-1.044 2.562-.465.84.58 1.046 1.73.47 2.56-.356.526-.94.8-1.524.8-.367-.003-.725-.105-1.047-.326zM734.114 224.126c-.575-.834-.367-1.987.47-2.567.84-.575 1.98-.368 2.563.472.584.828.367 1.98-.472 2.562-.32.218-.688.32-1.046.32-.584.004-1.158-.273-1.516-.788zM111.895 217.188c-.82-.604-1.01-1.752-.404-2.582.595-.818 1.753-1.008 2.573-.396.818.595 1.008 1.742.403 2.572-.356.5-.913.754-1.487.754-.378 0-.755-.113-1.085-.348zM728.81 216.655c-.595-.825-.416-1.976.404-2.578.82-.6 1.97-.414 2.572.405.594.82.424 1.98-.405 2.572-.33.24-.706.348-1.092.348-.557 0-1.12-.257-1.48-.747zM117.38 209.764c-.812-.613-.962-1.78-.34-2.582.612-.812 1.77-.962 2.58-.345.802.617.962 1.774.34 2.586-.356.472-.913.718-1.46.718-.396.008-.783-.12-1.12-.376zM723.326 209.307c-.622-.807-.473-1.966.33-2.578.81-.622 1.97-.468 2.59.34.613.81.472 1.97-.34 2.586-.338.254-.726.386-1.12.386-.546-.006-1.103-.26-1.46-.735zM123.04 202.48c-.8-.642-.922-1.8-.28-2.592.64-.79 1.8-.914 2.59-.283.802.637.925 1.795.294 2.592-.377.45-.905.688-1.442.688-.407 0-.822-.132-1.16-.405zM717.663 202.104c-.642-.793-.51-1.96.282-2.593.8-.64 1.95-.513 2.592.28.64.795.518 1.954-.283 2.595-.34.273-.754.405-1.158.405-.53 0-1.066-.235-1.433-.686zM128.864 195.337c-.772-.66-.866-1.817-.207-2.6.66-.783 1.818-.878 2.59-.218.792.653.878 1.81.23 2.59-.36.434-.888.66-1.405.66-.426 0-.85-.146-1.208-.433zM711.83 195.025c-.658-.78-.555-1.94.218-2.592.772-.664 1.94-.563 2.6.217.66.773.558 1.938-.226 2.593-.35.3-.764.434-1.178.434-.528.01-1.046-.217-1.413-.652zM134.876 188.332c-.764-.684-.83-1.843-.16-2.605.68-.763 1.837-.838 2.602-.16.763.68.83 1.848.16 2.602-.368.41-.877.62-1.387.62-.432.004-.865-.15-1.214-.458zM705.83 188.092c-.68-.754-.605-1.923.16-2.6.753-.67 1.912-.605 2.59.158.67.764.604 1.923-.15 2.602-.357.31-.792.466-1.225.466-.51 0-1.01-.212-1.376-.626zM141.038 181.468c-.735-.688-.782-1.856-.095-2.596.697-.75 1.855-.797 2.61-.1.733.687.78 1.855.084 2.602-.357.392-.85.588-1.338.588-.453 0-.904-.164-1.262-.494zM699.667 181.31c-.707-.745-.66-1.915.094-2.603.736-.697 1.914-.66 2.603.095.696.744.65 1.907-.095 2.6-.35.335-.8.5-1.254.5-.49-.006-.99-.204-1.347-.593zM147.36 174.77c-.716-.707-.735-1.875-.02-2.602.696-.73 1.874-.744 2.61-.027.715.708.733 1.865.027 2.602-.358.366-.84.556-1.32.556-.468-.006-.93-.18-1.297-.528zM693.335 174.675c-.706-.726-.697-1.903.028-2.61.734-.707 1.895-.696 2.6.028.717.726.708 1.894-.027 2.605-.356.354-.818.52-1.28.52-.483.003-.963-.176-1.32-.543zM153.86 168.22c-.715-.73-.706-1.894.028-2.604.727-.712 1.895-.692 2.602.032.716.727.707 1.895-.028 2.61-.357.35-.83.52-1.28.52-.492-.003-.972-.19-1.32-.558zM686.843 168.184c-.735-.71-.745-1.875-.038-2.61.706-.726 1.885-.744 2.62-.028.715.712.726 1.875.027 2.61-.367.366-.85.546-1.328.546-.46.008-.923-.162-1.28-.518zM160.494 161.832c-.688-.744-.64-1.913.104-2.61.735-.687 1.904-.645 2.603.095.69.754.65 1.914-.103 2.61-.35.33-.79.49-1.242.49-.494 0-.993-.194-1.36-.585zM680.2 161.86c-.753-.697-.79-1.86-.103-2.61.697-.744 1.865-.79 2.6-.094.755.69.793 1.86.105 2.6-.356.397-.856.596-1.347.596-.453 0-.907-.166-1.254-.493zM167.288 155.6c-.67-.76-.604-1.927.16-2.6.763-.675 1.922-.605 2.6.16.67.757.605 1.926-.16 2.6-.348.315-.78.463-1.215.463-.52-.007-1.018-.214-1.385-.623zM673.397 155.688c-.754-.674-.82-1.836-.15-2.6.688-.764 1.837-.83 2.6-.16.766.678.83 1.842.16 2.6-.366.416-.875.627-1.384.627-.435 0-.868-.155-1.226-.467zM174.232 149.536c-.66-.777-.565-1.945.217-2.6.77-.65 1.93-.557 2.6.22.65.782.557 1.937-.227 2.597-.34.292-.764.434-1.188.434-.527.003-1.046-.217-1.403-.65zM666.463 149.678c-.78-.65-.885-1.81-.217-2.6.65-.774 1.81-.868 2.592-.218.77.664.876 1.818.217 2.6-.357.434-.886.66-1.404.66-.424 0-.84-.146-1.187-.442zM181.31 143.647c-.644-.8-.52-1.955.27-2.592.8-.64 1.96-.518 2.6.278.633.796.51 1.955-.28 2.59-.33.28-.745.406-1.15.406-.547.005-1.075-.23-1.44-.683zM659.378 143.845c-.792-.63-.914-1.79-.282-2.59.642-.792 1.8-.915 2.59-.283.792.64.914 1.8.283 2.596-.368.457-.896.692-1.44.692-.408 0-.814-.137-1.152-.415zM188.535 137.92c-.622-.807-.472-1.96.33-2.573v-.01c.81-.612 1.97-.462 2.59.35.613.805.472 1.96-.34 2.586-.338.25-.726.37-1.12.37-.556 0-1.102-.244-1.46-.724zM652.15 138.183c-.81-.612-.962-1.77-.34-2.582.622-.81 1.764-.97 2.582-.343.812.617.96 1.767.34 2.577-.357.476-.904.726-1.47.726-.385 0-.783-.123-1.112-.377zM195.883 132.378c-.603-.82-.424-1.98.396-2.572.82-.603 1.978-.424 2.58.396.595.824.415 1.98-.404 2.572-.33.235-.706.357-1.083.357-.565.012-1.14-.252-1.49-.752zM644.792 132.694c-.83-.604-1.008-1.758-.405-2.577.594-.82 1.744-1 2.572-.396.81.59.998 1.744.395 2.563-.357.5-.913.76-1.488.76-.378 0-.754-.108-1.075-.35zM203.355 127.017c-.574-.838-.367-1.988.472-2.567.84-.584 1.987-.373 2.572.466.573.84.355 1.988-.474 2.563-.32.225-.688.33-1.046.33-.59 0-1.158-.275-1.525-.793zM637.292 127.385c-.838-.58-1.046-1.725-.462-2.562.575-.838 1.725-1.046 2.554-.47.84.583 1.046 1.724.48 2.57-.367.51-.934.793-1.518.793-.357-.002-.724-.114-1.054-.33zM210.968 121.83c-.556-.848-.32-1.992.527-2.548.857-.565 1.998-.33 2.554.528.556.848.32 1.992-.527 2.553-.312.198-.67.297-1.01.297-.602.004-1.196-.288-1.545-.83zM629.67 122.25c-.848-.556-1.084-1.706-.52-2.553.557-.848 1.696-1.088 2.555-.528.848.555 1.084 1.705.527 2.552-.357.537-.95.83-1.546.83-.348 0-.696-.1-1.016-.302zM218.695 116.832c-.537-.857-.273-2.002.594-2.535.856-.537 1.996-.273 2.533.593.546.867.282 2.007-.584 2.535-.303.193-.643.282-.98.282-.614-.008-1.216-.314-1.565-.875zM621.934 117.303c-.856-.537-1.13-1.672-.585-2.54.527-.86 1.667-1.125 2.534-.593.867.542 1.12 1.682.594 2.54-.357.565-.952.872-1.573.872-.33 0-.67-.09-.97-.28zM226.544 112.026c-.52-.876-.227-2.007.65-2.525.876-.512 2.007-.216 2.523.656.52.88.228 2.002-.65 2.52-.29.18-.61.265-.933.265-.63 0-1.233-.334-1.59-.914zM614.076 112.545c-.887-.51-1.168-1.65-.66-2.516.52-.887 1.648-1.18 2.525-.66.878.517 1.17 1.648.65 2.524-.34.584-.95.904-1.592.904-.31 0-.63-.074-.922-.253zM234.496 107.41c-.49-.89-.17-2.007.716-2.51.886-.495 2.018-.175 2.507.71.498.896.168 2.017-.708 2.517-.292.16-.594.23-.903.23-.644 0-1.275-.344-1.614-.947zM606.104 107.98c-.896-.494-1.206-1.616-.706-2.51.49-.892 1.61-1.207 2.496-.712.887.495 1.206 1.616.717 2.51-.34.604-.97.943-1.62.943-.302 0-.603-.075-.886-.23zM242.57 102.99c-.48-.904-.132-2.006.764-2.49.904-.467 2.018-.128 2.497.776.472.895.123 2.012-.77 2.488-.273.146-.565.212-.857.212-.672 0-1.303-.354-1.633-.985zM598.02 103.604c-.913-.472-1.253-1.593-.77-2.488.47-.905 1.573-1.244 2.486-.773.896.472 1.243 1.583.77 2.488-.328.632-.97.99-1.638.99-.282 0-.583-.07-.848-.216zM250.73 98.76c-.443-.914-.075-2.016.83-2.47.922-.45 2.016-.083 2.477.83.453.915.085 2.017-.83 2.47-.27.126-.545.187-.818.187-.68.01-1.33-.367-1.66-1.017zM589.823 99.43c-.904-.454-1.29-1.565-.83-2.47.443-.91 1.556-1.285 2.46-.838.914.452 1.29 1.56.84 2.47-.313.658-.97 1.026-1.66 1.026-.273 0-.555-.06-.81-.19zM258.993 94.746c-.424-.923-.028-2.016.896-2.454.924-.43 2.017-.033 2.44.9.433.918.037 2.016-.887 2.44-.254.122-.51.178-.772.178-.697-.008-1.356-.404-1.677-1.064zM581.52 95.453c-.913-.424-1.317-1.517-.894-2.45.433-.918 1.526-1.32 2.46-.89.913.43 1.318 1.526.885 2.445-.3.67-.97 1.065-1.657 1.065-.272 0-.536-.057-.792-.17zM267.36 90.92c-.415-.932.01-2.024.94-2.43.935-.41 2.026.02 2.433.95.396.934-.02 2.018-.952 2.428-.243.108-.498.155-.733.155-.708 0-1.395-.414-1.687-1.102zM573.146 91.675c-.933-.405-1.356-1.498-.96-2.426.413-.93 1.497-1.363 2.42-.953.934.405 1.366 1.493.952 2.426-.292.697-.97 1.107-1.678 1.107-.253.005-.507-.052-.734-.155zM275.802 87.303c-.387-.942.066-2.02 1.01-2.412.94-.385 2.006.077 2.4 1.01.377.946-.064 2.015-1.018 2.402-.227.094-.46.137-.697.137-.715.003-1.403-.426-1.695-1.137zM564.666 88.113c-.94-.387-1.396-1.46-1.02-2.403.39-.952 1.463-1.394 2.404-1.008.942.382 1.396 1.45 1.02 2.403-.304.71-.98 1.145-1.717 1.145-.225-.005-.46-.052-.687-.137zM284.357 83.873c-.35-.95.123-2.012 1.073-2.374.952-.37 2.018.112 2.386 1.063.348.952-.123 2.017-1.074 2.375-.208.084-.443.118-.66.118-.745.005-1.442-.443-1.725-1.183zM556.09 84.74c-.94-.358-1.43-1.414-1.062-2.375.357-.957 1.413-1.432 2.364-1.074.95.364 1.44 1.433 1.074 2.38-.273.74-.98 1.19-1.715 1.19-.225.002-.45-.035-.66-.12zM292.998 80.655c-.33-.956.17-2.007 1.13-2.34.962-.34 2.008.16 2.348 1.115.34.96-.16 2.012-1.12 2.35-.208.072-.406.105-.613.105-.765.01-1.472-.466-1.745-1.23zM547.443 81.588c-.963-.34-1.46-1.385-1.122-2.346.33-.966 1.387-1.465 2.338-1.126.97.33 1.47 1.385 1.13 2.342-.263.763-.97 1.24-1.742 1.24-.2 0-.406-.04-.603-.11zM301.713 77.654c-.31-.96.217-2.007 1.188-2.317.973-.315 2.01.212 2.32 1.178.32.97-.218 2.007-1.18 2.317-.187.066-.386.104-.574.104-.773 0-1.5-.504-1.753-1.282zM538.717 78.648c-.96-.315-1.498-1.352-1.178-2.322.31-.966 1.347-1.498 2.315-1.188.963.312 1.5 1.357 1.18 2.327-.255.773-.97 1.272-1.743 1.272-.188 0-.376-.027-.575-.09zM310.513 74.866c-.302-.97.254-1.998 1.234-2.29.97-.292 1.998.264 2.29 1.24.292.974-.255 1.996-1.235 2.293-.18.05-.356.074-.526.074-.802 0-1.536-.517-1.763-1.318zM529.964 75.93c-.98-.29-1.536-1.318-1.244-2.29.293-.978 1.312-1.535 2.29-1.247.97.287 1.526 1.314 1.243 2.294-.235.8-.97 1.314-1.762 1.314-.178.006-.356-.018-.526-.07zM319.36 72.293c-.272-.98.302-1.998 1.292-2.26.98-.27 1.996.31 2.26 1.294.265.975-.31 1.993-1.29 2.26-.17.043-.33.063-.5.063-.8 0-1.544-.537-1.76-1.357zM521.127 73.424c-.98-.264-1.555-1.276-1.3-2.26.27-.986 1.29-1.565 2.27-1.292v-.01c.98.273 1.556 1.282 1.3 2.262-.226.824-.97 1.366-1.78 1.366-.16 0-.33-.02-.49-.066zM328.273 69.938c-.244-.994.358-1.988 1.35-2.23.978-.25 1.968.355 2.223 1.353.244.98-.357 1.98-1.348 2.225-.15.038-.292.057-.443.057-.82-.005-1.575-.566-1.782-1.404zM512.25 71.14c-.988-.25-1.602-1.24-1.355-2.23.245-.988 1.244-1.592 2.232-1.352.98.24 1.593 1.244 1.348 2.23-.196.838-.95 1.403-1.79 1.403-.142-.003-.293-.023-.434-.05zM337.234 67.794c-.227-.994.414-1.983 1.413-2.2.98-.22 1.97.405 2.187 1.4.217.998-.405 1.982-1.404 2.2-.122.027-.264.046-.395.046-.85 0-1.612-.584-1.8-1.446zM503.31 69.062c-.99-.217-1.62-1.196-1.404-2.195.217-1 1.206-1.63 2.195-1.413.99.217 1.61 1.206 1.404 2.195-.188.856-.942 1.45-1.79 1.45-.13 0-.274-.01-.405-.038zM346.252 65.867c-.198-.998.452-1.964 1.46-2.162 1-.198 1.96.452 2.158 1.456.198 1-.452 1.97-1.46 2.163-.113.023-.236.033-.35.033-.866 0-1.64-.607-1.808-1.49zM494.33 67.206h-.01c-.998-.188-1.64-1.16-1.45-2.158.188-1.008 1.148-1.658 2.157-1.46.988.198 1.647 1.154 1.46 2.158-.17.876-.94 1.488-1.81 1.488-.12.01-.234 0-.347-.028zM355.315 64.167c-.17-1.004.5-1.946 1.508-2.125 1-.18 1.95.504 2.13 1.503.16 1.003-.51 1.955-1.508 2.125-.104.02-.218.028-.312.028-.884.005-1.667-.632-1.818-1.53zM485.303 65.57c-1.008-.164-1.687-1.116-1.517-2.124.17-1 1.12-1.682 2.12-1.508 1.008.174 1.687 1.12 1.507 2.13-.142.9-.923 1.535-1.81 1.535-.1-.01-.206-.01-.3-.032zM364.408 62.688c-.15-1.003.557-1.94 1.555-2.087 1.008-.15 1.94.547 2.102 1.55.15 1.01-.557 1.947-1.563 2.088-.085.02-.18.02-.254.02-.926-.002-1.708-.652-1.84-1.57zM476.23 64.152c-1.01-.14-1.705-1.083-1.556-2.09.14-1 1.074-1.702 2.082-1.556 1.008.14 1.705 1.074 1.555 2.083-.12.917-.913 1.582-1.816 1.582-.085 0-.18-.005-.265-.02zM373.547 61.42c-.122-1.008.594-1.922 1.61-2.044 1.01-.123 1.923.603 2.045 1.61.133 1-.593 1.923-1.603 2.045-.085.01-.15.02-.227.02-.92 0-1.712-.693-1.826-1.63zM467.137 62.956c-1.008-.123-1.732-1.036-1.61-2.045.112-1.012 1.036-1.732 2.055-1.61 1.008.113 1.732 1.037 1.61 2.044-.112.938-.913 1.62-1.838 1.62-.065.006-.14.002-.217-.008zM382.706 60.384c-.094-1.008.64-1.908 1.658-2.007 1.018-.104 1.913.64 2.017 1.65.086 1.017-.65 1.916-1.667 2.015h-.17c-.942 0-1.752-.707-1.837-1.658zM458.007 61.985c-1.018-.1-1.752-1-1.658-2.016.094-1.01.988-1.763 2.006-1.664 1.02.1 1.754 1.003 1.668 2.012-.095.952-.904 1.667-1.837 1.667h-.18zM391.892 59.564c-.085-1.018.688-1.9 1.705-1.97 1.02-.07 1.896.692 1.97 1.71.065 1.01-.696 1.89-1.704 1.965-.05 0-.096.01-.133.01-.96-.01-1.77-.745-1.838-1.716zM448.868 61.223c-1.02-.07-1.78-.952-1.705-1.97.075-1.008.952-1.78 1.97-1.705 1.008.066 1.77.956 1.705 1.97-.076.974-.886 1.714-1.838 1.714-.047 0-.084-.01-.132-.01zM401.088 58.97c-.047-1.02.735-1.884 1.753-1.94 1.02-.047 1.885.745 1.932 1.762.05 1.008-.743 1.875-1.752 1.922-.038.004-.057.004-.095.004-.98 0-1.798-.768-1.837-1.747zM439.7 60.69c-1.018-.052-1.8-.91-1.752-1.927.057-1.008.914-1.8 1.932-1.752 1.008.04 1.8.905 1.753 1.923-.038.985-.856 1.757-1.838 1.757h-.094zM410.303 58.584c-.027-1.018.772-1.86 1.8-1.89 1.01-.022 1.865.783 1.885 1.8.02 1.022-.772 1.866-1.8 1.89h-.048c-.99 0-1.808-.792-1.837-1.8zM430.543 60.365c-1.02-.023-1.828-.867-1.8-1.885.02-1.018.866-1.818 1.884-1.8 1.018.024 1.828.867 1.8 1.894-.02 1-.84 1.8-1.847 1.8-.01-.01-.03-.01-.037-.01zM419.518 58.424c0-1.018.83-1.837 1.837-1.847 1.027 0 1.85.83 1.85 1.847.008 1.018-.82 1.838-1.84 1.838-1.018 0-1.847-.82-1.847-1.838z"/></g></svg>