<?xml version="1.0" encoding="utf-8"?>
<!-- Generator: Adobe Illustrator 22.1.0, SVG Export Plug-In . SVG Version: 6.00 Build 0)  -->
<svg version="1.1" id="圖層_1" xmlns="http://www.w3.org/2000/svg" xmlns:xlink="http://www.w3.org/1999/xlink" x="0px" y="0px"
	 viewBox="0 0 850.4 850.4" style="enable-background:new 0 0 850.4 850.4;" xml:space="preserve">
<style type="text/css">
	.st0{fill:#FFFFFF;enable-background:new    ;}
	.st1{fill:#FFFFFF;}
</style>
<path class="st0" d="M79.7,646.4l-9.3,5.9l0.8,1.3l-1.3,0.8c-0.8-0.7-1.6-1-2.3-0.9l-0.8-1.3l11.8-7.5L79.7,646.4L79.7,646.4z
	 M77.9,643.4l-1.7,1.1l-6.1-0.3c-0.1,0-0.2,0-0.5,0c-0.2,0-0.4,0-0.5,0h-0.4c-0.2,0-0.4,0-0.5,0c-0.1,0-0.3,0-0.4,0.1
	c-0.2,0-0.3,0.1-0.5,0.1c-0.1,0-0.3,0.1-0.5,0.2c-0.2,0.1-0.3,0.2-0.5,0.3c-0.5,0.3-0.8,0.7-1,1.1c-0.2,0.4-0.2,0.8,0.1,1.2
	c0.2,0.2,0.3,0.4,0.6,0.5c0.2,0.1,0.5,0.1,0.7,0.1c0.3,0,0.5-0.1,0.8-0.2c0.3-0.1,0.5-0.3,0.8-0.4l0.4-0.3l1.1,1.7l-0.4,0.3
	c-1.1,0.7-2.1,1-3,0.9c-0.9-0.1-1.7-0.6-2.3-1.7c-0.6-1-0.8-1.9-0.6-2.7c0.2-0.8,0.8-1.6,1.8-2.2c0.4-0.2,0.7-0.4,1.1-0.5
	c0.4-0.1,0.7-0.2,1.1-0.3c0.4,0,0.7-0.1,1-0.1c0.3,0,0.6,0,1,0l5.7,0.5l-2.7-4.2l1.7-1.1L77.9,643.4L77.9,643.4z M71.8,633.5
	c0.4,0.6,0.6,1.3,0.6,1.9c0,0.6-0.2,1.2-0.6,1.8c-0.4,0.5-0.9,1-1.6,1.5l-5.1,3.2c-1.1,0.7-2.1,1-3,0.9c-0.9-0.1-1.7-0.6-2.3-1.6
	c-0.6-1-0.8-1.9-0.5-2.8c0.3-0.9,1-1.7,2.1-2.4l5-3.2c1.1-0.7,2.1-1,3-0.9C70.4,632,71.2,632.5,71.8,633.5L71.8,633.5z M70.4,634.4
	c-0.5-0.8-1.5-0.8-2.9,0.1l-5.1,3.2c-0.2,0.2-0.4,0.3-0.6,0.4c-0.2,0.1-0.3,0.3-0.5,0.5c-0.2,0.2-0.3,0.3-0.3,0.5
	c-0.1,0.2-0.1,0.4-0.1,0.6c0,0.2,0.1,0.4,0.2,0.6c0.1,0.2,0.3,0.4,0.5,0.5c0.2,0.1,0.4,0.2,0.5,0.2c0.2,0,0.4,0,0.6-0.1
	c0.2-0.1,0.4-0.1,0.6-0.2c0.2-0.1,0.4-0.2,0.6-0.4l5.1-3.2c0.3-0.2,0.5-0.4,0.7-0.5c0.2-0.2,0.4-0.4,0.5-0.6
	c0.2-0.2,0.2-0.5,0.2-0.7C70.6,634.8,70.5,634.6,70.4,634.4L70.4,634.4z M60.2,634l-0.6,1c-0.2-0.3-0.4-0.5-0.6-0.5
	c-0.2,0-0.5,0-0.8,0.2l0.5,0.8l-1.7,1.1l-1.1-1.7c0.6-0.4,1.2-0.7,1.6-1c0.2-0.1,0.5-0.3,0.6-0.3c0.2-0.1,0.4-0.1,0.5-0.2
	c0.2-0.1,0.4-0.1,0.5,0c0.2,0,0.3,0.1,0.4,0.2C59.9,633.7,60,633.8,60.2,634L60.2,634z M45.9,580.1c0.2,0.4,0.3,0.9,0.3,1.3
	c0,0.4-0.1,0.8-0.2,1.2c-0.2,0.4-0.4,0.7-0.7,1c-0.3,0.3-0.6,0.6-1,0.9c-0.4,0.3-0.8,0.5-1.3,0.7l-4.1,1.7c-0.5,0.2-1,0.4-1.5,0.5
	c-0.5,0.1-1,0.2-1.4,0.2c-0.5,0-0.9,0-1.3-0.1c-0.4-0.1-0.7-0.3-1.1-0.6c-0.3-0.3-0.6-0.7-0.8-1.2c-0.4-1-0.5-1.9-0.1-2.7
	c0.3-0.8,1.1-1.4,2.1-1.9l0.8,1.8c-0.6,0.3-1,0.6-1.3,0.9c-0.2,0.3-0.2,0.8,0,1.3c0.4,0.9,1.5,1,3.3,0.2l1.8-0.8
	c-0.8-0.1-1.3-0.6-1.7-1.4c-0.2-0.5-0.3-1-0.3-1.4c0-0.4,0.2-0.8,0.4-1.2c0.3-0.3,0.6-0.7,1-0.9c0.4-0.3,0.9-0.5,1.4-0.8
	c0.6-0.3,1.2-0.4,1.7-0.5c0.5-0.1,1.1-0.1,1.6,0c0.5,0.1,1,0.3,1.4,0.6C45.4,579.1,45.7,579.5,45.9,580.1L45.9,580.1z M44.5,581.5
	c0.1-0.3,0-0.5-0.1-0.8c-0.1-0.3-0.3-0.5-0.5-0.6c-0.2-0.1-0.4-0.2-0.7-0.2c-0.3,0-0.5,0-0.8,0.1c-0.3,0.1-0.6,0.2-0.9,0.3
	c-0.2,0.1-0.3,0.1-0.4,0.2c-0.1,0-0.2,0.1-0.4,0.2c-0.2,0.1-0.3,0.1-0.4,0.2c-0.1,0.1-0.2,0.1-0.3,0.2c-0.1,0.1-0.2,0.2-0.3,0.2
	c-0.1,0.1-0.1,0.1-0.2,0.2c-0.1,0.1-0.1,0.2-0.2,0.3c0,0.1,0,0.2-0.1,0.3c0,0.1,0,0.2,0,0.4c0,0.1,0.1,0.3,0.1,0.4
	c0.3,0.6,0.8,0.9,1.5,1l1.8-0.8c0.3-0.1,0.6-0.3,0.8-0.4c0.2-0.1,0.4-0.3,0.6-0.5C44.3,581.9,44.5,581.7,44.5,581.5L44.5,581.5z
	 M42.7,572.5c0.3,0.7,0.4,1.4,0.3,2c-0.1,0.6-0.4,1.2-0.9,1.6c-0.5,0.5-1.1,0.9-1.8,1.2l-5.5,2.3c-1.2,0.5-2.2,0.6-3.1,0.4
	c-0.9-0.3-1.6-0.9-2-2c-0.5-1.1-0.5-2,0-2.8c0.5-0.8,1.3-1.5,2.4-2l5.5-2.3c1.1-0.5,2.2-0.6,3.1-0.3S42.2,571.4,42.7,572.5
	L42.7,572.5z M41.2,573.1c-0.4-0.9-1.3-1-2.9-0.4l-5.5,2.3c-0.3,0.1-0.5,0.2-0.7,0.3c-0.2,0.1-0.4,0.2-0.6,0.4
	c-0.2,0.1-0.3,0.3-0.4,0.5c-0.1,0.2-0.1,0.3-0.2,0.5c0,0.2,0,0.4,0.1,0.7c0.1,0.2,0.2,0.4,0.4,0.5c0.2,0.1,0.3,0.2,0.5,0.2
	c0.2,0,0.4,0,0.6,0c0.2,0,0.5-0.1,0.7-0.1c0.2-0.1,0.4-0.2,0.7-0.3l5.5-2.3c0.3-0.1,0.6-0.3,0.8-0.4c0.2-0.1,0.4-0.3,0.6-0.5
	c0.2-0.2,0.3-0.4,0.4-0.7C41.3,573.6,41.3,573.4,41.2,573.1L41.2,573.1z M31.1,571.1l-0.7,0.8c-0.1-0.3-0.3-0.5-0.5-0.6
	c-0.2-0.1-0.5-0.1-0.8,0.1l0.4,0.9l-1.8,0.8l-0.8-1.8c0.7-0.3,1.3-0.5,1.7-0.7c0.3-0.1,0.5-0.2,0.7-0.2c0.2-0.1,0.4-0.1,0.6-0.1
	c0.2,0,0.4,0,0.5,0.1c0.1,0,0.3,0.1,0.4,0.3C30.9,570.7,31,570.9,31.1,571.1z M24.1,509.7l-3.5,0.8l0.9,3.9l-2.2,0.5l-8.7-1.5
	l-0.6-2.4l8.2-2l-0.4-1.5l1.8-0.4l0.4,1.5l3.5-0.8L24.1,509.7L24.1,509.7z M19.2,513l-0.5-1.9l-5.8,1.4L19.2,513L19.2,513z
	 M22.3,501.9c0.2,0.7,0.1,1.4-0.1,2c-0.2,0.6-0.6,1.1-1.1,1.5c-0.5,0.4-1.2,0.7-2,0.9l-5.8,1.4c-1.2,0.3-2.3,0.3-3.1-0.1
	c-0.8-0.4-1.4-1.1-1.7-2.3c-0.3-1.1-0.1-2.1,0.5-2.8c0.6-0.7,1.5-1.3,2.7-1.6l5.8-1.4c1.2-0.3,2.3-0.2,3.1,0.2
	C21.5,500,22,500.8,22.3,501.9L22.3,501.9z M20.7,502.3c-0.2-1-1.2-1.3-2.8-0.9l-5.8,1.4c-0.3,0.1-0.5,0.1-0.7,0.2
	c-0.2,0.1-0.4,0.2-0.6,0.3c-0.2,0.1-0.4,0.3-0.5,0.4c-0.1,0.1-0.2,0.3-0.3,0.5c0,0.2,0,0.4,0,0.7c0.1,0.2,0.1,0.4,0.3,0.6
	c0.1,0.1,0.3,0.3,0.5,0.3c0.2,0.1,0.4,0.1,0.6,0.1c0.2,0,0.5,0,0.7,0c0.2,0,0.5-0.1,0.7-0.1l5.8-1.4c0.3-0.1,0.6-0.2,0.9-0.3
	c0.3-0.1,0.5-0.2,0.7-0.4c0.2-0.2,0.4-0.4,0.5-0.6C20.8,502.8,20.8,502.5,20.7,502.3L20.7,502.3z M11.1,498.7l-0.9,0.7
	c-0.1-0.4-0.2-0.6-0.4-0.7c-0.2-0.1-0.4-0.1-0.8,0l0.2,1l-1.9,0.5l-0.5-1.9c0.7-0.2,1.3-0.3,1.8-0.4c0.3-0.1,0.5-0.1,0.7-0.1
	c0.2,0,0.4,0,0.6,0c0.2,0,0.4,0.1,0.5,0.1c0.1,0.1,0.3,0.2,0.4,0.3C11,498.2,11.1,498.4,11.1,498.7L11.1,498.7z M17.2,441.5
	c0.1,1.1-0.2,2-0.8,2.6c-0.6,0.6-1.5,1-2.6,1.1l-0.5,0l-0.1-2c0.3,0,0.6,0,0.8-0.1c0.2,0,0.4-0.1,0.7-0.2c0.2-0.1,0.4-0.2,0.5-0.3
	c0.1-0.1,0.2-0.3,0.3-0.5c0.1-0.2,0.1-0.4,0.1-0.7c0-0.3-0.1-0.5-0.2-0.7c-0.1-0.2-0.2-0.3-0.4-0.4c-0.1-0.1-0.3-0.2-0.6-0.2
	c-0.2,0-0.5-0.1-0.7-0.1c-0.2,0-0.5,0-0.8,0c-0.8,0.1-1.4,0.3-1.8,0.6c-0.4,0.3-0.6,0.9-0.5,1.6l-2,0.1c-0.1-0.7-0.2-1.2-0.6-1.5
	c-0.3-0.3-0.8-0.4-1.6-0.3c-0.7,0-1.1,0.2-1.5,0.4c-0.3,0.2-0.5,0.6-0.4,1.2c0,0.3,0.1,0.5,0.2,0.7c0.1,0.2,0.2,0.3,0.4,0.4
	c0.1,0.1,0.3,0.2,0.6,0.2c0.2,0,0.5,0.1,0.7,0.1c0.2,0,0.5,0,0.8,0l0.1,2l-0.5,0c-1.1,0.1-2-0.1-2.7-0.7c-0.7-0.5-1.1-1.4-1.1-2.5
	c-0.1-1.1,0.2-2,0.8-2.7c0.6-0.6,1.5-1,2.6-1.1c0.8,0,1.4,0.1,2,0.4c0.5,0.3,0.9,0.8,1.1,1.4c0.2-0.7,0.5-1.2,1.1-1.6
	c0.6-0.4,1.3-0.6,2.2-0.7c1.3-0.1,2.3,0.1,3.1,0.6C16.7,439.4,17.1,440.3,17.2,441.5L17.2,441.5z M16.6,433.4c0.1,0.8-0.1,1.4-0.4,2
	c-0.3,0.6-0.8,1-1.4,1.3c-0.6,0.3-1.3,0.5-2.1,0.5l-6,0.4c-1.3,0.1-2.3-0.1-3.1-0.6c-0.8-0.5-1.2-1.4-1.3-2.5
	c-0.1-1.2,0.2-2,0.9-2.7c0.7-0.6,1.7-1,3-1.1l6-0.4c1.2-0.1,2.3,0.1,3.1,0.7C16.1,431.4,16.5,432.2,16.6,433.4L16.6,433.4z
	 M15,433.5c-0.1-1-0.9-1.4-2.6-1.3l-6,0.4c-0.3,0-0.5,0-0.8,0.1c-0.2,0-0.4,0.1-0.7,0.2c-0.2,0.1-0.4,0.2-0.5,0.3
	c-0.1,0.1-0.3,0.3-0.3,0.5C4,433.8,4,434,4,434.3c0,0.3,0.1,0.5,0.2,0.6c0.1,0.2,0.2,0.3,0.4,0.4c0.2,0.1,0.4,0.2,0.6,0.2
	c0.2,0.1,0.5,0.1,0.7,0.1c0.2,0,0.5,0,0.8,0l6-0.4c0.3,0,0.6-0.1,0.9-0.1c0.3-0.1,0.5-0.2,0.8-0.3c0.2-0.1,0.4-0.3,0.5-0.5
	C14.9,434,15,433.8,15,433.5z M6.1,428.4l-1,0.6c0-0.4-0.1-0.6-0.3-0.8c-0.2-0.1-0.4-0.2-0.8-0.2l0.1,1l-2,0.1l-0.1-2
	c0.7-0.1,1.4-0.1,1.9-0.1c0.3,0,0.5,0,0.7,0c0.2,0,0.4,0,0.6,0.1c0.2,0,0.3,0.1,0.5,0.2c0.1,0.1,0.2,0.2,0.3,0.4
	C6,427.9,6.1,428.1,6.1,428.4L6.1,428.4z M20.7,373.7l-2-0.3l-4.4-4.2c-0.1-0.1-0.2-0.2-0.3-0.3c-0.2-0.2-0.3-0.3-0.3-0.3
	c-0.1-0.1-0.2-0.2-0.3-0.3c-0.2-0.1-0.3-0.2-0.4-0.3c-0.1-0.1-0.2-0.1-0.4-0.2c-0.2-0.1-0.3-0.2-0.4-0.2c-0.1,0-0.3-0.1-0.5-0.2
	c-0.2-0.1-0.4-0.1-0.6-0.1c-0.5-0.1-1,0-1.4,0.2c-0.4,0.2-0.7,0.5-0.8,1c0,0.3,0,0.5,0.1,0.8c0.1,0.2,0.3,0.4,0.5,0.6
	c0.2,0.1,0.5,0.3,0.7,0.3c0.3,0.1,0.6,0.2,0.9,0.2l0.5,0.1l-0.3,2l-0.5-0.1c-1.3-0.2-2.3-0.6-2.9-1.3c-0.6-0.7-0.8-1.6-0.7-2.8
	c0.2-1.1,0.6-1.9,1.4-2.4c0.7-0.5,1.6-0.6,2.8-0.5c0.4,0.1,0.8,0.2,1.2,0.3c0.4,0.1,0.7,0.3,1,0.5c0.3,0.2,0.6,0.4,0.8,0.6
	c0.2,0.2,0.5,0.4,0.8,0.7l3.9,4.1l0.8-4.9l2,0.3L20.7,373.7L20.7,373.7z M22.6,362.3c-0.2,1.2-0.7,2-1.5,2.5
	c-0.8,0.4-1.8,0.5-3.2,0.3l0.3-2l0.3,0c0.3,0,0.5,0.1,0.7,0.1c0.2,0,0.4,0,0.6,0c0.2,0,0.4-0.1,0.5-0.1c0.1-0.1,0.3-0.2,0.4-0.3
	c0.1-0.1,0.2-0.3,0.2-0.6c0-0.2,0-0.3,0-0.5c0-0.2-0.1-0.3-0.1-0.4c0-0.1-0.1-0.2-0.2-0.3c-0.1-0.1-0.2-0.2-0.3-0.3
	c-0.1-0.1-0.2-0.1-0.4-0.2c-0.2-0.1-0.3-0.1-0.5-0.2c-0.1,0-0.3-0.1-0.5-0.1c-0.2,0-0.4-0.1-0.5-0.1c-0.1,0-0.3-0.1-0.6-0.1
	c-0.1,0-0.2,0-0.3,0c-0.2,0-0.4-0.1-0.6-0.1c-0.2,0-0.3,0-0.5,0c-0.2,0-0.3,0-0.5,0c-0.1,0-0.3,0.1-0.4,0.1
	c-0.1,0.1-0.2,0.1-0.3,0.2s-0.2,0.2-0.2,0.4c-0.1,0.1-0.1,0.3-0.1,0.5c0,0.4,0,0.7,0.2,1s0.4,0.5,0.7,0.7l-0.3,1.7l-7.4-1.2l1-6.1
	l2,0.3l-0.7,4.3l3.3,0.7c-0.2-0.6-0.3-1.3-0.2-2c0.1-0.4,0.2-0.8,0.4-1.1c0.2-0.3,0.4-0.6,0.7-0.7c0.3-0.2,0.6-0.3,1-0.4
	c0.4-0.1,0.7-0.1,1.1-0.1c0.4,0,0.8,0,1.3,0.1c0.6,0.1,1.1,0.2,1.6,0.3c0.5,0.1,0.9,0.3,1.3,0.5c0.4,0.2,0.8,0.5,1,0.8
	c0.3,0.3,0.4,0.7,0.5,1.1C22.7,361.3,22.7,361.7,22.6,362.3L22.6,362.3z M13.5,355.3l-1.1,0.3c0.1-0.4,0-0.6-0.1-0.8
	c-0.1-0.2-0.4-0.3-0.7-0.4l-0.2,1l-2-0.3l0.3-2c0.7,0.1,1.4,0.2,1.9,0.3c0.3,0.1,0.5,0.1,0.7,0.2c0.2,0,0.4,0.1,0.5,0.2
	c0.2,0.1,0.3,0.2,0.4,0.3c0.1,0.1,0.2,0.3,0.2,0.5C13.6,354.8,13.6,355,13.5,355.3L13.5,355.3z M36.5,308.7l-1.9-0.5l-3.9-4.6
	c0,0-0.1-0.2-0.3-0.4c-0.2-0.2-0.3-0.3-0.3-0.4c-0.1-0.1-0.1-0.2-0.3-0.3c-0.1-0.2-0.3-0.3-0.3-0.3c-0.1-0.1-0.2-0.2-0.4-0.3
	c-0.1-0.1-0.3-0.2-0.4-0.3c-0.1-0.1-0.3-0.1-0.4-0.2c-0.2-0.1-0.4-0.1-0.5-0.2c-0.5-0.1-1-0.1-1.5,0c-0.4,0.1-0.7,0.5-0.8,0.9
	c-0.1,0.3-0.1,0.5,0,0.8c0.1,0.2,0.2,0.4,0.5,0.6c0.2,0.2,0.5,0.3,0.7,0.4c0.3,0.1,0.5,0.2,0.9,0.3l0.5,0.1l-0.5,1.9l-0.5-0.1
	c-1.3-0.3-2.2-0.9-2.7-1.6c-0.6-0.7-0.7-1.7-0.4-2.8c0.3-1.1,0.8-1.8,1.6-2.3c0.8-0.4,1.7-0.5,2.8-0.2c0.4,0.1,0.8,0.2,1.1,0.4
	c0.3,0.2,0.7,0.4,1,0.6c0.3,0.2,0.5,0.5,0.7,0.6c0.2,0.2,0.4,0.4,0.7,0.8l3.5,4.5l1.3-4.8l1.9,0.5L36.5,308.7L36.5,308.7z
	 M39.6,297.5c-0.2,0.7-0.5,1.3-1,1.7c-0.5,0.4-1,0.7-1.7,0.8c-0.7,0.1-1.4,0-2.2-0.2l-5.8-1.5c-1.2-0.3-2.1-0.9-2.7-1.6
	c-0.6-0.8-0.7-1.7-0.4-2.8c0.3-1.1,0.9-1.9,1.7-2.2c0.9-0.4,1.9-0.4,3.1-0.1l5.8,1.5c1.2,0.3,2.1,0.9,2.7,1.6
	C39.7,295.4,39.9,296.4,39.6,297.5L39.6,297.5z M38,297c0.2-1-0.4-1.7-2-2.1l-5.8-1.5c-0.3-0.1-0.5-0.1-0.7-0.2c-0.2,0-0.4,0-0.7,0
	c-0.2,0-0.4,0-0.6,0.1c-0.2,0.1-0.3,0.2-0.5,0.3c-0.1,0.2-0.2,0.4-0.3,0.6c-0.1,0.2-0.1,0.5,0,0.7c0,0.2,0.1,0.4,0.2,0.5
	c0.1,0.1,0.3,0.3,0.5,0.4c0.2,0.1,0.4,0.2,0.6,0.3c0.2,0.1,0.4,0.1,0.7,0.2l5.8,1.5c0.3,0.1,0.6,0.1,0.9,0.2c0.3,0,0.5,0,0.8,0
	c0.3,0,0.5-0.1,0.7-0.3C37.8,297.6,37.9,297.3,38,297L38,297z M31.3,289.4l-1.1,0.2c0.1-0.3,0.1-0.6,0-0.8c-0.1-0.2-0.3-0.3-0.7-0.4
	l-0.3,1l-1.9-0.5l0.5-1.9c0.7,0.2,1.3,0.4,1.8,0.5c0.3,0.1,0.5,0.1,0.7,0.2c0.2,0.1,0.4,0.2,0.5,0.3c0.2,0.1,0.3,0.2,0.4,0.4
	c0.1,0.1,0.1,0.3,0.1,0.5C31.4,288.9,31.3,289.1,31.3,289.4L31.3,289.4z M65.1,238.1l-9.6-5.3l-0.7,1.3l-1.3-0.7
	c0.2-1,0.1-1.9-0.3-2.5l0.7-1.3l12.2,6.7L65.1,238.1L65.1,238.1z M67.2,234.2l-9.5-8.2l-1.8,3.2l-1.5-0.8l2.7-4.9L58,224l10.1,8.5
	L67.2,234.2L67.2,234.2z M61.6,223.7l-1.1,0c0.2-0.3,0.2-0.6,0.2-0.8s-0.2-0.4-0.6-0.6l-0.5,0.9l-1.7-1l1-1.7
	c0.7,0.4,1.2,0.7,1.6,0.9c0.2,0.1,0.4,0.3,0.6,0.4c0.2,0.1,0.3,0.2,0.4,0.4c0.1,0.2,0.2,0.3,0.3,0.4c0,0.1,0.1,0.3,0,0.5
	C61.8,223.3,61.7,223.5,61.6,223.7L61.6,223.7z M103.9,184.7l-8.5-6.9l-1,1.2l-1.1-0.9c0.4-1,0.4-1.8,0.1-2.5l0.9-1.2l10.8,8.8
	L103.9,184.7L103.9,184.7z M108.6,179.2c-0.8,1-1.6,1.4-2.5,1.4c-0.9,0-1.8-0.5-2.9-1.3l1.3-1.5l0.2,0.2c0.2,0.2,0.4,0.3,0.5,0.4
	c0.2,0.1,0.3,0.2,0.5,0.3c0.2,0.1,0.4,0.1,0.5,0.1c0.2,0,0.3,0,0.5-0.1c0.2-0.1,0.3-0.2,0.5-0.4c0.1-0.1,0.2-0.3,0.3-0.4
	c0.1-0.1,0.1-0.3,0.1-0.4c0-0.1,0-0.3,0-0.4c0-0.1-0.1-0.3-0.1-0.4c0-0.1-0.1-0.2-0.2-0.4c-0.1-0.1-0.2-0.3-0.3-0.4
	c-0.1-0.1-0.2-0.2-0.4-0.4c-0.2-0.2-0.3-0.3-0.4-0.4c-0.1-0.1-0.3-0.2-0.4-0.4c-0.1-0.1-0.2-0.1-0.2-0.2c-0.2-0.1-0.3-0.3-0.4-0.4
	c-0.1-0.1-0.3-0.2-0.4-0.3c-0.2-0.1-0.3-0.2-0.4-0.2c-0.1,0-0.3-0.1-0.4-0.1c-0.1,0-0.3,0-0.4,0c-0.1,0-0.3,0.1-0.4,0.2
	c-0.1,0.1-0.3,0.2-0.4,0.4c-0.2,0.3-0.3,0.6-0.3,0.9c0,0.4,0.1,0.7,0.3,1l-1.1,1.3l-5.8-4.8l3.9-4.8l1.5,1.3l-2.8,3.4l2.5,2.2
	c0.1-0.6,0.4-1.3,0.9-1.9c0.3-0.4,0.6-0.6,0.9-0.8c0.3-0.2,0.6-0.3,1-0.3c0.3,0,0.7,0,1,0.1c0.4,0.1,0.7,0.3,1.1,0.5
	c0.3,0.2,0.7,0.5,1.1,0.8c0.5,0.4,0.9,0.7,1.2,1.1c0.3,0.4,0.6,0.7,0.9,1.1c0.2,0.4,0.4,0.8,0.5,1.2c0.1,0.4,0,0.8-0.1,1.2
	C109.1,178.4,108.9,178.8,108.6,179.2L108.6,179.2z M104.2,168.6l-1.1-0.2c0.2-0.3,0.3-0.5,0.3-0.7c0-0.2-0.2-0.4-0.5-0.7l-0.6,0.8
	l-1.5-1.3l1.3-1.5c0.6,0.5,1.1,0.9,1.4,1.2c0.2,0.2,0.4,0.3,0.5,0.5c0.1,0.1,0.3,0.3,0.4,0.5c0.1,0.2,0.2,0.3,0.2,0.5
	c0,0.1,0,0.3-0.1,0.5C104.5,168.2,104.4,168.4,104.2,168.6L104.2,168.6z M152.4,134.1l-7-8.4l-1.1,0.9l-0.9-1.2
	c0.5-0.9,0.7-1.7,0.6-2.4l1.2-1l8.9,10.7L152.4,134.1L152.4,134.1z M155.1,131.8l-1.3-1.5l-0.5-6.1c0-0.1,0-0.2,0-0.5
	c0-0.2,0-0.4,0-0.5c0-0.1,0-0.2,0-0.4c0-0.2-0.1-0.4-0.1-0.5c0-0.1-0.1-0.2-0.1-0.4c-0.1-0.2-0.1-0.3-0.2-0.5
	c-0.1-0.1-0.1-0.3-0.2-0.4c-0.1-0.2-0.2-0.3-0.3-0.5c-0.4-0.4-0.8-0.7-1.2-0.8c-0.5-0.1-0.9,0-1.2,0.3c-0.2,0.2-0.4,0.4-0.4,0.6
	c-0.1,0.2-0.1,0.5,0,0.7c0.1,0.3,0.2,0.5,0.3,0.8c0.1,0.2,0.3,0.5,0.5,0.7l0.3,0.4l-1.5,1.3l-0.3-0.4c-0.8-1-1.3-2-1.3-2.9
	c0-0.9,0.4-1.7,1.3-2.5c0.9-0.7,1.7-1,2.6-0.9c0.9,0.1,1.7,0.6,2.4,1.5c0.3,0.3,0.5,0.7,0.7,1c0.2,0.3,0.3,0.7,0.4,1.1
	c0.1,0.4,0.1,0.7,0.2,0.9c0,0.3,0.1,0.6,0.1,1l0.2,5.7l3.8-3.2l1.3,1.5L155.1,131.8L155.1,131.8z M155.6,118.5l-1-0.4
	c0.3-0.2,0.4-0.5,0.4-0.7c0-0.2-0.1-0.5-0.3-0.7l-0.8,0.6l-1.3-1.5l1.5-1.3c0.5,0.6,0.9,1.1,1.2,1.5c0.2,0.2,0.3,0.4,0.4,0.6
	c0.1,0.2,0.2,0.3,0.3,0.5c0.1,0.2,0.1,0.4,0.1,0.5c0,0.2-0.1,0.3-0.1,0.5C156,118.2,155.8,118.3,155.6,118.5L155.6,118.5z
	 M207.3,95.7l-5.5-9.5l-1.3,0.8l-0.7-1.3c0.7-0.8,1-1.6,1-2.3l1.3-0.7l7,12.1L207.3,95.7L207.3,95.7z M213.6,92.2
	c-0.7,0.4-1.3,0.5-1.9,0.5c-0.6,0-1.2-0.3-1.7-0.7c-0.5-0.4-1-1-1.4-1.7l-3-5.2c-0.6-1.1-0.9-2.1-0.8-3.1c0.1-0.9,0.7-1.7,1.7-2.3
	c1-0.6,1.9-0.7,2.8-0.3c0.9,0.3,1.6,1.1,2.3,2.2l3,5.2c0.6,1.1,0.9,2.1,0.7,3C215.2,90.9,214.6,91.6,213.6,92.2L213.6,92.2z
	 M212.8,90.8c0.9-0.5,0.9-1.5,0-2.9l-3-5.2c-0.1-0.2-0.3-0.5-0.4-0.6c-0.1-0.2-0.3-0.4-0.4-0.5c-0.2-0.2-0.3-0.3-0.5-0.4
	c-0.2-0.1-0.4-0.1-0.6-0.1c-0.2,0-0.4,0.1-0.6,0.2c-0.2,0.1-0.4,0.3-0.5,0.4c-0.1,0.2-0.2,0.3-0.2,0.5c0,0.2,0,0.4,0.1,0.6
	c0.1,0.2,0.1,0.4,0.2,0.6c0.1,0.2,0.2,0.4,0.4,0.7l3,5.2c0.2,0.3,0.3,0.5,0.5,0.8c0.2,0.2,0.4,0.4,0.6,0.6c0.2,0.2,0.5,0.3,0.7,0.3
	C212.3,91,212.5,90.9,212.8,90.8L212.8,90.8z M213.5,80.6l-0.9-0.6c0.3-0.2,0.5-0.4,0.6-0.6c0-0.2,0-0.5-0.2-0.8l-0.9,0.5l-1-1.7
	l1.7-1c0.4,0.7,0.7,1.2,0.9,1.6c0.1,0.3,0.2,0.5,0.3,0.6c0.1,0.2,0.1,0.4,0.2,0.6c0,0.2,0,0.4,0,0.5c0,0.1-0.1,0.3-0.2,0.4
	C213.9,80.3,213.7,80.5,213.5,80.6L213.5,80.6z M270.8,64.4c-1.2,0.4-2.1,0.4-2.9-0.1c-0.8-0.5-1.4-1.4-1.8-2.6
	c-0.3-0.8-0.4-1.5-0.4-2.1c0-0.6,0.3-1.1,0.6-1.6c-0.5-0.2-1-0.5-1.4-0.8c-0.4-0.4-0.7-0.9-0.9-1.6c-0.4-1.1-0.4-2-0.1-2.8
	c0.3-0.8,1-1.3,2-1.7c1-0.4,1.9-0.3,2.6,0.1c0.7,0.4,1.3,1.2,1.7,2.2c0.2,0.7,0.3,1.3,0.3,1.9c0,0.5-0.2,1-0.5,1.5
	c0.6,0.1,1.1,0.4,1.5,0.8c0.4,0.4,0.7,1,1,1.8c0.4,1.2,0.5,2.3,0.2,3.1C272.7,63.4,272,64,270.8,64.4L270.8,64.4z M268,56.5
	c0.3-0.1,0.4-0.2,0.6-0.4c0.1-0.2,0.2-0.4,0.2-0.6c0-0.2,0-0.5-0.1-0.7c-0.1-0.2-0.1-0.5-0.2-0.8c-0.5-1.2-1.1-1.7-1.8-1.5
	c-0.8,0.3-1,1-0.5,2.3c0.1,0.3,0.2,0.5,0.3,0.8c0.1,0.2,0.2,0.4,0.4,0.6c0.1,0.2,0.3,0.3,0.5,0.3C267.6,56.6,267.8,56.6,268,56.5
	L268,56.5z M269.6,63c0.2,0,0.4,0,0.7-0.1c0.2-0.1,0.4-0.2,0.6-0.4c0.1-0.2,0.2-0.3,0.3-0.5c0-0.2,0.1-0.4,0-0.6
	c0-0.2-0.1-0.5-0.1-0.7c-0.1-0.2-0.1-0.5-0.2-0.7c-0.1-0.3-0.2-0.6-0.4-0.8c-0.1-0.2-0.3-0.4-0.5-0.6c-0.2-0.2-0.4-0.3-0.6-0.4
	c-0.2-0.1-0.5,0-0.8,0.1c-0.3,0.1-0.5,0.2-0.6,0.4c-0.1,0.2-0.2,0.4-0.3,0.7c0,0.3,0,0.5,0,0.8c0,0.3,0.1,0.5,0.2,0.9
	c0.1,0.3,0.2,0.5,0.3,0.7c0.1,0.2,0.2,0.4,0.3,0.6c0.1,0.2,0.3,0.3,0.4,0.4C269.2,62.9,269.4,62.9,269.6,63L269.6,63z M272.6,53.1
	l-0.8-0.8c0.3-0.1,0.6-0.3,0.6-0.5c0.1-0.2,0.1-0.5,0-0.8l-0.9,0.3l-0.7-1.9l1.9-0.7c0.3,0.7,0.5,1.3,0.6,1.8
	c0.1,0.3,0.1,0.5,0.2,0.7c0,0.2,0.1,0.4,0.1,0.6c0,0.2,0,0.4-0.1,0.5c-0.1,0.1-0.2,0.3-0.3,0.4C273.1,52.9,272.9,53,272.6,53.1z
	 M340.3,46l-0.5-12.5l-3.6,0.9l-0.4-1.6l5.4-1.3l0.2,0.9l0.6,13.2L340.3,46L340.3,46z M344.2,34.8l-0.7-0.8c0.4-0.1,0.6-0.2,0.7-0.4
	c0.1-0.2,0.1-0.5,0-0.8l-1,0.2l-0.5-1.9l1.9-0.5c0.2,0.7,0.3,1.3,0.4,1.8c0.1,0.3,0.1,0.5,0.1,0.7c0,0.2,0,0.4,0,0.6
	c0,0.2-0.1,0.4-0.1,0.5c-0.1,0.1-0.2,0.3-0.3,0.4S344.4,34.8,344.2,34.8L344.2,34.8z M411.2,38.5c-0.5,0-0.9-0.1-1.3-0.2
	c-0.4-0.2-0.7-0.4-1-0.7c-0.3-0.3-0.5-0.6-0.7-1c-0.2-0.4-0.3-0.8-0.4-1.3c-0.1-0.5-0.1-0.9-0.1-1.4l0-4.5c0-0.6,0-1.1,0.1-1.6
	c0.1-0.5,0.2-1,0.3-1.4c0.2-0.4,0.4-0.8,0.6-1.1c0.3-0.3,0.6-0.6,1-0.7s0.9-0.3,1.4-0.3c1.1,0,2,0.3,2.6,1c0.6,0.6,0.9,1.5,0.9,2.7
	h-2c0-0.7-0.1-1.2-0.3-1.5c-0.2-0.3-0.6-0.5-1.2-0.5c-1,0-1.5,1-1.5,3l0,2c0.4-0.7,1-1,2-1c0.6,0,1,0.1,1.4,0.3
	c0.4,0.2,0.7,0.5,0.9,0.8c0.2,0.4,0.4,0.8,0.5,1.2c0.1,0.5,0.1,1,0.1,1.6c0,0.7-0.1,1.3-0.2,1.8c-0.1,0.5-0.3,1-0.6,1.5
	c-0.3,0.4-0.6,0.8-1.1,1C412.3,38.4,411.8,38.5,411.2,38.5L411.2,38.5z M410.5,36.6c0.2,0.1,0.5,0.2,0.7,0.2c0.3,0,0.5-0.1,0.7-0.2
	c0.2-0.1,0.4-0.3,0.5-0.6c0.1-0.3,0.2-0.5,0.2-0.8c0-0.3,0.1-0.6,0.1-0.9v-0.4c0-0.1,0-0.2,0-0.4c0-0.2,0-0.3,0-0.4
	c0-0.1,0-0.2-0.1-0.4c0-0.2,0-0.3-0.1-0.4c0-0.1-0.1-0.2-0.1-0.3c-0.1-0.1-0.1-0.2-0.2-0.3c-0.1-0.1-0.1-0.1-0.3-0.2
	c-0.1-0.1-0.2-0.1-0.3-0.1c-0.1,0-0.3,0-0.4,0c-0.6,0-1.1,0.3-1.5,1v2c0,0.3,0,0.6,0.1,0.9c0.1,0.3,0.1,0.5,0.2,0.8
	C410.1,36.3,410.3,36.5,410.5,36.6L410.5,36.6z M416.7,28.4l-0.5-1c0.4,0,0.6-0.1,0.8-0.2c0.1-0.2,0.2-0.4,0.2-0.8h-1l0-2l2,0
	c0,0.7,0,1.4,0,1.9c0,0.3,0,0.5,0,0.7c0,0.2-0.1,0.4-0.1,0.6c-0.1,0.2-0.1,0.3-0.2,0.5c-0.1,0.1-0.2,0.2-0.4,0.3
	C417.2,28.3,417,28.4,416.7,28.4L416.7,28.4z M485.2,40.7c-1.2-0.2-2-0.7-2.4-1.5c-0.4-0.8-0.5-1.8-0.2-3.2l2,0.3l0,0.3
	c0,0.3-0.1,0.5-0.1,0.7c0,0.2,0,0.4,0,0.6c0,0.2,0.1,0.4,0.1,0.5c0.1,0.1,0.2,0.3,0.3,0.4c0.1,0.1,0.3,0.2,0.6,0.2
	c0.2,0,0.3,0,0.5,0c0.1,0,0.3,0,0.4-0.1c0.1,0,0.2-0.1,0.3-0.2c0.1-0.1,0.2-0.2,0.3-0.3c0.1-0.1,0.1-0.2,0.2-0.4
	c0.1-0.2,0.1-0.3,0.2-0.5c0-0.1,0.1-0.3,0.1-0.5c0-0.2,0.1-0.4,0.1-0.5c0-0.1,0.1-0.3,0.1-0.6c0-0.1,0-0.2,0-0.3
	c0-0.2,0.1-0.4,0.1-0.6c0-0.2,0-0.3,0-0.5c0-0.2,0-0.3,0-0.5c0-0.1,0-0.3-0.1-0.4c-0.1-0.1-0.1-0.3-0.2-0.3
	c-0.1-0.1-0.2-0.2-0.4-0.2c-0.1-0.1-0.3-0.1-0.5-0.2c-0.3-0.1-0.7,0-1,0.2c-0.3,0.2-0.5,0.4-0.7,0.7l-1.7-0.3l1.3-7.4l6.1,1.1
	l-0.4,2l-4.3-0.8l-0.7,3.3c0.6-0.2,1.3-0.3,2.1-0.1c0.4,0.1,0.8,0.2,1.1,0.4c0.3,0.2,0.6,0.4,0.7,0.7c0.2,0.3,0.3,0.6,0.4,1
	c0.1,0.4,0.1,0.8,0.1,1.2c0,0.4-0.1,0.8-0.1,1.3c-0.1,0.6-0.2,1.1-0.4,1.6c-0.1,0.5-0.3,0.9-0.6,1.3c-0.2,0.4-0.5,0.7-0.8,1
	c-0.3,0.2-0.7,0.4-1.1,0.5C486.2,40.8,485.7,40.8,485.2,40.7L485.2,40.7z M489.9,43.4l-0.3-1.1c0.4,0.1,0.6,0,0.8-0.1
	c0.2-0.1,0.3-0.4,0.4-0.7l-1-0.2l0.4-2l2,0.3c-0.1,0.7-0.3,1.4-0.4,1.8c-0.1,0.3-0.1,0.5-0.2,0.7c-0.1,0.2-0.1,0.4-0.2,0.5
	c-0.1,0.2-0.2,0.3-0.3,0.4c-0.1,0.1-0.3,0.2-0.5,0.2C490.3,43.5,490.1,43.5,489.9,43.4L489.9,43.4z M496.5,42.7
	c-0.5-0.1-0.9-0.2-1.2-0.5c-0.4-0.2-0.6-0.5-0.9-0.8c-0.2-0.3-0.4-0.7-0.5-1.1c-0.1-0.4-0.2-0.9-0.2-1.3s0-0.9,0.1-1.4l0.8-4.4
	c0.1-0.6,0.2-1.1,0.4-1.5c0.1-0.5,0.4-0.9,0.6-1.3c0.2-0.4,0.5-0.7,0.8-1c0.3-0.3,0.7-0.4,1.1-0.5c0.4-0.1,0.9-0.1,1.4,0
	c1.1,0.2,1.9,0.7,2.4,1.4c0.5,0.7,0.6,1.7,0.4,2.8l-2-0.3c0.1-0.6,0.1-1.2-0.1-1.5c-0.1-0.4-0.5-0.6-1.1-0.7c-1-0.2-1.6,0.7-2,2.7
	l-0.4,2c0.5-0.6,1.2-0.8,2.1-0.6c0.5,0.1,1,0.3,1.4,0.5c0.4,0.3,0.6,0.6,0.8,1c0.1,0.4,0.2,0.8,0.2,1.3c0,0.5,0,1-0.1,1.6
	c-0.1,0.6-0.3,1.2-0.5,1.7c-0.2,0.5-0.5,1-0.8,1.3c-0.3,0.4-0.8,0.7-1.3,0.8C497.7,42.8,497.1,42.8,496.5,42.7L496.5,42.7z
	 M496.1,40.8c0.2,0.2,0.4,0.3,0.7,0.3c0.3,0,0.5,0,0.8-0.1c0.2-0.1,0.4-0.3,0.6-0.5c0.1-0.2,0.3-0.5,0.4-0.7
	c0.1-0.3,0.2-0.6,0.2-0.9c0-0.2,0.1-0.3,0.1-0.4c0-0.1,0-0.2,0.1-0.4c0-0.2,0-0.3,0-0.4c0-0.1,0-0.2,0-0.4c0-0.2,0-0.3,0-0.4
	c0-0.1,0-0.2-0.1-0.3c0-0.1-0.1-0.2-0.1-0.3l-0.2-0.2c-0.1-0.1-0.2-0.1-0.3-0.2c-0.1,0-0.3-0.1-0.4-0.1c-0.6-0.1-1.2,0.1-1.6,0.7
	l-0.4,2c-0.1,0.3-0.1,0.6-0.1,0.9c0,0.3,0,0.5,0.1,0.8C495.9,40.4,496,40.6,496.1,40.8L496.1,40.8z M503.8,33.8l-0.3-1.1
	c0.4,0.1,0.6,0,0.8-0.1c0.2-0.1,0.3-0.4,0.4-0.7l-1-0.2l0.4-2l2,0.4c-0.1,0.7-0.3,1.4-0.4,1.9c-0.1,0.3-0.1,0.5-0.2,0.7
	c-0.1,0.2-0.1,0.4-0.2,0.5c-0.1,0.2-0.2,0.3-0.3,0.4c-0.1,0.1-0.3,0.2-0.5,0.2C504.2,33.8,504,33.8,503.8,33.8L503.8,33.8z M560,61
	c-1.2-0.4-1.9-1-2.1-1.9c-0.3-0.8-0.2-1.9,0.3-3.2l1.9,0.7l-0.1,0.3c-0.1,0.2-0.2,0.5-0.2,0.7c0,0.2-0.1,0.4-0.1,0.6
	c0,0.2,0,0.4,0,0.5c0,0.2,0.1,0.3,0.3,0.4c0.1,0.1,0.3,0.2,0.5,0.3c0.2,0.1,0.3,0.1,0.5,0.1c0.2,0,0.3,0,0.4,0
	c0.1,0,0.2-0.1,0.4-0.2l0.3-0.3c0.1-0.1,0.2-0.2,0.3-0.4c0.1-0.2,0.2-0.3,0.2-0.4c0.1-0.1,0.1-0.3,0.2-0.5c0.1-0.2,0.2-0.4,0.2-0.5
	c0-0.1,0.1-0.3,0.2-0.5c0-0.1,0.1-0.2,0.1-0.2c0.1-0.2,0.1-0.4,0.2-0.5c0-0.1,0.1-0.3,0.1-0.5c0-0.2,0.1-0.3,0.1-0.5
	c0-0.1,0-0.3,0-0.4c0-0.1-0.1-0.3-0.1-0.4c-0.1-0.1-0.2-0.2-0.3-0.3c-0.1-0.1-0.3-0.2-0.5-0.2c-0.3-0.1-0.7-0.1-1,0
	c-0.3,0.1-0.6,0.3-0.8,0.6l-1.6-0.6l2.6-7.1l5.8,2.1l-0.7,1.9l-4.1-1.5l-1.3,3.1c0.6-0.1,1.3-0.1,2,0.2c0.4,0.2,0.8,0.4,1.1,0.6
	c0.3,0.3,0.5,0.5,0.6,0.8c0.1,0.3,0.2,0.6,0.2,1c0,0.4,0,0.8-0.1,1.2c-0.1,0.4-0.2,0.8-0.4,1.3c-0.2,0.6-0.4,1.1-0.6,1.5
	c-0.2,0.4-0.5,0.8-0.8,1.2c-0.3,0.4-0.6,0.6-1,0.8c-0.3,0.2-0.7,0.3-1.2,0.3C561,61.3,560.5,61.2,560,61L560,61z M568.6,53.4
	l-0.1-1.1c0.3,0.1,0.6,0.1,0.8,0c0.2-0.1,0.3-0.3,0.5-0.6l-0.9-0.3l0.7-1.9l1.9,0.7c-0.3,0.7-0.5,1.3-0.7,1.8
	c-0.1,0.3-0.2,0.5-0.3,0.7c-0.1,0.2-0.2,0.3-0.3,0.5c-0.1,0.2-0.2,0.3-0.4,0.3c-0.1,0.1-0.3,0.1-0.5,0.1
	C569,53.5,568.8,53.5,568.6,53.4L568.6,53.4z M619.5,84.4l1.7-3.2l-3.5-1.9l1-2l6.9-5.6l2.2,1.2l-3.9,7.5l1.4,0.7l-0.9,1.7l-1.4-0.7
	l-1.7,3.2L619.5,84.4L619.5,84.4z M620.3,78.7l1.8,0.9l2.8-5.3L620.3,78.7L620.3,78.7z M622.9,88.5l0-1.1c0.3,0.2,0.6,0.2,0.8,0.2
	c0.2-0.1,0.4-0.3,0.6-0.6l-0.9-0.5l0.9-1.8l1.8,0.9c-0.3,0.7-0.6,1.2-0.9,1.7c-0.1,0.2-0.3,0.4-0.4,0.6c-0.1,0.2-0.2,0.3-0.4,0.5
	c-0.1,0.1-0.3,0.2-0.4,0.3c-0.1,0-0.3,0.1-0.5,0C623.3,88.7,623.1,88.6,622.9,88.5L622.9,88.5z M629.5,89.9c-0.4-0.2-0.8-0.5-1-0.8
	c-0.3-0.3-0.5-0.7-0.6-1c-0.1-0.4-0.1-0.8-0.1-1.2c0-0.4,0.1-0.9,0.2-1.3c0.1-0.4,0.3-0.9,0.6-1.3l2.1-4c0.3-0.5,0.5-1,0.8-1.4
	c0.3-0.4,0.6-0.8,1-1.1c0.4-0.3,0.7-0.6,1.1-0.7c0.4-0.2,0.8-0.2,1.2-0.2c0.4,0,0.9,0.2,1.4,0.4c1,0.5,1.6,1.2,1.8,2
	c0.2,0.8,0.1,1.8-0.5,2.8l-1.8-0.9c0.3-0.6,0.4-1.1,0.4-1.5c0-0.4-0.3-0.7-0.8-1c-0.9-0.5-1.8,0.2-2.7,1.9l-0.9,1.8
	c0.7-0.4,1.4-0.4,2.2,0c0.5,0.3,0.9,0.6,1.1,0.9c0.3,0.4,0.4,0.8,0.4,1.2c0,0.4,0,0.9-0.2,1.3c-0.1,0.5-0.3,0.9-0.6,1.5
	c-0.3,0.6-0.6,1.1-1,1.5c-0.4,0.4-0.8,0.8-1.2,1c-0.4,0.3-0.9,0.4-1.4,0.4C630.6,90.3,630,90.2,629.5,89.9L629.5,89.9z M629.7,87.9
	c0.1,0.2,0.3,0.4,0.5,0.5c0.3,0.1,0.5,0.2,0.8,0.2c0.2,0,0.5-0.1,0.7-0.3c0.2-0.2,0.4-0.4,0.6-0.6c0.2-0.2,0.3-0.5,0.5-0.8
	c0.1-0.2,0.2-0.3,0.2-0.4c0-0.1,0.1-0.2,0.2-0.4c0.1-0.2,0.1-0.3,0.2-0.4c0-0.1,0.1-0.2,0.1-0.4c0.1-0.1,0.1-0.3,0.1-0.4
	c0-0.1,0-0.2,0-0.3c0-0.1,0-0.2,0-0.3c0-0.1-0.1-0.2-0.1-0.3c-0.1-0.1-0.1-0.2-0.2-0.3c-0.1-0.1-0.2-0.2-0.3-0.2
	c-0.6-0.3-1.2-0.2-1.8,0.2l-0.9,1.8c-0.2,0.3-0.3,0.6-0.4,0.8c-0.1,0.3-0.1,0.5-0.2,0.8C629.5,87.4,629.6,87.7,629.7,87.9
	L629.7,87.9z M639.1,83.5l0-1.1c0.3,0.2,0.6,0.2,0.8,0.2c0.2-0.1,0.4-0.3,0.6-0.6l-0.9-0.5l0.9-1.8l1.8,0.9
	c-0.3,0.7-0.6,1.2-0.9,1.7c-0.1,0.2-0.3,0.4-0.4,0.6c-0.1,0.2-0.2,0.3-0.4,0.4c-0.1,0.1-0.3,0.2-0.4,0.3c-0.1,0-0.3,0.1-0.5,0
	C639.5,83.7,639.3,83.6,639.1,83.5L639.1,83.5z M681.8,124.6l2.2-2.8l-3.1-2.5l1.4-1.7l7.8-4.2l2,1.5l-5.3,6.6l1.2,1l-1.2,1.5
	l-1.2-0.9l-2.2,2.8L681.8,124.6L681.8,124.6z M683.6,119.1l1.6,1.2l3.7-4.7L683.6,119.1L683.6,119.1z M692.2,120.1l0.2-1.1
	c0.3,0.2,0.5,0.3,0.7,0.3c0.2,0,0.4-0.2,0.7-0.4l-0.8-0.6l1.2-1.6l1.6,1.2c-0.5,0.6-0.9,1.1-1.2,1.5c-0.2,0.2-0.3,0.4-0.5,0.5
	c-0.1,0.1-0.3,0.3-0.5,0.4c-0.2,0.1-0.3,0.2-0.5,0.2c-0.2,0-0.3,0-0.5-0.1C692.5,120.4,692.4,120.3,692.2,120.1L692.2,120.1z
	 M729.4,170.3c-0.7-0.9-1-1.7-0.9-2.6c0.1-0.9,0.6-1.7,1.5-2.4l0.4-0.3l1.3,1.5c-0.2,0.2-0.4,0.4-0.6,0.5c-0.2,0.2-0.3,0.3-0.4,0.5
	c-0.1,0.2-0.2,0.4-0.3,0.5c0,0.2,0,0.4,0,0.6c0.1,0.2,0.2,0.4,0.3,0.6c0.2,0.2,0.3,0.3,0.5,0.4c0.2,0.1,0.4,0.1,0.5,0.1
	c0.2,0,0.4-0.1,0.6-0.2c0.2-0.1,0.4-0.2,0.6-0.3c0.2-0.1,0.4-0.3,0.6-0.5c0.6-0.5,1-1,1.1-1.5c0.1-0.5,0-1-0.5-1.6l1.5-1.3
	c0.5,0.6,0.9,0.9,1.3,0.9c0.4,0,0.9-0.2,1.5-0.6c0.5-0.4,0.8-0.8,0.9-1.2c0.1-0.4,0-0.8-0.4-1.2c-0.2-0.2-0.3-0.3-0.5-0.4
	c-0.2-0.1-0.4-0.1-0.5-0.1c-0.2,0-0.4,0.1-0.6,0.2c-0.2,0.1-0.4,0.2-0.6,0.3c-0.2,0.1-0.4,0.3-0.6,0.5l-1.3-1.5l0.4-0.3
	c0.9-0.7,1.7-1.1,2.6-1s1.7,0.5,2.4,1.4c0.7,0.9,1,1.7,0.9,2.6c-0.1,0.9-0.6,1.7-1.5,2.4c-0.6,0.5-1.2,0.8-1.8,0.8
	c-0.6,0.1-1.2-0.1-1.7-0.4c0.3,0.6,0.3,1.3,0,1.9c-0.2,0.6-0.7,1.3-1.4,1.8c-1,0.8-2,1.3-2.9,1.3C731,171.7,730.1,171.2,729.4,170.3
	L729.4,170.3z M731.2,175.3l0.5-1c0.2,0.3,0.5,0.4,0.7,0.4c0.2,0,0.5-0.1,0.7-0.3l-0.6-0.8l1.5-1.3l1.3,1.5
	c-0.6,0.5-1.1,0.9-1.5,1.2c-0.2,0.2-0.4,0.3-0.6,0.4c-0.2,0.1-0.3,0.2-0.5,0.3c-0.2,0.1-0.4,0.1-0.5,0.1c-0.2,0-0.3-0.1-0.5-0.1
	C731.5,175.6,731.3,175.5,731.2,175.3L731.2,175.3z M736.7,179c-0.3-0.4-0.5-0.7-0.6-1.1c-0.1-0.4-0.2-0.8-0.1-1.2
	c0-0.4,0.2-0.8,0.3-1.2c0.2-0.4,0.4-0.8,0.7-1.1c0.3-0.4,0.6-0.7,1-1l3.4-2.9c0.4-0.4,0.9-0.7,1.3-0.9c0.4-0.3,0.8-0.5,1.3-0.6
	c0.4-0.2,0.9-0.2,1.3-0.2c0.4,0,0.8,0.1,1.2,0.3c0.4,0.2,0.8,0.5,1.1,0.9c0.7,0.9,1,1.7,0.9,2.6c-0.1,0.9-0.6,1.7-1.5,2.4l-1.3-1.5
	c0.5-0.4,0.8-0.8,0.9-1.2c0.1-0.4,0-0.8-0.4-1.2c-0.6-0.8-1.7-0.5-3.3,0.8l-1.5,1.3c0.8-0.1,1.4,0.2,2,0.9c0.4,0.4,0.6,0.9,0.7,1.3
	c0.1,0.4,0.1,0.8-0.1,1.2c-0.1,0.4-0.4,0.8-0.7,1.2c-0.3,0.4-0.7,0.8-1.1,1.1c-0.5,0.4-1,0.8-1.5,1c-0.5,0.3-1,0.4-1.5,0.5
	c-0.5,0.1-1,0-1.5-0.2C737.6,179.9,737.1,179.5,736.7,179L736.7,179z M737.7,177.3c0,0.2,0.1,0.5,0.3,0.7c0.2,0.2,0.4,0.4,0.6,0.4
	c0.2,0.1,0.5,0.1,0.7,0c0.3-0.1,0.5-0.2,0.8-0.3c0.2-0.1,0.5-0.3,0.7-0.5c0.2-0.1,0.3-0.2,0.3-0.3c0.1-0.1,0.2-0.2,0.3-0.3
	c0.1-0.1,0.2-0.2,0.3-0.3c0.1-0.1,0.2-0.2,0.3-0.3c0.1-0.1,0.2-0.2,0.2-0.3c0-0.1,0.1-0.2,0.1-0.3c0.1-0.1,0.1-0.2,0.1-0.3
	c0-0.1,0-0.2,0-0.3c0-0.1,0-0.2-0.1-0.3c-0.1-0.1-0.1-0.2-0.2-0.3c-0.4-0.5-1-0.7-1.7-0.5l-1.5,1.3c-0.3,0.2-0.5,0.4-0.7,0.6
	c-0.2,0.2-0.3,0.4-0.5,0.7C737.7,176.8,737.6,177.1,737.7,177.3L737.7,177.3z M748,176.8l0.4-1c0.2,0.3,0.5,0.4,0.7,0.4
	c0.2,0,0.5-0.1,0.7-0.3l-0.6-0.8l1.5-1.3l1.3,1.5c-0.6,0.5-1.1,0.9-1.5,1.2c-0.2,0.2-0.4,0.3-0.6,0.4c-0.2,0.1-0.3,0.2-0.5,0.3
	c-0.2,0.1-0.4,0.1-0.5,0.1c-0.2,0-0.3-0.1-0.5-0.1C748.4,177.1,748.2,177,748,176.8L748,176.8z M772.2,226.3c-0.5-1-0.7-1.9-0.4-2.7
	c0.3-0.8,0.9-1.5,1.9-2.1l0.4-0.2l0.9,1.8c-0.3,0.1-0.5,0.3-0.7,0.4c-0.2,0.1-0.4,0.3-0.5,0.4c-0.2,0.2-0.3,0.3-0.4,0.5
	c-0.1,0.2-0.1,0.3-0.1,0.5c0,0.2,0.1,0.4,0.2,0.7c0.1,0.2,0.3,0.4,0.4,0.5c0.2,0.1,0.3,0.2,0.5,0.2c0.2,0,0.4,0,0.6,0
	c0.2-0.1,0.4-0.1,0.6-0.2c0.2-0.1,0.4-0.2,0.7-0.4c0.7-0.4,1.2-0.8,1.4-1.3c0.2-0.5,0.2-1-0.2-1.6l1.8-0.9c0.3,0.6,0.7,1,1.1,1.1
	c0.4,0.1,0.9,0,1.6-0.3c0.6-0.3,1-0.6,1.2-1c0.2-0.4,0.2-0.8-0.1-1.3c-0.1-0.2-0.3-0.4-0.4-0.5c-0.2-0.1-0.3-0.2-0.5-0.2
	c-0.2,0-0.4,0-0.6,0c-0.2,0.1-0.5,0.1-0.7,0.2c-0.2,0.1-0.4,0.2-0.7,0.4l-0.9-1.8l0.4-0.2c1-0.5,1.9-0.7,2.8-0.5
	c0.8,0.2,1.5,0.8,2.1,1.8c0.5,1,0.7,1.9,0.4,2.7c-0.3,0.8-0.9,1.5-1.9,2.1c-0.7,0.4-1.3,0.5-2,0.4c-0.6-0.1-1.2-0.3-1.6-0.8
	c0.1,0.7,0,1.3-0.4,1.9c-0.4,0.6-1,1.1-1.7,1.5c-1.2,0.6-2.2,0.9-3.1,0.7C773.5,227.9,772.7,227.3,772.2,226.3L772.2,226.3z
	 M783.6,226.2l0.6-0.9c0.2,0.3,0.4,0.5,0.6,0.6c0.2,0.1,0.5,0,0.8-0.2l-0.5-0.9l1.7-0.9l0.9,1.7c-0.7,0.4-1.2,0.6-1.7,0.9
	c-0.2,0.1-0.5,0.2-0.6,0.3c-0.2,0.1-0.4,0.1-0.6,0.2c-0.2,0-0.4,0-0.5,0c-0.2,0-0.3-0.1-0.4-0.2
	C783.8,226.6,783.7,226.5,783.6,226.2L783.6,226.2z M823.4,353.9l2-0.3l5.5,2.7l0.4,0.2c0.2,0.1,0.4,0.2,0.4,0.2
	c0.1,0,0.2,0.1,0.4,0.2c0.2,0.1,0.3,0.1,0.5,0.2c0.1,0,0.2,0.1,0.4,0.1c0.2,0.1,0.4,0.1,0.5,0.1c0.2,0,0.3,0,0.5,0
	c0.2,0,0.4,0,0.6,0c0.5-0.1,1-0.3,1.3-0.6c0.3-0.3,0.5-0.7,0.4-1.2c0-0.3-0.2-0.5-0.3-0.7s-0.4-0.3-0.7-0.4
	c-0.3-0.1-0.5-0.1-0.8-0.1c-0.3,0-0.6,0-0.9,0.1l-0.5,0.1l-0.3-2l0.5-0.1c1.3-0.2,2.3-0.1,3.1,0.4c0.8,0.4,1.3,1.3,1.5,2.4
	c0.2,1.1,0,2-0.5,2.7c-0.5,0.7-1.4,1.1-2.5,1.3c-0.4,0.1-0.8,0.1-1.2,0.1c-0.4,0-0.8-0.1-1.1-0.2c-0.4-0.1-0.7-0.2-0.9-0.3
	c-0.2-0.1-0.6-0.2-0.9-0.4l-5-2.7l0.8,4.9l-2,0.3L823.4,353.9L823.4,353.9z M834.6,361.1l0.9-0.6c0.1,0.4,0.2,0.6,0.3,0.7
	c0.2,0.1,0.4,0.2,0.8,0.1l-0.2-1l2-0.3l0.3,2c-0.7,0.1-1.4,0.2-1.9,0.3c-0.3,0-0.5,0.1-0.7,0.1c-0.2,0-0.4,0-0.6,0
	c-0.2,0-0.4-0.1-0.5-0.2c-0.1-0.1-0.2-0.2-0.3-0.4C834.7,361.5,834.7,361.3,834.6,361.1L834.6,361.1z M825.6,492.9l10.9,1.3l0.2-1.5
	l1.5,0.2c0.2,1,0.7,1.8,1.2,2.2l-0.2,1.5l-13.8-1.7L825.6,492.9L825.6,492.9z M834.9,498.5l1-0.4c0,0.4,0,0.6,0.1,0.8
	s0.4,0.3,0.7,0.3l0.1-1l2,0.2l-0.2,2c-0.7-0.1-1.4-0.2-1.9-0.2c-0.3,0-0.5-0.1-0.7-0.1c-0.2,0-0.4-0.1-0.6-0.2
	c-0.2-0.1-0.3-0.2-0.4-0.3c-0.1-0.1-0.2-0.3-0.2-0.4C834.9,499,834.9,498.8,834.9,498.5L834.9,498.5z M801.5,280.7l1.9-0.6l5.9,1.7
	l0.4,0.1l0.5,0.1l0.4,0.1c0.2,0,0.4,0.1,0.5,0.1c0.1,0,0.3,0,0.5,0c0.2,0,0.3,0,0.5,0c0.1,0,0.3,0,0.5-0.1c0.2,0,0.4-0.1,0.5-0.1
	c0.5-0.2,0.9-0.5,1.2-0.8c0.3-0.4,0.3-0.8,0.2-1.2c-0.1-0.3-0.2-0.5-0.4-0.6c-0.2-0.1-0.4-0.2-0.7-0.2c-0.3,0-0.5,0-0.8,0
	c-0.3,0-0.6,0.1-0.9,0.2l-0.5,0.2l-0.7-1.9l0.5-0.2c1.2-0.4,2.3-0.5,3.1-0.2c0.9,0.3,1.5,1,1.9,2.1c0.4,1.1,0.4,2,0,2.8
	c-0.4,0.8-1.1,1.3-2.2,1.7c-0.4,0.1-0.8,0.2-1.2,0.3c-0.4,0.1-0.8,0.1-1.1,0c-0.4,0-0.7-0.1-0.9-0.1c-0.3-0.1-0.6-0.1-1-0.3L804,282
	l1.6,4.7l-1.9,0.6L801.5,280.7L801.5,280.7z M802.4,289.4l0.8-0.8c0.1,0.3,0.3,0.6,0.5,0.6c0.2,0.1,0.5,0.1,0.8,0l-0.3-0.9l1.9-0.6
	l0.7,1.9c-0.7,0.3-1.3,0.4-1.8,0.6c-0.3,0.1-0.5,0.1-0.7,0.2c-0.2,0-0.4,0.1-0.6,0.1c-0.2,0-0.4,0-0.5-0.1c-0.1-0.1-0.3-0.2-0.4-0.3
	C802.5,289.8,802.5,289.6,802.4,289.4L802.4,289.4z M806.2,294.8c-0.2-0.4-0.2-0.9-0.2-1.3c0-0.4,0.1-0.8,0.3-1.1
	c0.2-0.3,0.4-0.7,0.7-1c0.3-0.3,0.7-0.6,1.1-0.8c0.4-0.2,0.8-0.4,1.3-0.6l4.2-1.5c0.5-0.2,1.1-0.3,1.5-0.4c0.5-0.1,1-0.1,1.4-0.1
	c0.5,0,0.9,0.1,1.3,0.2c0.4,0.1,0.7,0.4,1,0.7c0.3,0.3,0.5,0.7,0.7,1.2c0.4,1.1,0.3,2-0.1,2.8c-0.4,0.8-1.1,1.4-2.2,1.7l-0.7-1.9
	c0.6-0.2,1.1-0.5,1.3-0.8c0.3-0.3,0.3-0.7,0.1-1.3c-0.3-0.9-1.4-1.1-3.3-0.4l-1.9,0.7c0.8,0.1,1.3,0.7,1.6,1.5
	c0.2,0.5,0.2,1,0.2,1.5c0,0.4-0.2,0.8-0.5,1.1c-0.3,0.3-0.6,0.6-1,0.9c-0.4,0.2-0.9,0.5-1.5,0.7c-0.6,0.2-1.2,0.3-1.8,0.4
	c-0.5,0.1-1.1,0-1.6-0.1c-0.5-0.1-0.9-0.4-1.3-0.7C806.7,295.9,806.4,295.4,806.2,294.8L806.2,294.8z M807.7,293.5
	c-0.1,0.2,0,0.5,0,0.8c0.1,0.3,0.2,0.5,0.4,0.6c0.2,0.1,0.4,0.2,0.7,0.2c0.3,0,0.5,0,0.8,0c0.3,0,0.6-0.1,0.9-0.2
	c0.2-0.1,0.3-0.1,0.4-0.1c0.1,0,0.2-0.1,0.4-0.2c0.2-0.1,0.3-0.1,0.4-0.2c0.1,0,0.2-0.1,0.3-0.2c0.1-0.1,0.3-0.1,0.3-0.2
	c0.1-0.1,0.2-0.1,0.2-0.2c0.1-0.1,0.2-0.2,0.2-0.3c0-0.1,0.1-0.2,0.1-0.3c0-0.1,0-0.2,0-0.4c0-0.1-0.1-0.3-0.1-0.4
	c-0.2-0.6-0.7-1-1.4-1.1l-1.9,0.6c-0.3,0.1-0.6,0.2-0.8,0.4s-0.5,0.3-0.7,0.5C807.9,293.1,807.8,293.3,807.7,293.5L807.7,293.5z
	 M817.6,296.8l0.8-0.8c0.1,0.3,0.3,0.5,0.5,0.6c0.2,0.1,0.5,0.1,0.8,0l-0.3-0.9l1.9-0.7l0.7,1.9c-0.7,0.2-1.3,0.4-1.8,0.6
	c-0.3,0.1-0.5,0.1-0.7,0.2c-0.2,0-0.4,0.1-0.6,0.1c-0.2,0-0.4,0-0.5-0.1c-0.1-0.1-0.3-0.2-0.4-0.3
	C817.8,297.2,817.7,297,817.6,296.8L817.6,296.8z M832.2,416.2l10.9-0.1l0-1.5l1.5,0c0.4,1,0.9,1.6,1.5,2l0,1.5l-13.9,0.1
	L832.2,416.2L832.2,416.2z M830.2,420.3l1-0.5c0,0.4,0.1,0.6,0.2,0.8c0.2,0.1,0.4,0.2,0.8,0.2l0-1l2,0l0,2c-0.7,0-1.4,0-1.9,0
	c-0.3,0-0.5,0-0.7,0c-0.2,0-0.4-0.1-0.6-0.1c-0.2-0.1-0.3-0.1-0.5-0.2c-0.1-0.1-0.2-0.2-0.3-0.4
	C830.3,420.7,830.2,420.5,830.2,420.3L830.2,420.3z M832.2,426.7c0-0.5,0.1-0.9,0.2-1.3c0.2-0.4,0.4-0.7,0.7-1
	c0.3-0.3,0.6-0.5,1-0.7c0.4-0.2,0.8-0.3,1.3-0.4c0.5-0.1,0.9-0.1,1.5-0.1l4.5,0c0.6,0,1.1,0,1.6,0.1c0.5,0.1,1,0.2,1.4,0.3
	c0.5,0.2,0.8,0.4,1.1,0.6c0.3,0.3,0.6,0.6,0.7,1c0.2,0.4,0.3,0.9,0.3,1.4c0,1.1-0.3,2-0.9,2.6c-0.6,0.6-1.5,0.9-2.7,0.9l0-2
	c0.7,0,1.2-0.1,1.5-0.3c0.3-0.2,0.5-0.6,0.5-1.2c0-1-1-1.5-3-1.5l-2,0c0.7,0.4,1,1,1,2c0,0.6-0.1,1-0.3,1.4
	c-0.2,0.4-0.5,0.7-0.8,0.9c-0.4,0.2-0.8,0.4-1.3,0.5c-0.5,0.1-1,0.2-1.6,0.2c-0.7,0-1.2-0.1-1.8-0.2c-0.5-0.1-1-0.3-1.5-0.6
	c-0.4-0.3-0.8-0.6-1-1.1C832.3,427.8,832.2,427.3,832.2,426.7L832.2,426.7z M834,425.9c-0.1,0.2-0.2,0.4-0.2,0.7
	c0,0.3,0.1,0.5,0.2,0.7c0.1,0.2,0.3,0.4,0.6,0.5c0.2,0.1,0.5,0.2,0.8,0.2c0.3,0,0.6,0.1,0.9,0.1c0.2,0,0.3,0,0.5,0
	c0.1,0,0.2,0,0.4,0c0.2,0,0.3,0,0.4,0c0.1,0,0.2,0,0.4-0.1c0.2,0,0.3-0.1,0.4-0.1c0.1,0,0.2-0.1,0.3-0.1c0.1-0.1,0.2-0.1,0.3-0.2
	c0.1-0.1,0.1-0.2,0.2-0.3c0.1-0.1,0.1-0.2,0.1-0.3c0-0.1,0-0.3,0-0.4c0-0.6-0.3-1.1-1-1.5l-2,0c-0.3,0-0.6,0-0.9,0.1
	c-0.3,0.1-0.5,0.1-0.8,0.2C834.3,425.6,834.1,425.7,834,425.9L834,425.9z M842.3,432.1l1-0.5c0,0.4,0.1,0.6,0.2,0.8
	c0.2,0.1,0.4,0.2,0.8,0.2l0-1l2,0l0,2c-0.7,0-1.4,0-1.9,0c-0.3,0-0.5,0-0.7,0c-0.2,0-0.4-0.1-0.6-0.1c-0.2-0.1-0.3-0.1-0.5-0.3
	c-0.1-0.1-0.2-0.2-0.3-0.4C842.4,432.6,842.3,432.4,842.3,432.1L842.3,432.1z M85.8,626.8l0.5,0.9l-7.7,4.5l-0.5-0.9L85.8,626.8
	L85.8,626.8z M58.4,565.8l0.4,0.9l-8.3,3.2l-0.4-0.9L58.4,565.8L58.4,565.8z M41.5,496.1l0.2,1l-8.8,1.8l-0.2-1L41.5,496.1z
	 M37.2,429.2l0.1,1l-8.9,0.5l-0.1-1L37.2,429.2L37.2,429.2z M44.3,364.5l-0.1,1l-8.9-1.2l0.1-1L44.3,364.5L44.3,364.5z M62.1,301.9
	l-0.2,1l-8.7-2l0.2-1L62.1,301.9z M91.7,243l-0.5,0.9l-7.9-4.2l0.5-0.9L91.7,243L91.7,243z M128.9,190.9l-0.6,0.8l-7.1-5.5l0.6-0.8
	L128.9,190.9L128.9,190.9z M175,145.4l-0.7,0.7l-6-6.6l0.7-0.7L175,145.4L175,145.4z M226.1,109.5l-0.9,0.5l-4.3-7.9l0.9-0.5
	L226.1,109.5L226.1,109.5z M280.6,82.6l-0.9,0.3l-3.1-8.4l0.9-0.3L280.6,82.6L280.6,82.6z M347.8,63.3l-1,0.2l-1.7-8.8l1-0.2
	C346,54.5,347.8,63.3,347.8,63.3z M409.8,47.5h1v8.9h-1V47.5L409.8,47.5z M486.8,60.9l-1-0.1l1.3-8.8l1,0.1L486.8,60.9L486.8,60.9z
	 M554.9,80.5l-0.9-0.3l3-8.4l0.9,0.3L554.9,80.5L554.9,80.5z M617.1,110.4l-0.8-0.5l4.8-7.5l0.8,0.5L617.1,110.4L617.1,110.4z
	 M667.7,146.5l-0.8-0.6l5.9-6.8l0.8,0.7L667.7,146.5L667.7,146.5z M715.4,194.8l-0.6-0.8l7.2-5.4l0.6,0.8L715.4,194.8L715.4,194.8z
	 M747.5,238.8l-0.5-0.9l7.9-4.1l0.5,0.9L747.5,238.8L747.5,238.8z M778.1,300.7l-0.3-1l8.6-2.3l0.3,1L778.1,300.7L778.1,300.7z
	 M796.4,362.5l-0.1-1l8.9-1.2l0.1,1L796.4,362.5L796.4,362.5z M804,425.4h8.9v1H804V425.4z M800.7,492.7l0.1-1l8.9,1l-0.1,1
	L800.7,492.7L800.7,492.7z"/>
<g>
	<path class="st1" d="M420,821.5c0-1,0.8-1.8,1.8-1.8c1,0,1.8,0.8,1.8,1.8c0,1-0.8,1.8-1.8,1.8C420.8,823.4,420,822.5,420,821.5
		L420,821.5z M410.7,821.4c0-1,0.9-1.8,1.9-1.8c1,0,1.8,0.9,1.8,1.9c0,1-0.9,1.8-1.9,1.8C411.5,823.2,410.7,822.4,410.7,821.4
		L410.7,821.4z M429.2,821.4c0-1,0.8-1.9,1.8-1.9c1,0,1.9,0.8,1.9,1.8c0,1-0.8,1.9-1.8,1.9h0C430,823.2,429.2,822.4,429.2,821.4z
		 M403.3,822.9c-1,0-1.8-0.9-1.8-1.9c0-1,0.9-1.8,1.9-1.8c1,0.1,1.8,0.9,1.8,1.9C405.1,822.2,404.3,822.9,403.3,822.9L403.3,822.9z
		 M438.4,821.2c0-1,0.7-1.9,1.8-1.9c1,0,1.9,0.7,1.9,1.8c0.1,1-0.7,1.9-1.8,1.9c0,0-0.1,0-0.1,0
		C439.2,822.9,438.4,822.1,438.4,821.2L438.4,821.2z M394,822.4c-1-0.1-1.8-1-1.7-2c0.1-1,0.9-1.8,2-1.7c1,0.1,1.8,1,1.7,2
		c-0.1,1-0.9,1.7-1.8,1.7C394.1,822.4,394.1,822.4,394,822.4L394,822.4z M447.6,820.7c-0.1-1,0.7-1.9,1.7-2c1-0.1,1.9,0.7,2,1.7
		c0.1,1-0.7,1.9-1.7,2c0,0-0.1,0-0.1,0C448.5,822.4,447.7,821.6,447.6,820.7L447.6,820.7z M384.8,821.6c-1-0.1-1.8-1-1.7-2
		c0.1-1,1-1.8,2-1.7c1,0.1,1.8,1,1.7,2c-0.1,1-0.9,1.7-1.8,1.7C384.9,821.6,384.9,821.6,384.8,821.6L384.8,821.6z M456.8,819.9
		c-0.1-1,0.6-1.9,1.7-2v0c1-0.1,1.9,0.6,2,1.7c0.1,1-0.6,1.9-1.7,2c-0.1,0-0.1,0-0.2,0C457.7,821.6,456.9,820.9,456.8,819.9
		L456.8,819.9z M375.6,820.6L375.6,820.6c-1-0.1-1.7-1-1.6-2c0.1-1,1-1.7,2.1-1.6c1,0.1,1.7,1,1.6,2c-0.1,0.9-0.9,1.6-1.8,1.6
		C375.7,820.6,375.7,820.6,375.6,820.6L375.6,820.6z M466,819c-0.1-1,0.6-1.9,1.6-2.1c1-0.1,1.9,0.6,2.1,1.6c0.1,1-0.6,1.9-1.6,2
		c-0.1,0-0.2,0-0.2,0C466.9,820.6,466.1,819.9,466,819L466,819z M366.4,819.4c-1-0.1-1.7-1.1-1.6-2.1c0.1-1,1.1-1.7,2.1-1.6
		c1,0.2,1.7,1.1,1.6,2.1c-0.1,0.9-0.9,1.6-1.8,1.6C366.6,819.4,366.5,819.4,366.4,819.4L366.4,819.4z M475.1,817.8
		c-0.1-1,0.5-1.9,1.6-2.1c1-0.1,2,0.5,2.1,1.6c0.1,1-0.6,1.9-1.6,2.1c-0.1,0-0.2,0-0.3,0C476,819.4,475.2,818.7,475.1,817.8
		L475.1,817.8z M357.2,818c-1-0.2-1.7-1.1-1.5-2.1c0.2-1,1.1-1.7,2.1-1.5c1,0.2,1.7,1.1,1.5,2.1c-0.1,0.9-0.9,1.5-1.8,1.5
		C357.5,818,357.4,818,357.2,818L357.2,818z M484.2,816.4c-0.2-1,0.5-2,1.5-2.1c1-0.2,2,0.5,2.1,1.5c0.2,1-0.5,2-1.5,2.1
		c-0.1,0-0.2,0-0.3,0C485.1,818,484.4,817.3,484.2,816.4L484.2,816.4z M348.1,816.3c-1-0.2-1.6-1.2-1.5-2.2c0.2-1,1.2-1.7,2.2-1.5
		c1,0.2,1.6,1.2,1.5,2.2c-0.2,0.9-0.9,1.5-1.8,1.5C348.4,816.4,348.3,816.3,348.1,816.3L348.1,816.3z M493.3,814.8
		c-0.2-1,0.5-2,1.5-2.2c1-0.2,2,0.5,2.2,1.5c0.2,1-0.5,2-1.5,2.2c-0.1,0-0.2,0-0.4,0C494.2,816.3,493.5,815.7,493.3,814.8
		L493.3,814.8z M339.1,814.4c-1-0.2-1.6-1.2-1.4-2.2c0.2-1,1.2-1.6,2.2-1.4c1,0.2,1.6,1.2,1.4,2.2c-0.2,0.9-1,1.4-1.8,1.4
		C339.3,814.5,339.2,814.5,339.1,814.4L339.1,814.4z M502.3,813c-0.2-1,0.4-2,1.4-2.2c1-0.2,2,0.4,2.2,1.4c0.2,1-0.4,2-1.4,2.2h0
		c-0.1,0-0.3,0-0.4,0C503.3,814.4,502.5,813.8,502.3,813L502.3,813z M330,812.3L330,812.3c-1-0.3-1.6-1.2-1.3-2.2
		c0.2-1,1.2-1.6,2.2-1.4h0c1,0.2,1.6,1.2,1.3,2.2c-0.2,0.8-1,1.4-1.8,1.4C330.3,812.4,330.2,812.4,330,812.3L330,812.3z
		 M511.3,810.9c-0.2-1,0.4-2,1.4-2.2c1-0.2,2,0.4,2.2,1.3c0.2,1-0.4,2-1.3,2.2c-0.2,0-0.3,0.1-0.4,0.1
		C512.3,812.3,511.5,811.8,511.3,810.9L511.3,810.9z M321.1,810c-1-0.3-1.6-1.3-1.3-2.3c0.3-1,1.3-1.6,2.3-1.3
		c1,0.3,1.6,1.3,1.3,2.3c-0.2,0.8-1,1.4-1.8,1.4C321.4,810.1,321.2,810.1,321.1,810z M520.2,808.7c-0.3-1,0.3-2,1.3-2.3
		c1-0.3,2,0.3,2.3,1.3c0.3,1-0.3,2-1.3,2.3c-0.2,0-0.3,0.1-0.5,0.1C521.2,810,520.5,809.5,520.2,808.7L520.2,808.7z M312.2,807.5
		c-1-0.3-1.5-1.3-1.2-2.3c0.3-1,1.3-1.5,2.3-1.2c1,0.3,1.5,1.3,1.2,2.3c-0.2,0.8-1,1.3-1.8,1.3C312.5,807.6,312.3,807.5,312.2,807.5
		L312.2,807.5z M529.1,806.2c-0.3-1,0.3-2,1.2-2.3c1-0.3,2,0.3,2.3,1.2c0.3,1-0.3,2-1.2,2.3c-0.2,0.1-0.3,0.1-0.5,0.1
		C530.1,807.5,529.4,807,529.1,806.2L529.1,806.2z M303.3,804.7c-1-0.3-1.5-1.3-1.2-2.3c0.3-1,1.3-1.5,2.3-1.2
		c1,0.3,1.5,1.4,1.2,2.3c-0.2,0.8-1,1.3-1.7,1.3C303.7,804.8,303.5,804.8,303.3,804.7L303.3,804.7z M537.9,803.5
		c-0.3-1,0.2-2,1.2-2.3c1-0.3,2,0.2,2.3,1.2c0.3,1-0.2,2-1.2,2.3c-0.2,0.1-0.4,0.1-0.6,0.1C538.9,804.8,538.2,804.3,537.9,803.5
		L537.9,803.5z M294.5,801.8c-1-0.3-1.5-1.4-1.1-2.3c0.3-1,1.4-1.5,2.3-1.1c1,0.3,1.5,1.4,1.1,2.4c-0.3,0.8-1,1.2-1.7,1.2
		C294.9,801.9,294.7,801.8,294.5,801.8L294.5,801.8z M546.7,800.6c-0.3-1,0.2-2,1.1-2.4c1-0.3,2,0.2,2.3,1.1s-0.2,2-1.1,2.3
		c-0.2,0.1-0.4,0.1-0.6,0.1C547.7,801.8,547,801.3,546.7,800.6L546.7,800.6z M285.8,798.6c-1-0.4-1.4-1.4-1.1-2.4
		c0.4-0.9,1.4-1.4,2.4-1.1c1,0.4,1.4,1.4,1.1,2.4c-0.3,0.7-1,1.2-1.7,1.2C286.2,798.7,286,798.6,285.8,798.6L285.8,798.6z
		 M555.4,797.4c-0.4-0.9,0.1-2,1.1-2.4c1-0.4,2,0.1,2.4,1.1c0.4,1-0.1,2-1.1,2.4c-0.2,0.1-0.4,0.1-0.7,0.1
		C556.3,798.6,555.6,798.2,555.4,797.4L555.4,797.4z M277.1,795.2c-0.9-0.4-1.4-1.5-1-2.4c0.4-1,1.5-1.4,2.4-1
		c0.9,0.4,1.4,1.5,1,2.4c-0.3,0.7-1,1.1-1.7,1.1C277.6,795.3,277.3,795.3,277.1,795.2L277.1,795.2z M564,794.1c-0.4-0.9,0.1-2,1-2.4
		c0.9-0.4,2,0.1,2.4,1c0.4,0.9-0.1,2-1,2.4c-0.2,0.1-0.5,0.1-0.7,0.1C564.9,795.3,564.2,794.8,564,794.1L564,794.1z M268.6,791.6
		c-1-0.4-1.4-1.5-1-2.4c0.4-0.9,1.5-1.4,2.4-0.9c0.9,0.4,1.4,1.5,1,2.4c-0.3,0.7-1,1.1-1.7,1.1C269.1,791.7,268.8,791.7,268.6,791.6
		L268.6,791.6z M572.4,790.6c-0.4-0.9,0-2,0.9-2.4c0.9-0.4,2,0,2.4,1c0.4,0.9,0,2-0.9,2.4v0c-0.2,0.1-0.5,0.2-0.7,0.2
		C573.4,791.7,572.7,791.3,572.4,790.6L572.4,790.6z M260.1,787.7c-0.9-0.4-1.3-1.5-0.9-2.4c0.4-0.9,1.5-1.3,2.5-0.9
		c0.9,0.4,1.3,1.5,0.9,2.5c-0.3,0.7-1,1.1-1.7,1.1C260.6,787.9,260.3,787.9,260.1,787.7L260.1,787.7z M580.8,786.8
		c-0.4-0.9,0-2,0.9-2.5c0.9-0.4,2,0,2.4,0.9c0.4,0.9,0,2-0.9,2.5c-0.3,0.1-0.5,0.2-0.8,0.2C581.8,787.9,581.1,787.5,580.8,786.8z
		 M589.1,782.9c-0.5-0.9-0.1-2,0.8-2.5c0.9-0.5,2-0.1,2.5,0.8c0.5,0.9,0.1,2-0.8,2.5c-0.3,0.1-0.5,0.2-0.8,0.2
		C590.1,783.9,589.5,783.6,589.1,782.9L589.1,782.9z M251.7,783.7c-0.9-0.5-1.3-1.6-0.8-2.5c0.5-0.9,1.6-1.3,2.5-0.8
		c0.9,0.5,1.3,1.6,0.8,2.5c-0.3,0.7-1,1-1.6,1C252.3,783.9,252,783.9,251.7,783.7z M597.3,778.8c-0.5-0.9-0.1-2,0.8-2.5
		c0.9-0.5,2-0.1,2.5,0.8c0.5,0.9,0.1,2-0.8,2.5c-0.3,0.1-0.6,0.2-0.8,0.2C598.3,779.7,597.7,779.4,597.3,778.8L597.3,778.8z
		 M243.5,779.5c-0.9-0.5-1.2-1.6-0.8-2.5c0.5-0.9,1.6-1.2,2.5-0.8c0.9,0.5,1.2,1.6,0.8,2.5c-0.3,0.6-1,1-1.6,1
		C244,779.7,243.7,779.6,243.5,779.5L243.5,779.5z M605.5,774.4c-0.5-0.9-0.2-2,0.7-2.5c0.9-0.5,2-0.2,2.5,0.7
		c0.5,0.9,0.2,2-0.7,2.5c-0.3,0.2-0.6,0.2-0.9,0.2C606.4,775.4,605.8,775,605.5,774.4L605.5,774.4z M235.3,775.1
		c-0.9-0.5-1.2-1.6-0.7-2.5c0.5-0.9,1.6-1.2,2.5-0.7c0.9,0.5,1.2,1.6,0.7,2.5c-0.3,0.6-1,0.9-1.6,0.9
		C235.9,775.3,235.6,775.2,235.3,775.1L235.3,775.1z M613.5,769.9c-0.5-0.9-0.2-2,0.7-2.5c0.9-0.5,2-0.2,2.5,0.7
		c0.5,0.9,0.2,2-0.7,2.5c-0.3,0.2-0.6,0.3-0.9,0.3C614.4,770.8,613.8,770.5,613.5,769.9z M227.2,770.5c-0.9-0.5-1.2-1.6-0.6-2.5
		c0.5-0.9,1.6-1.2,2.5-0.6s1.2,1.7,0.6,2.5c-0.4,0.6-1,0.9-1.6,0.9C227.9,770.7,227.5,770.6,227.2,770.5L227.2,770.5z M621.4,765.2
		c-0.5-0.9-0.3-2,0.6-2.5c0.9-0.5,2-0.3,2.5,0.6c0.5,0.9,0.3,2-0.6,2.5c-0.3,0.2-0.6,0.3-1,0.3C622.3,766,621.7,765.7,621.4,765.2
		L621.4,765.2z M219.3,765.6c-0.9-0.5-1.1-1.7-0.6-2.5c0.5-0.9,1.7-1.1,2.5-0.6c0.9,0.5,1.1,1.7,0.6,2.5c-0.3,0.6-0.9,0.9-1.6,0.9
		C219.9,765.9,219.6,765.8,219.3,765.6L219.3,765.6z M629.1,760.2c-0.6-0.9-0.3-2,0.5-2.5c0.8-0.6,2-0.3,2.5,0.5
		c0.6,0.8,0.3,2-0.5,2.5c-0.3,0.2-0.7,0.3-1,0.3C630.1,761.1,629.5,760.8,629.1,760.2L629.1,760.2z M211.5,760.7
		c-0.8-0.6-1.1-1.7-0.5-2.6c0.6-0.8,1.7-1.1,2.6-0.5c0.8,0.5,1.1,1.7,0.5,2.5c-0.4,0.5-0.9,0.8-1.5,0.8
		C212.1,760.9,211.8,760.9,211.5,760.7L211.5,760.7z M636.8,755.1c-0.6-0.8-0.4-2,0.5-2.6c0.8-0.6,2-0.4,2.6,0.5
		c0.6,0.8,0.4,2-0.5,2.6c-0.3,0.2-0.7,0.3-1,0.3C637.7,755.9,637.2,755.7,636.8,755.1L636.8,755.1z M203.8,755.5
		c-0.8-0.6-1.1-1.7-0.5-2.6c0.6-0.8,1.7-1,2.6-0.5c0.8,0.6,1,1.7,0.5,2.6c-0.4,0.5-0.9,0.8-1.5,0.8
		C204.5,755.8,204.1,755.7,203.8,755.5L203.8,755.5z M644.3,749.8c-0.6-0.8-0.4-2,0.4-2.6c0.8-0.6,2-0.4,2.6,0.4
		c0.6,0.8,0.4,2-0.4,2.6c-0.3,0.2-0.7,0.3-1.1,0.3C645.3,750.6,644.7,750.3,644.3,749.8L644.3,749.8z M196.3,750.1
		c-0.8-0.6-1-1.8-0.4-2.6c0.6-0.8,1.8-1,2.6-0.4c0.8,0.6,1,1.8,0.4,2.6c-0.4,0.5-0.9,0.8-1.5,0.8
		C196.9,750.5,196.6,750.3,196.3,750.1L196.3,750.1z M651.7,744.4c-0.6-0.8-0.5-2,0.3-2.6c0.8-0.6,2-0.5,2.6,0.3
		c0.6,0.8,0.5,2-0.3,2.6c-0.3,0.3-0.7,0.4-1.1,0.4C652.7,745.1,652.1,744.9,651.7,744.4L651.7,744.4z M188.8,744.5
		c-0.8-0.6-1-1.8-0.4-2.6c0.6-0.8,1.8-1,2.6-0.3c0.8,0.6,1,1.8,0.3,2.6c-0.4,0.5-0.9,0.7-1.5,0.7
		C189.5,744.9,189.1,744.8,188.8,744.5L188.8,744.5z M659,738.7c-0.6-0.8-0.5-2,0.3-2.6c0.8-0.6,2-0.5,2.6,0.3
		c0.6,0.8,0.5,2-0.3,2.6c-0.3,0.3-0.7,0.4-1.2,0.4C659.9,739.4,659.4,739.2,659,738.7L659,738.7z M181.5,738.8
		c-0.8-0.6-0.9-1.8-0.3-2.6c0.6-0.8,1.8-0.9,2.6-0.3c0.8,0.6,0.9,1.8,0.3,2.6c-0.4,0.5-0.9,0.7-1.4,0.7
		C182.3,739.2,181.9,739.1,181.5,738.8L181.5,738.8z M666.2,732.9c-0.7-0.8-0.6-1.9,0.2-2.6c0.8-0.7,1.9-0.6,2.6,0.2
		c0.7,0.8,0.6,1.9-0.2,2.6c-0.3,0.3-0.8,0.4-1.2,0.4C667,733.6,666.5,733.3,666.2,732.9L666.2,732.9z M174.4,732.9
		c-0.8-0.7-0.9-1.8-0.2-2.6c0.7-0.8,1.8-0.9,2.6-0.2c0.8,0.7,0.9,1.8,0.2,2.6c-0.4,0.4-0.9,0.7-1.4,0.7
		C175.1,733.4,174.7,733.2,174.4,732.9L174.4,732.9z M673.2,726.9c-0.7-0.8-0.6-1.9,0.2-2.6c0.8-0.7,1.9-0.6,2.6,0.2
		c0.7,0.8,0.6,1.9-0.2,2.6v0c-0.3,0.3-0.8,0.5-1.2,0.5C674,727.5,673.5,727.3,673.2,726.9L673.2,726.9z M167.4,726.9
		c-0.8-0.7-0.8-1.8-0.1-2.6c0.7-0.8,1.8-0.8,2.6-0.2c0.8,0.7,0.8,1.8,0.1,2.6c-0.4,0.4-0.9,0.6-1.4,0.6
		C168.2,727.3,167.7,727.2,167.4,726.9z M680,720.8c-0.7-0.8-0.6-1.9,0.1-2.6c0.7-0.7,1.9-0.7,2.6,0.1c0.7,0.7,0.7,1.9-0.1,2.6
		c-0.4,0.3-0.8,0.5-1.3,0.5C680.9,721.3,680.4,721.2,680,720.8L680,720.8z M160.5,720.6c-0.8-0.7-0.8-1.9-0.1-2.6
		c0.7-0.7,1.9-0.8,2.6-0.1c0.7,0.7,0.8,1.9,0.1,2.6c-0.4,0.4-0.9,0.6-1.3,0.6C161.3,721.1,160.9,721,160.5,720.6L160.5,720.6z
		 M686.7,714.5c-0.7-0.7-0.7-1.9,0-2.6c0.7-0.7,1.9-0.7,2.6,0c0.7,0.7,0.7,1.9,0,2.6c-0.4,0.3-0.8,0.5-1.3,0.5
		C687.6,715,687.1,714.8,686.7,714.5L686.7,714.5z M153.8,714.2c-0.7-0.7-0.7-1.9,0-2.6c0.7-0.7,1.9-0.7,2.6,0
		c0.7,0.7,0.7,1.9,0,2.6c-0.4,0.4-0.8,0.6-1.3,0.6C154.6,714.8,154.2,714.6,153.8,714.2L153.8,714.2z M693.3,708
		c-0.7-0.7-0.7-1.9,0-2.6h0c0.7-0.7,1.9-0.7,2.6,0c0.7,0.7,0.7,1.9,0,2.6c-0.4,0.4-0.8,0.5-1.3,0.5
		C694.1,708.5,693.6,708.3,693.3,708L693.3,708z M147.3,707.7c-0.7-0.7-0.7-1.9,0-2.6c0.7-0.7,1.9-0.7,2.6,0c0.7,0.7,0.7,1.9,0,2.6
		c-0.4,0.3-0.8,0.5-1.3,0.5C148.1,708.3,147.6,708.1,147.3,707.7L147.3,707.7z M699.7,701.3c-0.7-0.7-0.8-1.9-0.1-2.6
		c0.7-0.7,1.9-0.8,2.6-0.1c0.7,0.7,0.8,1.9,0.1,2.6c-0.4,0.4-0.9,0.6-1.3,0.6C700.5,701.8,700,701.6,699.7,701.3L699.7,701.3z
		 M140.9,701c-0.7-0.7-0.6-1.9,0.1-2.6c0.7-0.7,1.9-0.7,2.6,0.1v0c0.7,0.7,0.6,1.9-0.1,2.6c-0.4,0.3-0.8,0.5-1.3,0.5
		C141.7,701.6,141.2,701.4,140.9,701L140.9,701z M705.9,694.5c-0.8-0.7-0.8-1.8-0.2-2.6c0.7-0.8,1.8-0.8,2.6-0.1
		c0.8,0.7,0.8,1.8,0.2,2.6c-0.4,0.4-0.9,0.6-1.4,0.6C706.7,695,706.3,694.8,705.9,694.5L705.9,694.5z M134.6,694.1
		c-0.7-0.8-0.6-1.9,0.1-2.6c0.8-0.7,1.9-0.6,2.6,0.2c0.7,0.8,0.6,1.9-0.2,2.6c-0.4,0.3-0.8,0.5-1.2,0.5
		C135.5,694.7,135,694.5,134.6,694.1L134.6,694.1z M712,687.6c-0.8-0.7-0.9-1.8-0.2-2.6c0.7-0.8,1.8-0.9,2.6-0.2
		c0.8,0.7,0.9,1.8,0.2,2.6c-0.4,0.4-0.9,0.7-1.4,0.7C712.8,688,712.3,687.9,712,687.6L712,687.6z M128.6,687.1
		c-0.7-0.8-0.6-1.9,0.2-2.6c0.8-0.7,1.9-0.6,2.6,0.2c0.7,0.8,0.6,1.9-0.2,2.6c-0.3,0.3-0.8,0.4-1.2,0.4
		C129.5,687.8,128.9,687.6,128.6,687.1L128.6,687.1z M717.9,680.5c-0.8-0.6-0.9-1.8-0.3-2.6c0.6-0.8,1.8-0.9,2.6-0.3
		c0.8,0.6,0.9,1.8,0.3,2.6c-0.4,0.5-0.9,0.7-1.4,0.7C718.6,680.9,718.2,680.8,717.9,680.5z M122.7,680c-0.6-0.8-0.5-2,0.3-2.6
		c0.8-0.6,1.9-0.5,2.6,0.3c0.6,0.8,0.5,2-0.3,2.6c-0.3,0.3-0.7,0.4-1.1,0.4C123.6,680.7,123.1,680.4,122.7,680z M723.6,673.3
		c-0.8-0.6-1-1.8-0.3-2.6c0.6-0.8,1.8-1,2.6-0.3c0.8,0.6,1,1.8,0.3,2.6c-0.4,0.5-0.9,0.7-1.5,0.7
		C724.3,673.7,723.9,673.5,723.6,673.3L723.6,673.3z M117,672.7c-0.6-0.8-0.5-2,0.3-2.6c0.8-0.6,2-0.5,2.6,0.3
		c0.6,0.8,0.5,2-0.3,2.6c-0.3,0.3-0.7,0.4-1.1,0.4C117.9,673.4,117.4,673.2,117,672.7L117,672.7z M729.2,665.9
		c-0.8-0.6-1-1.7-0.4-2.6c0.6-0.8,1.8-1,2.6-0.4c0.8,0.6,1,1.7,0.4,2.6c-0.4,0.5-0.9,0.8-1.5,0.8
		C729.9,666.3,729.5,666.1,729.2,665.9L729.2,665.9z M111.5,665.3c-0.6-0.8-0.4-2,0.4-2.6c0.8-0.6,2-0.4,2.6,0.4
		c0.6,0.8,0.4,2-0.4,2.6c-0.3,0.2-0.7,0.4-1.1,0.4C112.4,666,111.8,665.8,111.5,665.3L111.5,665.3z M734.6,658.4
		c-0.8-0.6-1-1.7-0.5-2.6c0.6-0.8,1.7-1,2.6-0.5c0.8,0.6,1,1.7,0.5,2.6c-0.4,0.5-0.9,0.8-1.5,0.8
		C735.2,658.7,734.9,658.6,734.6,658.4L734.6,658.4z M106.1,657.7c-0.6-0.8-0.4-2,0.5-2.6c0.8-0.6,2-0.4,2.6,0.5
		c0.6,0.8,0.4,2-0.5,2.6c-0.3,0.2-0.7,0.3-1,0.3C107,658.5,106.5,658.3,106.1,657.7z M739.8,650.8c-0.8-0.6-1.1-1.7-0.5-2.5
		c0.6-0.9,1.7-1.1,2.5-0.5c0.9,0.6,1.1,1.7,0.5,2.5c-0.3,0.5-0.9,0.8-1.5,0.8C740.4,651.1,740.1,651,739.8,650.8L739.8,650.8z
		 M100.9,650.1c-0.6-0.8-0.3-2,0.5-2.5c0.8-0.6,2-0.3,2.5,0.5c0.6,0.8,0.3,2-0.5,2.5c-0.3,0.2-0.7,0.3-1,0.3
		C101.9,650.9,101.3,650.6,100.9,650.1L100.9,650.1z M744.8,643c-0.9-0.5-1.1-1.7-0.6-2.5c0.5-0.9,1.7-1.1,2.5-0.6
		c0.9,0.5,1.1,1.7,0.6,2.5c-0.3,0.6-1,0.9-1.6,0.9C745.4,643.3,745.1,643.2,744.8,643L744.8,643z M96,642.3c-0.5-0.9-0.3-2,0.6-2.5
		c0.9-0.5,2-0.3,2.5,0.6c0.5,0.9,0.3,2-0.6,2.5c-0.3,0.2-0.6,0.3-1,0.3C96.9,643.1,96.3,642.8,96,642.3L96,642.3z M749.6,635.2
		c-0.9-0.5-1.2-1.7-0.7-2.5c0.5-0.9,1.7-1.2,2.5-0.7c0.9,0.5,1.2,1.6,0.7,2.5c-0.3,0.6-1,0.9-1.6,0.9
		C750.2,635.4,749.9,635.3,749.6,635.2L749.6,635.2z M91.2,634.4c-0.5-0.9-0.2-2,0.7-2.5c0.9-0.5,2-0.2,2.5,0.7
		c0.5,0.9,0.2,2-0.7,2.5c-0.3,0.2-0.6,0.3-0.9,0.3C92.1,635.3,91.5,634.9,91.2,634.4L91.2,634.4z M754.2,627.2
		c-0.9-0.5-1.2-1.6-0.7-2.5c0.5-0.9,1.6-1.2,2.5-0.7c0.9,0.5,1.2,1.6,0.7,2.5c-0.3,0.6-1,0.9-1.6,0.9
		C754.8,627.4,754.5,627.3,754.2,627.2L754.2,627.2z M86.6,626.3c-0.5-0.9-0.2-2,0.7-2.5c0.9-0.5,2-0.2,2.5,0.7
		c0.5,0.9,0.2,2-0.7,2.5c-0.3,0.2-0.6,0.2-0.9,0.2C87.5,627.3,86.9,626.9,86.6,626.3z M758.7,619.1c-0.9-0.5-1.3-1.6-0.8-2.5
		c0.5-0.9,1.6-1.2,2.5-0.8c0.9,0.5,1.3,1.6,0.8,2.5c-0.3,0.6-1,1-1.6,1C759.2,619.3,759,619.2,758.7,619.1L758.7,619.1z M82.2,618.2
		c-0.5-0.9-0.1-2,0.8-2.5c0.9-0.5,2-0.1,2.5,0.8c0.5,0.9,0.1,2-0.8,2.5c-0.3,0.1-0.6,0.2-0.9,0.2C83.1,619.2,82.5,618.8,82.2,618.2
		L82.2,618.2z M762.9,610.9c-0.9-0.4-1.3-1.6-0.8-2.5c0.5-0.9,1.6-1.3,2.5-0.8c0.9,0.5,1.3,1.6,0.8,2.5c-0.3,0.7-1,1-1.7,1
		C763.5,611.1,763.2,611,762.9,610.9L762.9,610.9z M78,610c-0.5-0.9-0.1-2,0.8-2.5c0.9-0.5,2-0.1,2.5,0.8c0.5,0.9,0.1,2-0.8,2.5
		c-0.3,0.1-0.5,0.2-0.8,0.2C78.9,611,78.3,610.6,78,610z M74,601.7c-0.4-0.9,0-2,0.9-2.5c0.9-0.4,2,0,2.4,0.9c0.4,0.9,0,2-0.9,2.4
		c-0.3,0.1-0.5,0.2-0.8,0.2C75,602.7,74.3,602.3,74,601.7L74,601.7z M767,602.6c-0.9-0.4-1.3-1.5-0.9-2.5c0.4-0.9,1.5-1.3,2.5-0.9
		c0.9,0.4,1.3,1.5,0.9,2.4v0c-0.3,0.7-1,1.1-1.7,1.1C767.5,602.7,767.2,602.7,767,602.6L767,602.6z M70.2,593.3c-0.4-0.9,0-2,1-2.4
		c0.9-0.4,2,0,2.4,1c0.4,0.9,0,2-0.9,2.4c-0.2,0.1-0.5,0.2-0.7,0.2C71.2,594.4,70.5,593.9,70.2,593.3L70.2,593.3z M770.8,594.1
		c-0.9-0.4-1.4-1.5-1-2.4c0.4-0.9,1.5-1.4,2.4-0.9c0.9,0.4,1.4,1.5,1,2.4c-0.3,0.7-1,1.1-1.7,1.1C771.3,594.3,771,594.2,770.8,594.1
		L770.8,594.1z M66.6,584.8c-0.4-0.9,0.1-2,1-2.4c0.9-0.4,2,0.1,2.4,1c0.4,0.9-0.1,2-1,2.4c-0.2,0.1-0.5,0.1-0.7,0.1
		C67.6,585.9,66.9,585.5,66.6,584.8L66.6,584.8z M774.4,585.6c-0.9-0.4-1.4-1.5-1-2.4c0.4-0.9,1.5-1.4,2.4-1c0.9,0.4,1.4,1.5,1,2.4
		c-0.3,0.7-1,1.2-1.7,1.2C774.9,585.8,774.7,585.7,774.4,585.6L774.4,585.6z M63.2,576.1c-0.4-0.9,0.1-2,1.1-2.4
		c1-0.4,2,0.1,2.4,1.1c0.4,0.9-0.1,2-1.1,2.4c-0.2,0.1-0.4,0.1-0.7,0.1C64.2,577.3,63.5,576.9,63.2,576.1L63.2,576.1z M777.9,577.1
		c-1-0.4-1.4-1.4-1.1-2.4c0.4-1,1.4-1.4,2.4-1.1c0.9,0.4,1.4,1.4,1.1,2.4c-0.3,0.7-1,1.2-1.7,1.2
		C778.3,577.2,778.1,577.1,777.9,577.1L777.9,577.1z M60,567.4c-0.3-1,0.2-2,1.1-2.3c1-0.3,2,0.2,2.3,1.1c0.3,1-0.2,2-1.1,2.3
		c-0.2,0.1-0.4,0.1-0.6,0.1C61,568.7,60.3,568.2,60,567.4z M781.1,568.4c-1-0.3-1.5-1.4-1.1-2.4c0.3-1,1.4-1.5,2.4-1.1
		c1,0.3,1.5,1.4,1.1,2.4c-0.3,0.7-1,1.2-1.7,1.2C781.5,568.5,781.3,568.5,781.1,568.4L781.1,568.4z M57,558.6c-0.3-1,0.2-2,1.2-2.3
		c1-0.3,2,0.2,2.3,1.2c0.3,1-0.2,2-1.2,2.3c-0.2,0.1-0.4,0.1-0.6,0.1C58,559.9,57.3,559.4,57,558.6L57,558.6z M784.1,559.6
		c-1-0.3-1.5-1.3-1.2-2.3c0.3-1,1.3-1.5,2.3-1.2c1,0.3,1.5,1.3,1.2,2.3c-0.2,0.8-1,1.3-1.8,1.3C784.5,559.7,784.3,559.7,784.1,559.6
		z M54.3,549.8c-0.3-1,0.3-2,1.2-2.3c1-0.3,2,0.3,2.3,1.2c0.3,1-0.3,2-1.2,2.3c-0.2,0-0.4,0.1-0.5,0.1
		C55.2,551.1,54.5,550.6,54.3,549.8L54.3,549.8z M786.9,550.8c-1-0.3-1.5-1.3-1.3-2.3c0.3-1,1.3-1.5,2.3-1.2c1,0.3,1.5,1.3,1.2,2.3
		c-0.2,0.8-1,1.3-1.8,1.3C787.2,550.9,787,550.9,786.9,550.8L786.9,550.8z M51.7,540.9c-0.3-1,0.3-2,1.3-2.3c1-0.3,2,0.3,2.3,1.3
		c0.3,1-0.3,2-1.3,2.3c-0.2,0-0.3,0.1-0.5,0.1C52.7,542.3,51.9,541.7,51.7,540.9z M789.4,542c-1-0.3-1.6-1.3-1.3-2.3
		c0.3-1,1.3-1.6,2.3-1.3c1,0.3,1.6,1.3,1.3,2.3c-0.2,0.8-1,1.4-1.8,1.4C789.8,542.1,789.6,542,789.4,542L789.4,542z M49.4,531.9
		c-0.2-1,0.4-2,1.3-2.2c1-0.2,2,0.4,2.2,1.4c0.2,1-0.4,2-1.4,2.2c-0.2,0-0.3,0-0.4,0C50.4,533.3,49.6,532.8,49.4,531.9L49.4,531.9z
		 M791.8,533.1c-1-0.2-1.6-1.2-1.3-2.2c0.2-1,1.2-1.6,2.2-1.4c1,0.3,1.6,1.3,1.4,2.2c-0.2,0.8-1,1.4-1.8,1.4
		C792.1,533.1,791.9,533.1,791.8,533.1L791.8,533.1z M47.3,522.9c-0.2-1,0.4-2,1.4-2.2c1-0.2,2,0.4,2.2,1.4c0.2,1-0.4,2-1.4,2.2
		c-0.1,0-0.3,0-0.4,0C48.2,524.4,47.5,523.8,47.3,522.9L47.3,522.9z M793.9,524.1c-1-0.2-1.6-1.2-1.4-2.2c0.2-1,1.2-1.6,2.2-1.4
		c1,0.2,1.6,1.2,1.4,2.2c-0.2,0.9-1,1.4-1.8,1.4C794.2,524.1,794.1,524.1,793.9,524.1L793.9,524.1z M45.4,513.8
		c-0.2-1,0.5-2,1.5-2.2c1-0.2,2,0.5,2.2,1.5c0.2,1-0.5,2-1.5,2.2c-0.1,0-0.2,0-0.4,0C46.3,515.3,45.6,514.7,45.4,513.8L45.4,513.8z
		 M795.8,515.1c-1-0.2-1.6-1.2-1.5-2.2c0.2-1,1.2-1.7,2.2-1.5c1,0.2,1.7,1.2,1.5,2.2c-0.2,0.9-0.9,1.5-1.8,1.5
		C796.1,515.1,796,515.1,795.8,515.1L795.8,515.1z M43.7,504.7c-0.2-1,0.5-2,1.5-2.1c1-0.2,2,0.5,2.1,1.5c0.2,1-0.5,2-1.5,2.1
		c-0.1,0-0.2,0-0.3,0C44.7,506.3,43.9,505.6,43.7,504.7z M797.5,506c-1-0.2-1.7-1.1-1.5-2.1c0.2-1,1.1-1.7,2.1-1.5
		c1,0.2,1.7,1.1,1.5,2.1c-0.2,0.9-0.9,1.5-1.8,1.5C797.8,506,797.6,506,797.5,506L797.5,506z M42.3,495.6c-0.2-1,0.5-1.9,1.6-2.1
		c1-0.1,1.9,0.6,2.1,1.5c0.2,1-0.5,1.9-1.6,2.1c-0.1,0-0.2,0-0.3,0C43.2,497.2,42.4,496.5,42.3,495.6L42.3,495.6z M799,496.9
		c-1-0.1-1.7-1.1-1.6-2.1c0.2-1,1.1-1.7,2.1-1.6c1,0.1,1.7,1.1,1.6,2.1c-0.1,0.9-0.9,1.6-1.8,1.6C799.2,496.9,799.1,496.9,799,496.9
		L799,496.9z M41.1,486.4c-0.1-1,0.6-1.9,1.6-2.1c1-0.1,1.9,0.6,2,1.6c0.1,1-0.6,1.9-1.6,2c-0.1,0-0.1,0-0.2,0
		C42,488,41.2,487.3,41.1,486.4L41.1,486.4z M800.3,487.8c-1-0.1-1.7-1-1.6-2.1c0.1-1,1-1.7,2.1-1.6c1,0.1,1.7,1,1.6,2.1
		c-0.1,0.9-0.9,1.6-1.8,1.6C800.4,487.8,800.4,487.8,800.3,487.8L800.3,487.8z M40.1,477.2c-0.1-1,0.6-1.9,1.7-2
		c1-0.1,1.9,0.6,2,1.7c0.1,1-0.6,1.9-1.7,2c-0.1,0-0.1,0-0.2,0C41,478.8,40.2,478.1,40.1,477.2L40.1,477.2z M801.3,478.6
		c-1-0.1-1.8-1-1.7-2c0.1-1,1-1.8,2-1.7c1,0.1,1.8,1,1.7,2c-0.1,1-0.9,1.7-1.8,1.7C801.4,478.6,801.4,478.6,801.3,478.6L801.3,478.6
		z M39.3,467.9c-0.1-1,0.7-1.9,1.7-2c1-0.1,1.9,0.7,2,1.7c0.1,1-0.7,1.9-1.7,2c0,0-0.1,0-0.1,0C40.2,469.7,39.4,468.9,39.3,467.9
		L39.3,467.9z M802.1,469.4c-1-0.1-1.8-1-1.7-2c0.1-1,1-1.8,2-1.7c1,0.1,1.8,1,1.7,2c-0.1,1-0.9,1.7-1.8,1.7H802.1z M38.8,458.7
		c-0.1-1,0.7-1.9,1.7-1.9c1,0,1.9,0.7,1.9,1.7c0,1-0.7,1.9-1.8,1.9h-0.1C39.6,460.5,38.8,459.7,38.8,458.7L38.8,458.7z M802.7,460.2
		c-1,0-1.8-0.9-1.7-1.9c0-1,0.9-1.8,1.9-1.8c1,0,1.8,0.9,1.8,1.9C804.6,459.5,803.8,460.2,802.7,460.2L802.7,460.2L802.7,460.2z
		 M38.4,449.4c0-1,0.8-1.9,1.8-1.9c1,0,1.9,0.8,1.9,1.8c0,1-0.8,1.9-1.8,1.9h0C39.3,451.3,38.4,450.5,38.4,449.4L38.4,449.4z
		 M803.1,451c-1,0-1.8-0.9-1.8-1.9c0-1,0.9-1.8,1.9-1.8c1,0,1.8,0.9,1.8,1.9v0C804.9,450.2,804.1,451,803.1,451
		C803.1,451,803.1,451,803.1,451L803.1,451z M38.3,440.2L38.3,440.2c0-1,0.8-1.8,1.8-1.8c1,0,1.8,0.8,1.9,1.8c0,1-0.8,1.8-1.8,1.8
		C39.1,442,38.3,441.2,38.3,440.2L38.3,440.2z M801.4,440c0-0.1,0-0.1,0-0.2c0-0.1,0-0.1,0-0.2c0-1,0.8-1.8,1.8-1.8
		c1,0,1.8,0.8,1.8,1.8c0,0.1,0,0.1,0,0.2c0,0.1,0,0.1,0,0.2c0,1-0.8,1.8-1.8,1.8C802.2,441.8,801.4,441,801.4,440L801.4,440z
		 M40.2,432.8c-1,0-1.8-0.9-1.8-1.9c0-1,0.9-1.8,1.9-1.8c1,0,1.8,0.9,1.8,1.9C42.1,432,41.2,432.8,40.2,432.8L40.2,432.8L40.2,432.8
		z M801.3,430.4L801.3,430.4c0-1,0.8-1.9,1.8-1.9c1,0,1.9,0.8,1.9,1.8c0,1-0.8,1.9-1.8,1.9h-0.1
		C802.1,432.2,801.3,431.4,801.3,430.4z M40.5,423.6c-1,0-1.8-0.9-1.8-1.9c0.1-1,0.9-1.8,1.9-1.8c1,0,1.8,0.9,1.8,1.9
		C42.4,422.8,41.5,423.6,40.5,423.6L40.5,423.6L40.5,423.6z M800.9,421.2c0-1,0.7-1.9,1.8-1.9c1-0.1,1.9,0.7,1.9,1.7
		c0,1-0.7,1.9-1.8,1.9h-0.1C801.8,423,801,422.2,800.9,421.2L800.9,421.2z M41,414.4c-1-0.1-1.8-1-1.7-2c0.1-1,1-1.8,2-1.7
		c1,0.1,1.8,1,1.7,2c-0.1,1-0.9,1.7-1.8,1.7C41.1,414.4,41,414.4,41,414.4z M800.4,412c-0.1-1,0.7-1.9,1.7-2c1-0.1,1.9,0.7,2,1.7
		c0.1,1-0.7,1.9-1.7,2c0,0-0.1,0-0.1,0C801.3,413.8,800.4,413,800.4,412L800.4,412z M41.7,405.2c-1-0.1-1.8-1-1.7-2
		c0.1-1,1-1.8,2-1.7c1,0.1,1.8,1,1.7,2c-0.1,1-0.9,1.7-1.8,1.7C41.8,405.2,41.8,405.2,41.7,405.2L41.7,405.2z M799.6,402.9
		c-0.1-1,0.6-1.9,1.6-2c1-0.1,1.9,0.6,2,1.6c0.1,1-0.6,1.9-1.7,2c-0.1,0-0.1,0-0.2,0C800.5,404.6,799.7,403.9,799.6,402.9
		L799.6,402.9z M42.6,396c-1-0.1-1.7-1-1.6-2c0.1-1,1-1.7,2-1.6c1,0.1,1.7,1,1.6,2c-0.1,0.9-0.9,1.6-1.8,1.6
		C42.8,396,42.7,396,42.6,396z M798.6,393.8c-0.1-1,0.6-1.9,1.6-2.1c1-0.1,1.9,0.6,2.1,1.6c0.1,1-0.6,1.9-1.6,2.1
		c-0.1,0-0.2,0-0.2,0C799.5,395.4,798.7,394.7,798.6,393.8L798.6,393.8z M43.8,386.9c-1-0.1-1.7-1.1-1.6-2.1c0.2-1,1.1-1.7,2.1-1.6
		c1,0.1,1.7,1.1,1.6,2.1c-0.1,0.9-0.9,1.6-1.8,1.6C44,386.9,43.9,386.9,43.8,386.9z M797.4,384.7c-0.1-1,0.6-1.9,1.6-2.1
		c1-0.1,1.9,0.6,2.1,1.6c0.1,1-0.6,1.9-1.6,2.1c-0.1,0-0.2,0-0.3,0C798.3,386.3,797.5,385.6,797.4,384.7L797.4,384.7z M45.2,377.8
		c-1-0.2-1.7-1.1-1.5-2.1c0.2-1,1.1-1.7,2.1-1.5c1,0.2,1.7,1.1,1.5,2.1c-0.2,0.9-0.9,1.5-1.8,1.5C45.4,377.8,45.3,377.8,45.2,377.8
		L45.2,377.8z M796,375.6c-0.2-1,0.5-2,1.5-2.1c1-0.2,2,0.5,2.1,1.5c0.2,1-0.5,2-1.5,2.1c-0.1,0-0.2,0-0.3,0
		C796.9,377.2,796.1,376.5,796,375.6L796,375.6z M46.8,368.7c-1-0.2-1.7-1.2-1.5-2.2c0.2-1,1.2-1.7,2.2-1.5c1,0.2,1.6,1.2,1.5,2.2
		c-0.2,0.9-0.9,1.5-1.8,1.5C47,368.7,46.9,368.7,46.8,368.7L46.8,368.7z M794.3,366.6c-0.2-1,0.5-2,1.5-2.2c1-0.2,2,0.5,2.2,1.5
		c0.2,1-0.5,2-1.5,2.2c-0.1,0-0.2,0-0.4,0C795.3,368.1,794.5,367.5,794.3,366.6L794.3,366.6z M48.6,359.6c-1-0.2-1.6-1.2-1.4-2.2
		c0.2-1,1.2-1.6,2.2-1.4c1,0.2,1.6,1.2,1.4,2.2c-0.2,0.9-1,1.4-1.8,1.4C48.9,359.7,48.7,359.7,48.6,359.6L48.6,359.6z M792.4,357.6
		c-0.2-1,0.4-2,1.4-2.2c1-0.2,2,0.4,2.2,1.4c0.2,1-0.4,2-1.4,2.2c-0.1,0-0.3,0-0.4,0C793.4,359.1,792.6,358.5,792.4,357.6
		L792.4,357.6z M50.7,350.6c-1-0.2-1.6-1.2-1.4-2.2c0.2-1,1.2-1.6,2.2-1.4c1,0.2,1.6,1.2,1.4,2.2c-0.2,0.8-1,1.4-1.8,1.4
		C50.9,350.7,50.8,350.7,50.7,350.6L50.7,350.6z M790.3,348.7c-0.2-1,0.4-2,1.3-2.2c1-0.2,2,0.4,2.2,1.3c0.2,1-0.4,2-1.3,2.2
		c-0.2,0-0.3,0.1-0.4,0.1C791.3,350.1,790.6,349.5,790.3,348.7L790.3,348.7z M52.9,341.7c-1-0.3-1.6-1.3-1.3-2.3
		c0.3-1,1.3-1.6,2.3-1.3c1,0.3,1.6,1.3,1.3,2.3c-0.2,0.8-1,1.4-1.8,1.4C53.2,341.8,53.1,341.8,52.9,341.7z M788,339.8
		c-0.3-1,0.3-2,1.3-2.3c1-0.3,2,0.3,2.3,1.3c0.3,1-0.3,2-1.3,2.3c-0.2,0-0.3,0.1-0.5,0.1C789,341.2,788.3,340.6,788,339.8L788,339.8
		z M55.4,332.8c-1-0.3-1.5-1.3-1.2-2.3c0.3-1,1.3-1.5,2.3-1.3c1,0.3,1.5,1.3,1.2,2.3c-0.2,0.8-1,1.3-1.8,1.3
		C55.7,332.9,55.6,332.9,55.4,332.8L55.4,332.8z M785.5,331c-0.3-1,0.3-2,1.2-2.3c1-0.3,2,0.3,2.3,1.2c0.3,1-0.3,2-1.2,2.3
		c-0.2,0-0.3,0.1-0.5,0.1C786.5,332.3,785.8,331.8,785.5,331L785.5,331z M58.1,324c-1-0.3-1.5-1.4-1.2-2.3c0.3-1,1.4-1.5,2.3-1.2
		c1,0.3,1.5,1.4,1.2,2.3c-0.3,0.8-1,1.3-1.7,1.3C58.5,324.1,58.3,324.1,58.1,324L58.1,324z M782.8,322.2c-0.3-1,0.2-2,1.2-2.3
		c1-0.3,2,0.2,2.3,1.2c0.3,1-0.2,2-1.2,2.3c-0.2,0.1-0.4,0.1-0.6,0.1C783.8,323.5,783,323,782.8,322.2L782.8,322.2z M61,315.2
		c-1-0.3-1.5-1.4-1.1-2.3c0.3-1,1.4-1.5,2.3-1.1c1,0.3,1.5,1.4,1.1,2.3c-0.3,0.8-1,1.2-1.7,1.2C61.4,315.3,61.2,315.3,61,315.2
		L61,315.2z M779.8,313.5c-0.3-1,0.2-2,1.1-2.4c1-0.3,2,0.2,2.4,1.1c0.3,1-0.2,2-1.1,2.4c-0.2,0.1-0.4,0.1-0.6,0.1
		C780.8,314.8,780.1,314.3,779.8,313.5z M64.1,306.5c-1-0.4-1.4-1.4-1.1-2.4c0.4-1,1.4-1.4,2.4-1.1c1,0.4,1.4,1.4,1.1,2.4
		c-0.3,0.7-1,1.2-1.7,1.2C64.6,306.7,64.3,306.6,64.1,306.5L64.1,306.5z M776.7,304.9c-0.4-1,0.1-2,1.1-2.4c1-0.4,2,0.1,2.4,1.1
		c0.4,0.9-0.1,2-1.1,2.4c-0.2,0.1-0.5,0.1-0.7,0.1C777.7,306.1,776.9,305.7,776.7,304.9L776.7,304.9z M67.4,297.9
		c-0.9-0.4-1.4-1.5-1-2.4c0.4-0.9,1.5-1.4,2.4-1c0.9,0.4,1.4,1.5,1,2.4c-0.3,0.7-1,1.1-1.7,1.1C67.9,298,67.7,298,67.4,297.9
		L67.4,297.9z M773.3,296.4c-0.4-0.9,0.1-2,1-2.4c0.9-0.4,2,0.1,2.4,1h0c0.4,0.9-0.1,2-1,2.4c-0.2,0.1-0.5,0.1-0.7,0.1
		C774.3,297.5,773.6,297.1,773.3,296.4L773.3,296.4z M71,289.4c-0.9-0.4-1.4-1.5-1-2.4c0.4-0.9,1.5-1.4,2.4-1
		c0.9,0.4,1.4,1.5,0.9,2.4c-0.3,0.7-1,1.1-1.7,1.1C71.5,289.5,71.2,289.5,71,289.4z M769.7,288c-0.4-0.9,0-2,1-2.4
		c0.9-0.4,2,0,2.4,0.9c0.4,0.9,0,2-1,2.4c-0.2,0.1-0.5,0.1-0.7,0.1C770.7,289.1,770,288.7,769.7,288L769.7,288z M74.8,280.9
		c-0.9-0.4-1.3-1.5-0.9-2.4c0.4-0.9,1.5-1.3,2.5-0.9c0.9,0.4,1.3,1.5,0.9,2.4c-0.3,0.7-1,1.1-1.7,1.1C75.3,281.1,75,281,74.8,280.9
		L74.8,280.9z M766,279.6c-0.4-0.9,0-2,0.9-2.4c0.9-0.4,2,0,2.5,0.9c0.4,0.9,0,2-0.9,2.5c-0.3,0.1-0.5,0.2-0.8,0.2
		C767,280.7,766.3,280.3,766,279.6L766,279.6z M78.7,272.6c-0.9-0.5-1.3-1.6-0.8-2.5c0.4-0.9,1.5-1.3,2.5-0.8
		c0.9,0.5,1.3,1.6,0.8,2.5c-0.3,0.6-1,1-1.7,1C79.3,272.8,79,272.7,78.7,272.6L78.7,272.6z M762,271.4c-0.5-0.9-0.1-2,0.8-2.5
		c0.9-0.4,2-0.1,2.5,0.8c0.4,0.9,0.1,2-0.8,2.5c-0.3,0.1-0.5,0.2-0.8,0.2C763,272.4,762.3,272,762,271.4L762,271.4z M82.9,264.3
		c-0.9-0.5-1.2-1.6-0.8-2.5c0.5-0.9,1.6-1.2,2.5-0.8c0.9,0.5,1.3,1.6,0.8,2.5c-0.3,0.6-1,1-1.6,1C83.4,264.5,83.1,264.5,82.9,264.3
		L82.9,264.3z M757.8,263.2c-0.5-0.9-0.1-2,0.8-2.5c0.9-0.5,2-0.1,2.5,0.8c0.5,0.9,0.1,2-0.8,2.5c-0.3,0.1-0.6,0.2-0.9,0.2
		C758.8,264.2,758.2,263.9,757.8,263.2L757.8,263.2z M87.2,256.2c-0.9-0.5-1.2-1.6-0.7-2.5c0.5-0.9,1.6-1.2,2.5-0.7
		c0.9,0.5,1.2,1.6,0.7,2.5c-0.3,0.6-1,0.9-1.6,0.9C87.8,256.4,87.5,256.3,87.2,256.2L87.2,256.2z M753.5,255.2
		c-0.5-0.9-0.2-2,0.7-2.5c0.9-0.5,2-0.2,2.5,0.7c0.5,0.9,0.2,2-0.7,2.5c-0.3,0.2-0.6,0.2-0.9,0.2
		C754.4,256.1,753.8,255.8,753.5,255.2L753.5,255.2z M91.8,248.1c-0.9-0.5-1.2-1.6-0.6-2.5c0.5-0.9,1.6-1.2,2.5-0.7
		c0.9,0.5,1.2,1.6,0.7,2.5c-0.3,0.6-1,0.9-1.6,0.9C92.4,248.4,92.1,248.3,91.8,248.1L91.8,248.1z M748.9,247.3
		c-0.5-0.9-0.2-2,0.6-2.5c0.9-0.5,2-0.2,2.5,0.6c0.5,0.9,0.2,2-0.6,2.5c-0.3,0.2-0.6,0.3-0.9,0.3
		C749.9,248.2,749.3,247.8,748.9,247.3L748.9,247.3z M96.5,240.2c-0.9-0.5-1.1-1.7-0.6-2.5c0.5-0.9,1.7-1.1,2.5-0.6
		c0.9,0.5,1.1,1.7,0.6,2.5c-0.4,0.6-0.9,0.9-1.6,0.9C97.2,240.5,96.8,240.4,96.5,240.2L96.5,240.2z M744.2,239.4
		c-0.5-0.9-0.3-2,0.6-2.5c0.9-0.5,2-0.3,2.5,0.6c0.5,0.9,0.3,2-0.6,2.5c-0.3,0.2-0.6,0.3-1,0.3C745.1,240.3,744.5,240,744.2,239.4
		L744.2,239.4z M101.5,232.4c-0.9-0.6-1.1-1.7-0.5-2.6c0.6-0.8,1.7-1.1,2.6-0.5c0.8,0.6,1.1,1.7,0.5,2.5c-0.3,0.5-0.9,0.8-1.5,0.8
		C102.1,232.7,101.8,232.6,101.5,232.4L101.5,232.4z M739.2,231.7c-0.5-0.9-0.3-2,0.5-2.6c0.8-0.6,2-0.3,2.5,0.5
		c0.6,0.9,0.3,2-0.5,2.6c-0.3,0.2-0.7,0.3-1,0.3C740.2,232.5,739.6,232.3,739.2,231.7L739.2,231.7z M106.6,224.7
		c-0.8-0.6-1-1.7-0.5-2.6c0.6-0.8,1.7-1,2.6-0.5c0.8,0.6,1,1.7,0.5,2.6c-0.4,0.5-0.9,0.8-1.5,0.8C107.3,225.1,106.9,225,106.6,224.7
		L106.6,224.7z M734.1,224.1c-0.6-0.8-0.4-2,0.5-2.6c0.8-0.6,2-0.4,2.6,0.5c0.6,0.8,0.4,2-0.5,2.6c-0.3,0.2-0.7,0.3-1,0.3
		C735,224.9,734.5,224.6,734.1,224.1L734.1,224.1z M111.9,217.2c-0.8-0.6-1-1.8-0.4-2.6c0.6-0.8,1.8-1,2.6-0.4
		c0.8,0.6,1,1.7,0.4,2.6c-0.4,0.5-0.9,0.8-1.5,0.8C112.6,217.5,112.2,217.4,111.9,217.2z M728.8,216.7c-0.6-0.8-0.4-2,0.4-2.6
		c0.8-0.6,2-0.4,2.6,0.4c0.6,0.8,0.4,2-0.4,2.6c-0.3,0.2-0.7,0.3-1.1,0.3C729.7,217.4,729.2,217.1,728.8,216.7L728.8,216.7z
		 M117.4,209.8c-0.8-0.6-1-1.8-0.3-2.6c0.6-0.8,1.8-1,2.6-0.3c0.8,0.6,1,1.8,0.3,2.6c-0.4,0.5-0.9,0.7-1.5,0.7
		C118.1,210.1,117.7,210,117.4,209.8L117.4,209.8z M723.3,209.3c-0.6-0.8-0.5-2,0.3-2.6c0.8-0.6,2-0.5,2.6,0.3
		c0.6,0.8,0.5,2-0.3,2.6c-0.3,0.3-0.7,0.4-1.1,0.4C724.2,210,723.7,209.8,723.3,209.3L723.3,209.3z M123,202.5
		c-0.8-0.6-0.9-1.8-0.3-2.6c0.6-0.8,1.8-0.9,2.6-0.3c0.8,0.6,0.9,1.8,0.3,2.6c-0.4,0.4-0.9,0.7-1.4,0.7
		C123.8,202.9,123.4,202.8,123,202.5L123,202.5z M717.7,202.1c-0.6-0.8-0.5-2,0.3-2.6c0.8-0.6,2-0.5,2.6,0.3c0.6,0.8,0.5,2-0.3,2.6
		c-0.3,0.3-0.8,0.4-1.2,0.4C718.6,202.8,718,202.6,717.7,202.1L717.7,202.1z M128.9,195.3c-0.8-0.7-0.9-1.8-0.2-2.6
		c0.7-0.8,1.8-0.9,2.6-0.2c0.8,0.7,0.9,1.8,0.2,2.6c-0.4,0.4-0.9,0.7-1.4,0.7C129.6,195.8,129.2,195.6,128.9,195.3L128.9,195.3z
		 M711.8,195c-0.7-0.8-0.6-1.9,0.2-2.6c0.8-0.7,1.9-0.6,2.6,0.2c0.7,0.8,0.6,1.9-0.2,2.6c-0.3,0.3-0.8,0.4-1.2,0.4
		C712.7,195.7,712.2,195.5,711.8,195L711.8,195z M134.9,188.3c-0.8-0.7-0.8-1.8-0.2-2.6c0.7-0.8,1.8-0.8,2.6-0.2
		c0.8,0.7,0.8,1.8,0.2,2.6c-0.4,0.4-0.9,0.6-1.4,0.6C135.7,188.8,135.2,188.6,134.9,188.3L134.9,188.3z M705.8,188.1
		c-0.7-0.8-0.6-1.9,0.2-2.6c0.8-0.7,1.9-0.6,2.6,0.2c0.7,0.8,0.6,1.9-0.2,2.6c-0.4,0.3-0.8,0.5-1.2,0.5
		C706.7,188.7,706.2,188.5,705.8,188.1L705.8,188.1z M141,181.5c-0.7-0.7-0.8-1.9-0.1-2.6c0.7-0.8,1.9-0.8,2.6-0.1
		c0.7,0.7,0.8,1.9,0.1,2.6c-0.4,0.4-0.9,0.6-1.3,0.6C141.8,182,141.4,181.8,141,181.5L141,181.5z M699.7,181.3
		c-0.7-0.7-0.7-1.9,0.1-2.6c0.7-0.7,1.9-0.7,2.6,0.1c0.7,0.7,0.7,1.9-0.1,2.6c-0.3,0.3-0.8,0.5-1.3,0.5
		C700.5,181.9,700,181.7,699.7,181.3L699.7,181.3z M147.4,174.8c-0.7-0.7-0.7-1.9,0-2.6c0.7-0.7,1.9-0.7,2.6,0
		c0.7,0.7,0.7,1.9,0,2.6c-0.4,0.4-0.8,0.6-1.3,0.6C148.2,175.3,147.7,175.1,147.4,174.8L147.4,174.8z M693.3,174.7
		c-0.7-0.7-0.7-1.9,0-2.6c0.7-0.7,1.9-0.7,2.6,0c0.7,0.7,0.7,1.9,0,2.6c-0.4,0.4-0.8,0.5-1.3,0.5C694.2,175.2,693.7,175,693.3,174.7
		L693.3,174.7z M153.9,168.2c-0.7-0.7-0.7-1.9,0-2.6c0.7-0.7,1.9-0.7,2.6,0c0.7,0.7,0.7,1.9,0,2.6c-0.4,0.4-0.8,0.5-1.3,0.5
		C154.7,168.8,154.2,168.6,153.9,168.2L153.9,168.2z M686.8,168.2c-0.7-0.7-0.7-1.9,0-2.6c0.7-0.7,1.9-0.7,2.6,0
		c0.7,0.7,0.7,1.9,0,2.6c-0.4,0.4-0.8,0.5-1.3,0.5C687.7,168.7,687.2,168.5,686.8,168.2L686.8,168.2z M160.5,161.8
		c-0.7-0.7-0.6-1.9,0.1-2.6c0.7-0.7,1.9-0.6,2.6,0.1c0.7,0.8,0.6,1.9-0.1,2.6c-0.4,0.3-0.8,0.5-1.2,0.5
		C161.4,162.4,160.9,162.2,160.5,161.8L160.5,161.8z M680.2,161.9c-0.8-0.7-0.8-1.9-0.1-2.6c0.7-0.7,1.9-0.8,2.6-0.1
		c0.8,0.7,0.8,1.9,0.1,2.6c-0.4,0.4-0.9,0.6-1.3,0.6C681,162.4,680.5,162.2,680.2,161.9L680.2,161.9z M167.3,155.6
		c-0.7-0.8-0.6-1.9,0.2-2.6c0.8-0.7,1.9-0.6,2.6,0.2c0.7,0.8,0.6,1.9-0.2,2.6c-0.3,0.3-0.8,0.5-1.2,0.5
		C168.2,156.2,167.7,156,167.3,155.6L167.3,155.6z M673.4,155.7c-0.8-0.7-0.8-1.8-0.2-2.6c0.7-0.8,1.8-0.8,2.6-0.2
		c0.8,0.7,0.8,1.8,0.2,2.6c-0.4,0.4-0.9,0.6-1.4,0.6C674.2,156.2,673.8,156,673.4,155.7L673.4,155.7z M174.2,149.5
		c-0.7-0.8-0.6-1.9,0.2-2.6c0.8-0.6,1.9-0.6,2.6,0.2c0.6,0.8,0.6,1.9-0.2,2.6c-0.3,0.3-0.8,0.4-1.2,0.4
		C175.1,150.2,174.6,150,174.2,149.5L174.2,149.5z M666.5,149.7c-0.8-0.6-0.9-1.8-0.2-2.6c0.7-0.8,1.8-0.9,2.6-0.2
		c0.8,0.7,0.9,1.8,0.2,2.6c-0.4,0.4-0.9,0.7-1.4,0.7C667.2,150.1,666.8,150,666.5,149.7L666.5,149.7z M181.3,143.6
		c-0.6-0.8-0.5-2,0.3-2.6c0.8-0.6,2-0.5,2.6,0.3c0.6,0.8,0.5,2-0.3,2.6c-0.3,0.3-0.7,0.4-1.1,0.4
		C182.2,144.3,181.7,144.1,181.3,143.6L181.3,143.6z M659.4,143.8c-0.8-0.6-0.9-1.8-0.3-2.6c0.6-0.8,1.8-0.9,2.6-0.3
		c0.8,0.6,0.9,1.8,0.3,2.6c-0.4,0.5-0.9,0.7-1.4,0.7C660.1,144.3,659.7,144.1,659.4,143.8L659.4,143.8z M188.5,137.9
		c-0.6-0.8-0.5-2,0.3-2.6v0c0.8-0.6,2-0.5,2.6,0.4c0.6,0.8,0.5,2-0.3,2.6c-0.3,0.3-0.7,0.4-1.1,0.4
		C189.4,138.6,188.9,138.4,188.5,137.9L188.5,137.9z M652.2,138.2c-0.8-0.6-1-1.8-0.3-2.6c0.6-0.8,1.8-1,2.6-0.3
		c0.8,0.6,1,1.8,0.3,2.6c-0.4,0.5-0.9,0.7-1.5,0.7C652.9,138.6,652.5,138.4,652.2,138.2L652.2,138.2z M195.9,132.4
		c-0.6-0.8-0.4-2,0.4-2.6c0.8-0.6,2-0.4,2.6,0.4c0.6,0.8,0.4,2-0.4,2.6c-0.3,0.2-0.7,0.4-1.1,0.4
		C196.8,133.1,196.2,132.9,195.9,132.4L195.9,132.4z M644.8,132.7c-0.8-0.6-1-1.8-0.4-2.6c0.6-0.8,1.7-1,2.6-0.4
		c0.8,0.6,1,1.7,0.4,2.6c-0.4,0.5-0.9,0.8-1.5,0.8C645.5,133,645.1,132.9,644.8,132.7L644.8,132.7z M203.4,127
		c-0.6-0.8-0.4-2,0.5-2.6c0.8-0.6,2-0.4,2.6,0.5c0.6,0.8,0.4,2-0.5,2.6c-0.3,0.2-0.7,0.3-1,0.3C204.3,127.8,203.7,127.5,203.4,127
		L203.4,127z M637.3,127.4c-0.8-0.6-1-1.7-0.5-2.6c0.6-0.8,1.7-1,2.6-0.5c0.8,0.6,1,1.7,0.5,2.6c-0.4,0.5-0.9,0.8-1.5,0.8
		C638,127.7,637.6,127.6,637.3,127.4L637.3,127.4z M211,121.8c-0.6-0.8-0.3-2,0.5-2.5c0.9-0.6,2-0.3,2.6,0.5c0.6,0.8,0.3,2-0.5,2.6
		c-0.3,0.2-0.7,0.3-1,0.3C211.9,122.7,211.3,122.4,211,121.8L211,121.8z M629.7,122.3c-0.8-0.6-1.1-1.7-0.5-2.6
		c0.6-0.8,1.7-1.1,2.6-0.5c0.8,0.6,1.1,1.7,0.5,2.6c-0.4,0.5-1,0.8-1.5,0.8C630.3,122.6,630,122.5,629.7,122.3L629.7,122.3z
		 M218.7,116.8c-0.5-0.9-0.3-2,0.6-2.5c0.9-0.5,2-0.3,2.5,0.6c0.5,0.9,0.3,2-0.6,2.5c-0.3,0.2-0.6,0.3-1,0.3
		C219.6,117.7,219,117.4,218.7,116.8L218.7,116.8z M621.9,117.3c-0.9-0.5-1.1-1.7-0.6-2.5c0.5-0.9,1.7-1.1,2.5-0.6
		c0.9,0.5,1.1,1.7,0.6,2.5c-0.4,0.6-1,0.9-1.6,0.9C622.6,117.6,622.2,117.5,621.9,117.3L621.9,117.3z M226.5,112
		c-0.5-0.9-0.2-2,0.6-2.5c0.9-0.5,2-0.2,2.5,0.7c0.5,0.9,0.2,2-0.6,2.5c-0.3,0.2-0.6,0.3-0.9,0.3C227.5,112.9,226.9,112.6,226.5,112
		L226.5,112z M614.1,112.5c-0.9-0.5-1.2-1.7-0.7-2.5c0.5-0.9,1.6-1.2,2.5-0.7c0.9,0.5,1.2,1.6,0.7,2.5c-0.3,0.6-1,0.9-1.6,0.9
		C614.7,112.8,614.4,112.7,614.1,112.5L614.1,112.5z M234.5,107.4c-0.5-0.9-0.2-2,0.7-2.5c0.9-0.5,2-0.2,2.5,0.7
		c0.5,0.9,0.2,2-0.7,2.5c-0.3,0.2-0.6,0.2-0.9,0.2C235.5,108.4,234.8,108,234.5,107.4L234.5,107.4z M606.1,108
		c-0.9-0.5-1.2-1.6-0.7-2.5c0.5-0.9,1.6-1.2,2.5-0.7c0.9,0.5,1.2,1.6,0.7,2.5c-0.3,0.6-1,0.9-1.6,0.9
		C606.7,108.2,606.4,108.1,606.1,108L606.1,108z M242.6,103c-0.5-0.9-0.1-2,0.8-2.5c0.9-0.5,2-0.1,2.5,0.8c0.5,0.9,0.1,2-0.8,2.5
		c-0.3,0.1-0.6,0.2-0.9,0.2C243.5,104,242.9,103.6,242.6,103L242.6,103z M598,103.6c-0.9-0.5-1.3-1.6-0.8-2.5
		c0.5-0.9,1.6-1.2,2.5-0.8c0.9,0.5,1.2,1.6,0.8,2.5c-0.3,0.6-1,1-1.6,1C598.6,103.8,598.3,103.8,598,103.6L598,103.6z M250.7,98.8
		c-0.4-0.9-0.1-2,0.8-2.5c0.9-0.4,2-0.1,2.5,0.8c0.5,0.9,0.1,2-0.8,2.5c-0.3,0.1-0.5,0.2-0.8,0.2C251.7,99.8,251.1,99.4,250.7,98.8
		L250.7,98.8z M589.8,99.4c-0.9-0.5-1.3-1.6-0.8-2.5c0.4-0.9,1.6-1.3,2.5-0.8c0.9,0.5,1.3,1.6,0.8,2.5c-0.3,0.7-1,1-1.7,1
		C590.4,99.6,590.1,99.6,589.8,99.4L589.8,99.4z M259,94.7c-0.4-0.9,0-2,0.9-2.5c0.9-0.4,2,0,2.4,0.9c0.4,0.9,0,2-0.9,2.4
		c-0.3,0.1-0.5,0.2-0.8,0.2C260,95.8,259.3,95.4,259,94.7z M581.5,95.5c-0.9-0.4-1.3-1.5-0.9-2.4c0.4-0.9,1.5-1.3,2.5-0.9
		c0.9,0.4,1.3,1.5,0.9,2.4c-0.3,0.7-1,1.1-1.7,1.1C582,95.6,581.8,95.6,581.5,95.5L581.5,95.5z M267.4,90.9c-0.4-0.9,0-2,0.9-2.4
		c0.9-0.4,2,0,2.4,0.9c0.4,0.9,0,2-1,2.4c-0.2,0.1-0.5,0.2-0.7,0.2C268.3,92,267.7,91.6,267.4,90.9L267.4,90.9z M573.1,91.7
		c-0.9-0.4-1.4-1.5-1-2.4c0.4-0.9,1.5-1.4,2.4-1c0.9,0.4,1.4,1.5,1,2.4c-0.3,0.7-1,1.1-1.7,1.1C573.6,91.8,573.4,91.8,573.1,91.7
		L573.1,91.7z M275.8,87.3c-0.4-0.9,0.1-2,1-2.4c0.9-0.4,2,0.1,2.4,1c0.4,0.9-0.1,2-1,2.4c-0.2,0.1-0.5,0.1-0.7,0.1
		C276.8,88.4,276.1,88,275.8,87.3z M564.7,88.1c-0.9-0.4-1.4-1.5-1-2.4c0.4-1,1.5-1.4,2.4-1c0.9,0.4,1.4,1.4,1,2.4
		c-0.3,0.7-1,1.1-1.7,1.1C565.1,88.2,564.9,88.2,564.7,88.1z M284.4,83.9c-0.4-0.9,0.1-2,1.1-2.4c1-0.4,2,0.1,2.4,1.1
		c0.3,1-0.1,2-1.1,2.4c-0.2,0.1-0.4,0.1-0.7,0.1C285.3,85.1,284.6,84.6,284.4,83.9L284.4,83.9z M556.1,84.7
		c-0.9-0.4-1.4-1.4-1.1-2.4c0.4-1,1.4-1.4,2.4-1.1c1,0.4,1.4,1.4,1.1,2.4c-0.3,0.7-1,1.2-1.7,1.2C556.5,84.9,556.3,84.8,556.1,84.7
		L556.1,84.7z M293,80.7c-0.3-1,0.2-2,1.1-2.3c1-0.3,2,0.2,2.3,1.1c0.3,1-0.2,2-1.1,2.3c-0.2,0.1-0.4,0.1-0.6,0.1
		C294,81.9,293.3,81.4,293,80.7z M547.4,81.6c-1-0.3-1.5-1.4-1.1-2.3c0.3-1,1.4-1.5,2.3-1.1c1,0.3,1.5,1.4,1.1,2.3
		c-0.3,0.8-1,1.2-1.7,1.2C547.8,81.7,547.6,81.7,547.4,81.6L547.4,81.6z M301.7,77.7c-0.3-1,0.2-2,1.2-2.3c1-0.3,2,0.2,2.3,1.2
		c0.3,1-0.2,2-1.2,2.3c-0.2,0.1-0.4,0.1-0.6,0.1C302.7,78.9,302,78.4,301.7,77.7L301.7,77.7z M538.7,78.6c-1-0.3-1.5-1.4-1.2-2.3
		c0.3-1,1.3-1.5,2.3-1.2c1,0.3,1.5,1.4,1.2,2.3c-0.3,0.8-1,1.3-1.7,1.3C539.1,78.7,538.9,78.7,538.7,78.6L538.7,78.6z M310.5,74.9
		c-0.3-1,0.3-2,1.2-2.3c1-0.3,2,0.3,2.3,1.2c0.3,1-0.3,2-1.2,2.3c-0.2,0.1-0.4,0.1-0.5,0.1C311.5,76.2,310.7,75.7,310.5,74.9
		L310.5,74.9z M530,75.9c-1-0.3-1.5-1.3-1.2-2.3c0.3-1,1.3-1.5,2.3-1.2c1,0.3,1.5,1.3,1.2,2.3c-0.2,0.8-1,1.3-1.8,1.3
		C530.3,76,530.1,76,530,75.9L530,75.9z M319.4,72.3c-0.3-1,0.3-2,1.3-2.3c1-0.3,2,0.3,2.3,1.3c0.3,1-0.3,2-1.3,2.3
		c-0.2,0-0.3,0.1-0.5,0.1C320.3,73.7,319.6,73.1,319.4,72.3L319.4,72.3z M521.1,73.4c-1-0.3-1.6-1.3-1.3-2.3c0.3-1,1.3-1.6,2.3-1.3
		v0c1,0.3,1.6,1.3,1.3,2.3c-0.2,0.8-1,1.4-1.8,1.4C521.5,73.5,521.3,73.5,521.1,73.4z M328.3,69.9c-0.2-1,0.4-2,1.4-2.2
		c1-0.3,2,0.4,2.2,1.4c0.2,1-0.4,2-1.3,2.2c-0.1,0-0.3,0.1-0.4,0.1C329.2,71.3,328.5,70.8,328.3,69.9L328.3,69.9z M512.3,71.1
		c-1-0.3-1.6-1.2-1.4-2.2c0.2-1,1.2-1.6,2.2-1.4c1,0.2,1.6,1.2,1.3,2.2c-0.2,0.8-1,1.4-1.8,1.4C512.5,71.2,512.4,71.2,512.3,71.1
		L512.3,71.1z M337.2,67.8c-0.2-1,0.4-2,1.4-2.2c1-0.2,2,0.4,2.2,1.4c0.2,1-0.4,2-1.4,2.2c-0.1,0-0.3,0-0.4,0
		C338.2,69.2,337.4,68.7,337.2,67.8L337.2,67.8z M503.3,69.1c-1-0.2-1.6-1.2-1.4-2.2c0.2-1,1.2-1.6,2.2-1.4c1,0.2,1.6,1.2,1.4,2.2
		c-0.2,0.9-0.9,1.4-1.8,1.4C503.6,69.1,503.4,69.1,503.3,69.1L503.3,69.1z M346.3,65.9c-0.2-1,0.5-2,1.5-2.2c1-0.2,2,0.5,2.2,1.5
		c0.2,1-0.5,2-1.5,2.2c-0.1,0-0.2,0-0.4,0C347.2,67.4,346.4,66.7,346.3,65.9L346.3,65.9z M494.3,67.2L494.3,67.2
		c-1-0.2-1.7-1.2-1.5-2.2c0.2-1,1.1-1.7,2.2-1.5c1,0.2,1.6,1.2,1.5,2.2c-0.2,0.9-0.9,1.5-1.8,1.5C494.6,67.2,494.4,67.2,494.3,67.2z
		 M355.3,64.2c-0.2-1,0.5-1.9,1.5-2.1c1-0.2,2,0.5,2.1,1.5c0.2,1-0.5,2-1.5,2.1c-0.1,0-0.2,0-0.3,0
		C356.2,65.7,355.5,65.1,355.3,64.2L355.3,64.2z M485.3,65.6c-1-0.2-1.7-1.1-1.5-2.1c0.2-1,1.1-1.7,2.1-1.5c1,0.2,1.7,1.1,1.5,2.1
		c-0.1,0.9-0.9,1.5-1.8,1.5C485.5,65.6,485.4,65.6,485.3,65.6L485.3,65.6z M364.4,62.7c-0.1-1,0.6-1.9,1.6-2.1
		c1-0.2,1.9,0.5,2.1,1.5c0.1,1-0.6,1.9-1.6,2.1c-0.1,0-0.2,0-0.3,0C365.3,64.3,364.5,63.6,364.4,62.7L364.4,62.7z M476.2,64.2
		c-1-0.1-1.7-1.1-1.6-2.1c0.1-1,1.1-1.7,2.1-1.6c1,0.1,1.7,1.1,1.6,2.1c-0.1,0.9-0.9,1.6-1.8,1.6C476.4,64.2,476.3,64.2,476.2,64.2
		L476.2,64.2z M373.5,61.4c-0.1-1,0.6-1.9,1.6-2c1-0.1,1.9,0.6,2,1.6c0.1,1-0.6,1.9-1.6,2c-0.1,0-0.1,0-0.2,0
		C374.5,63.1,373.7,62.4,373.5,61.4L373.5,61.4z M467.1,63c-1-0.1-1.7-1-1.6-2c0.1-1,1-1.7,2.1-1.6c1,0.1,1.7,1,1.6,2
		c-0.1,0.9-0.9,1.6-1.8,1.6C467.3,63,467.2,63,467.1,63L467.1,63z M382.7,60.4c-0.1-1,0.6-1.9,1.7-2c1-0.1,1.9,0.6,2,1.7
		c0.1,1-0.6,1.9-1.7,2h-0.2C383.6,62,382.8,61.3,382.7,60.4L382.7,60.4z M458,62c-1-0.1-1.8-1-1.7-2c0.1-1,1-1.8,2-1.7
		c1,0.1,1.8,1,1.7,2c-0.1,1-0.9,1.7-1.8,1.7L458,62L458,62z M391.9,59.6c-0.1-1,0.7-1.9,1.7-2c1-0.1,1.9,0.7,2,1.7
		c0.1,1-0.7,1.9-1.7,2c0,0-0.1,0-0.1,0C392.8,61.3,392,60.5,391.9,59.6L391.9,59.6z M448.9,61.2c-1-0.1-1.8-1-1.7-2
		c0.1-1,1-1.8,2-1.7c1,0.1,1.8,1,1.7,2c-0.1,1-0.9,1.7-1.8,1.7C449,61.2,448.9,61.2,448.9,61.2L448.9,61.2z M401.1,59
		c0-1,0.7-1.9,1.8-1.9c1,0,1.9,0.7,1.9,1.8c0,1-0.7,1.9-1.8,1.9c0,0-0.1,0-0.1,0C401.9,60.7,401.1,60,401.1,59L401.1,59z
		 M439.7,60.7c-1-0.1-1.8-0.9-1.8-1.9c0.1-1,0.9-1.8,1.9-1.8c1,0,1.8,0.9,1.8,1.9C441.6,59.9,440.8,60.7,439.7,60.7L439.7,60.7
		L439.7,60.7z M410.3,58.6c0-1,0.8-1.9,1.8-1.9c1,0,1.9,0.8,1.9,1.8c0,1-0.8,1.9-1.8,1.9h0C411.2,60.4,410.3,59.6,410.3,58.6z
		 M430.5,60.4c-1,0-1.8-0.9-1.8-1.9c0-1,0.9-1.8,1.9-1.8c1,0,1.8,0.9,1.8,1.9C432.4,59.6,431.6,60.4,430.5,60.4
		C430.6,60.4,430.6,60.4,430.5,60.4L430.5,60.4z M419.5,58.4c0-1,0.8-1.8,1.8-1.8c1,0,1.9,0.8,1.9,1.8c0,1-0.8,1.8-1.8,1.8
		C420.3,60.3,419.5,59.4,419.5,58.4L419.5,58.4z"/>
</g>
</svg>
