<svg xmlns="http://www.w3.org/2000/svg" width="850.39" height="850.39" viewBox="0 0 850.39 850.39"><path opacity=".15" fill="#FFF" d="M533.766 721.974c.895-.312 1.62-.293 2.166.08.566.367 1.018 1.036 1.357 2.008l-1.435.504-.074-.218c-.065-.192-.132-.357-.187-.494-.066-.132-.15-.27-.236-.4-.094-.13-.188-.235-.29-.3-.105-.067-.218-.11-.358-.124-.153-.02-.304 0-.464.057-.133.052-.244.104-.34.175-.094.075-.17.143-.234.217-.057.07-.104.165-.123.276-.038.104-.058.203-.067.297-.008.096 0 .208.012.354l.064.357c.02.095.058.227.104.4.057.164.094.297.13.386.02.085.077.23.144.41.027.085.047.143.057.184.064.165.11.298.16.41.037.112.094.23.16.358.064.122.12.23.188.306.057.08.133.155.217.227.086.07.17.123.264.15.096.016.21.023.322.02.12-.004.254-.028.395-.08.247-.09.437-.25.567-.48.13-.23.197-.47.207-.72l1.215-.435 1.91 5.398-4.427 1.568-.51-1.434 3.14-1.105-.774-2.46c-.32.378-.755.67-1.3.862-.33.11-.633.17-.914.154-.283-.015-.537-.065-.754-.188-.227-.113-.434-.278-.623-.495-.198-.216-.356-.46-.5-.733-.15-.26-.282-.57-.405-.92-.148-.428-.264-.818-.338-1.187-.076-.357-.113-.727-.113-1.088 0-.354.057-.68.17-.962.104-.282.293-.54.535-.772.25-.24.58-.42.976-.564zm-50.174 14.047l1.988 8.11 1.094-.27.283 1.105c-.68.443-1.084.935-1.207 1.47l-1.104.266-2.535-10.32 1.482-.36zm-5.38 1.204c.556-.133 1.075-.117 1.536.052.453.17.838.457 1.13.86.302.406.52.906.67 1.51l1.073 4.424c.247.956.21 1.753-.083 2.396-.303.65-.887 1.08-1.742 1.29-.85.213-1.564.102-2.13-.343s-.972-1.126-1.196-2.078l-1.085-4.423c-.23-.924-.19-1.72.113-2.38.3-.664.875-1.097 1.715-1.308zm.302 1.214c-.744.18-.96.886-.66 2.11l1.084 4.428c.057.207.113.392.16.552.057.16.123.315.217.472.086.155.19.282.293.367.113.095.234.155.387.192.15.04.318.032.508-.01.18-.053.33-.12.453-.227.11-.1.207-.217.254-.345.047-.133.076-.287.086-.467.008-.18 0-.353-.03-.518-.026-.165-.065-.354-.103-.562L480.07 740c-.058-.24-.124-.456-.218-.653-.084-.192-.18-.372-.3-.542-.134-.164-.284-.277-.454-.35-.178-.063-.37-.068-.584-.017zm-49.88 3.364l.028 8.35h1.14v1.14c-.763.278-1.263.655-1.517 1.14l-1.143.006-.027-10.63 1.518-.006zm-5.448-.09c.934 0 1.61.265 2.018.792.404.532.61 1.314.623 2.347l-1.527.006v-.235c0-.2-.01-.375-.02-.53-.02-.147-.047-.298-.086-.448-.047-.16-.104-.286-.178-.382-.076-.1-.17-.18-.293-.24-.13-.062-.283-.094-.46-.094-.134 0-.257.02-.378.053-.113.035-.2.073-.283.126-.076.047-.15.123-.217.212-.066.104-.113.184-.16.264-.037.085-.066.198-.104.34-.026.142-.046.264-.056.357-.02.098-.027.23-.04.408 0 .18-.007.315-.007.405v.634c.008.17.008.315.008.435.012.127.02.254.04.396.02.143.046.26.073.354.03.094.076.188.133.282.058.1.124.17.208.222.076.062.17.104.293.132.112.038.245.058.396.052.266 0 .5-.085.697-.264.197-.174.34-.382.426-.617l1.298-.006.02 5.73-4.7.018v-1.518l3.315-.015.084-2.578c-.424.255-.932.388-1.516.388-.34 0-.642-.047-.905-.15-.264-.105-.48-.25-.648-.434-.18-.18-.312-.406-.426-.67-.11-.27-.187-.557-.233-.857s-.064-.632-.074-1c0-.456.027-.866.074-1.238.05-.36.133-.72.244-1.06.124-.34.284-.627.48-.857.2-.23.454-.414.774-.552.313-.14.69-.205 1.112-.21zm-53.452-3.405l-.142 1.514-2.996 3.533c-.037.043-.122.128-.235.27-.12.132-.206.235-.244.277-.036.052-.112.137-.206.27-.104.126-.17.227-.207.296-.038.066-.096.17-.17.297-.066.127-.123.245-.15.34-.038.112-.066.227-.104.367-.028.138-.058.273-.066.42-.037.418.02.79.188 1.103.17.314.435.49.812.52.207.017.404-.013.564-.11.16-.09.292-.228.387-.41.104-.18.18-.372.234-.58.057-.21.094-.433.112-.688l.038-.377 1.517.143-.037.383c-.095.994-.377 1.743-.856 2.252-.473.5-1.17.716-2.082.626-.857-.074-1.49-.38-1.904-.903-.404-.526-.563-1.225-.48-2.092.028-.325.086-.63.17-.903.086-.282.198-.543.35-.793.142-.25.273-.452.396-.612.122-.165.282-.362.5-.607l2.958-3.155-3.778-.354.142-1.512 5.288.49zm-8.81-.933c.576.057 1.057.24 1.434.55.386.31.642.703.79 1.185.152.483.2 1.025.133 1.647l-.423 4.53c-.085.98-.377 1.72-.876 2.233-.49.52-1.177.74-2.06.65-.868-.075-1.51-.425-1.897-1.02-.396-.6-.546-1.387-.452-2.356l.427-4.537c.084-.94.386-1.682.885-2.21.507-.526 1.185-.748 2.043-.673zm-.113 1.244c-.753-.066-1.195.526-1.31 1.785l-.423 4.535c-.02.21-.028.4-.028.57 0 .175.02.34.046.52.038.174.085.32.16.44.065.13.17.232.302.313.132.085.292.133.48.15.188.015.357-.005.5-.057.14-.06.264-.146.356-.25.085-.107.16-.244.228-.41.064-.17.11-.334.15-.504.027-.165.057-.35.074-.564l.424-4.537c.02-.24.03-.478.01-.69-.01-.206-.047-.414-.112-.606-.065-.197-.16-.357-.312-.48-.14-.122-.317-.192-.545-.216zm-43.368-11.547l-.52 1.428-3.797 2.662c-.048.032-.142.1-.29.202-.152.104-.256.175-.304.212-.056.038-.14.104-.27.203-.132.1-.218.18-.274.234-.056.058-.142.144-.234.25-.104.105-.18.208-.235.293-.057.09-.123.202-.188.33-.067.117-.135.25-.182.392-.14.4-.17.768-.084 1.11.084.346.3.575.642.702.207.075.396.09.584.038.18-.048.34-.146.48-.297s.263-.315.366-.51c.104-.184.198-.395.283-.63l.13-.358 1.433.518-.132.358c-.338.938-.8 1.592-1.394 1.96-.584.377-1.31.405-2.177.094-.812-.296-1.35-.744-1.61-1.355-.256-.612-.237-1.328.056-2.148.112-.307.235-.59.396-.834.15-.25.33-.476.537-.674.205-.208.385-.373.534-.495.16-.123.368-.283.633-.467l3.664-2.304-3.568-1.295.518-1.43 5.002 1.81zm-8.245-3.1c.896.326 1.434.803 1.63 1.442.198.642.123 1.438-.226 2.412l-1.432-.52.085-.22c.064-.19.122-.355.16-.5.037-.147.064-.297.074-.458.02-.16.01-.306-.037-.414-.027-.117-.095-.23-.197-.334-.096-.1-.227-.184-.387-.236-.133-.047-.255-.074-.377-.084-.113-.005-.218 0-.313.02-.094.02-.188.064-.273.127-.094.07-.18.137-.245.198-.065.064-.132.154-.208.28-.074.12-.132.232-.18.313-.046.09-.103.21-.17.38-.074.16-.12.288-.148.378-.038.09-.086.23-.15.41-.028.08-.048.142-.066.184-.057.16-.112.292-.142.41-.037.113-.075.244-.104.38-.036.14-.047.256-.057.36 0 .098.01.2.028.313.02.105.057.2.112.274.058.08.133.155.235.227.095.076.207.13.35.18.255.096.498.09.754-.004.234-.095.44-.24.61-.435l1.217.44-1.948 5.394-4.42-1.603.52-1.42 3.118 1.124.97-2.384c-.49.084-1.008.037-1.555-.16-.33-.117-.593-.272-.8-.46-.22-.19-.378-.397-.473-.63-.094-.228-.15-.487-.16-.775-.01-.292.01-.58.075-.88.058-.298.15-.623.273-.968.15-.43.32-.8.49-1.135.17-.33.366-.632.603-.91.227-.28.48-.493.735-.64.264-.15.573-.236.914-.255.352-.015.73.042 1.115.184zm-45.386-18.75c.765.4 1.234.926 1.414 1.562.17.64.057 1.352-.35 2.125l-.18.334-1.338-.71c.104-.207.198-.388.265-.542.066-.15.124-.32.16-.495.04-.18.05-.33.03-.457-.02-.132-.076-.26-.17-.386-.105-.128-.236-.23-.405-.33-.18-.09-.35-.138-.5-.146-.16-.005-.292.02-.414.075s-.244.15-.366.28c-.113.133-.217.273-.32.41-.085.147-.188.32-.292.532-.283.537-.405 1.01-.34 1.41.047.4.32.725.8.975l-.705 1.343c-.49-.255-.896-.335-1.206-.24-.3.09-.593.386-.847.876-.236.447-.34.824-.312 1.126.03.302.236.552.613.754.17.09.34.137.5.146s.29-.02.414-.075c.113-.052.235-.15.358-.282.122-.127.226-.27.32-.41.084-.14.187-.32.302-.526l1.338.706-.17.334c-.415.77-.934 1.263-1.556 1.48-.642.216-1.33.13-2.093-.27-.764-.405-1.234-.92-1.404-1.564-.18-.646-.064-1.348.34-2.12.282-.532.632-.904 1.047-1.126.424-.212.876-.272 1.355-.188-.356-.373-.547-.825-.564-1.35-.01-.52.143-1.088.463-1.704.462-.882 1.008-1.47 1.647-1.758.635-.288 1.36-.213 2.17.21zm-5.482-2.887c.51.273.877.622 1.11 1.05.236.43.32.893.273 1.4-.036.49-.206 1.02-.498 1.567l-2.12 4.032c-.452.862-1.008 1.438-1.658 1.73-.65.29-1.375.228-2.156-.18-.782-.416-1.234-.977-1.366-1.68-.133-.706.027-1.487.48-2.345l2.118-4.033c.443-.843 1-1.413 1.668-1.705.67-.294 1.386-.242 2.15.163zm-.584 1.103c-.67-.354-1.302.028-1.895 1.15l-2.12 4.026c-.096.192-.18.362-.246.522-.064.155-.112.32-.15.494-.027.175-.037.335-.027.478.02.137.075.27.17.396.084.127.216.235.387.325.16.09.328.132.48.132.16 0 .29-.03.423-.09.122-.066.245-.16.368-.293.13-.127.234-.264.33-.405.084-.142.187-.306.28-.494l2.13-4.033c.114-.222.208-.424.273-.63.065-.203.112-.4.122-.608.02-.207-.01-.392-.104-.557-.083-.174-.226-.31-.422-.414zm-36.927-25.718c.67.537 1.037 1.135 1.095 1.795.057.66-.188 1.338-.735 2.02l-.235.298-1.188-.94c.142-.185.264-.354.358-.49.094-.142.18-.297.254-.46.065-.16.112-.31.112-.444 0-.127-.027-.264-.104-.404-.065-.142-.18-.272-.34-.396-.15-.127-.302-.202-.46-.235-.152-.037-.293-.04-.416-.004-.133.028-.265.1-.404.208-.15.107-.273.22-.396.35-.112.116-.244.272-.387.465-.385.472-.583.913-.602 1.31-.02.41.18.777.603 1.117l-.94 1.187c-.434-.344-.81-.494-1.13-.462-.32.033-.65.273-1 .712-.31.393-.48.74-.51 1.036-.036.312.124.594.454.857.16.123.312.203.47.24.143.032.283.032.415.005.122-.038.264-.104.404-.212s.273-.23.387-.35c.123-.122.246-.278.397-.466l1.188.946-.235.297c-.537.688-1.14 1.074-1.8 1.17-.66.098-1.328-.124-1.997-.656-.68-.536-1.036-1.135-1.094-1.794-.058-.664.187-1.343.734-2.02.367-.472.78-.772 1.234-.904.45-.138.903-.113 1.364.062-.28-.438-.386-.914-.3-1.428.074-.518.338-1.046.762-1.597.622-.783 1.272-1.254 1.95-1.414.67-.17 1.377.027 2.093.602zm-4.814-3.82c.744.583 1.103 1.214 1.084 1.878-.02.664-.34 1.408-.98 2.215l-1.188-.94.14-.19c.124-.16.236-.302.313-.424.084-.127.16-.26.226-.404.057-.15.095-.283.095-.41.01-.118-.028-.245-.086-.372-.058-.127-.15-.245-.293-.358-.112-.08-.217-.15-.32-.19-.112-.044-.216-.072-.31-.086-.096-.01-.198 0-.303.037-.113.038-.208.07-.292.107-.085.043-.18.104-.293.198-.105.094-.198.18-.273.245-.065.064-.16.164-.272.297-.122.132-.208.24-.264.315-.065.074-.15.192-.272.34-.057.068-.095.116-.122.154-.104.13-.198.248-.265.344-.074.1-.142.202-.215.323-.076.123-.134.23-.16.32-.038.104-.066.198-.076.307-.02.113-.01.213.02.303.02.094.074.188.14.287.066.1.17.197.273.286.218.17.452.24.717.228.265-.01.5-.075.726-.208l1.008.797-3.56 4.49-3.687-2.917.952-1.188 2.6 2.06 1.667-1.955c-.49-.07-.96-.283-1.423-.646-.264-.216-.47-.447-.61-.687-.143-.25-.23-.494-.246-.744-.01-.25.01-.51.095-.792.084-.273.197-.547.357-.812.15-.264.34-.536.564-.828.283-.354.557-.664.82-.92.27-.26.556-.484.866-.674.302-.192.604-.31.903-.367.303-.057.613-.04.952.048.33.094.658.268.988.532zm-33.72-32.988l-2.083 1.757 1.95 2.322-1.292 1.093-6.473 1.965-1.216-1.456 4.945-4.16-.754-.898 1.105-.924.753.9 2.092-1.764.972 1.164zm-2.206 3.844l-.98-1.163-3.495 2.94 4.475-1.776zm-1.667-8.616c.377.443.584.91.64 1.396.048.49-.037.95-.27 1.395-.237.446-.585.87-1.065 1.268l-3.486 2.935c-.745.626-1.472.952-2.188.977-.716.023-1.356-.312-1.93-.99-.567-.668-.774-1.36-.634-2.062.143-.707.584-1.36 1.33-1.992l3.494-2.932c.727-.617 1.45-.933 2.177-.95.732-.027 1.372.29 1.93.954zm-.952.805c-.49-.58-1.216-.468-2.187.35l-3.484 2.93c-.16.132-.303.27-.424.387-.113.117-.228.254-.33.404-.096.146-.16.292-.198.425-.037.13-.037.276 0 .433.028.146.113.297.236.442.12.15.254.25.396.307.142.062.292.09.424.075.143-.01.292-.058.462-.127.16-.07.312-.155.452-.255.132-.095.282-.207.452-.35l3.486-2.93c.188-.16.35-.325.49-.485.14-.154.254-.33.348-.51.095-.187.133-.376.113-.564-.01-.184-.095-.368-.235-.533zm-24.706-34.23l-2.402 1.29 1.44 2.677-1.487.802-6.728.606-.904-1.673 5.7-3.07-.556-1.026 1.263-.686.557 1.03 2.402-1.29.716 1.34zm-2.94 3.308l-.726-1.333-4.014 2.162 4.74-.83zm.152-8.725c.442.834.527 1.55.254 2.157-.272.607-.876 1.16-1.78 1.654l-.717-1.35.21-.106c.178-.096.328-.185.45-.27.123-.085.245-.18.358-.287.12-.107.208-.222.255-.335.047-.104.074-.23.064-.376 0-.142-.038-.288-.122-.442-.065-.118-.142-.223-.227-.308-.075-.08-.17-.15-.245-.192-.085-.052-.18-.08-.292-.095-.112-.01-.216-.014-.31-.014-.096.005-.207.028-.35.076-.132.042-.245.075-.34.11-.094.034-.216.092-.376.16-.16.08-.283.144-.368.19l-.376.202c-.086.042-.142.075-.18.1-.15.08-.273.145-.377.206-.113.062-.217.133-.33.217-.112.08-.207.16-.282.237-.064.064-.12.155-.178.244-.066.096-.096.193-.104.29-.02.093-.01.2.02.318.028.118.075.24.142.372.122.24.32.4.564.49.245.094.49.122.745.09l.61 1.136-5.04 2.723-2.233-4.142 1.34-.718 1.58 2.922 2.31-1.136c-.424-.26-.782-.64-1.055-1.154-.16-.306-.264-.594-.293-.875-.038-.283-.01-.543.064-.777.085-.236.218-.467.396-.693.188-.22.405-.424.64-.606.246-.18.53-.356.858-.53.396-.218.77-.387 1.122-.528.34-.132.697-.222 1.055-.272.358-.052.68-.047.98.02.29.06.573.207.848.42.278.216.512.508.71.875zm-37.86-95.842c.15.938-.01 1.64-.47 2.124-.462.477-1.207.8-2.225.96l-.236-1.497.235-.037c.196-.033.367-.066.508-.104.15-.04.292-.086.443-.15.15-.072.265-.147.35-.232.085-.09.15-.2.188-.335.048-.136.058-.286.028-.46-.028-.133-.065-.256-.113-.358-.057-.112-.104-.198-.17-.273-.064-.07-.142-.132-.245-.18-.103-.046-.207-.09-.28-.116-.086-.02-.208-.038-.35-.043-.15-.005-.273-.01-.367-.005-.095 0-.235.01-.404.028-.18.02-.312.032-.405.047-.103.02-.244.043-.433.076-.085.013-.15.02-.197.025-.17.024-.312.054-.425.076-.122.02-.245.053-.387.09-.133.043-.244.085-.34.132-.084.043-.17.104-.254.176-.085.064-.15.142-.188.23-.047.09-.075.187-.085.31-.02.123-.02.255.01.4.038.264.16.48.357.65.207.17.435.27.68.33l.207 1.274-5.662.892-.735-4.637 1.498-.234.527 3.278 2.554-.306c-.32-.38-.52-.862-.612-1.44-.057-.335-.047-.646.01-.925.065-.277.17-.515.33-.712.15-.192.35-.362.604-.52.245-.145.52-.27.8-.36.293-.086.623-.166.98-.228.453-.065.856-.108 1.233-.117.368-.016.736.02 1.085.09.357.06.66.18.924.334.254.16.48.39.658.678.19.3.312.653.377 1.068zm-.97-6.153c.144.935-.01 1.64-.478 2.125-.462.48-1.196.8-2.215.96l-.234-1.497.235-.037c.19-.026.368-.064.51-.103s.293-.085.442-.156c.143-.06.265-.136.35-.225.085-.085.142-.198.188-.33.037-.132.047-.292.02-.462-.02-.138-.058-.265-.104-.367-.057-.1-.113-.197-.17-.27-.064-.07-.14-.127-.245-.18-.103-.05-.206-.08-.29-.112-.085-.027-.198-.043-.34-.052-.15-.005-.273-.005-.367-.005-.104.005-.234.014-.415.033-.17.022-.31.037-.404.057-.095.015-.235.028-.425.062l-.197.032c-.17.027-.312.057-.435.075-.112.023-.245.057-.377.095-.14.036-.244.08-.34.127-.083.046-.178.103-.253.173-.094.065-.15.146-.197.23-.038.09-.065.193-.085.312-.02.122-.01.26.01.4.047.264.17.48.366.648.21.165.436.282.68.33l.208 1.28-5.662.897-.735-4.64 1.5-.24.518 3.278 2.563-.308c-.32-.382-.527-.86-.612-1.44-.057-.34-.057-.65.01-.924s.17-.515.32-.707c.16-.198.357-.372.604-.52.254-.155.518-.272.81-.363.292-.094.622-.164.98-.22.452-.077.856-.114 1.233-.128.368-.01.735.02 1.084.083.357.07.66.184.923.344.254.156.472.383.66.68.184.295.306.65.372 1.063zm-.046-98.937c-.038.36-.142.683-.302.96-.16.278-.35.505-.595.684-.233.18-.508.32-.817.42-.312.105-.643.17-1 .19-.35.022-.715.004-1.103-.04l-3.392-.41c-.434-.057-.83-.126-1.188-.22-.356-.095-.706-.228-1.018-.392-.33-.17-.594-.363-.8-.584-.218-.226-.368-.5-.472-.83-.104-.32-.123-.687-.076-1.083.104-.843.424-1.465.952-1.865.536-.396 1.242-.54 2.11-.438l-.19 1.507c-.498-.06-.886-.02-1.158.11-.273.13-.435.414-.48.838-.094.76.613 1.226 2.12 1.403l1.508.186c-.462-.354-.65-.882-.564-1.598.047-.425.17-.777.35-1.06.187-.287.423-.496.726-.628.3-.132.63-.217.988-.243.358-.033.764-.02 1.226.037.49.057.933.16 1.338.31.396.143.745.34 1.046.585.302.245.527.546.67.913.14.37.177.783.122 1.25zm-1.46.382c.12-.142.197-.32.226-.533.028-.217-.01-.41-.095-.57-.085-.17-.218-.3-.397-.403-.18-.105-.377-.185-.575-.246-.207-.065-.434-.108-.678-.142l-.35-.037c-.075-.01-.18-.02-.32-.033-.142-.01-.255-.014-.33-.014-.084 0-.18 0-.302.004-.112.004-.207.015-.28.037l-.236.07c-.104.037-.17.074-.228.122-.057.053-.104.107-.16.17-.057.064-.103.145-.132.235-.027.094-.057.196-.064.306-.057.485.15.89.612 1.22l1.507.18c.255.034.49.048.696.034.218-.01.415-.043.613-.1.21-.063.37-.16.49-.302zm2.213-6.615c-.11.942-.46 1.574-1.035 1.913-.574.34-1.376.44-2.4.32l.187-1.508.235.027c.197.023.377.038.52.043.15.004.3-.005.47-.027.15-.023.292-.066.396-.123.104-.062.198-.155.273-.27.074-.122.12-.264.15-.438.01-.137.01-.264-.01-.383-.02-.112-.057-.217-.085-.302-.046-.084-.103-.17-.187-.24-.094-.08-.17-.137-.245-.187-.074-.05-.188-.1-.32-.146-.142-.048-.253-.077-.35-.105-.093-.022-.225-.047-.403-.08-.18-.032-.312-.053-.405-.062-.094-.01-.235-.028-.433-.047-.085-.02-.15-.024-.188-.028-.17-.023-.32-.038-.435-.048-.123-.01-.255-.014-.396-.014s-.266.014-.37.027c-.093.023-.187.057-.29.1-.105.047-.19.104-.246.174-.064.07-.12.164-.17.27-.047.117-.084.245-.094.386-.037.273.02.515.17.73.15.222.34.387.565.504l-.16 1.28-5.682-.688.556-4.66 1.507.18-.396 3.303 2.545.396c-.198-.452-.265-.97-.198-1.55.047-.34.132-.637.264-.882.144-.254.303-.452.51-.594.198-.15.443-.265.718-.34.28-.074.573-.117.885-.128.302-.004.632.01 1 .058.45.053.855.128 1.215.222.357.086.697.217 1.027.377.32.16.584.354.79.575.197.226.35.51.453.84.093.336.11.708.063 1.122zm16.518 164.182c.312.896.283 1.62-.085 2.173-.377.556-1.046.998-2.024 1.342l-.49-1.433.226-.08c.188-.065.35-.127.48-.192.14-.062.272-.137.405-.228.132-.084.235-.188.302-.286.066-.104.113-.222.132-.362.02-.143 0-.292-.056-.457-.048-.133-.104-.24-.17-.345-.076-.09-.143-.165-.217-.23-.074-.058-.17-.1-.272-.133-.113-.028-.207-.052-.302-.065-.095-.015-.207-.01-.35.015-.15.022-.264.043-.366.062-.095.02-.228.052-.396.104-.17.052-.302.095-.387.122-.095.032-.227.085-.414.142-.085.028-.143.052-.188.066-.16.062-.292.104-.404.146-.112.047-.227.1-.357.16-.132.065-.235.127-.31.184-.076.062-.15.138-.23.218-.074.09-.12.175-.14.27-.028.094-.038.197-.038.32.01.122.038.25.085.39.094.25.245.443.47.575.237.128.473.2.728.208l.424 1.22-5.408 1.876-1.545-4.434 1.44-.494 1.093 3.133 2.45-.755c-.378-.32-.66-.754-.85-1.305-.112-.33-.16-.632-.15-.914.01-.287.075-.537.19-.754.12-.223.29-.43.498-.617.228-.193.473-.357.736-.504.272-.137.574-.27.923-.39.433-.147.83-.265 1.187-.336.367-.08.727-.113 1.095-.107.356.005.678.062.96.17.282.116.538.297.772.556.235.248.422.572.554.97zm-2.063-5.937c.198.547.226 1.056.104 1.53-.122.468-.378.877-.755 1.207-.377.334-.856.604-1.44.81l-4.307 1.49c-.924.32-1.725.366-2.394.13s-1.16-.77-1.45-1.605c-.283-.838-.235-1.56.15-2.16.377-.605 1.036-1.063 1.95-1.387l4.306-1.494c.896-.31 1.696-.348 2.384-.104.69.24 1.17.768 1.45 1.583zm-1.17.41c-.253-.716-.97-.872-2.165-.452l-4.307 1.493c-.197.07-.387.142-.537.207-.15.075-.302.154-.442.27-.15.094-.264.206-.34.32-.084.117-.14.25-.16.398-.02.157 0 .326.057.506.067.175.152.325.267.434.11.104.234.18.377.213.13.037.29.057.47.047.17-.01.35-.038.51-.07.16-.042.35-.104.546-.17l4.308-1.493c.234-.084.44-.17.63-.277.19-.095.36-.217.51-.354.16-.137.255-.302.312-.48.043-.186.032-.384-.034-.59zm-19.314-96.968c.01.36-.046.69-.17.993-.122.298-.282.547-.5.755-.206.207-.46.38-.762.526-.292.143-.622.246-.96.313-.35.07-.717.104-1.105.107l-3.41.033c-.434.005-.84-.015-1.216-.062-.367-.047-.726-.137-1.056-.254-.348-.133-.63-.282-.875-.48-.235-.197-.424-.447-.565-.753-.142-.316-.217-.67-.217-1.064-.01-.857.228-1.51.697-1.976.48-.467 1.16-.707 2.035-.716l.02 1.52c-.51.006-.887.09-1.14.266-.246.164-.378.462-.368.89.01.76.772 1.132 2.29 1.117l1.517-.014c-.51-.287-.764-.79-.772-1.513-.01-.43.066-.79.208-1.093.142-.308.356-.547.64-.72.283-.166.595-.294.952-.368.35-.085.754-.123 1.216-.123.49-.01.95.032 1.366.132.415.09.782.24 1.112.442.33.2.593.476.78.823.182.343.285.754.285 1.22zm-1.393.575c.104-.154.15-.344.15-.56s-.058-.4-.16-.563c-.113-.15-.265-.265-.452-.345-.188-.08-.396-.137-.604-.17-.216-.033-.44-.047-.695-.047-.143.005-.266.005-.34.005-.075 0-.19.005-.33.014-.142.01-.244.02-.32.024-.084.01-.18.028-.3.048-.114.02-.208.047-.274.07-.065.028-.14.062-.226.107-.095.042-.16.085-.207.146-.047.058-.095.12-.143.19-.047.07-.075.154-.094.248-.02.096-.028.203-.028.312.01.49.265.86.772 1.13l1.517-.014c.256-.005.48-.023.69-.065.216-.037.413-.09.602-.18.19-.075.34-.192.445-.348zm1.33-6.902c.01.575-.123 1.074-.39 1.475-.27.415-.64.716-1.1.91-.463.196-1 .296-1.622.306l-4.56.043c-.972.01-1.743-.202-2.31-.636-.564-.434-.85-1.094-.857-1.988-.01-.878.265-1.546.82-1.994.556-.45 1.318-.683 2.288-.69l4.562-.054c.952-.008 1.715.213 2.29.66s.868 1.1.878 1.968zm-1.246.01c-.008-.754-.64-1.13-1.91-1.122l-4.552.053c-.217.005-.405.016-.575.033-.17.02-.33.052-.51.095-.17.058-.31.122-.423.207-.113.08-.207.193-.273.334-.075.137-.104.302-.104.485 0 .188.037.362.112.494.066.13.17.25.283.324.112.085.254.146.424.19.18.05.35.08.52.09.17.022.356.024.573.022l4.552-.048c.245-.005.48-.02.688-.057.208-.03.405-.094.594-.18.187-.08.34-.2.44-.355.115-.156.16-.34.16-.566zM527.19 707.802l-.717.265 2.356 6.393.707-.253-2.345-6.404zm-51.2 14.844l-.744.146 1.318 6.685.744-.146-1.318-6.685zm-51.152 5.4h-.754l-.02 6.815h.754l.02-6.816zm-59.463-4.85l-.764-.107-.98 6.746.754.108.99-6.746zm-47.45-13.26l-.717-.264-2.31 6.412.707.26 2.32-6.408zm-47.516-22.647l-.642-.414-3.692 5.73.64.41 3.694-5.726zm-38.68-27.52l-.573-.505-4.467 5.153.575.495 4.466-5.144zm-36.434-36.667l-.462-.612-5.454 4.09.462.607 5.455-4.084zm-24.62-33.52l-.35-.674-6.066 3.103.35.68 6.066-3.11zm-23.47-47.12l-.197-.735-6.586 1.763.197.74 6.586-1.767zm-14.048-47.167l-.104-.76-6.755.924.104.754 6.755-.918zm-5.9-48.69v-.76l-6.81.02v.76l6.81-.02zm2.394-50.583l.094-.758-6.766-.815-.095.76 6.766.813z"/><g opacity=".05" fill="#FFF"><path d="M424.836 134.21c0 .788-.643 1.434-1.44 1.434-.784 0-1.415-.646-1.415-1.428 0-.797.632-1.433 1.415-1.433.798 0 1.44.636 1.44 1.428zM431.986 134.33c-.02.78-.67 1.412-1.46 1.394-.792-.02-1.423-.68-1.396-1.466.02-.79.67-1.418 1.46-1.4.795.03 1.416.674 1.396 1.47zM417.675 134.263c.02.79-.604 1.44-1.396 1.465-.793.023-1.44-.598-1.462-1.39-.02-.8.595-1.446 1.386-1.47h.048c.772 0 1.403.622 1.423 1.395zM437.78 133.118c.782.033 1.396.71 1.356 1.493-.037.788-.705 1.396-1.488 1.367-.79-.047-1.402-.71-1.365-1.498.037-.765.67-1.362 1.424-1.362h.074zM410.523 134.49c.037.785-.564 1.46-1.356 1.497-.79.033-1.46-.575-1.488-1.36-.05-.798.564-1.467 1.355-1.504h.065c.754 0 1.385.593 1.423 1.366zM444.953 133.542c.79.057 1.385.74 1.326 1.526-.058.782-.743 1.385-1.526 1.324-.8-.048-1.385-.74-1.328-1.522.057-.758.688-1.333 1.422-1.333.04-.005.076-.005.105.005zM403.38 134.875c.058.792-.536 1.48-1.327 1.53-.792.063-1.48-.53-1.526-1.318-.065-.796.537-1.48 1.328-1.53.038-.005.066-.005.095-.005.753 0 1.374.57 1.43 1.323zM452.123 134.13c.78.086 1.365.778 1.28 1.57-.065.777-.772 1.36-1.556 1.285-.78-.075-1.355-.772-1.29-1.555.075-.744.696-1.31 1.423-1.31.047.006.094.01.143.01zM396.25 135.445c.074.786-.5 1.483-1.29 1.56-.783.075-1.48-.5-1.565-1.28-.075-.793.51-1.49 1.29-1.57.048 0 .095-.005.144-.005.722 0 1.343.56 1.42 1.295zM459.273 134.908v-.005c.78.095 1.348.81 1.242 1.593-.084.782-.8 1.343-1.592 1.253-.78-.095-1.338-.812-1.254-1.593.095-.727.716-1.264 1.423-1.264.057.01.124.01.18.015zM389.126 136.176c.094.79-.462 1.503-1.244 1.597-.782.09-1.498-.467-1.603-1.248-.086-.782.47-1.498 1.252-1.593.058-.01.113-.014.18-.014.717 0 1.33.532 1.414 1.258zM466.396 135.855c.79.104 1.328.84 1.205 1.62-.112.777-.837 1.324-1.62 1.206-.78-.11-1.316-.838-1.205-1.62.104-.71.727-1.224 1.412-1.224.08 0 .143 0 .21.02zM382.03 137.09c.113.782-.424 1.507-1.206 1.62-.78.113-1.507-.424-1.63-1.206-.104-.782.435-1.507 1.216-1.62.075-.02.143-.028.218-.028.686 0 1.308.517 1.402 1.233zM473.502 136.967c.78.128 1.3.867 1.168 1.64-.133.782-.867 1.31-1.64 1.173h-.01c-.772-.127-1.292-.87-1.16-1.644.114-.702.728-1.197 1.403-1.197.07-.002.153.008.24.027zM374.955 138.163c.133.782-.387 1.522-1.168 1.65-.772.136-1.518-.387-1.648-1.17-.134-.77.385-1.512 1.167-1.648.085-.01.16-.028.245-.028.677 0 1.29.51 1.403 1.196zM480.586 138.253c.77.146 1.27.9 1.12 1.673-.15.777-.903 1.286-1.677 1.13-.782-.14-1.28-.895-1.132-1.677.133-.684.736-1.16 1.404-1.16.094 0 .18.01.284.033zM367.907 139.417c.16.78-.357 1.526-1.13 1.682-.773.145-1.52-.364-1.68-1.132-.14-.777.36-1.53 1.132-1.682.093-.02.187-.028.282-.028.67 0 1.262.475 1.395 1.16zM487.615 139.71c.78.173 1.264.932 1.094 1.704-.17.772-.935 1.258-1.698 1.09-.78-.176-1.262-.94-1.104-1.707.152-.664.756-1.126 1.404-1.126.106 0 .2.016.303.04zM360.896 140.84c.17.768-.32 1.535-1.083 1.705-.772.17-1.536-.312-1.706-1.093-.17-.764.312-1.536 1.084-1.705h.01c.096-.02.198-.038.303-.038.65 0 1.244.465 1.393 1.13zM494.625 141.33v.01c.764.187 1.234.96 1.037 1.724-.19.772-.95 1.234-1.725 1.055-.764-.194-1.234-.967-1.037-1.734.15-.66.734-1.093 1.375-1.093.123 0 .237.018.35.036zM353.925 142.427c.188.76-.283 1.546-1.047 1.734-.77.194-1.545-.282-1.733-1.05-.188-.768.283-1.545 1.046-1.734.114-.027.237-.037.34-.037.65 0 1.225.437 1.395 1.087zM501.588 143.14c.754.2 1.207.988 1.01 1.752-.217.763-1 1.215-1.764 1.008-.764-.212-1.215-1-1.008-1.753.18-.646.754-1.06 1.385-1.06.124-.005.257.014.378.052zM346.99 144.188c.207.77-.244 1.55-1.01 1.758-.763.207-1.554-.245-1.76-1.008-.208-.764.234-1.555 1.007-1.762.123-.033.255-.053.377-.048.63 0 1.206.425 1.385 1.06zM508.504 145.103c.754.227 1.188 1.014.96 1.786-.226.753-1.024 1.186-1.778.955-.754-.22-1.188-1.02-.96-1.78.177-.617.75-1.022 1.364-1.02.14-.003.283.016.414.058zM340.093 146.116c.227.763-.207 1.555-.96 1.78-.755.227-1.565-.202-1.782-.96-.234-.755.208-1.556.953-1.78.142-.04.282-.063.414-.058.613-.004 1.197.396 1.376 1.018zM515.373 147.237c.744.24 1.158 1.046.924 1.795-.246.758-1.057 1.173-1.81.918-.755-.24-1.17-1.045-.915-1.8.19-.603.756-.98 1.357-.98.152 0 .293.024.443.067zM333.243 148.212c.244.75-.16 1.56-.913 1.8-.744.245-1.556-.17-1.79-.923-.245-.75.158-1.552.913-1.8.142-.053.293-.072.434-.072.612 0 1.167.39 1.356.994zM522.213 149.546c.734.264 1.13 1.083.857 1.828-.254.744-1.074 1.14-1.81.876-.753-.26-1.14-1.084-.886-1.828.207-.584.764-.96 1.355-.96.163 0 .323.03.483.084zM326.46 150.47c.263.743-.124 1.568-.868 1.827-.744.255-1.563-.132-1.827-.876-.255-.743.13-1.56.876-1.817.15-.057.313-.08.472-.08.594 0 1.15.362 1.347.946zM528.98 152.023c.743.282 1.11 1.107.837 1.847-.28.735-1.11 1.112-1.848.83-.735-.28-1.112-1.104-.83-1.848.218-.565.755-.923 1.33-.918.17-.01.34.033.51.09zM319.73 152.9c.283.74-.093 1.563-.828 1.837-.734.282-1.563-.085-1.847-.82-.283-.74.085-1.563.83-1.847.168-.075.338-.094.508-.094.584 0 1.122.35 1.338.923zM535.695 154.662c.727.302 1.084 1.14.783 1.865-.303.735-1.13 1.083-1.867.782-.73-.298-1.08-1.132-.778-1.862.225-.55.754-.89 1.326-.89.18 0 .358.03.537.104zM313.06 155.486c.292.73-.057 1.56-.782 1.86-.733.302-1.572-.057-1.875-.78-.292-.727.058-1.56.79-1.857.182-.076.37-.114.548-.114.558 0 1.095.34 1.32.89zM542.33 157.46c.734.32 1.062 1.164.742 1.89-.318.726-1.156 1.05-1.875.734-.715-.31-1.055-1.163-.732-1.88.227-.546.754-.857 1.31-.857.178 0 .375.033.555.113zM306.474 158.224c.31.725-.01 1.573-.735 1.884-.727.315-1.563-.01-1.876-.734-.32-.726 0-1.564.735-1.885v-.006c.178-.08.376-.117.555-.117.566 0 1.084.32 1.32.857zM548.916 160.423c.707.335 1.018 1.188.688 1.9-.33.725-1.188 1.03-1.904.696-.717-.336-1.025-1.18-.688-1.9.236-.522.754-.828 1.29-.828.21 0 .417.042.614.13zM299.964 161.12c.33.72.027 1.57-.697 1.9-.707.338-1.563.027-1.902-.69-.33-.715-.02-1.572.696-1.91.2-.086.406-.128.605-.124.535.005 1.054.302 1.3.824zM293.51 164.18c.35.715.065 1.572-.64 1.92-.708.35-1.574.066-1.924-.64-.357-.712-.065-1.574.64-1.923.21-.1.435-.15.643-.15.526 0 1.035.292 1.28.792zM555.406 163.547c.717.35 1.01 1.206.65 1.917-.348.712-1.205 1.004-1.912.646-.717-.35-1.018-1.206-.66-1.912.254-.51.754-.802 1.29-.802.22 0 .437.047.632.15zM287.14 167.396c.376.702.095 1.57-.604 1.937-.697.367-1.573.104-1.933-.603-.366-.697-.094-1.564.604-1.932.216-.113.433-.165.66-.165.52 0 1.02.278 1.272.763zM561.814 166.825c.715.368.98 1.234.604 1.937-.357.692-1.234.966-1.922.59-.697-.358-.96-1.226-.604-1.928.254-.485.744-.768 1.262-.768.227 0 .46.066.66.17zM280.847 170.765c.377.688.13 1.563-.547 1.95-.697.386-1.563.132-1.95-.547-.387-.697-.142-1.563.546-1.95.228-.127.462-.184.697-.184.5-.005.99.264 1.254.73zM568.166 170.255c.688.387.932 1.254.547 1.95-.39.69-1.266.934-1.95.552-.69-.39-.925-1.258-.548-1.945.264-.472.744-.735 1.254-.735.233 0 .468.06.696.178zM274.637 174.283c.396.684.17 1.56-.518 1.955-.67.405-1.547.18-1.95-.51-.407-.677-.17-1.554.507-1.95.236-.14.48-.197.728-.197.487 0 .97.256 1.232.703zM574.402 173.84c.688.4.914 1.277.51 1.965-.396.674-1.27.896-1.94.5-.69-.396-.915-1.282-.51-1.96.265-.447.733-.702 1.226-.702.244-.005.498.06.714.198zM268.503 177.963c.415.664.217 1.545-.46 1.96-.66.414-1.547.217-1.97-.457-.406-.67-.208-1.55.46-1.975.235-.14.5-.206.755-.206.48 0 .952.227 1.215.68zM580.572 177.576c.67.41.877 1.3.463 1.96-.424.684-1.31.886-1.97.462-.68-.415-.876-1.3-.462-1.97.264-.434.736-.674 1.207-.674.264 0 .52.072.762.222zM262.464 181.77c.434.664.244 1.545-.405 1.98-.66.428-1.547.244-1.98-.41-.435-.66-.255-1.546.414-1.975.234-.16.51-.236.77-.236.475-.01.926.225 1.2.64zM586.633 181.45c.648.437.838 1.322.404 1.982-.434.645-1.318.843-1.98.404-.66-.428-.84-1.318-.413-1.974.28-.424.734-.65 1.195-.65.285.01.55.082.793.237zM256.518 185.727c.452.66.282 1.545-.366 1.997-.65.453-1.536.283-1.988-.367-.453-.654-.283-1.545.367-1.997.245-.165.527-.245.812-.245.45 0 .904.21 1.176.612zM592.605 185.472c.643.453.81 1.343.357 1.988-.45.65-1.338.81-1.996.367-.643-.45-.812-1.338-.37-1.987.294-.405.737-.622 1.19-.622.273 0 .566.085.82.254zM250.677 189.84c.46.636.32 1.526-.312 1.992-.65.462-1.545.325-2.008-.31-.46-.65-.32-1.537.32-2.008.245-.18.547-.264.84-.264.435-.005.876.198 1.16.59zM598.467 189.642c.64.467.783 1.36.31 2.002-.45.64-1.354.772-1.995.31-.633-.465-.773-1.364-.312-1.996.283-.386.717-.584 1.16-.584.29 0 .583.084.837.268zM244.92 194.084c.48.622.357 1.526-.265 1.997-.632.48-1.525.364-2.007-.263-.48-.62-.357-1.526.265-2.007.254-.192.563-.292.866-.292.433 0 .857.2 1.14.566zM604.232 193.952c.62.48.744 1.375.266 2.002-.473.627-1.377.744-2.01.26-.63-.472-.742-1.376-.264-1.998.283-.367.707-.565 1.14-.565.314 0 .615.095.868.302zM239.275 198.466c.5.617.396 1.517-.226 2.016-.613.49-1.51.39-2.008-.23-.49-.617-.396-1.513.217-2.012.263-.207.583-.31.895-.31.425.003.84.177 1.12.536zM609.895 198.39c.623.5.707 1.404.217 2.026-.488.603-1.395.702-2.006.207-.613-.5-.717-1.395-.217-2.007.28-.35.696-.537 1.11-.537.32 0 .633.103.895.31zM233.725 202.98c.51.606.435 1.507-.16 2.016-.61.514-1.507.434-2.024-.165-.508-.607-.423-1.507.18-2.016.265-.23.594-.34.924-.34.395 0 .8.17 1.08.505zM615.445 202.97c.594.508.68 1.412.168 2.016-.518.604-1.412.68-2.016.17-.604-.514-.678-1.414-.17-2.017.283-.336.688-.51 1.094-.51.322 0 .652.113.925.34zM228.3 207.633c.527.594.47 1.49-.123 2.017-.594.523-1.498.47-2.017-.123-.527-.588-.473-1.488.122-2.012v-.004c.272-.235.612-.362.95-.362.39 0 .784.165 1.067.485zM620.883 207.685c.604.514.648 1.418.12 2.007-.526.59-1.43.65-2.017.118-.592-.52-.648-1.418-.12-2.007.28-.32.68-.485 1.063-.49.347 0 .677.122.953.372zM222.975 212.41c.547.584.51 1.48-.065 2.025-.584.537-1.488.51-2.025-.075-.547-.584-.51-1.488.066-2.025.282-.255.632-.382.98-.382.385.005.773.15 1.045.457zM626.195 212.514c.594.537.62 1.44.084 2.026-.546.574-1.45.607-2.024.065-.574-.542-.605-1.44-.066-2.017.273-.307.66-.452 1.037-.452.357 0 .705.123.968.378zM217.774 217.31c.548.574.537 1.48-.02 2.03-.574.552-1.478.542-2.034-.023-.547-.565-.537-1.47.028-2.025.272-.265.64-.405 1.008-.405.37 0 .736.15 1.018.423zM631.406 217.48c.564.545.574 1.45.027 2.015-.555.565-1.46.575-2.025.028-.564-.546-.584-1.46-.02-2.025.264-.292.64-.43 1.018-.43.36 0 .727.138 1 .41zM212.686 222.35c.557.548.574 1.46.028 2.026h-.01c-.546.565-1.45.57-2.018.02-.563-.552-.573-1.45-.026-2.02.28-.288.648-.43 1.025-.425.36 0 .72.132 1 .4zM636.494 222.567c.547.556.537 1.47-.027 2.02-.566.553-1.47.533-2.025-.022-.557-.565-.547-1.475.027-2.03.27-.26.63-.41 1-.41.366.004.743.15 1.024.442zM207.72 227.514c.576.537.605 1.44.076 2.017-.537.575-1.44.613-2.025.066-.572-.532-.602-1.44-.073-2.017.28-.307.67-.452 1.046-.452.347-.005.706.122.978.386zM641.44 227.764c.546.58.51 1.488-.075 2.02-.574.538-1.47.51-2.008-.074h-.01c-.527-.575-.498-1.483.076-2.017.283-.26.63-.386.97-.386.398 0 .775.155 1.046.457zM202.878 232.78c.584.528.65 1.433.123 2.026-.527.573-1.432.63-2.007.11-.604-.53-.65-1.43-.132-2.02.283-.314.68-.484 1.074-.484.33 0 .67.128.944.368zM646.283 233.092c.52.59.463 1.488-.133 2.018-.584.518-1.486.466-2.016-.13-.527-.587-.47-1.48.113-2.01.28-.24.62-.362.95-.362.4-.003.793.16 1.086.484zM198.167 238.17c.612.505.68 1.413.17 2.012-.51.604-1.414.685-2.017.166-.604-.505-.68-1.408-.17-2.008.282-.34.696-.514 1.093-.514.33 0 .66.11.924.344zM650.975 238.52c.51.604.436 1.508-.168 2.012-.604.522-1.498.438-2.018-.165-.51-.603-.435-1.507.17-2.01.272-.237.603-.347.923-.347.416.01.82.178 1.092.51zM193.588 243.668c.612.495.706 1.39.217 2.007-.5.612-1.395.71-2.017.222-.612-.498-.707-1.403-.217-2.017.283-.35.697-.532 1.12-.532.314 0 .624.113.898.32zM655.557 244.068c.488.61.385 1.517-.227 2.007-.623.51-1.52.396-2.018-.218-.5-.616-.396-1.517.227-2.012.253-.212.573-.314.886-.314.414 0 .828.19 1.13.538zM189.13 249.277c.633.478.746 1.377.274 2.01-.48.625-1.386.732-2.008.253-.63-.476-.743-1.366-.272-1.997.292-.368.707-.564 1.14-.564.3 0 .613.1.867.297zM659.982 249.727c.473.617.35 1.52-.28 2.002-.622.476-1.52.357-2-.27-.47-.627-.356-1.53.274-2.002.254-.198.557-.297.867-.297.425-.004.848.195 1.14.567zM184.815 254.998c.65.462.773 1.355.32 1.993-.46.646-1.365.787-1.997.316-.64-.463-.782-1.356-.312-1.998.283-.387.707-.584 1.15-.584.303 0 .585.087.84.274zM664.27 255.48c.47.636.33 1.536-.31 2-.632.458-1.526.316-2.007-.318-.453-.636-.303-1.53.328-1.992.245-.192.548-.278.84-.278.435 0 .878.2 1.15.587zM180.64 260.812c.643.446.813 1.338.368 1.987-.452.65-1.347.813-1.997.36-.64-.446-.81-1.343-.356-1.986.272-.392.717-.616 1.178-.616.283 0 .564.075.81.254zM668.426 261.33c.443.648.293 1.545-.377 1.986-.642.457-1.526.29-1.98-.36-.453-.647-.303-1.54.367-1.983.234-.175.527-.25.81-.25.464 0 .905.207 1.18.607zM176.61 266.738c.648.424.848 1.318.404 1.974-.434.664-1.318.85-1.97.405-.67-.424-.848-1.314-.415-1.98.272-.42.726-.645 1.196-.645.265 0 .54.076.783.246zM672.45 267.29c.423.653.233 1.545-.425 1.974-.65.434-1.555.254-1.98-.41-.433-.654-.243-1.54.415-1.97.234-.164.52-.235.77-.235.475-.005.938.215 1.22.64zM172.718 272.75c.68.414.876 1.3.452 1.975-.415.664-1.29.87-1.97.45-.66-.414-.866-1.305-.45-1.964.263-.437.732-.687 1.214-.687.255 0 .518.084.754.226zM676.303 273.333c.424.674.217 1.55-.45 1.965-.67.42-1.556.222-1.97-.457-.426-.668-.217-1.55.45-1.958.235-.15.5-.222.755-.222.478 0 .95.25 1.215.673zM168.968 278.855c.688.4.914 1.28.52 1.96-.405.687-1.29.904-1.97.51-.68-.397-.904-1.277-.51-1.96.273-.453.744-.697 1.234-.697.246-.01.5.06.726.187zM680.023 279.473c.396.684.17 1.56-.508 1.954-.68.405-1.562.185-1.95-.5-.415-.687-.18-1.56.5-1.96.233-.13.472-.2.726-.2.49 0 .962.256 1.233.706zM165.378 285.064c.688.386.933 1.248.547 1.94-.387.687-1.254.937-1.95.552-.697-.388-.934-1.25-.547-1.947.264-.466.744-.727 1.253-.727.237.002.472.05.698.18zM683.596 285.7c.387.684.123 1.555-.555 1.937-.688.39-1.563.146-1.94-.547-.387-.688-.143-1.555.547-1.945.217-.127.47-.185.688-.185.507.01.997.272 1.26.74zM161.92 291.344c.707.372.97 1.23.603 1.938-.366.697-1.225.97-1.93.604-.698-.373-.972-1.234-.605-1.94.255-.48.754-.765 1.27-.765.23 0 .455.054.662.164zM687.016 292c.357.706.094 1.566-.604 1.936-.707.367-1.564.1-1.94-.6-.368-.706-.095-1.562.593-1.93.217-.114.453-.166.678-.16.52-.012 1.01.274 1.273.753zM158.632 297.718c.707.35.998 1.2.65 1.923-.35.702-1.207.99-1.913.643-.717-.358-1.01-1.206-.66-1.913.244-.51.763-.8 1.29-.8.208-.004.425.05.632.148zM690.275 298.396c.35.7.057 1.562-.648 1.907-.707.354-1.557.07-1.922-.636-.352-.712-.06-1.574.648-1.923.207-.104.424-.15.63-.15.53.002 1.038.295 1.292.802zM693.377 304.852c.328.715.025 1.567-.69 1.902-.724.33-1.56.023-1.9-.697-.32-.705-.02-1.562.696-1.902.197-.08.396-.133.594-.127.534-.003 1.054.305 1.3.824zM155.495 304.163c.716.34 1.025 1.188.696 1.903-.338.716-1.177 1.025-1.9.697-.717-.34-1.028-1.18-.698-1.896v-.01c.245-.52.764-.828 1.3-.828.206 0 .404.048.603.133zM696.324 311.385c.32.72-.01 1.564-.744 1.885-.727.315-1.562-.015-1.875-.738-.32-.717.01-1.564.734-1.885.188-.076.376-.113.565-.113.556-.002 1.085.32 1.32.85zM152.507 310.69c.726.316 1.056 1.16.745 1.887-.32.716-1.17 1.05-1.885.73-.727-.308-1.057-1.147-.735-1.876.227-.542.754-.862 1.312-.862.178.01.376.04.563.123zM699.113 317.984c.29.734-.057 1.568-.79 1.865-.728.296-1.563-.058-1.856-.788-.3-.73.047-1.562.77-1.86.18-.074.368-.112.558-.112.555 0 1.094.34 1.318.894zM149.69 317.292c.726.297 1.074 1.136.78 1.86-.3.727-1.13 1.084-1.853.783-.735-.297-1.095-1.132-.792-1.86.227-.558.764-.896 1.33-.892.178-.003.356.04.535.11zM701.752 324.675c.28.734-.096 1.564-.838 1.847-.727.282-1.557-.095-1.838-.834-.273-.73.094-1.56.818-1.842.18-.064.36-.095.527-.095.568 0 1.105.355 1.332.925zM147.034 323.954c.733.276 1.103 1.11.83 1.842-.284.735-1.113 1.112-1.85.834-.733-.276-1.11-1.106-.828-1.853.218-.56.764-.918 1.338-.918.17 0 .34.033.51.094zM704.22 331.432c.255.743-.13 1.563-.884 1.822-.736.27-1.545-.128-1.818-.876-.256-.745.13-1.56.885-1.824.15-.05.312-.075.463-.075.59-.005 1.148.357 1.355.952zM144.527 330.688c.754.264 1.15 1.082.886 1.826-.272.745-1.083 1.137-1.827.877-.745-.27-1.14-1.083-.877-1.837.206-.574.763-.95 1.355-.95.15 0 .31.027.462.085zM706.52 338.243c.254.743-.16 1.555-.914 1.8-.744.24-1.545-.165-1.79-.924-.255-.746.17-1.556.913-1.79.142-.06.292-.08.435-.08.61.008 1.167.39 1.355.993zM142.2 337.48c.754.245 1.158 1.04.914 1.794-.235.75-1.047 1.168-1.8.914-.744-.24-1.158-1.037-.915-1.79.197-.607.754-.984 1.356-.984.152 0 .293.02.444.065zM708.668 345.104c.227.763-.197 1.55-.95 1.78-.765.226-1.556-.202-1.782-.962-.227-.76.2-1.555.95-1.78.144-.038.284-.063.417-.063.61.005 1.176.4 1.365 1.024zM140.033 344.296c.764.23 1.188 1.02.97 1.786-.227.76-1.017 1.178-1.78.96-.754-.233-1.196-1.026-.97-1.778.187-.623.753-1.022 1.375-1.022.13-.002.272.022.405.054zM710.637 352.018c.21.765-.234 1.547-1.008 1.764-.755.2-1.556-.245-1.753-1.01-.207-.763.234-1.555 1.008-1.762.123-.033.246-.047.377-.047.63 0 1.207.424 1.375 1.055zM138.044 351.175c.764.207 1.206.994 1.01 1.748-.21.772-1 1.215-1.764 1.02-.763-.214-1.215-1-1.008-1.765.17-.64.754-1.055 1.385-1.055.124 0 .255.02.377.052zM712.445 358.973c.18.77-.28 1.555-1.055 1.74-.764.19-1.537-.28-1.725-1.05-.19-.77.28-1.535 1.045-1.728.133-.027.236-.037.35-.037.63-.002 1.227.428 1.385 1.075zM136.216 358.096c.764.188 1.234.96 1.047 1.73-.188.767-.96 1.228-1.725 1.05-.772-.198-1.234-.97-1.057-1.734.16-.648.746-1.088 1.397-1.088.114 0 .226.012.34.042zM714.086 365.977c.17.772-.32 1.537-1.094 1.7-.77.18-1.535-.31-1.705-1.077-.17-.777.312-1.54 1.094-1.705.105-.023.208-.033.312-.033.65-.003 1.242.45 1.394 1.115zM134.567 365.05c.765.168 1.264.933 1.085 1.704-.17.77-.935 1.264-1.706 1.094-.772-.17-1.254-.934-1.094-1.716.15-.66.744-1.106 1.404-1.106.094 0 .208.003.31.023zM715.537 373.02c.17.772-.35 1.526-1.12 1.68-.774.148-1.528-.36-1.68-1.133-.16-.77.35-1.525 1.122-1.676.095-.02.187-.028.272-.028.688-.003 1.272.48 1.405 1.158zM133.07 372.05c.77.15 1.28.904 1.14 1.677-.16.782-.904 1.287-1.677 1.13-.782-.15-1.28-.895-1.13-1.677.132-.683.716-1.158 1.394-1.158.093.007.187.018.273.028zM716.838 380.096c.13.772-.39 1.518-1.168 1.65-.783.13-1.527-.397-1.65-1.17-.14-.782.396-1.526 1.16-1.648.084-.015.16-.02.244-.02.687 0 1.3.49 1.414 1.188zM131.76 379.088c.782.132 1.31.866 1.168 1.648-.132.777-.866 1.31-1.647 1.168-.77-.133-1.3-.866-1.168-1.648.112-.697.727-1.188 1.403-1.188.084 0 .16.005.245.02zM717.96 387.2c.11.782-.437 1.503-1.218 1.62-.78.113-1.508-.434-1.62-1.207-.112-.78.425-1.506 1.206-1.62.064-.02.143-.022.207-.022.707 0 1.32.514 1.424 1.23zM130.61 386.154c.782.113 1.328.84 1.216 1.62-.112.782-.838 1.33-1.62 1.206-.782-.112-1.33-.838-1.216-1.61.104-.718.717-1.24 1.423-1.24.065.006.14.015.198.024zM718.9 394.323c.084.786-.463 1.497-1.254 1.592-.77.095-1.488-.466-1.582-1.253-.096-.782.46-1.488 1.242-1.583.057-.01.123-.02.17-.02.717 0 1.338.538 1.424 1.263zM129.64 393.238c.78.096 1.337.812 1.252 1.594-.094.78-.81 1.343-1.592 1.25-.782-.09-1.348-.803-1.253-1.594.084-.72.697-1.258 1.422-1.258.057 0 .113 0 .17.008zM719.682 401.475c.066.793-.508 1.484-1.29 1.555-.792.08-1.48-.494-1.556-1.28-.084-.787.49-1.49 1.28-1.563.038-.006.087-.006.144-.006.715 0 1.345.55 1.422 1.295zM128.84 400.35c.79.08 1.355.786 1.29 1.56-.075.786-.772 1.366-1.555 1.29-.79-.07-1.366-.77-1.29-1.555.064-.744.695-1.3 1.422-1.3.04 0 .095 0 .132.005zM720.275 408.645c.066.782-.537 1.47-1.318 1.522-.79.058-1.48-.542-1.525-1.324-.057-.786.527-1.475 1.328-1.526.027-.01.057-.01.094-.01.744 0 1.367.575 1.42 1.338zM128.208 407.477c.79.065 1.385.744 1.328 1.526-.066.79-.744 1.386-1.526 1.333-.792-.062-1.385-.744-1.33-1.53.06-.75.68-1.33 1.435-1.33h.093zM720.72 415.814c.038.79-.575 1.45-1.356 1.498-.8.028-1.47-.574-1.508-1.353-.04-.797.574-1.47 1.355-1.504h.077c.754.002 1.395.59 1.432 1.358zM127.747 414.628c.782.033 1.395.707 1.355 1.488-.037.792-.707 1.4-1.487 1.366-.792-.037-1.404-.707-1.366-1.504.046-.768.668-1.352 1.43-1.352.02.002.047.002.067.002zM720.973 423c.02.786-.594 1.445-1.395 1.46-.78.022-1.44-.606-1.47-1.39-.01-.793.612-1.45 1.403-1.47h.028c.774.002 1.417.613 1.435 1.4zM127.463 421.77c.782.02 1.413.67 1.386 1.46-.02.802-.67 1.414-1.462 1.396-.79-.015-1.413-.67-1.395-1.45v-.006c.02-.78.66-1.404 1.433-1.404.008 0 .02 0 .037.005zM721.066 430.184v.01c0 .787-.64 1.424-1.432 1.424-.8 0-1.432-.637-1.44-1.424 0-.795.64-1.437 1.44-1.437.784.004 1.432.64 1.432 1.427zM128.764 430.363v.324c.01.79-.632 1.422-1.423 1.433-.79 0-1.43-.642-1.43-1.433 0-.053 0-.104.018-.155-.02-.062-.02-.113-.02-.17 0-.786.642-1.433 1.433-1.433.792-.004 1.424.64 1.424 1.433zM719.58 435.917c.8.015 1.412.674 1.402 1.465-.02.787-.67 1.414-1.45 1.396-.802-.023-1.425-.678-1.403-1.465.017-.777.647-1.396 1.43-1.396h.02zM128.857 437.814h.01c.02.777-.61 1.434-1.403 1.46-.782.02-1.44-.603-1.46-1.397-.028-.78.594-1.44 1.395-1.47.01 0 .02 0 .036.01.772 0 1.412.612 1.42 1.397zM719.37 443.068c.794.037 1.405.7 1.366 1.492-.047.798-.707 1.404-1.508 1.367-.78-.038-1.395-.707-1.355-1.503.027-.77.67-1.356 1.434-1.356h.064zM129.13 444.93c.04.786-.574 1.456-1.355 1.493-.792.043-1.47-.564-1.497-1.355-.048-.782.556-1.462 1.355-1.5h.065c.755 0 1.386.593 1.433 1.362zM718.975 450.216c.79.058 1.385.74 1.328 1.525-.057.793-.734 1.382-1.516 1.33-.803-.058-1.387-.744-1.34-1.53.06-.76.69-1.33 1.424-1.33.038 0 .077 0 .105.006zM129.555 452.034c.066.79-.537 1.47-1.328 1.53-.78.062-1.47-.532-1.525-1.323v.006c-.058-.792.537-1.476 1.328-1.536.037 0 .065-.005.104-.005.742 0 1.366.575 1.42 1.33zM718.42 457.343c.783.08 1.367.773 1.3 1.57-.083.78-.78 1.36-1.563 1.275-.79-.062-1.365-.77-1.29-1.55.075-.745.688-1.3 1.423-1.3.046.005.083.005.13.005zM130.16 459.13c.073.79-.5 1.487-1.283 1.562-.79.08-1.488-.504-1.563-1.285-.085-.787.5-1.484 1.28-1.56.05-.01.096-.01.144-.01.732 0 1.354.553 1.42 1.292zM717.693 464.466c.79.1 1.338.802 1.244 1.593-.094.786-.8 1.343-1.584 1.248-.79-.095-1.338-.807-1.252-1.588.095-.726.708-1.263 1.413-1.268.07 0 .116 0 .18.014zM130.93 466.21c.095.78-.46 1.493-1.252 1.592-.782.094-1.49-.467-1.593-1.244-.085-.79.47-1.507 1.253-1.602.057-.004.113-.01.17-.01.715 0 1.338.542 1.423 1.264zM716.79 471.565c.78.112 1.33.84 1.206 1.62-.105.782-.828 1.324-1.61 1.212-.782-.108-1.33-.84-1.216-1.62.104-.712.717-1.227 1.402-1.227.076.002.15.007.22.015zM131.874 473.27c.104.778-.425 1.505-1.216 1.62-.772.12-1.498-.428-1.62-1.21-.105-.776.433-1.507 1.215-1.625.066-.01.132-.014.208-.014.698.002 1.308.52 1.414 1.23zM715.725 478.642c.77.127 1.3.867 1.168 1.646-.14.782-.867 1.31-1.658 1.178-.77-.137-1.29-.87-1.158-1.653.113-.7.727-1.188 1.402-1.188.077-.002.15.003.245.017zM132.984 480.296c.133.786-.386 1.526-1.168 1.653-.77.136-1.517-.39-1.648-1.17-.132-.777.387-1.513 1.17-1.645.074-.015.16-.022.244-.022.686-.005 1.28.494 1.402 1.183zM714.48 485.69c.773.15 1.28.895 1.13 1.677-.15.776-.903 1.27-1.677 1.126-.78-.15-1.28-.9-1.14-1.683.142-.68.733-1.158 1.413-1.158.087.005.173.02.274.037zM134.275 487.306c.15.782-.357 1.526-1.13 1.683-.782.148-1.526-.358-1.678-1.137-.15-.77.35-1.52 1.12-1.673.095-.02.198-.022.274-.022.672-.002 1.274.47 1.415 1.148zM713.06 492.7c.77.174 1.25.933 1.09 1.7-.17.77-.93 1.268-1.704 1.093-.77-.174-1.254-.938-1.084-1.705.143-.67.727-1.116 1.387-1.12.11 0 .205.01.31.032zM135.717 494.278c.17.776-.31 1.535-1.083 1.7-.772.175-1.536-.312-1.706-1.08-.17-.776.312-1.54 1.084-1.71.104-.02.207-.03.312-.03.658 0 1.252.456 1.393 1.12zM711.475 499.682c.783.188 1.244.96 1.055 1.725-.188.77-.97 1.233-1.732 1.05-.77-.178-1.232-.96-1.045-1.723.16-.655.734-1.094 1.385-1.094.112 0 .223.008.337.042zM137.347 501.213c.188.772-.282 1.536-1.055 1.724-.754.19-1.536-.276-1.726-1.045-.188-.764.283-1.54 1.047-1.73.112-.022.227-.037.35-.037.64 0 1.215.433 1.384 1.088zM709.723 506.62c.754.208 1.215.99.998 1.754-.196.758-.978 1.215-1.74 1.008-.772-.207-1.226-.994-1.02-1.753.18-.632.765-1.06 1.386-1.06.123-.006.254.013.377.05zM139.138 508.1c.207.77-.245 1.552-1.01 1.764-.762.202-1.544-.245-1.752-1.014-.207-.76.236-1.546 1-1.758.13-.028.254-.047.386-.047.622.005 1.206.42 1.376 1.056zM707.8 513.513c.755.223 1.19 1.027.972 1.776-.225.753-1.035 1.19-1.79.965-.753-.23-1.187-1.02-.96-1.774.18-.627.754-1.02 1.375-1.02.13-.008.273.01.404.053zM141.088 514.95c.235.754-.208 1.555-.952 1.78-.754.222-1.555-.207-1.78-.962-.234-.758.197-1.56.95-1.774.144-.048.274-.066.416-.066.612 0 1.177.405 1.366 1.022zM705.71 520.354c.753.24 1.17 1.056.923 1.8-.244.76-1.055 1.164-1.81.924-.755-.245-1.157-1.046-.913-1.795.197-.608.754-.994 1.355-.994.153-.002.3.022.444.064zM143.217 521.748c.235.75-.17 1.555-.913 1.8-.754.24-1.563-.165-1.8-.92-.255-.748.16-1.554.913-1.803.142-.047.293-.076.443-.076.595.004 1.17.396 1.357.998zM703.447 527.18c.744.255 1.133 1.074.877 1.82-.264.743-1.084 1.13-1.818.865-.754-.26-1.148-1.074-.875-1.818.198-.59.755-.96 1.347-.96.16 0 .32.032.47.094zM145.507 528.485c.264.743-.123 1.56-.877 1.822-.734.265-1.563-.128-1.818-.866-.264-.743.123-1.562.867-1.832.17-.053.33-.075.48-.075.593 0 1.13.368 1.347.952zM701.016 533.922c.746.287 1.113 1.106.84 1.847-.283.738-1.12 1.11-1.848.838-.744-.277-1.11-1.106-.828-1.853.217-.57.754-.918 1.338-.918.16 0 .337.033.498.085zM147.957 535.17c.283.744-.084 1.57-.83 1.847-.733.283-1.562-.085-1.846-.823-.272-.74.096-1.564.83-1.848.17-.062.35-.095.51-.095.583 0 1.12.354 1.337.92zM698.436 540.616c.727.3 1.074 1.14.77 1.87-.29.734-1.13 1.09-1.864.78-.727-.285-1.084-1.13-.773-1.86.216-.556.745-.89 1.32-.89.176 0 .358.04.546.1zM150.566 541.804c.292.726-.057 1.56-.77 1.855-.736.306-1.575-.048-1.866-.778h-.01c-.292-.73.057-1.562.79-1.865.17-.07.36-.104.538-.104.564-.005 1.092.325 1.318.89zM695.676 547.25c.725.32 1.055 1.158.744 1.88-.33.725-1.168 1.055-1.895.743-.727-.315-1.057-1.163-.734-1.884.228-.543.765-.868 1.31-.868.19 0 .386.047.576.127zM153.337 548.337c.31.727-.02 1.564-.735 1.88-.726.316-1.572-.014-1.894-.733-.302-.727.02-1.573.744-1.886.18-.085.377-.118.564-.118.547 0 1.084.316 1.32.857zM692.764 553.802c.707.335 1.018 1.188.678 1.896-.318.72-1.178 1.026-1.893.702-.718-.335-1.02-1.184-.69-1.9.236-.517.754-.823 1.3-.823.197-.006.414.03.604.125zM156.257 554.806c.33.707.03 1.564-.688 1.896-.718.334-1.574.022-1.904-.693-.34-.717-.028-1.568.688-1.898.197-.095.404-.133.604-.133.545 0 1.055.303 1.3.826zM689.69 560.284c.708.357 1 1.207.642 1.913-.35.716-1.205 1.004-1.912.65-.715-.35-.998-1.212-.65-1.918.256-.5.764-.798 1.29-.798.217.002.415.054.63.152zM159.34 561.198c.347.712.055 1.563-.65 1.923-.708.35-1.564.057-1.923-.645-.34-.707-.057-1.567.65-1.922.207-.095.423-.146.64-.146.528 0 1.027.287 1.282.79zM686.46 566.687c.696.373.962 1.24.603 1.933-.367.707-1.232.967-1.94.604-.687-.366-.96-1.233-.593-1.932.244-.49.744-.768 1.264-.768.222-.002.45.06.667.163zM162.57 567.525c.367.696.095 1.563-.594 1.932-.707.368-1.572.104-1.94-.594-.367-.702-.095-1.563.604-1.94.207-.113.435-.156.66-.156.516-.01 1.015.273 1.27.758zM683.066 573.01c.697.38.953 1.253.56 1.95-.39.688-1.255.933-1.942.547-.697-.387-.934-1.25-.557-1.94.264-.472.754-.73 1.254-.73.235-.002.462.05.686.172zM165.962 573.768c.387.692.132 1.564-.556 1.955-.688.383-1.556.138-1.94-.56-.387-.684-.142-1.564.546-1.94.227-.128.452-.185.697-.185.498-.005.99.254 1.252.73zM679.545 579.247c.668.4.902 1.27.498 1.96-.396.683-1.28.904-1.96.504-.667-.395-.903-1.275-.5-1.954.265-.448.747-.702 1.235-.702.244 0 .498.056.727.193zM169.496 579.935c.404.675.18 1.56-.5 1.955-.687.4-1.563.175-1.96-.51-.404-.673-.18-1.554.5-1.95.235-.13.49-.202.726-.202.49 0 .98.254 1.234.707zM675.86 585.396c.667.414.876 1.296.46 1.97-.402.674-1.29.876-1.98.46-.667-.413-.856-1.305-.45-1.968.273-.438.744-.68 1.225-.68.244 0 .5.07.744.218zM173.188 586.012c.415.67.208 1.55-.46 1.97-.68.414-1.556.213-1.97-.462-.416-.67-.218-1.55.45-1.97.237-.146.5-.217.765-.217.472-.004.943.24 1.215.68zM672.025 591.453c.658.43.848 1.32.424 1.98-.442.658-1.33.844-1.99.404-.657-.434-.847-1.313-.413-1.974.27-.42.734-.642 1.197-.642.272.003.547.073.78.233zM177.015 591.99c.435.67.244 1.555-.415 1.982-.65.438-1.536.245-1.98-.404-.423-.664-.234-1.55.416-1.988.234-.155.518-.227.78-.227.464 0 .926.218 1.2.637zM668.05 597.413c.65.447.817 1.338.356 1.992-.44.646-1.328.81-1.986.357-.65-.452-.812-1.338-.36-1.982.284-.41.728-.617 1.18-.617.29 0 .565.08.81.25zM180.99 597.89c.443.645.282 1.544-.366 1.996-.65.443-1.536.283-1.988-.372-.452-.646-.282-1.536.358-1.986.254-.176.537-.25.818-.25.453-.007.896.21 1.18.61zM663.932 603.273c.64.466.78 1.36.31 2.002-.45.636-1.354.78-1.985.307-.633-.457-.773-1.353-.312-1.998v.005c.273-.392.715-.59 1.158-.59.282 0 .583.09.83.273zM185.108 603.688c.462.636.32 1.53-.32 1.997-.63.467-1.526.32-1.997-.314-.46-.63-.33-1.53.32-1.992.255-.188.548-.273.85-.273.43 0 .866.2 1.148.583zM659.674 609.03c.63.48.754 1.385.27 2.012-.478.62-1.374.744-1.997.264-.63-.476-.754-1.376-.27-2.007.282-.363.706-.562 1.14-.562.298 0 .6.094.857.292zM189.357 609.388c.49.633.367 1.527-.255 2.008-.63.477-1.525.357-2.007-.27-.48-.626-.367-1.52.266-2.006.265-.198.564-.297.866-.297.424 0 .858.198 1.13.565zM655.28 614.692c.622.494.718 1.395.228 2.012-.498.613-1.395.702-2.025.217-.61-.493-.707-1.394-.207-2.006.283-.357.697-.542 1.11-.546.31.004.632.113.895.324zM193.757 614.98c.5.616.396 1.52-.226 2.012-.61.5-1.508.396-2.007-.217-.49-.617-.396-1.518.218-2.013.265-.217.595-.314.904-.314.415 0 .83.19 1.113.53zM650.768 620.233c.584.514.67 1.407.16 2.012-.508.612-1.412.688-2.016.18-.613-.515-.68-1.41-.18-2.018.283-.334.697-.515 1.092-.515.332.006.672.115.944.34zM198.28 620.474c.52.604.435 1.503-.17 2.013-.594.518-1.497.44-2.017-.165-.51-.604-.424-1.508.18-2.018.272-.23.594-.334.913-.334.407-.005.812.164 1.095.504zM646.104 625.675c.584.527.643 1.427.123 2.02-.527.595-1.432.642-2.016.123-.603-.527-.65-1.438-.132-2.02.29-.32.688-.486 1.074-.486.34-.005.68.123.952.363zM202.945 625.858c.518.584.46 1.487-.123 2.016-.584.523-1.488.462-2.008-.127-.526-.59-.47-1.488.104-2.012.283-.25.622-.367.952-.367.395 0 .782.17 1.075.49zM641.31 630.993c.583.542.62 1.44.083 2.017-.547.584-1.45.622-2.023.08-.576-.532-.613-1.44-.076-2.02.283-.308.66-.458 1.047-.458.346 0 .705.13.97.38zM207.73 631.12c.547.575.51 1.48-.085 2.02-.564.538-1.48.51-2.016-.073-.538-.575-.5-1.484.073-2.018.272-.265.622-.392.98-.392.378.005.766.16 1.047.462zM636.408 636.2c.56.545.566 1.454.012 2.016-.537.564-1.45.58-2.018.023-.564-.554-.576-1.452-.027-2.02.28-.29.658-.437 1.018-.437.367.006.724.148 1.015.416zM212.64 636.27c.556.57.545 1.48-.02 2.026-.565.55-1.472.54-2.018-.023-.557-.562-.557-1.466.02-2.025.272-.27.632-.4 1-.4.368-.007.734.14 1.017.423zM631.37 641.282c.546.564.534 1.47-.02 2.02-.577.547-1.48.538-2.036-.027-.537-.557-.527-1.47.027-2.025.284-.27.65-.405 1-.405.38.004.756.145 1.03.437zM217.68 641.31c.565.553.575 1.457.028 2.026-.546.565-1.46.58-2.035.024-.556-.558-.564-1.456-.02-2.03.282-.283.66-.42 1.027-.42.37-.005.728.122 1 .4zM626.215 646.238c.537.58.5 1.487-.074 2.02-.575.548-1.49.51-2.026-.07-.535-.577-.498-1.478.086-2.02.273-.26.61-.38.96-.38.387-.002.772.15 1.055.45zM222.844 646.215c.574.542.604 1.44.075 2.025-.548.585-1.452.61-2.026.075-.584-.532-.612-1.44-.075-2.02.28-.308.658-.463 1.045-.463.347 0 .695.133.98.383zM620.938 651.076c.527.594.473 1.493-.123 2.017-.584.527-1.486.472-2.016-.127-.52-.584-.472-1.494.122-2.012.28-.25.61-.363.95-.363.398.006.782.17 1.066.486zM228.11 651.006c.595.522.642 1.423.123 2.02-.527.59-1.433.647-2.025.118-.584-.52-.642-1.423-.112-2.012.272-.32.668-.485 1.073-.485.338 0 .667.12.94.36zM615.557 655.783c.5.603.434 1.512-.168 2.016-.605.508-1.51.434-2.02-.17-.51-.606-.433-1.503.17-2.017.265-.227.605-.335.925-.335.406-.004.81.165 1.092.505zM233.5 655.675c.603.5.688 1.403.16 2.012-.5.604-1.396.68-2.007.17-.595-.51-.68-1.408-.17-2.013.282-.334.687-.518 1.094-.518.33.005.65.117.923.35zM610.057 660.357c.508.616.414 1.513-.217 2.012-.613.488-1.508.398-2.008-.223-.49-.617-.396-1.518.217-2.013.255-.212.575-.314.886-.314.42-.005.845.18 1.12.537zM238.994 660.197c.622.495.716 1.395.217 2.017-.49.617-1.395.706-2.006.217-.612-.504-.707-1.397-.217-2.02.28-.35.696-.527 1.12-.527.31-.006.633.102.887.314zM604.45 664.805c.49.622.366 1.518-.255 1.988v.005c-.623.48-1.525.362-2.008-.27-.48-.626-.377-1.52.264-2.006.257-.19.567-.288.868-.288.426 0 .86.2 1.13.57zM244.608 664.593c.622.48.735 1.375.265 2.007-.48.626-1.375.75-2.007.27-.63-.48-.744-1.38-.265-2.002.274-.373.708-.565 1.143-.57.3.003.61.1.865.295zM598.75 669.1c.46.64.318 1.537-.312 2-.64.47-1.535.32-2.006-.315-.463-.643-.312-1.53.32-1.998.254-.174.555-.27.838-.27.443-.01.885.198 1.16.584zM250.32 668.856c.64.47.78 1.36.318 1.996-.47.642-1.355.777-2.007.312-.62-.457-.77-1.354-.3-1.993.27-.39.706-.588 1.158-.588.284 0 .576.09.83.274zM592.945 673.26c.45.65.29 1.546-.357 1.994-.66.452-1.545.292-1.998-.363-.443-.647-.283-1.544.367-1.985.246-.175.527-.26.8-.26.472 0 .905.215 1.188.616zM256.14 672.98c.65.445.813 1.33.358 1.985-.452.65-1.338.812-1.988.358-.648-.447-.8-1.333-.367-1.993.283-.39.717-.61 1.18-.61.28 0 .564.084.818.26zM587.037 677.284c.434.66.256 1.55-.404 1.982-.668.435-1.555.25-1.988-.415-.424-.657-.234-1.544.414-1.98.245-.156.52-.228.772-.228.48.002.934.223 1.205.642zM262.058 676.964c.65.435.84 1.314.396 1.98-.424.658-1.32.843-1.98.408-.66-.43-.838-1.318-.413-1.98.283-.42.745-.645 1.206-.645.265.002.538.082.792.237zM581.045 681.166c.416.67.217 1.56-.46 1.965-.67.42-1.546.218-1.972-.456-.424-.68-.217-1.56.453-1.97.234-.15.498-.22.764-.22.47.008.94.244 1.215.682zM268.06 680.794c.67.424.876 1.305.452 1.974-.405.675-1.29.883-1.96.462-.68-.42-.876-1.305-.462-1.97.273-.437.735-.673 1.216-.673.255 0 .52.065.754.207zM574.947 684.893c.406.684.182 1.556-.498 1.965-.69.396-1.556.166-1.962-.51-.402-.687-.178-1.56.5-1.96.236-.13.48-.202.727-.202.49 0 .96.26 1.232.707zM274.157 684.492c.688.396.914 1.28.52 1.955-.406.688-1.282.91-1.96.514-.69-.404-.915-1.285-.51-1.964.264-.447.733-.702 1.233-.702.245 0 .49.066.717.198zM568.768 688.478c.387.692.143 1.564-.547 1.95-.687.388-1.554.138-1.95-.556-.377-.692-.12-1.56.56-1.945.224-.127.46-.18.694-.18.51 0 .99.264 1.244.73zM280.347 688.035c.688.386.934 1.258.547 1.95-.377.688-1.254.933-1.94.55-.688-.38-.934-1.252-.547-1.944.255-.47.744-.733 1.254-.733.234-.003.47.06.687.178zM562.512 691.902c.367.712.104 1.568-.594 1.94-.697.362-1.562.094-1.932-.604-.377-.702-.094-1.563.594-1.938.207-.106.44-.16.67-.16.518.004 1.008.282 1.262.762zM286.623 691.432c.707.367.97 1.24.594 1.938-.358.697-1.216.956-1.932.598-.697-.372-.96-1.23-.604-1.936.266-.485.766-.765 1.282-.765.217 0 .454.05.66.165zM556.18 695.19c.35.712.057 1.56-.648 1.918-.707.35-1.564.065-1.912-.646-.35-.706-.076-1.56.64-1.917.218-.09.425-.146.642-.146.516 0 1.024.287 1.278.79zM292.98 694.678c.708.35 1 1.21.643 1.912-.34.707-1.205 1-1.902.65-.716-.35-1.008-1.21-.648-1.913.234-.514.754-.805 1.28-.805.215 0 .433.05.63.156zM549.764 698.31c.33.717.02 1.564-.697 1.903-.715.33-1.562.028-1.893-.697-.34-.716-.03-1.56.688-1.894.197-.095.396-.137.604-.137.534.005 1.052.31 1.298.825zM299.427 697.763c.707.33 1.018 1.18.688 1.896-.33.72-1.178 1.025-1.902.696-.716-.34-1.026-1.184-.688-1.903.235-.514.754-.825 1.29-.825.206.004.413.04.612.135zM543.27 701.282c.32.72-.01 1.563-.733 1.88-.717.314-1.574-.01-1.885-.735-.312-.725.01-1.567.744-1.884.18-.085.377-.128.564-.128.55 0 1.087.33 1.31.867zM305.928 700.693c.726.312 1.056 1.158.745 1.88-.32.72-1.16 1.06-1.885.738-.718-.313-1.057-1.157-.735-1.883.227-.537.754-.856 1.31-.856.188-.004.387.038.565.123zM536.723 704.085c.293.735-.057 1.57-.79 1.87-.728.302-1.556-.056-1.858-.78-.29-.73.05-1.564.783-1.87.17-.066.357-.1.547-.1.556 0 1.08.33 1.318.88zM312.505 703.454c.733.302 1.083 1.136.79 1.865-.29.738-1.13 1.088-1.854.786-.733-.298-1.093-1.132-.79-1.865.226-.557.753-.89 1.328-.89.168.004.357.043.527.104zM530.07 706.747c.273.74-.084 1.564-.828 1.847-.744.283-1.564-.09-1.848-.83-.27-.732.094-1.562.83-1.85.16-.058.338-.08.508-.08.584-.005 1.122.34 1.338.913zM319.157 706.073c.744.277 1.12 1.098.828 1.842-.27.745-1.093 1.117-1.827.834-.744-.278-1.12-1.107-.84-1.848.22-.574.766-.923 1.34-.923.17 0 .348.033.5.093zM523.373 709.244c.254.74-.133 1.555-.877 1.817-.744.27-1.564-.12-1.828-.864-.264-.745.133-1.564.877-1.828l-.012.004c.172-.057.32-.08.48-.08.594-.004 1.14.358 1.36.952zM325.875 708.523c.744.26 1.14 1.073.877 1.822-.254.744-1.074 1.136-1.818.867-.754-.255-1.14-1.074-.877-1.813.198-.596.754-.957 1.348-.957.158-.005.318.024.47.08zM516.605 711.57c.246.755-.168 1.56-.914 1.806-.76.244-1.56-.17-1.808-.92-.244-.748.16-1.56.914-1.794.15-.058.303-.085.443-.085.604 0 1.168.39 1.365.994zM332.65 710.8c.743.244 1.167 1.056.913 1.8-.245.758-1.047 1.173-1.8.928-.745-.24-1.16-1.052-.914-1.806.197-.598.753-.983 1.355-.988.143-.002.294.023.444.065zM509.775 713.738c.236.754-.197 1.55-.96 1.775-.755.228-1.556-.203-1.78-.96-.23-.755.205-1.552.96-1.776.142-.048.272-.062.405-.062.62 0 1.198.4 1.375 1.023zM339.442 712.914c.765.226 1.197 1.02.96 1.776-.216.758-1.007 1.19-1.77.965-.754-.222-1.188-1.02-.96-1.775.18-.627.743-1.02 1.365-1.02.132-.007.273.012.405.054zM502.918 715.735c.195.764-.246 1.55-1.01 1.753-.764.208-1.555-.235-1.762-1.003-.207-.76.254-1.547 1.008-1.76.133-.035.256-.046.387-.046.624.006 1.196.42 1.378 1.055zM346.302 714.854c.754.21 1.206.994 1.008 1.764-.207.763-.998 1.21-1.762 1v.003c-.764-.206-1.206-.988-1.008-1.756.18-.637.754-1.05 1.385-1.05.123 0 .254.008.377.04zM495.99 717.563c.19.77-.27 1.54-1.045 1.725-.764.197-1.535-.273-1.732-1.04-.182-.77.29-1.546 1.045-1.73.133-.027.236-.042.35-.042.628 0 1.224.437 1.382 1.087zM353.19 716.636c.77.188 1.242.96 1.056 1.726-.19.768-.962 1.233-1.734 1.05-.763-.185-1.234-.96-1.046-1.728.15-.65.745-1.09 1.386-1.09.11.005.224.018.337.042zM489.04 719.23c.167.772-.32 1.53-1.105 1.7-.764.176-1.525-.314-1.697-1.078-.17-.776.32-1.546 1.084-1.71.105-.022.22-.038.312-.038.66 0 1.253.454 1.405 1.127zM360.134 718.247c.763.17 1.253.928 1.093 1.7-.18.776-.942 1.263-1.706 1.098-.77-.17-1.252-.938-1.092-1.705.15-.664.735-1.126 1.395-1.126.094 0 .207.01.31.033zM482.037 720.725c.16.782-.357 1.522-1.13 1.68-.782.148-1.536-.355-1.68-1.132-.147-.772.35-1.53 1.132-1.683.083-.015.188-.023.272-.023.67-.002 1.263.47 1.405 1.158zM367.106 719.688v-.006c.78.15 1.28.905 1.13 1.678-.15.772-.895 1.28-1.677 1.136-.765-.16-1.282-.9-1.132-1.677.132-.686.726-1.155 1.404-1.155.095-.005.18 0 .274.023zM475.01 722.044c.12.777-.396 1.508-1.17 1.648-.78.133-1.525-.392-1.658-1.163-.13-.783.387-1.522 1.168-1.654.086-.01.16-.02.246-.02.677-.003 1.3.49 1.414 1.188zM374.106 720.95c.782.133 1.31.872 1.178 1.645-.132.782-.866 1.314-1.647 1.178-.782-.13-1.312-.87-1.17-1.647.114-.702.717-1.2 1.405-1.196.085-.002.16.003.234.02zM467.95 723.188c.112.776-.433 1.513-1.216 1.62-.78.122-1.508-.424-1.62-1.2-.122-.782.415-1.51 1.206-1.626.066-.006.143-.01.197-.01.708.002 1.32.51 1.434 1.216zM381.144 722.054c.792.108 1.33.838 1.206 1.62-.104.777-.83 1.324-1.61 1.206-.78-.104-1.328-.83-1.206-1.615.095-.712.706-1.226 1.413-1.226.066 0 .133.004.197.014zM460.855 724.17c.094.786-.47 1.492-1.254 1.59-.78.097-1.497-.46-1.59-1.247-.095-.776.462-1.492 1.253-1.593.057-.005.113-.01.178-.01.708 0 1.33.538 1.415 1.26zM388.212 722.98c.78.095 1.338.807 1.253 1.584-.095.792-.812 1.353-1.604 1.253-.78-.084-1.346-.802-1.242-1.583.086-.73.706-1.264 1.413-1.264.068.002.115.002.182.01zM453.742 724.975c.074.79-.498 1.483-1.29 1.568-.782.07-1.49-.504-1.556-1.29-.076-.787.5-1.484 1.28-1.56.058-.006.095-.006.142-.006.737 0 1.36.557 1.424 1.288zM395.297 723.74c.782.07 1.355.77 1.28 1.56-.074.786-.763 1.37-1.555 1.295-.79-.08-1.366-.787-1.3-1.567.084-.74.707-1.286 1.432-1.286.04-.007.096-.007.143-.002zM446.62 725.615c.056.786-.538 1.475-1.33 1.525-.79.058-1.47-.536-1.524-1.327-.057-.783.527-1.462 1.318-1.527.037 0 .074-.004.104-.004.744.01 1.367.584 1.43 1.333zM402.39 724.333c.783.048 1.377.735 1.32 1.52-.058.787-.735 1.382-1.526 1.324-.782-.052-1.376-.744-1.328-1.53.065-.754.688-1.323 1.433-1.323.036 0 .064.005.1.01zM439.477 726.08c.037.788-.574 1.457-1.355 1.504-.79.028-1.48-.58-1.498-1.366-.037-.786.564-1.46 1.348-1.493.037-.005.047-.005.074-.005.753 0 1.393.598 1.43 1.36zM409.497 724.743c.8.033 1.402.702 1.365 1.494-.047.78-.707 1.395-1.498 1.364-.78-.03-1.395-.705-1.356-1.496.03-.764.66-1.36 1.424-1.36h.065zM432.326 726.378c.02.787-.604 1.438-1.404 1.46-.78.024-1.44-.603-1.46-1.394-.02-.797.603-1.446 1.396-1.47h.027c.78.005 1.414.623 1.44 1.404zM416.61 724.993c.79.02 1.422.674 1.395 1.46-.02.792-.67 1.414-1.46 1.398-.79-.018-1.413-.673-1.396-1.464.02-.782.65-1.398 1.432-1.398.01.005.028.005.028.005zM425.176 726.5c0 .792-.66 1.43-1.434 1.433-.79 0-1.432-.64-1.432-1.432-.01-.786.64-1.427 1.422-1.427.784 0 1.444.64 1.444 1.428z"/></g></svg>