<?xml version="1.0" encoding="utf-8"?>
<!-- Generator: Adobe Illustrator 22.1.0, SVG Export Plug-In . SVG Version: 6.00 Build 0)  -->
<svg version="1.1" id="圖層_1" xmlns="http://www.w3.org/2000/svg" xmlns:xlink="http://www.w3.org/1999/xlink" x="0px" y="0px"
	 viewBox="0 0 850.4 850.4" style="enable-background:new 0 0 850.4 850.4;" xml:space="preserve">
<style type="text/css">
	.st0{fill:#FFFFFF;enable-background:new    ;}
	.st1{fill:#FFFFFF;}
</style>
<path class="st0" d="M533.8,722c0.9-0.3,1.6-0.3,2.2,0.1c0.6,0.4,1,1,1.4,2l-1.4,0.5l-0.1-0.2c-0.1-0.2-0.1-0.4-0.2-0.5
	c-0.1-0.1-0.2-0.3-0.2-0.4c-0.1-0.1-0.2-0.2-0.3-0.3c-0.1-0.1-0.2-0.1-0.4-0.1c-0.2,0-0.3,0-0.5,0.1c-0.1,0.1-0.2,0.1-0.3,0.2
	c-0.1,0.1-0.2,0.1-0.2,0.2c-0.1,0.1-0.1,0.2-0.1,0.3c0,0.1-0.1,0.2-0.1,0.3c0,0.1,0,0.2,0,0.4l0.1,0.4c0,0.1,0.1,0.2,0.1,0.4
	c0.1,0.2,0.1,0.3,0.1,0.4c0,0.1,0.1,0.2,0.1,0.4c0,0.1,0,0.1,0.1,0.2c0.1,0.2,0.1,0.3,0.2,0.4c0,0.1,0.1,0.2,0.2,0.4
	c0.1,0.1,0.1,0.2,0.2,0.3c0.1,0.1,0.1,0.2,0.2,0.2c0.1,0.1,0.2,0.1,0.3,0.2c0.1,0,0.2,0,0.3,0c0.1,0,0.3,0,0.4-0.1
	c0.2-0.1,0.4-0.3,0.6-0.5s0.2-0.5,0.2-0.7l1.2-0.4l1.9,5.4l-4.4,1.6l-0.5-1.4l3.1-1.1l-0.8-2.5c-0.3,0.4-0.8,0.7-1.3,0.9
	c-0.3,0.1-0.6,0.2-0.9,0.2c-0.3,0-0.5-0.1-0.8-0.2c-0.2-0.1-0.4-0.3-0.6-0.5c-0.2-0.2-0.4-0.5-0.5-0.7c-0.2-0.3-0.3-0.6-0.4-0.9
	c-0.1-0.4-0.3-0.8-0.3-1.2c-0.1-0.4-0.1-0.7-0.1-1.1c0-0.4,0.1-0.7,0.2-1c0.1-0.3,0.3-0.5,0.5-0.8C533,722.3,533.4,722.1,533.8,722
	L533.8,722z M483.6,736l2,8.1l1.1-0.3l0.3,1.1c-0.7,0.4-1.1,0.9-1.2,1.5l-1.1,0.3l-2.5-10.3L483.6,736L483.6,736z M478.2,737.2
	c0.6-0.1,1.1-0.1,1.5,0.1c0.5,0.2,0.8,0.5,1.1,0.9c0.3,0.4,0.5,0.9,0.7,1.5l1.1,4.4c0.2,1,0.2,1.8-0.1,2.4c-0.3,0.7-0.9,1.1-1.7,1.3
	c-0.9,0.2-1.6,0.1-2.1-0.3s-1-1.1-1.2-2.1l-1.1-4.4c-0.2-0.9-0.2-1.7,0.1-2.4C476.8,737.9,477.4,737.4,478.2,737.2L478.2,737.2z
	 M478.5,738.4c-0.7,0.2-1,0.9-0.7,2.1l1.1,4.4c0.1,0.2,0.1,0.4,0.2,0.6c0.1,0.2,0.1,0.3,0.2,0.5c0.1,0.2,0.2,0.3,0.3,0.4
	c0.1,0.1,0.2,0.2,0.4,0.2c0.1,0,0.3,0,0.5,0c0.2-0.1,0.3-0.1,0.5-0.2c0.1-0.1,0.2-0.2,0.3-0.3c0-0.1,0.1-0.3,0.1-0.5
	c0-0.2,0-0.4,0-0.5c0-0.2-0.1-0.4-0.1-0.6l-1.1-4.4c-0.1-0.2-0.1-0.5-0.2-0.7c-0.1-0.2-0.2-0.4-0.3-0.5c-0.1-0.2-0.3-0.3-0.5-0.3
	C478.9,738.4,478.7,738.4,478.5,738.4L478.5,738.4z M428.6,741.8l0,8.3h1.1v1.1c-0.8,0.3-1.3,0.7-1.5,1.1l-1.1,0l0-10.6L428.6,741.8
	L428.6,741.8z M423.2,741.7c0.9,0,1.6,0.3,2,0.8c0.4,0.5,0.6,1.3,0.6,2.3l-1.5,0v-0.2c0-0.2,0-0.4,0-0.5c0-0.1,0-0.3-0.1-0.4
	c0-0.2-0.1-0.3-0.2-0.4c-0.1-0.1-0.2-0.2-0.3-0.2c-0.1-0.1-0.3-0.1-0.5-0.1c-0.1,0-0.3,0-0.4,0.1c-0.1,0-0.2,0.1-0.3,0.1
	c-0.1,0-0.1,0.1-0.2,0.2c-0.1,0.1-0.1,0.2-0.2,0.3c0,0.1-0.1,0.2-0.1,0.3c0,0.1,0,0.3-0.1,0.4c0,0.1,0,0.2,0,0.4c0,0.2,0,0.3,0,0.4
	v0.6c0,0.2,0,0.3,0,0.4c0,0.1,0,0.3,0,0.4c0,0.1,0,0.3,0.1,0.4c0,0.1,0.1,0.2,0.1,0.3c0.1,0.1,0.1,0.2,0.2,0.2
	c0.1,0.1,0.2,0.1,0.3,0.1c0.1,0,0.2,0.1,0.4,0.1c0.3,0,0.5-0.1,0.7-0.3c0.2-0.2,0.3-0.4,0.4-0.6l1.3,0l0,5.7l-4.7,0v-1.5l3.3,0
	l0.1-2.6c-0.4,0.3-0.9,0.4-1.5,0.4c-0.3,0-0.6,0-0.9-0.2c-0.3-0.1-0.5-0.3-0.6-0.4c-0.2-0.2-0.3-0.4-0.4-0.7
	c-0.1-0.3-0.2-0.6-0.2-0.9s-0.1-0.6-0.1-1c0-0.5,0-0.9,0.1-1.2c0-0.4,0.1-0.7,0.2-1.1c0.1-0.3,0.3-0.6,0.5-0.9
	c0.2-0.2,0.5-0.4,0.8-0.6C422.4,741.8,422.8,741.7,423.2,741.7L423.2,741.7z M369.7,738.3l-0.1,1.5l-3,3.5c0,0-0.1,0.1-0.2,0.3
	c-0.1,0.1-0.2,0.2-0.2,0.3c0,0.1-0.1,0.1-0.2,0.3c-0.1,0.1-0.2,0.2-0.2,0.3c0,0.1-0.1,0.2-0.2,0.3c-0.1,0.1-0.1,0.2-0.1,0.3
	c0,0.1-0.1,0.2-0.1,0.4c0,0.1-0.1,0.3-0.1,0.4c0,0.4,0,0.8,0.2,1.1c0.2,0.3,0.4,0.5,0.8,0.5c0.2,0,0.4,0,0.6-0.1
	c0.2-0.1,0.3-0.2,0.4-0.4c0.1-0.2,0.2-0.4,0.2-0.6c0.1-0.2,0.1-0.4,0.1-0.7l0-0.4l1.5,0.1l0,0.4c-0.1,1-0.4,1.7-0.9,2.3
	c-0.5,0.5-1.2,0.7-2.1,0.6c-0.9-0.1-1.5-0.4-1.9-0.9c-0.4-0.5-0.6-1.2-0.5-2.1c0-0.3,0.1-0.6,0.2-0.9c0.1-0.3,0.2-0.5,0.4-0.8
	c0.1-0.3,0.3-0.5,0.4-0.6c0.1-0.2,0.3-0.4,0.5-0.6l3-3.2l-3.8-0.4l0.1-1.5L369.7,738.3L369.7,738.3z M360.9,737.4
	c0.6,0.1,1.1,0.2,1.4,0.5c0.4,0.3,0.6,0.7,0.8,1.2c0.2,0.5,0.2,1,0.1,1.6l-0.4,4.5c-0.1,1-0.4,1.7-0.9,2.2c-0.5,0.5-1.2,0.7-2.1,0.7
	c-0.9-0.1-1.5-0.4-1.9-1c-0.4-0.6-0.5-1.4-0.5-2.4l0.4-4.5c0.1-0.9,0.4-1.7,0.9-2.2C359.4,737.5,360.1,737.3,360.9,737.4
	L360.9,737.4z M360.8,738.6c-0.8-0.1-1.2,0.5-1.3,1.8l-0.4,4.5c0,0.2,0,0.4,0,0.6c0,0.2,0,0.3,0,0.5c0,0.2,0.1,0.3,0.2,0.4
	c0.1,0.1,0.2,0.2,0.3,0.3c0.1,0.1,0.3,0.1,0.5,0.2c0.2,0,0.4,0,0.5-0.1c0.1-0.1,0.3-0.1,0.4-0.3c0.1-0.1,0.2-0.2,0.2-0.4
	c0.1-0.2,0.1-0.3,0.1-0.5c0-0.2,0.1-0.3,0.1-0.6l0.4-4.5c0-0.2,0-0.5,0-0.7c0-0.2,0-0.4-0.1-0.6c-0.1-0.2-0.2-0.4-0.3-0.5
	C361.2,738.7,361,738.6,360.8,738.6L360.8,738.6z M317.4,727.1l-0.5,1.4l-3.8,2.7c0,0-0.1,0.1-0.3,0.2c-0.2,0.1-0.3,0.2-0.3,0.2
	c-0.1,0-0.1,0.1-0.3,0.2c-0.1,0.1-0.2,0.2-0.3,0.2c-0.1,0.1-0.1,0.1-0.2,0.3c-0.1,0.1-0.2,0.2-0.2,0.3c-0.1,0.1-0.1,0.2-0.2,0.3
	c-0.1,0.1-0.1,0.3-0.2,0.4c-0.1,0.4-0.2,0.8-0.1,1.1c0.1,0.3,0.3,0.6,0.6,0.7c0.2,0.1,0.4,0.1,0.6,0c0.2,0,0.3-0.1,0.5-0.3
	s0.3-0.3,0.4-0.5c0.1-0.2,0.2-0.4,0.3-0.6l0.1-0.4l1.4,0.5l-0.1,0.4c-0.3,0.9-0.8,1.6-1.4,2c-0.6,0.4-1.3,0.4-2.2,0.1
	c-0.8-0.3-1.4-0.7-1.6-1.4c-0.3-0.6-0.2-1.3,0.1-2.1c0.1-0.3,0.2-0.6,0.4-0.8c0.1-0.3,0.3-0.5,0.5-0.7c0.2-0.2,0.4-0.4,0.5-0.5
	c0.2-0.1,0.4-0.3,0.6-0.5l3.7-2.3l-3.6-1.3l0.5-1.4L317.4,727.1L317.4,727.1z M309.2,724c0.9,0.3,1.4,0.8,1.6,1.4
	c0.2,0.6,0.1,1.4-0.2,2.4l-1.4-0.5l0.1-0.2c0.1-0.2,0.1-0.4,0.2-0.5c0-0.1,0.1-0.3,0.1-0.5c0-0.2,0-0.3,0-0.4c0-0.1-0.1-0.2-0.2-0.3
	c-0.1-0.1-0.2-0.2-0.4-0.2c-0.1,0-0.3-0.1-0.4-0.1c-0.1,0-0.2,0-0.3,0c-0.1,0-0.2,0.1-0.3,0.1c-0.1,0.1-0.2,0.1-0.2,0.2
	c-0.1,0.1-0.1,0.2-0.2,0.3c-0.1,0.1-0.1,0.2-0.2,0.3c0,0.1-0.1,0.2-0.2,0.4c-0.1,0.2-0.1,0.3-0.1,0.4c0,0.1-0.1,0.2-0.1,0.4
	c0,0.1,0,0.1-0.1,0.2c-0.1,0.2-0.1,0.3-0.1,0.4c0,0.1-0.1,0.2-0.1,0.4c0,0.1,0,0.3-0.1,0.4c0,0.1,0,0.2,0,0.3c0,0.1,0.1,0.2,0.1,0.3
	c0.1,0.1,0.1,0.2,0.2,0.2c0.1,0.1,0.2,0.1,0.4,0.2c0.3,0.1,0.5,0.1,0.8,0c0.2-0.1,0.4-0.2,0.6-0.4l1.2,0.4l-1.9,5.4l-4.4-1.6
	l0.5-1.4l3.1,1.1l1-2.4c-0.5,0.1-1,0-1.6-0.2c-0.3-0.1-0.6-0.3-0.8-0.5c-0.2-0.2-0.4-0.4-0.5-0.6c-0.1-0.2-0.1-0.5-0.2-0.8
	c0-0.3,0-0.6,0.1-0.9c0.1-0.3,0.1-0.6,0.3-1c0.1-0.4,0.3-0.8,0.5-1.1c0.2-0.3,0.4-0.6,0.6-0.9c0.2-0.3,0.5-0.5,0.7-0.6
	c0.3-0.2,0.6-0.2,0.9-0.3C308.4,723.8,308.8,723.8,309.2,724L309.2,724z M263.8,705.2c0.8,0.4,1.2,0.9,1.4,1.6
	c0.2,0.6,0.1,1.4-0.4,2.1l-0.2,0.3l-1.3-0.7c0.1-0.2,0.2-0.4,0.3-0.5c0.1-0.2,0.1-0.3,0.2-0.5c0-0.2,0-0.3,0-0.5
	c0-0.1-0.1-0.3-0.2-0.4c-0.1-0.1-0.2-0.2-0.4-0.3c-0.2-0.1-0.4-0.1-0.5-0.1c-0.2,0-0.3,0-0.4,0.1s-0.2,0.2-0.4,0.3
	c-0.1,0.1-0.2,0.3-0.3,0.4c-0.1,0.1-0.2,0.3-0.3,0.5c-0.3,0.5-0.4,1-0.3,1.4c0,0.4,0.3,0.7,0.8,1l-0.7,1.3c-0.5-0.3-0.9-0.3-1.2-0.2
	c-0.3,0.1-0.6,0.4-0.8,0.9c-0.2,0.4-0.3,0.8-0.3,1.1c0,0.3,0.2,0.6,0.6,0.8c0.2,0.1,0.3,0.1,0.5,0.1s0.3,0,0.4-0.1
	c0.1-0.1,0.2-0.2,0.4-0.3c0.1-0.1,0.2-0.3,0.3-0.4c0.1-0.1,0.2-0.3,0.3-0.5l1.3,0.7l-0.2,0.3c-0.4,0.8-0.9,1.3-1.6,1.5
	c-0.6,0.2-1.3,0.1-2.1-0.3c-0.8-0.4-1.2-0.9-1.4-1.6c-0.2-0.6-0.1-1.3,0.3-2.1c0.3-0.5,0.6-0.9,1-1.1c0.4-0.2,0.9-0.3,1.4-0.2
	c-0.4-0.4-0.5-0.8-0.6-1.3c0-0.5,0.1-1.1,0.5-1.7c0.5-0.9,1-1.5,1.6-1.8C262.3,704.7,263,704.8,263.8,705.2L263.8,705.2z
	 M258.3,702.3c0.5,0.3,0.9,0.6,1.1,1c0.2,0.4,0.3,0.9,0.3,1.4c0,0.5-0.2,1-0.5,1.6l-2.1,4c-0.5,0.9-1,1.4-1.7,1.7
	c-0.6,0.3-1.4,0.2-2.2-0.2c-0.8-0.4-1.2-1-1.4-1.7c-0.1-0.7,0-1.5,0.5-2.3l2.1-4c0.4-0.8,1-1.4,1.7-1.7
	C256.9,701.9,257.6,701.9,258.3,702.3L258.3,702.3z M257.7,703.4c-0.7-0.4-1.3,0-1.9,1.2l-2.1,4c-0.1,0.2-0.2,0.4-0.2,0.5
	c-0.1,0.2-0.1,0.3-0.1,0.5c0,0.2,0,0.3,0,0.5c0,0.1,0.1,0.3,0.2,0.4c0.1,0.1,0.2,0.2,0.4,0.3c0.2,0.1,0.3,0.1,0.5,0.1
	c0.2,0,0.3,0,0.4-0.1c0.1-0.1,0.2-0.2,0.4-0.3c0.1-0.1,0.2-0.3,0.3-0.4c0.1-0.1,0.2-0.3,0.3-0.5l2.1-4c0.1-0.2,0.2-0.4,0.3-0.6
	c0.1-0.2,0.1-0.4,0.1-0.6c0-0.2,0-0.4-0.1-0.6C258.1,703.7,257.9,703.5,257.7,703.4L257.7,703.4z M220.8,677.7
	c0.7,0.5,1,1.1,1.1,1.8c0.1,0.7-0.2,1.3-0.7,2l-0.2,0.3l-1.2-0.9c0.1-0.2,0.3-0.4,0.4-0.5c0.1-0.1,0.2-0.3,0.3-0.5
	c0.1-0.2,0.1-0.3,0.1-0.4c0-0.1,0-0.3-0.1-0.4c-0.1-0.1-0.2-0.3-0.3-0.4c-0.1-0.1-0.3-0.2-0.5-0.2c-0.2,0-0.3,0-0.4,0
	c-0.1,0-0.3,0.1-0.4,0.2c-0.1,0.1-0.3,0.2-0.4,0.3c-0.1,0.1-0.2,0.3-0.4,0.5c-0.4,0.5-0.6,0.9-0.6,1.3c0,0.4,0.2,0.8,0.6,1.1
	l-0.9,1.2c-0.4-0.3-0.8-0.5-1.1-0.5c-0.3,0-0.6,0.3-1,0.7c-0.3,0.4-0.5,0.7-0.5,1c0,0.3,0.1,0.6,0.5,0.9c0.2,0.1,0.3,0.2,0.5,0.2
	c0.1,0,0.3,0,0.4,0c0.1,0,0.3-0.1,0.4-0.2s0.3-0.2,0.4-0.3c0.1-0.1,0.2-0.3,0.4-0.5l1.2,0.9l-0.2,0.3c-0.5,0.7-1.1,1.1-1.8,1.2
	c-0.7,0.1-1.3-0.1-2-0.7c-0.7-0.5-1-1.1-1.1-1.8c-0.1-0.7,0.2-1.3,0.7-2c0.4-0.5,0.8-0.8,1.2-0.9c0.4-0.1,0.9-0.1,1.4,0.1
	c-0.3-0.4-0.4-0.9-0.3-1.4c0.1-0.5,0.3-1,0.8-1.6c0.6-0.8,1.3-1.3,1.9-1.4C219.4,676.9,220.1,677.1,220.8,677.7L220.8,677.7z
	 M216,673.9c0.7,0.6,1.1,1.2,1.1,1.9c0,0.7-0.3,1.4-1,2.2l-1.2-0.9l0.1-0.2c0.1-0.2,0.2-0.3,0.3-0.4c0.1-0.1,0.2-0.3,0.2-0.4
	c0.1-0.2,0.1-0.3,0.1-0.4c0-0.1,0-0.2-0.1-0.4s-0.1-0.2-0.3-0.4c-0.1-0.1-0.2-0.2-0.3-0.2c-0.1,0-0.2-0.1-0.3-0.1
	c-0.1,0-0.2,0-0.3,0c-0.1,0-0.2,0.1-0.3,0.1c-0.1,0-0.2,0.1-0.3,0.2c-0.1,0.1-0.2,0.2-0.3,0.2c-0.1,0.1-0.2,0.2-0.3,0.3
	c-0.1,0.1-0.2,0.2-0.3,0.3c-0.1,0.1-0.1,0.2-0.3,0.3c-0.1,0.1-0.1,0.1-0.1,0.2c-0.1,0.1-0.2,0.2-0.3,0.3c-0.1,0.1-0.1,0.2-0.2,0.3
	c-0.1,0.1-0.1,0.2-0.2,0.3c0,0.1-0.1,0.2-0.1,0.3c0,0.1,0,0.2,0,0.3c0,0.1,0.1,0.2,0.1,0.3c0.1,0.1,0.2,0.2,0.3,0.3
	c0.2,0.2,0.5,0.2,0.7,0.2c0.3,0,0.5-0.1,0.7-0.2l1,0.8l-3.6,4.5l-3.7-2.9l1-1.2l2.6,2.1l1.7-2c-0.5-0.1-1-0.3-1.4-0.6
	c-0.3-0.2-0.5-0.4-0.6-0.7c-0.1-0.3-0.2-0.5-0.2-0.7c0-0.3,0-0.5,0.1-0.8c0.1-0.3,0.2-0.5,0.4-0.8c0.1-0.3,0.3-0.5,0.6-0.8
	c0.3-0.4,0.6-0.7,0.8-0.9c0.3-0.3,0.6-0.5,0.9-0.7c0.3-0.2,0.6-0.3,0.9-0.4c0.3-0.1,0.6,0,1,0C215.3,673.5,215.7,673.6,216,673.9
	L216,673.9z M182.3,640.9l-2.1,1.8l1.9,2.3l-1.3,1.1l-6.5,2l-1.2-1.5l4.9-4.2l-0.8-0.9l1.1-0.9l0.8,0.9l2.1-1.8L182.3,640.9
	L182.3,640.9z M180.1,644.8l-1-1.2l-3.5,2.9L180.1,644.8L180.1,644.8z M178.4,636.1c0.4,0.4,0.6,0.9,0.6,1.4c0,0.5,0,1-0.3,1.4
	c-0.2,0.4-0.6,0.9-1.1,1.3l-3.5,2.9c-0.7,0.6-1.5,1-2.2,1c-0.7,0-1.4-0.3-1.9-1c-0.6-0.7-0.8-1.4-0.6-2.1c0.1-0.7,0.6-1.4,1.3-2
	l3.5-2.9c0.7-0.6,1.4-0.9,2.2-1C177.2,635.2,177.9,635.5,178.4,636.1L178.4,636.1z M177.5,636.9c-0.5-0.6-1.2-0.5-2.2,0.3l-3.5,2.9
	c-0.2,0.1-0.3,0.3-0.4,0.4c-0.1,0.1-0.2,0.3-0.3,0.4c-0.1,0.1-0.2,0.3-0.2,0.4c0,0.1,0,0.3,0,0.4c0,0.1,0.1,0.3,0.2,0.4
	c0.1,0.2,0.3,0.3,0.4,0.3c0.1,0.1,0.3,0.1,0.4,0.1c0.1,0,0.3-0.1,0.5-0.1c0.2-0.1,0.3-0.2,0.5-0.3c0.1-0.1,0.3-0.2,0.5-0.3l3.5-2.9
	c0.2-0.2,0.4-0.3,0.5-0.5c0.1-0.2,0.3-0.3,0.3-0.5c0.1-0.2,0.1-0.4,0.1-0.6C177.7,637.3,177.6,637.1,177.5,636.9L177.5,636.9z
	 M152.8,602.7l-2.4,1.3l1.4,2.7l-1.5,0.8l-6.7,0.6l-0.9-1.7l5.7-3.1l-0.6-1l1.3-0.7l0.6,1l2.4-1.3L152.8,602.7L152.8,602.7z
	 M149.8,606l-0.7-1.3l-4,2.2L149.8,606L149.8,606z M150,597.3c0.4,0.8,0.5,1.5,0.3,2.2c-0.3,0.6-0.9,1.2-1.8,1.7l-0.7-1.3l0.2-0.1
	c0.2-0.1,0.3-0.2,0.4-0.3c0.1-0.1,0.2-0.2,0.4-0.3c0.1-0.1,0.2-0.2,0.3-0.3c0-0.1,0.1-0.2,0.1-0.4c0-0.1,0-0.3-0.1-0.4
	c-0.1-0.1-0.1-0.2-0.2-0.3c-0.1-0.1-0.2-0.2-0.2-0.2c-0.1-0.1-0.2-0.1-0.3-0.1c-0.1,0-0.2,0-0.3,0c-0.1,0-0.2,0-0.4,0.1
	c-0.1,0-0.2,0.1-0.3,0.1c-0.1,0-0.2,0.1-0.4,0.2c-0.2,0.1-0.3,0.1-0.4,0.2l-0.4,0.2c-0.1,0-0.1,0.1-0.2,0.1
	c-0.1,0.1-0.3,0.1-0.4,0.2c-0.1,0.1-0.2,0.1-0.3,0.2c-0.1,0.1-0.2,0.2-0.3,0.2c-0.1,0.1-0.1,0.2-0.2,0.2c-0.1,0.1-0.1,0.2-0.1,0.3
	c0,0.1,0,0.2,0,0.3c0,0.1,0.1,0.2,0.1,0.4c0.1,0.2,0.3,0.4,0.6,0.5c0.2,0.1,0.5,0.1,0.7,0.1l0.6,1.1l-5,2.7l-2.2-4.1l1.3-0.7
	l1.6,2.9l2.3-1.1c-0.4-0.3-0.8-0.6-1.1-1.2c-0.2-0.3-0.3-0.6-0.3-0.9c0-0.3,0-0.5,0.1-0.8c0.1-0.2,0.2-0.5,0.4-0.7
	c0.2-0.2,0.4-0.4,0.6-0.6c0.2-0.2,0.5-0.4,0.9-0.5c0.4-0.2,0.8-0.4,1.1-0.5c0.3-0.1,0.7-0.2,1.1-0.3c0.4-0.1,0.7,0,1,0
	c0.3,0.1,0.6,0.2,0.8,0.4C149.5,596.6,149.8,596.9,150,597.3L150,597.3z M112.1,501.5c0.2,0.9,0,1.6-0.5,2.1c-0.5,0.5-1.2,0.8-2.2,1
	l-0.2-1.5l0.2,0c0.2,0,0.4-0.1,0.5-0.1c0.2,0,0.3-0.1,0.4-0.1c0.2-0.1,0.3-0.1,0.3-0.2c0.1-0.1,0.2-0.2,0.2-0.3c0-0.1,0.1-0.3,0-0.5
	c0-0.1-0.1-0.3-0.1-0.4c-0.1-0.1-0.1-0.2-0.2-0.3c-0.1-0.1-0.1-0.1-0.2-0.2c-0.1,0-0.2-0.1-0.3-0.1c-0.1,0-0.2,0-0.3,0
	c-0.2,0-0.3,0-0.4,0c-0.1,0-0.2,0-0.4,0c-0.2,0-0.3,0-0.4,0c-0.1,0-0.2,0-0.4,0.1c-0.1,0-0.2,0-0.2,0c-0.2,0-0.3,0.1-0.4,0.1
	c-0.1,0-0.2,0.1-0.4,0.1c-0.1,0-0.2,0.1-0.3,0.1c-0.1,0-0.2,0.1-0.3,0.2c-0.1,0.1-0.2,0.1-0.2,0.2c0,0.1-0.1,0.2-0.1,0.3
	c0,0.1,0,0.3,0,0.4c0,0.3,0.2,0.5,0.4,0.6c0.2,0.2,0.4,0.3,0.7,0.3l0.2,1.3l-5.7,0.9l-0.7-4.6l1.5-0.2l0.5,3.3l2.6-0.3
	c-0.3-0.4-0.5-0.9-0.6-1.4c-0.1-0.3,0-0.6,0-0.9c0.1-0.3,0.2-0.5,0.3-0.7c0.2-0.2,0.3-0.4,0.6-0.5c0.2-0.1,0.5-0.3,0.8-0.4
	c0.3-0.1,0.6-0.2,1-0.2c0.5-0.1,0.9-0.1,1.2-0.1c0.4,0,0.7,0,1.1,0.1c0.4,0.1,0.7,0.2,0.9,0.3c0.3,0.2,0.5,0.4,0.7,0.7
	C111.9,500.7,112,501,112.1,501.5L112.1,501.5z M111.1,495.3c0.1,0.9,0,1.6-0.5,2.1c-0.5,0.5-1.2,0.8-2.2,1l-0.2-1.5l0.2,0
	c0.2,0,0.4-0.1,0.5-0.1s0.3-0.1,0.4-0.2c0.1-0.1,0.3-0.1,0.3-0.2c0.1-0.1,0.1-0.2,0.2-0.3c0-0.1,0-0.3,0-0.5c0-0.1-0.1-0.3-0.1-0.4
	c-0.1-0.1-0.1-0.2-0.2-0.3c-0.1-0.1-0.1-0.1-0.2-0.2c-0.1,0-0.2-0.1-0.3-0.1c-0.1,0-0.2,0-0.3-0.1c-0.2,0-0.3,0-0.4,0
	c-0.1,0-0.2,0-0.4,0c-0.2,0-0.3,0-0.4,0.1c-0.1,0-0.2,0-0.4,0.1l-0.2,0c-0.2,0-0.3,0.1-0.4,0.1c-0.1,0-0.2,0.1-0.4,0.1
	c-0.1,0-0.2,0.1-0.3,0.1c-0.1,0-0.2,0.1-0.3,0.2c-0.1,0.1-0.2,0.1-0.2,0.2c0,0.1-0.1,0.2-0.1,0.3c0,0.1,0,0.3,0,0.4
	c0,0.3,0.2,0.5,0.4,0.6c0.2,0.2,0.4,0.3,0.7,0.3l0.2,1.3l-5.7,0.9l-0.7-4.6l1.5-0.2l0.5,3.3l2.6-0.3c-0.3-0.4-0.5-0.9-0.6-1.4
	c-0.1-0.3-0.1-0.6,0-0.9s0.2-0.5,0.3-0.7c0.2-0.2,0.4-0.4,0.6-0.5c0.3-0.2,0.5-0.3,0.8-0.4c0.3-0.1,0.6-0.2,1-0.2
	c0.5-0.1,0.9-0.1,1.2-0.1c0.4,0,0.7,0,1.1,0.1c0.4,0.1,0.7,0.2,0.9,0.3c0.3,0.2,0.5,0.4,0.7,0.7C111,494.5,111.1,494.9,111.1,495.3
	L111.1,495.3z M111.1,396.4c0,0.4-0.1,0.7-0.3,1c-0.2,0.3-0.3,0.5-0.6,0.7c-0.2,0.2-0.5,0.3-0.8,0.4c-0.3,0.1-0.6,0.2-1,0.2
	c-0.3,0-0.7,0-1.1,0l-3.4-0.4c-0.4-0.1-0.8-0.1-1.2-0.2c-0.4-0.1-0.7-0.2-1-0.4c-0.3-0.2-0.6-0.4-0.8-0.6c-0.2-0.2-0.4-0.5-0.5-0.8
	c-0.1-0.3-0.1-0.7-0.1-1.1c0.1-0.8,0.4-1.5,1-1.9c0.5-0.4,1.2-0.5,2.1-0.4l-0.2,1.5c-0.5-0.1-0.9,0-1.2,0.1
	c-0.3,0.1-0.4,0.4-0.5,0.8c-0.1,0.8,0.6,1.2,2.1,1.4l1.5,0.2c-0.5-0.4-0.7-0.9-0.6-1.6c0-0.4,0.2-0.8,0.3-1.1
	c0.2-0.3,0.4-0.5,0.7-0.6c0.3-0.1,0.6-0.2,1-0.2c0.4,0,0.8,0,1.2,0c0.5,0.1,0.9,0.2,1.3,0.3c0.4,0.1,0.7,0.3,1,0.6
	c0.3,0.2,0.5,0.5,0.7,0.9C111.1,395.5,111.1,395.9,111.1,396.4L111.1,396.4z M109.6,396.7c0.1-0.1,0.2-0.3,0.2-0.5
	c0-0.2,0-0.4-0.1-0.6c-0.1-0.2-0.2-0.3-0.4-0.4c-0.2-0.1-0.4-0.2-0.6-0.2c-0.2-0.1-0.4-0.1-0.7-0.1l-0.3,0c-0.1,0-0.2,0-0.3,0
	c-0.1,0-0.3,0-0.3,0c-0.1,0-0.2,0-0.3,0c-0.1,0-0.2,0-0.3,0l-0.2,0.1c-0.1,0-0.2,0.1-0.2,0.1c-0.1,0.1-0.1,0.1-0.2,0.2
	c-0.1,0.1-0.1,0.1-0.1,0.2c0,0.1-0.1,0.2-0.1,0.3c-0.1,0.5,0.2,0.9,0.6,1.2l1.5,0.2c0.3,0,0.5,0,0.7,0c0.2,0,0.4,0,0.6-0.1
	C109.3,397,109.5,396.9,109.6,396.7L109.6,396.7z M111.8,390.1c-0.1,0.9-0.5,1.6-1,1.9c-0.6,0.3-1.4,0.4-2.4,0.3l0.2-1.5l0.2,0
	c0.2,0,0.4,0,0.5,0c0.2,0,0.3,0,0.5,0c0.2,0,0.3-0.1,0.4-0.1c0.1-0.1,0.2-0.2,0.3-0.3c0.1-0.1,0.1-0.3,0.2-0.4c0-0.1,0-0.3,0-0.4
	c0-0.1-0.1-0.2-0.1-0.3c0-0.1-0.1-0.2-0.2-0.2c-0.1-0.1-0.2-0.1-0.2-0.2c-0.1,0-0.2-0.1-0.3-0.1c-0.1,0-0.3-0.1-0.3-0.1
	c-0.1,0-0.2,0-0.4-0.1c-0.2,0-0.3-0.1-0.4-0.1c-0.1,0-0.2,0-0.4,0c-0.1,0-0.2,0-0.2,0c-0.2,0-0.3,0-0.4,0c-0.1,0-0.3,0-0.4,0
	s-0.3,0-0.4,0c-0.1,0-0.2,0.1-0.3,0.1c-0.1,0-0.2,0.1-0.2,0.2c-0.1,0.1-0.1,0.2-0.2,0.3c0,0.1-0.1,0.2-0.1,0.4c0,0.3,0,0.5,0.2,0.7
	c0.2,0.2,0.3,0.4,0.6,0.5l-0.2,1.3l-5.7-0.7l0.6-4.7l1.5,0.2l-0.4,3.3l2.5,0.4c-0.2-0.5-0.3-1-0.2-1.5c0-0.3,0.1-0.6,0.3-0.9
	c0.1-0.3,0.3-0.5,0.5-0.6c0.2-0.1,0.4-0.3,0.7-0.3c0.3-0.1,0.6-0.1,0.9-0.1c0.3,0,0.6,0,1,0.1c0.4,0.1,0.9,0.1,1.2,0.2
	c0.4,0.1,0.7,0.2,1,0.4c0.3,0.2,0.6,0.4,0.8,0.6c0.2,0.2,0.3,0.5,0.5,0.8C111.9,389.3,111.9,389.7,111.8,390.1L111.8,390.1z
	 M128.4,554.3c0.3,0.9,0.3,1.6-0.1,2.2c-0.4,0.6-1,1-2,1.3l-0.5-1.4l0.2-0.1c0.2-0.1,0.3-0.1,0.5-0.2c0.1-0.1,0.3-0.1,0.4-0.2
	c0.1-0.1,0.2-0.2,0.3-0.3c0.1-0.1,0.1-0.2,0.1-0.4c0-0.1,0-0.3-0.1-0.5c0-0.1-0.1-0.2-0.2-0.3c-0.1-0.1-0.1-0.2-0.2-0.2
	c-0.1-0.1-0.2-0.1-0.3-0.1c-0.1,0-0.2-0.1-0.3-0.1c-0.1,0-0.2,0-0.3,0c-0.2,0-0.3,0-0.4,0.1c-0.1,0-0.2,0.1-0.4,0.1
	c-0.2,0.1-0.3,0.1-0.4,0.1c-0.1,0-0.2,0.1-0.4,0.1c-0.1,0-0.1,0.1-0.2,0.1c-0.2,0.1-0.3,0.1-0.4,0.1c-0.1,0-0.2,0.1-0.4,0.2
	c-0.1,0.1-0.2,0.1-0.3,0.2c-0.1,0.1-0.2,0.1-0.2,0.2c-0.1,0.1-0.1,0.2-0.1,0.3c0,0.1,0,0.2,0,0.3c0,0.1,0,0.3,0.1,0.4
	c0.1,0.3,0.2,0.4,0.5,0.6c0.2,0.1,0.5,0.2,0.7,0.2l0.4,1.2l-5.4,1.9l-1.5-4.4l1.4-0.5l1.1,3.1l2.4-0.8c-0.4-0.3-0.7-0.8-0.8-1.3
	c-0.1-0.3-0.2-0.6-0.2-0.9c0-0.3,0.1-0.5,0.2-0.8c0.1-0.2,0.3-0.4,0.5-0.6c0.2-0.2,0.5-0.4,0.7-0.5c0.3-0.1,0.6-0.3,0.9-0.4
	c0.4-0.1,0.8-0.3,1.2-0.3c0.4-0.1,0.7-0.1,1.1-0.1c0.4,0,0.7,0.1,1,0.2c0.3,0.1,0.5,0.3,0.8,0.6C128,553.6,128.2,553.9,128.4,554.3
	L128.4,554.3z M126.3,548.4c0.2,0.5,0.2,1.1,0.1,1.5c-0.1,0.5-0.4,0.9-0.8,1.2c-0.4,0.3-0.9,0.6-1.4,0.8l-4.3,1.5
	c-0.9,0.3-1.7,0.4-2.4,0.1s-1.2-0.8-1.4-1.6c-0.3-0.8-0.2-1.6,0.2-2.2c0.4-0.6,1-1.1,1.9-1.4l4.3-1.5c0.9-0.3,1.7-0.3,2.4-0.1
	C125.5,547,126,547.6,126.3,548.4L126.3,548.4z M125.1,548.8c-0.3-0.7-1-0.9-2.2-0.5l-4.3,1.5c-0.2,0.1-0.4,0.1-0.5,0.2
	c-0.2,0.1-0.3,0.2-0.4,0.3c-0.2,0.1-0.3,0.2-0.3,0.3c-0.1,0.1-0.1,0.3-0.2,0.4c0,0.2,0,0.3,0.1,0.5c0.1,0.2,0.2,0.3,0.3,0.4
	c0.1,0.1,0.2,0.2,0.4,0.2c0.1,0,0.3,0.1,0.5,0c0.2,0,0.3,0,0.5-0.1c0.2,0,0.3-0.1,0.5-0.2l4.3-1.5c0.2-0.1,0.4-0.2,0.6-0.3
	c0.2-0.1,0.4-0.2,0.5-0.4c0.2-0.1,0.3-0.3,0.3-0.5C125.2,549.2,125.2,549,125.1,548.8L125.1,548.8z M105.8,451.8c0,0.4,0,0.7-0.2,1
	c-0.1,0.3-0.3,0.5-0.5,0.8c-0.2,0.2-0.5,0.4-0.8,0.5c-0.3,0.1-0.6,0.2-1,0.3c-0.3,0.1-0.7,0.1-1.1,0.1l-3.4,0c-0.4,0-0.8,0-1.2-0.1
	c-0.4,0-0.7-0.1-1.1-0.3c-0.3-0.1-0.6-0.3-0.9-0.5c-0.2-0.2-0.4-0.4-0.6-0.8c-0.1-0.3-0.2-0.7-0.2-1.1c0-0.9,0.2-1.5,0.7-2
	c0.5-0.5,1.2-0.7,2-0.7l0,1.5c-0.5,0-0.9,0.1-1.1,0.3c-0.2,0.2-0.4,0.5-0.4,0.9c0,0.8,0.8,1.1,2.3,1.1l1.5,0
	c-0.5-0.3-0.8-0.8-0.8-1.5c0-0.4,0.1-0.8,0.2-1.1c0.1-0.3,0.4-0.5,0.6-0.7c0.3-0.2,0.6-0.3,1-0.4c0.3-0.1,0.8-0.1,1.2-0.1
	c0.5,0,0.9,0,1.4,0.1c0.4,0.1,0.8,0.2,1.1,0.4c0.3,0.2,0.6,0.5,0.8,0.8C105.7,450.9,105.8,451.4,105.8,451.8L105.8,451.8z
	 M104.4,452.4c0.1-0.2,0.2-0.3,0.2-0.6s-0.1-0.4-0.2-0.6c-0.1-0.1-0.3-0.3-0.5-0.3c-0.2-0.1-0.4-0.1-0.6-0.2c-0.2,0-0.4,0-0.7,0
	c-0.1,0-0.3,0-0.3,0c-0.1,0-0.2,0-0.3,0c-0.1,0-0.2,0-0.3,0c-0.1,0-0.2,0-0.3,0c-0.1,0-0.2,0-0.3,0.1c-0.1,0-0.1,0.1-0.2,0.1
	c-0.1,0-0.2,0.1-0.2,0.1c0,0.1-0.1,0.1-0.1,0.2c0,0.1-0.1,0.2-0.1,0.2c0,0.1,0,0.2,0,0.3c0,0.5,0.3,0.9,0.8,1.1l1.5,0
	c0.3,0,0.5,0,0.7-0.1c0.2,0,0.4-0.1,0.6-0.2C104.2,452.7,104.3,452.6,104.4,452.4L104.4,452.4z M105.8,445.5c0,0.6-0.1,1.1-0.4,1.5
	c-0.3,0.4-0.6,0.7-1.1,0.9c-0.5,0.2-1,0.3-1.6,0.3l-4.6,0c-1,0-1.7-0.2-2.3-0.6c-0.6-0.4-0.8-1.1-0.9-2c0-0.9,0.3-1.5,0.8-2
	c0.6-0.5,1.3-0.7,2.3-0.7l4.6-0.1c1,0,1.7,0.2,2.3,0.7S105.7,444.6,105.8,445.5L105.8,445.5z M104.5,445.5c0-0.8-0.6-1.1-1.9-1.1
	l-4.6,0.1c-0.2,0-0.4,0-0.6,0c-0.2,0-0.3,0.1-0.5,0.1c-0.2,0.1-0.3,0.1-0.4,0.2c-0.1,0.1-0.2,0.2-0.3,0.3c-0.1,0.1-0.1,0.3-0.1,0.5
	c0,0.2,0,0.4,0.1,0.5c0.1,0.1,0.2,0.3,0.3,0.3c0.1,0.1,0.3,0.1,0.4,0.2c0.2,0,0.3,0.1,0.5,0.1c0.2,0,0.4,0,0.6,0l4.6,0
	c0.2,0,0.5,0,0.7-0.1c0.2,0,0.4-0.1,0.6-0.2c0.2-0.1,0.3-0.2,0.4-0.4C104.5,445.9,104.5,445.7,104.5,445.5L104.5,445.5z
	 M527.2,707.8l-0.7,0.3l2.4,6.4l0.7-0.3L527.2,707.8L527.2,707.8z M476,722.6l-0.7,0.1l1.3,6.7l0.7-0.1L476,722.6z M424.8,728h-0.8
	l0,6.8h0.8L424.8,728L424.8,728z M365.4,723.2l-0.8-0.1l-1,6.7l0.8,0.1L365.4,723.2L365.4,723.2z M317.9,709.9l-0.7-0.3l-2.3,6.4
	l0.7,0.3L317.9,709.9z M270.4,687.3l-0.6-0.4l-3.7,5.7l0.6,0.4L270.4,687.3L270.4,687.3z M231.7,659.8l-0.6-0.5l-4.5,5.2l0.6,0.5
	L231.7,659.8L231.7,659.8z M195.3,623.1l-0.5-0.6l-5.5,4.1l0.5,0.6L195.3,623.1L195.3,623.1z M170.7,589.6l-0.4-0.7l-6.1,3.1
	l0.4,0.7L170.7,589.6L170.7,589.6z M147.2,542.5l-0.2-0.7l-6.6,1.8l0.2,0.7L147.2,542.5L147.2,542.5z M133.2,495.3l-0.1-0.8
	l-6.8,0.9l0.1,0.8L133.2,495.3z M127.3,446.6v-0.8l-6.8,0v0.8L127.3,446.6z M129.7,396l0.1-0.8l-6.8-0.8l-0.1,0.8L129.7,396
	L129.7,396z"/>
<g>
	<path class="st1" d="M424.8,134.2c0,0.8-0.6,1.4-1.4,1.4c-0.8,0-1.4-0.6-1.4-1.4c0-0.8,0.6-1.4,1.4-1.4
		C424.2,132.8,424.8,133.4,424.8,134.2L424.8,134.2z M432,134.3c0,0.8-0.7,1.4-1.5,1.4c-0.8,0-1.4-0.7-1.4-1.5
		c0-0.8,0.7-1.4,1.5-1.4C431.4,132.9,432,133.5,432,134.3L432,134.3z M417.7,134.3c0,0.8-0.6,1.4-1.4,1.5c-0.8,0-1.4-0.6-1.5-1.4
		c0-0.8,0.6-1.4,1.4-1.5h0C417,132.9,417.7,133.5,417.7,134.3L417.7,134.3z M437.8,133.1c0.8,0,1.4,0.7,1.4,1.5
		c0,0.8-0.7,1.4-1.5,1.4c-0.8,0-1.4-0.7-1.4-1.5C436.3,133.7,437,133.1,437.8,133.1L437.8,133.1L437.8,133.1z M410.5,134.5
		c0,0.8-0.6,1.5-1.4,1.5c-0.8,0-1.5-0.6-1.5-1.4c0-0.8,0.6-1.5,1.4-1.5h0.1C409.9,133.1,410.5,133.7,410.5,134.5L410.5,134.5z
		 M445,133.5c0.8,0.1,1.4,0.7,1.3,1.5c-0.1,0.8-0.7,1.4-1.5,1.3c-0.8,0-1.4-0.7-1.3-1.5c0.1-0.8,0.7-1.3,1.4-1.3
		C444.9,133.5,444.9,133.5,445,133.5L445,133.5z M403.4,134.9c0.1,0.8-0.5,1.5-1.3,1.5c-0.8,0.1-1.5-0.5-1.5-1.3
		c-0.1-0.8,0.5-1.5,1.3-1.5c0,0,0.1,0,0.1,0C402.7,133.6,403.3,134.1,403.4,134.9z M452.1,134.1c0.8,0.1,1.4,0.8,1.3,1.6
		c-0.1,0.8-0.8,1.4-1.6,1.3c-0.8-0.1-1.4-0.8-1.3-1.6c0.1-0.7,0.7-1.3,1.4-1.3C452,134.1,452.1,134.1,452.1,134.1L452.1,134.1z
		 M396.3,135.4c0.1,0.8-0.5,1.5-1.3,1.6c-0.8,0.1-1.5-0.5-1.6-1.3c-0.1-0.8,0.5-1.5,1.3-1.6c0,0,0.1,0,0.1,0
		C395.6,134.1,396.2,134.7,396.3,135.4L396.3,135.4z M459.3,134.9L459.3,134.9c0.8,0.1,1.3,0.8,1.2,1.6c-0.1,0.8-0.8,1.3-1.6,1.3
		c-0.8-0.1-1.3-0.8-1.3-1.6c0.1-0.7,0.7-1.3,1.4-1.3C459.1,134.9,459.2,134.9,459.3,134.9L459.3,134.9z M389.1,136.2
		c0.1,0.8-0.5,1.5-1.2,1.6c-0.8,0.1-1.5-0.5-1.6-1.2c-0.1-0.8,0.5-1.5,1.3-1.6c0.1,0,0.1,0,0.2,0C388.4,134.9,389,135.4,389.1,136.2
		L389.1,136.2z M466.4,135.9c0.8,0.1,1.3,0.8,1.2,1.6c-0.1,0.8-0.8,1.3-1.6,1.2c-0.8-0.1-1.3-0.8-1.2-1.6c0.1-0.7,0.7-1.2,1.4-1.2
		C466.3,135.8,466.3,135.8,466.4,135.9L466.4,135.9z M382,137.1c0.1,0.8-0.4,1.5-1.2,1.6c-0.8,0.1-1.5-0.4-1.6-1.2
		c-0.1-0.8,0.4-1.5,1.2-1.6c0.1,0,0.1,0,0.2,0C381.3,135.9,381.9,136.4,382,137.1L382,137.1z M473.5,137c0.8,0.1,1.3,0.9,1.2,1.6
		c-0.1,0.8-0.9,1.3-1.6,1.2h0c-0.8-0.1-1.3-0.9-1.2-1.6c0.1-0.7,0.7-1.2,1.4-1.2C473.3,136.9,473.4,136.9,473.5,137L473.5,137z
		 M375,138.2c0.1,0.8-0.4,1.5-1.2,1.6c-0.8,0.1-1.5-0.4-1.6-1.2c-0.1-0.8,0.4-1.5,1.2-1.6c0.1,0,0.2,0,0.2,0
		C374.2,137,374.8,137.5,375,138.2L375,138.2z M480.6,138.3c0.8,0.1,1.3,0.9,1.1,1.7c-0.1,0.8-0.9,1.3-1.7,1.1
		c-0.8-0.1-1.3-0.9-1.1-1.7c0.1-0.7,0.7-1.2,1.4-1.2C480.4,138.2,480.5,138.2,480.6,138.3L480.6,138.3z M367.9,139.4
		c0.2,0.8-0.4,1.5-1.1,1.7c-0.8,0.1-1.5-0.4-1.7-1.1c-0.1-0.8,0.4-1.5,1.1-1.7c0.1,0,0.2,0,0.3,0
		C367.2,138.3,367.8,138.7,367.9,139.4L367.9,139.4z M487.6,139.7c0.8,0.2,1.3,0.9,1.1,1.7c-0.2,0.8-0.9,1.3-1.7,1.1
		c-0.8-0.2-1.3-0.9-1.1-1.7c0.2-0.7,0.8-1.1,1.4-1.1C487.4,139.7,487.5,139.7,487.6,139.7L487.6,139.7z M360.9,140.8
		c0.2,0.8-0.3,1.5-1.1,1.7c-0.8,0.2-1.5-0.3-1.7-1.1c-0.2-0.8,0.3-1.5,1.1-1.7h0c0.1,0,0.2,0,0.3,0
		C360.2,139.7,360.7,140.2,360.9,140.8L360.9,140.8z M494.6,141.3L494.6,141.3c0.8,0.2,1.2,1,1,1.7c-0.2,0.8-1,1.2-1.7,1.1
		c-0.8-0.2-1.2-1-1-1.7c0.1-0.7,0.7-1.1,1.4-1.1C494.4,141.3,494.5,141.3,494.6,141.3L494.6,141.3z M353.9,142.4
		c0.2,0.8-0.3,1.5-1,1.7c-0.8,0.2-1.5-0.3-1.7-1.1s0.3-1.5,1-1.7c0.1,0,0.2,0,0.3,0C353.2,141.3,353.8,141.8,353.9,142.4
		L353.9,142.4z M501.6,143.1c0.8,0.2,1.2,1,1,1.8c-0.2,0.8-1,1.2-1.8,1c-0.8-0.2-1.2-1-1-1.8c0.2-0.6,0.8-1.1,1.4-1.1
		C501.3,143.1,501.5,143.1,501.6,143.1L501.6,143.1z M347,144.2c0.2,0.8-0.2,1.6-1,1.8c-0.8,0.2-1.6-0.2-1.8-1
		c-0.2-0.8,0.2-1.6,1-1.8c0.1,0,0.3-0.1,0.4,0C346.2,143.1,346.8,143.6,347,144.2L347,144.2z M508.5,145.1c0.8,0.2,1.2,1,1,1.8
		c-0.2,0.8-1,1.2-1.8,1c-0.8-0.2-1.2-1-1-1.8c0.2-0.6,0.8-1,1.4-1C508.2,145,508.4,145.1,508.5,145.1L508.5,145.1z M340.1,146.1
		c0.2,0.8-0.2,1.6-1,1.8c-0.8,0.2-1.6-0.2-1.8-1c-0.2-0.8,0.2-1.6,1-1.8c0.1,0,0.3-0.1,0.4-0.1C339.3,145.1,339.9,145.5,340.1,146.1
		L340.1,146.1z M515.4,147.2c0.7,0.2,1.2,1,0.9,1.8c-0.2,0.8-1.1,1.2-1.8,0.9c-0.8-0.2-1.2-1-0.9-1.8c0.2-0.6,0.8-1,1.4-1
		C515.1,147.2,515.2,147.2,515.4,147.2L515.4,147.2z M333.2,148.2c0.2,0.8-0.2,1.6-0.9,1.8c-0.7,0.2-1.6-0.2-1.8-0.9
		c-0.2-0.8,0.2-1.6,0.9-1.8c0.1-0.1,0.3-0.1,0.4-0.1C332.5,147.2,333.1,147.6,333.2,148.2L333.2,148.2z M522.2,149.5
		c0.7,0.3,1.1,1.1,0.9,1.8c-0.3,0.7-1.1,1.1-1.8,0.9c-0.8-0.3-1.1-1.1-0.9-1.8c0.2-0.6,0.8-1,1.4-1
		C521.9,149.5,522.1,149.5,522.2,149.5L522.2,149.5z M326.5,150.5c0.3,0.7-0.1,1.6-0.9,1.8c-0.7,0.3-1.6-0.1-1.8-0.9
		c-0.3-0.7,0.1-1.6,0.9-1.8c0.1-0.1,0.3-0.1,0.5-0.1C325.7,149.5,326.3,149.9,326.5,150.5L326.5,150.5z M529,152
		c0.7,0.3,1.1,1.1,0.8,1.8c-0.3,0.7-1.1,1.1-1.8,0.8c-0.7-0.3-1.1-1.1-0.8-1.8c0.2-0.6,0.8-0.9,1.3-0.9
		C528.6,151.9,528.8,152,529,152L529,152z M319.7,152.9c0.3,0.7-0.1,1.6-0.8,1.8c-0.7,0.3-1.6-0.1-1.8-0.8c-0.3-0.7,0.1-1.6,0.8-1.8
		c0.2-0.1,0.3-0.1,0.5-0.1C319,152,319.5,152.3,319.7,152.9L319.7,152.9z M535.7,154.7c0.7,0.3,1.1,1.1,0.8,1.9
		c-0.3,0.7-1.1,1.1-1.9,0.8c-0.7-0.3-1.1-1.1-0.8-1.9c0.2-0.6,0.8-0.9,1.3-0.9C535.3,154.6,535.5,154.6,535.7,154.7L535.7,154.7z
		 M313.1,155.5c0.3,0.7-0.1,1.6-0.8,1.9c-0.7,0.3-1.6-0.1-1.9-0.8c-0.3-0.7,0.1-1.6,0.8-1.9c0.2-0.1,0.4-0.1,0.5-0.1
		C312.3,154.6,312.8,154.9,313.1,155.5L313.1,155.5z M542.3,157.5c0.7,0.3,1.1,1.2,0.7,1.9c-0.3,0.7-1.2,1.1-1.9,0.7
		c-0.7-0.3-1.1-1.2-0.7-1.9c0.2-0.5,0.8-0.9,1.3-0.9C542,157.3,542.2,157.4,542.3,157.5z M306.5,158.2c0.3,0.7,0,1.6-0.7,1.9
		c-0.7,0.3-1.6,0-1.9-0.7c-0.3-0.7,0-1.6,0.7-1.9v0c0.2-0.1,0.4-0.1,0.6-0.1C305.7,157.4,306.2,157.7,306.5,158.2L306.5,158.2z
		 M548.9,160.4c0.7,0.3,1,1.2,0.7,1.9c-0.3,0.7-1.2,1-1.9,0.7c-0.7-0.3-1-1.2-0.7-1.9c0.2-0.5,0.8-0.8,1.3-0.8
		C548.5,160.3,548.7,160.3,548.9,160.4L548.9,160.4z M300,161.1c0.3,0.7,0,1.6-0.7,1.9c-0.7,0.3-1.6,0-1.9-0.7
		c-0.3-0.7,0-1.6,0.7-1.9c0.2-0.1,0.4-0.1,0.6-0.1C299.2,160.3,299.7,160.6,300,161.1L300,161.1z M293.5,164.2
		c0.4,0.7,0.1,1.6-0.6,1.9c-0.7,0.4-1.6,0.1-1.9-0.6c-0.4-0.7-0.1-1.6,0.6-1.9c0.2-0.1,0.4-0.1,0.6-0.1
		C292.8,163.4,293.3,163.7,293.5,164.2L293.5,164.2z M555.4,163.5c0.7,0.4,1,1.2,0.7,1.9c-0.3,0.7-1.2,1-1.9,0.6
		c-0.7-0.4-1-1.2-0.7-1.9c0.3-0.5,0.8-0.8,1.3-0.8C555,163.4,555.2,163.4,555.4,163.5L555.4,163.5z M287.1,167.4
		c0.4,0.7,0.1,1.6-0.6,1.9c-0.7,0.4-1.6,0.1-1.9-0.6c-0.4-0.7-0.1-1.6,0.6-1.9c0.2-0.1,0.4-0.2,0.7-0.2
		C286.4,166.6,286.9,166.9,287.1,167.4L287.1,167.4z M561.8,166.8c0.7,0.4,1,1.2,0.6,1.9c-0.4,0.7-1.2,1-1.9,0.6
		c-0.7-0.4-1-1.2-0.6-1.9c0.3-0.5,0.7-0.8,1.3-0.8C561.4,166.7,561.6,166.7,561.8,166.8L561.8,166.8z M280.8,170.8
		c0.4,0.7,0.1,1.6-0.5,1.9c-0.7,0.4-1.6,0.1-2-0.5c-0.4-0.7-0.1-1.6,0.5-1.9c0.2-0.1,0.5-0.2,0.7-0.2
		C280.1,170,280.6,170.3,280.8,170.8L280.8,170.8z M568.2,170.3c0.7,0.4,0.9,1.3,0.5,1.9c-0.4,0.7-1.3,0.9-2,0.6
		c-0.7-0.4-0.9-1.3-0.5-1.9c0.3-0.5,0.7-0.7,1.3-0.7C567.7,170.1,567.9,170.1,568.2,170.3L568.2,170.3z M274.6,174.3
		c0.4,0.7,0.2,1.6-0.5,2c-0.7,0.4-1.5,0.2-2-0.5c-0.4-0.7-0.2-1.6,0.5-1.9c0.2-0.1,0.5-0.2,0.7-0.2
		C273.9,173.6,274.4,173.8,274.6,174.3L274.6,174.3z M574.4,173.8c0.7,0.4,0.9,1.3,0.5,2c-0.4,0.7-1.3,0.9-1.9,0.5
		c-0.7-0.4-0.9-1.3-0.5-2c0.3-0.4,0.7-0.7,1.2-0.7C573.9,173.6,574.2,173.7,574.4,173.8L574.4,173.8z M268.5,178
		c0.4,0.7,0.2,1.5-0.5,2c-0.7,0.4-1.5,0.2-2-0.5c-0.4-0.7-0.2-1.6,0.5-2c0.2-0.1,0.5-0.2,0.8-0.2C267.8,177.3,268.2,177.5,268.5,178
		L268.5,178z M580.6,177.6c0.7,0.4,0.9,1.3,0.5,2c-0.4,0.7-1.3,0.9-2,0.5c-0.7-0.4-0.9-1.3-0.5-2c0.3-0.4,0.7-0.7,1.2-0.7
		C580.1,177.4,580.3,177.4,580.6,177.6L580.6,177.6z M262.5,181.8c0.4,0.7,0.2,1.5-0.4,2c-0.7,0.4-1.5,0.2-2-0.4
		c-0.4-0.7-0.3-1.5,0.4-2c0.2-0.2,0.5-0.2,0.8-0.2C261.7,181.1,262.2,181.4,262.5,181.8L262.5,181.8z M586.6,181.4
		c0.6,0.4,0.8,1.3,0.4,2c-0.4,0.6-1.3,0.8-2,0.4c-0.7-0.4-0.8-1.3-0.4-2c0.3-0.4,0.7-0.6,1.2-0.6
		C586.1,181.2,586.4,181.3,586.6,181.4L586.6,181.4z M256.5,185.7c0.5,0.7,0.3,1.5-0.4,2c-0.6,0.5-1.5,0.3-2-0.4
		c-0.5-0.7-0.3-1.5,0.4-2c0.2-0.2,0.5-0.2,0.8-0.2C255.8,185.1,256.2,185.3,256.5,185.7L256.5,185.7z M592.6,185.5
		c0.6,0.5,0.8,1.3,0.4,2c-0.5,0.6-1.3,0.8-2,0.4c-0.6-0.4-0.8-1.3-0.4-2c0.3-0.4,0.7-0.6,1.2-0.6
		C592.1,185.2,592.4,185.3,592.6,185.5L592.6,185.5z M250.7,189.8c0.5,0.6,0.3,1.5-0.3,2c-0.6,0.5-1.5,0.3-2-0.3
		c-0.5-0.6-0.3-1.5,0.3-2c0.2-0.2,0.5-0.3,0.8-0.3C250,189.2,250.4,189.4,250.7,189.8L250.7,189.8z M598.5,189.6
		c0.6,0.5,0.8,1.4,0.3,2c-0.5,0.6-1.4,0.8-2,0.3c-0.6-0.5-0.8-1.4-0.3-2c0.3-0.4,0.7-0.6,1.2-0.6
		C597.9,189.4,598.2,189.5,598.5,189.6L598.5,189.6z M244.9,194.1c0.5,0.6,0.4,1.5-0.3,2c-0.6,0.5-1.5,0.4-2-0.3
		c-0.5-0.6-0.4-1.5,0.3-2c0.3-0.2,0.6-0.3,0.9-0.3C244.2,193.5,244.6,193.7,244.9,194.1L244.9,194.1z M604.2,194
		c0.6,0.5,0.7,1.4,0.3,2c-0.5,0.6-1.4,0.7-2,0.3c-0.6-0.5-0.7-1.4-0.3-2c0.3-0.4,0.7-0.6,1.1-0.6C603.7,193.7,604,193.7,604.2,194
		L604.2,194z M239.3,198.5c0.5,0.6,0.4,1.5-0.2,2c-0.6,0.5-1.5,0.4-2-0.2c-0.5-0.6-0.4-1.5,0.2-2c0.3-0.2,0.6-0.3,0.9-0.3
		C238.6,197.9,239,198.1,239.3,198.5L239.3,198.5z M609.9,198.4c0.6,0.5,0.7,1.4,0.2,2c-0.5,0.6-1.4,0.7-2,0.2
		c-0.6-0.5-0.7-1.4-0.2-2c0.3-0.4,0.7-0.5,1.1-0.5C609.3,198.1,609.6,198.2,609.9,198.4L609.9,198.4z M233.7,203
		c0.5,0.6,0.4,1.5-0.2,2c-0.6,0.5-1.5,0.4-2-0.2c-0.5-0.6-0.4-1.5,0.2-2c0.3-0.2,0.6-0.3,0.9-0.3C233,202.5,233.4,202.6,233.7,203
		L233.7,203z M615.4,203c0.6,0.5,0.7,1.4,0.2,2c-0.5,0.6-1.4,0.7-2,0.2c-0.6-0.5-0.7-1.4-0.2-2c0.3-0.3,0.7-0.5,1.1-0.5
		C614.8,202.6,615.2,202.7,615.4,203L615.4,203z M228.3,207.6c0.5,0.6,0.5,1.5-0.1,2c-0.6,0.5-1.5,0.5-2-0.1c-0.5-0.6-0.5-1.5,0.1-2
		v0c0.3-0.2,0.6-0.4,0.9-0.4C227.6,207.1,228,207.3,228.3,207.6L228.3,207.6z M620.9,207.7c0.6,0.5,0.6,1.4,0.1,2
		c-0.5,0.6-1.4,0.6-2,0.1c-0.6-0.5-0.6-1.4-0.1-2c0.3-0.3,0.7-0.5,1.1-0.5C620.3,207.3,620.6,207.4,620.9,207.7L620.9,207.7z
		 M223,212.4c0.5,0.6,0.5,1.5-0.1,2c-0.6,0.5-1.5,0.5-2-0.1c-0.5-0.6-0.5-1.5,0.1-2c0.3-0.3,0.6-0.4,1-0.4
		C222.3,212,222.7,212.1,223,212.4L223,212.4z M626.2,212.5c0.6,0.5,0.6,1.4,0.1,2c-0.5,0.6-1.5,0.6-2,0.1c-0.6-0.5-0.6-1.4-0.1-2
		c0.3-0.3,0.7-0.5,1-0.5C625.6,212.1,625.9,212.3,626.2,212.5L626.2,212.5z M217.8,217.3c0.5,0.6,0.5,1.5,0,2c-0.6,0.6-1.5,0.5-2,0
		c-0.5-0.6-0.5-1.5,0-2c0.3-0.3,0.6-0.4,1-0.4C217.1,216.9,217.5,217,217.8,217.3L217.8,217.3z M631.4,217.5c0.6,0.5,0.6,1.4,0,2
		c-0.6,0.6-1.5,0.6-2,0c-0.6-0.5-0.6-1.5,0-2c0.3-0.3,0.6-0.4,1-0.4C630.8,217.1,631.1,217.2,631.4,217.5L631.4,217.5z M212.7,222.4
		c0.6,0.5,0.6,1.5,0,2h0c-0.5,0.6-1.4,0.6-2,0c-0.6-0.6-0.6-1.4,0-2c0.3-0.3,0.6-0.4,1-0.4C212,222,212.4,222.1,212.7,222.4
		L212.7,222.4z M636.5,222.6c0.5,0.6,0.5,1.5,0,2c-0.6,0.6-1.5,0.5-2,0c-0.6-0.6-0.5-1.5,0-2c0.3-0.3,0.6-0.4,1-0.4
		C635.8,222.1,636.2,222.3,636.5,222.6L636.5,222.6z M207.7,227.5c0.6,0.5,0.6,1.4,0.1,2c-0.5,0.6-1.4,0.6-2,0.1
		c-0.6-0.5-0.6-1.4-0.1-2c0.3-0.3,0.7-0.5,1-0.5C207.1,227.1,207.5,227.3,207.7,227.5L207.7,227.5z M641.4,227.8
		c0.5,0.6,0.5,1.5-0.1,2c-0.6,0.5-1.5,0.5-2-0.1h0c-0.5-0.6-0.5-1.5,0.1-2c0.3-0.3,0.6-0.4,1-0.4
		C640.8,227.3,641.2,227.5,641.4,227.8L641.4,227.8z M202.9,232.8c0.6,0.5,0.6,1.4,0.1,2c-0.5,0.6-1.4,0.6-2,0.1
		c-0.6-0.5-0.6-1.4-0.1-2c0.3-0.3,0.7-0.5,1.1-0.5C202.3,232.4,202.6,232.5,202.9,232.8L202.9,232.8z M646.3,233.1
		c0.5,0.6,0.5,1.5-0.1,2c-0.6,0.5-1.5,0.5-2-0.1c-0.5-0.6-0.5-1.5,0.1-2c0.3-0.2,0.6-0.4,1-0.4C645.6,232.6,646,232.8,646.3,233.1z
		 M198.2,238.2c0.6,0.5,0.7,1.4,0.2,2c-0.5,0.6-1.4,0.7-2,0.2c-0.6-0.5-0.7-1.4-0.2-2c0.3-0.3,0.7-0.5,1.1-0.5
		C197.6,237.8,197.9,237.9,198.2,238.2L198.2,238.2z M651,238.5c0.5,0.6,0.4,1.5-0.2,2c-0.6,0.5-1.5,0.4-2-0.2
		c-0.5-0.6-0.4-1.5,0.2-2c0.3-0.2,0.6-0.3,0.9-0.3C650.3,238,650.7,238.2,651,238.5L651,238.5z M193.6,243.7c0.6,0.5,0.7,1.4,0.2,2
		c-0.5,0.6-1.4,0.7-2,0.2c-0.6-0.5-0.7-1.4-0.2-2c0.3-0.4,0.7-0.5,1.1-0.5C193,243.3,193.3,243.5,193.6,243.7L193.6,243.7z
		 M655.6,244.1c0.5,0.6,0.4,1.5-0.2,2c-0.6,0.5-1.5,0.4-2-0.2c-0.5-0.6-0.4-1.5,0.2-2c0.3-0.2,0.6-0.3,0.9-0.3
		C654.8,243.5,655.3,243.7,655.6,244.1L655.6,244.1z M189.1,249.3c0.6,0.5,0.7,1.4,0.3,2c-0.5,0.6-1.4,0.7-2,0.3
		c-0.6-0.5-0.7-1.4-0.3-2c0.3-0.4,0.7-0.6,1.1-0.6C188.6,249,188.9,249.1,189.1,249.3L189.1,249.3z M660,249.7
		c0.5,0.6,0.3,1.5-0.3,2c-0.6,0.5-1.5,0.4-2-0.3c-0.5-0.6-0.4-1.5,0.3-2c0.3-0.2,0.6-0.3,0.9-0.3C659.3,249.2,659.7,249.4,660,249.7
		L660,249.7z M184.8,255c0.6,0.5,0.8,1.4,0.3,2c-0.5,0.6-1.4,0.8-2,0.3c-0.6-0.5-0.8-1.4-0.3-2c0.3-0.4,0.7-0.6,1.1-0.6
		C184.3,254.7,184.6,254.8,184.8,255L184.8,255z M664.3,255.5c0.5,0.6,0.3,1.5-0.3,2c-0.6,0.5-1.5,0.3-2-0.3c-0.5-0.6-0.3-1.5,0.3-2
		c0.2-0.2,0.5-0.3,0.8-0.3C663.6,254.9,664,255.1,664.3,255.5L664.3,255.5z M180.6,260.8c0.6,0.4,0.8,1.3,0.4,2
		c-0.5,0.6-1.3,0.8-2,0.4c-0.6-0.4-0.8-1.3-0.4-2c0.3-0.4,0.7-0.6,1.2-0.6C180.1,260.6,180.4,260.6,180.6,260.8L180.6,260.8z
		 M668.4,261.3c0.4,0.6,0.3,1.5-0.4,2c-0.6,0.5-1.5,0.3-2-0.4c-0.5-0.6-0.3-1.5,0.4-2c0.2-0.2,0.5-0.3,0.8-0.3
		C667.7,260.7,668.2,260.9,668.4,261.3z M176.6,266.7c0.6,0.4,0.8,1.3,0.4,2c-0.4,0.7-1.3,0.9-2,0.4c-0.7-0.4-0.8-1.3-0.4-2
		c0.3-0.4,0.7-0.6,1.2-0.6C176.1,266.5,176.4,266.6,176.6,266.7L176.6,266.7z M672.5,267.3c0.4,0.7,0.2,1.5-0.4,2
		c-0.7,0.4-1.6,0.3-2-0.4c-0.4-0.7-0.2-1.5,0.4-2c0.2-0.2,0.5-0.2,0.8-0.2C671.7,266.6,672.2,266.9,672.5,267.3L672.5,267.3z
		 M172.7,272.8c0.7,0.4,0.9,1.3,0.5,2c-0.4,0.7-1.3,0.9-2,0.5c-0.7-0.4-0.9-1.3-0.4-2c0.3-0.4,0.7-0.7,1.2-0.7
		C172.2,272.5,172.5,272.6,172.7,272.8L172.7,272.8z M676.3,273.3c0.4,0.7,0.2,1.5-0.5,2c-0.7,0.4-1.6,0.2-2-0.5
		c-0.4-0.7-0.2-1.5,0.5-2c0.2-0.1,0.5-0.2,0.8-0.2C675.6,272.7,676,272.9,676.3,273.3L676.3,273.3z M169,278.9
		c0.7,0.4,0.9,1.3,0.5,2c-0.4,0.7-1.3,0.9-2,0.5c-0.7-0.4-0.9-1.3-0.5-2c0.3-0.5,0.7-0.7,1.2-0.7C168.5,278.7,168.7,278.7,169,278.9
		L169,278.9z M680,279.5c0.4,0.7,0.2,1.6-0.5,2c-0.7,0.4-1.6,0.2-2-0.5c-0.4-0.7-0.2-1.6,0.5-2c0.2-0.1,0.5-0.2,0.7-0.2
		C679.3,278.8,679.8,279,680,279.5L680,279.5z M165.4,285.1c0.7,0.4,0.9,1.2,0.5,1.9c-0.4,0.7-1.3,0.9-1.9,0.6
		c-0.7-0.4-0.9-1.3-0.5-1.9c0.3-0.5,0.7-0.7,1.3-0.7C164.9,284.9,165.2,284.9,165.4,285.1L165.4,285.1z M683.6,285.7
		c0.4,0.7,0.1,1.6-0.6,1.9c-0.7,0.4-1.6,0.1-1.9-0.5c-0.4-0.7-0.1-1.6,0.5-1.9c0.2-0.1,0.5-0.2,0.7-0.2
		C682.8,285,683.3,285.2,683.6,285.7z M161.9,291.3c0.7,0.4,1,1.2,0.6,1.9c-0.4,0.7-1.2,1-1.9,0.6c-0.7-0.4-1-1.2-0.6-1.9
		c0.3-0.5,0.8-0.8,1.3-0.8C161.5,291.2,161.7,291.2,161.9,291.3L161.9,291.3z M687,292c0.4,0.7,0.1,1.6-0.6,1.9
		c-0.7,0.4-1.6,0.1-1.9-0.6c-0.4-0.7-0.1-1.6,0.6-1.9c0.2-0.1,0.5-0.2,0.7-0.2C686.3,291.2,686.8,291.5,687,292L687,292z
		 M158.6,297.7c0.7,0.4,1,1.2,0.6,1.9c-0.4,0.7-1.2,1-1.9,0.6c-0.7-0.4-1-1.2-0.7-1.9c0.2-0.5,0.8-0.8,1.3-0.8
		C158.2,297.6,158.4,297.6,158.6,297.7L158.6,297.7z M690.3,298.4c0.3,0.7,0.1,1.6-0.6,1.9c-0.7,0.4-1.6,0.1-1.9-0.6
		c-0.4-0.7-0.1-1.6,0.6-1.9c0.2-0.1,0.4-0.1,0.6-0.1C689.5,297.6,690,297.9,690.3,298.4L690.3,298.4z M693.4,304.9
		c0.3,0.7,0,1.6-0.7,1.9c-0.7,0.3-1.6,0-1.9-0.7c-0.3-0.7,0-1.6,0.7-1.9c0.2-0.1,0.4-0.1,0.6-0.1C692.6,304,693.1,304.3,693.4,304.9
		L693.4,304.9z M155.5,304.2c0.7,0.3,1,1.2,0.7,1.9c-0.3,0.7-1.2,1-1.9,0.7c-0.7-0.3-1-1.2-0.7-1.9v0c0.2-0.5,0.8-0.8,1.3-0.8
		C155.1,304,155.3,304.1,155.5,304.2L155.5,304.2z M696.3,311.4c0.3,0.7,0,1.6-0.7,1.9c-0.7,0.3-1.6,0-1.9-0.7
		c-0.3-0.7,0-1.6,0.7-1.9c0.2-0.1,0.4-0.1,0.6-0.1C695.6,310.5,696.1,310.9,696.3,311.4L696.3,311.4z M152.5,310.7
		c0.7,0.3,1.1,1.2,0.7,1.9c-0.3,0.7-1.2,1-1.9,0.7c-0.7-0.3-1.1-1.1-0.7-1.9c0.2-0.5,0.8-0.9,1.3-0.9
		C152.1,310.6,152.3,310.6,152.5,310.7L152.5,310.7z M699.1,318c0.3,0.7-0.1,1.6-0.8,1.9c-0.7,0.3-1.6-0.1-1.9-0.8
		c-0.3-0.7,0-1.6,0.8-1.9c0.2-0.1,0.4-0.1,0.6-0.1C698.3,317.1,698.9,317.4,699.1,318L699.1,318z M149.7,317.3
		c0.7,0.3,1.1,1.1,0.8,1.9c-0.3,0.7-1.1,1.1-1.9,0.8c-0.7-0.3-1.1-1.1-0.8-1.9c0.2-0.6,0.8-0.9,1.3-0.9
		C149.3,317.2,149.5,317.2,149.7,317.3L149.7,317.3z M701.8,324.7c0.3,0.7-0.1,1.6-0.8,1.8c-0.7,0.3-1.6-0.1-1.8-0.8
		c-0.3-0.7,0.1-1.6,0.8-1.8c0.2-0.1,0.4-0.1,0.5-0.1C701,323.8,701.5,324.1,701.8,324.7L701.8,324.7z M147,324
		c0.7,0.3,1.1,1.1,0.8,1.8c-0.3,0.7-1.1,1.1-1.9,0.8c-0.7-0.3-1.1-1.1-0.8-1.9c0.2-0.6,0.8-0.9,1.3-0.9
		C146.7,323.9,146.9,323.9,147,324L147,324z M704.2,331.4c0.3,0.7-0.1,1.6-0.9,1.8c-0.7,0.3-1.5-0.1-1.8-0.9
		c-0.3-0.7,0.1-1.6,0.9-1.8c0.2,0,0.3-0.1,0.5-0.1C703.5,330.5,704,330.8,704.2,331.4L704.2,331.4z M144.5,330.7
		c0.8,0.3,1.1,1.1,0.9,1.8c-0.3,0.7-1.1,1.1-1.8,0.9c-0.7-0.3-1.1-1.1-0.9-1.8c0.2-0.6,0.8-1,1.4-1
		C144.2,330.6,144.4,330.6,144.5,330.7L144.5,330.7z M706.5,338.2c0.3,0.7-0.2,1.6-0.9,1.8c-0.7,0.2-1.5-0.2-1.8-0.9
		c-0.3-0.7,0.2-1.6,0.9-1.8c0.1-0.1,0.3-0.1,0.4-0.1C705.8,337.3,706.3,337.6,706.5,338.2L706.5,338.2z M142.2,337.5
		c0.8,0.2,1.2,1,0.9,1.8c-0.2,0.8-1,1.2-1.8,0.9c-0.7-0.2-1.2-1-0.9-1.8c0.2-0.6,0.8-1,1.4-1C141.9,337.4,142,337.4,142.2,337.5
		L142.2,337.5z M708.7,345.1c0.2,0.8-0.2,1.5-1,1.8c-0.8,0.2-1.6-0.2-1.8-1c-0.2-0.8,0.2-1.6,1-1.8c0.1,0,0.3-0.1,0.4-0.1
		C707.9,344.1,708.5,344.5,708.7,345.1L708.7,345.1z M140,344.3c0.8,0.2,1.2,1,1,1.8c-0.2,0.8-1,1.2-1.8,1c-0.8-0.2-1.2-1-1-1.8
		c0.2-0.6,0.8-1,1.4-1C139.8,344.2,139.9,344.3,140,344.3L140,344.3z M710.6,352c0.2,0.8-0.2,1.5-1,1.8c-0.8,0.2-1.6-0.2-1.8-1
		c-0.2-0.8,0.2-1.6,1-1.8c0.1,0,0.2,0,0.4,0C709.9,351,710.5,351.4,710.6,352L710.6,352z M138,351.2c0.8,0.2,1.2,1,1,1.7
		c-0.2,0.8-1,1.2-1.8,1c-0.8-0.2-1.2-1-1-1.8c0.2-0.6,0.8-1.1,1.4-1.1C137.8,351.1,137.9,351.1,138,351.2L138,351.2z M712.4,359
		c0.2,0.8-0.3,1.6-1.1,1.7c-0.8,0.2-1.5-0.3-1.7-1c-0.2-0.8,0.3-1.5,1-1.7c0.1,0,0.2,0,0.3,0C711.7,357.9,712.3,358.3,712.4,359
		L712.4,359z M136.2,358.1c0.8,0.2,1.2,1,1,1.7c-0.2,0.8-1,1.2-1.7,1c-0.8-0.2-1.2-1-1.1-1.7c0.2-0.6,0.7-1.1,1.4-1.1
		C136,358.1,136.1,358.1,136.2,358.1L136.2,358.1z M714.1,366c0.2,0.8-0.3,1.5-1.1,1.7c-0.8,0.2-1.5-0.3-1.7-1.1
		c-0.2-0.8,0.3-1.5,1.1-1.7c0.1,0,0.2,0,0.3,0C713.3,364.9,713.9,365.3,714.1,366L714.1,366z M134.6,365c0.8,0.2,1.3,0.9,1.1,1.7
		c-0.2,0.8-0.9,1.3-1.7,1.1c-0.8-0.2-1.3-0.9-1.1-1.7c0.1-0.7,0.7-1.1,1.4-1.1C134.4,365,134.5,365,134.6,365L134.6,365z M715.5,373
		c0.2,0.8-0.3,1.5-1.1,1.7c-0.8,0.1-1.5-0.4-1.7-1.1c-0.2-0.8,0.3-1.5,1.1-1.7c0.1,0,0.2,0,0.3,0C714.8,371.9,715.4,372.3,715.5,373
		L715.5,373z M133.1,372c0.8,0.1,1.3,0.9,1.1,1.7c-0.2,0.8-0.9,1.3-1.7,1.1c-0.8-0.1-1.3-0.9-1.1-1.7c0.1-0.7,0.7-1.2,1.4-1.2
		C132.9,372,133,372,133.1,372L133.1,372z M716.8,380.1c0.1,0.8-0.4,1.5-1.2,1.6c-0.8,0.1-1.5-0.4-1.7-1.2c-0.1-0.8,0.4-1.5,1.2-1.6
		c0.1,0,0.2,0,0.2,0C716.1,378.9,716.7,379.4,716.8,380.1L716.8,380.1z M131.8,379.1c0.8,0.1,1.3,0.9,1.2,1.6
		c-0.1,0.8-0.9,1.3-1.6,1.2c-0.8-0.1-1.3-0.9-1.2-1.6c0.1-0.7,0.7-1.2,1.4-1.2C131.6,379.1,131.7,379.1,131.8,379.1L131.8,379.1z
		 M718,387.2c0.1,0.8-0.4,1.5-1.2,1.6c-0.8,0.1-1.5-0.4-1.6-1.2c-0.1-0.8,0.4-1.5,1.2-1.6c0.1,0,0.1,0,0.2,0
		C717.2,386,717.9,386.5,718,387.2L718,387.2z M130.6,386.2c0.8,0.1,1.3,0.8,1.2,1.6c-0.1,0.8-0.8,1.3-1.6,1.2
		c-0.8-0.1-1.3-0.8-1.2-1.6c0.1-0.7,0.7-1.2,1.4-1.2C130.5,386.1,130.6,386.1,130.6,386.2L130.6,386.2z M718.9,394.3
		c0.1,0.8-0.5,1.5-1.3,1.6c-0.8,0.1-1.5-0.5-1.6-1.3c-0.1-0.8,0.5-1.5,1.2-1.6c0.1,0,0.1,0,0.2,0
		C718.2,393.1,718.8,393.6,718.9,394.3L718.9,394.3z M129.6,393.2c0.8,0.1,1.3,0.8,1.3,1.6c-0.1,0.8-0.8,1.3-1.6,1.3
		c-0.8-0.1-1.3-0.8-1.3-1.6c0.1-0.7,0.7-1.3,1.4-1.3C129.5,393.2,129.6,393.2,129.6,393.2L129.6,393.2z M719.7,401.5
		c0.1,0.8-0.5,1.5-1.3,1.6c-0.8,0.1-1.5-0.5-1.6-1.3c-0.1-0.8,0.5-1.5,1.3-1.6c0,0,0.1,0,0.1,0C719,400.2,719.6,400.7,719.7,401.5
		L719.7,401.5z M128.8,400.4c0.8,0.1,1.4,0.8,1.3,1.6c-0.1,0.8-0.8,1.4-1.6,1.3c-0.8-0.1-1.4-0.8-1.3-1.6c0.1-0.7,0.7-1.3,1.4-1.3
		C128.7,400.3,128.8,400.3,128.8,400.4L128.8,400.4z M720.3,408.6c0.1,0.8-0.5,1.5-1.3,1.5c-0.8,0.1-1.5-0.5-1.5-1.3
		c-0.1-0.8,0.5-1.5,1.3-1.5c0,0,0.1,0,0.1,0C719.6,407.3,720.2,407.9,720.3,408.6L720.3,408.6z M128.2,407.5
		c0.8,0.1,1.4,0.7,1.3,1.5c-0.1,0.8-0.7,1.4-1.5,1.3c-0.8-0.1-1.4-0.7-1.3-1.5C126.7,408.1,127.4,407.5,128.2,407.5L128.2,407.5
		L128.2,407.5z M720.7,415.8c0,0.8-0.6,1.5-1.4,1.5c-0.8,0-1.5-0.6-1.5-1.4c0-0.8,0.6-1.5,1.4-1.5h0.1
		C720,414.5,720.7,415,720.7,415.8L720.7,415.8z M127.7,414.6c0.8,0,1.4,0.7,1.4,1.5c0,0.8-0.7,1.4-1.5,1.4c-0.8,0-1.4-0.7-1.4-1.5
		C126.3,415.2,126.9,414.6,127.7,414.6C127.7,414.6,127.7,414.6,127.7,414.6L127.7,414.6z M721,423c0,0.8-0.6,1.4-1.4,1.5
		c-0.8,0-1.4-0.6-1.5-1.4c0-0.8,0.6-1.5,1.4-1.5h0C720.3,421.6,721,422.2,721,423L721,423z M127.5,421.8c0.8,0,1.4,0.7,1.4,1.5
		c0,0.8-0.7,1.4-1.5,1.4c-0.8,0-1.4-0.7-1.4-1.5v0C126,422.4,126.7,421.8,127.5,421.8C127.4,421.8,127.4,421.8,127.5,421.8
		L127.5,421.8z M721.1,430.2L721.1,430.2c0,0.8-0.6,1.4-1.4,1.4c-0.8,0-1.4-0.6-1.4-1.4c0-0.8,0.6-1.4,1.4-1.4
		C720.4,428.8,721.1,429.4,721.1,430.2z M128.8,430.4v0.3c0,0.8-0.6,1.4-1.4,1.4c-0.8,0-1.4-0.6-1.4-1.4c0-0.1,0-0.1,0-0.2
		c0-0.1,0-0.1,0-0.2c0-0.8,0.6-1.4,1.4-1.4C128.1,428.9,128.8,429.6,128.8,430.4L128.8,430.4z M719.6,435.9c0.8,0,1.4,0.7,1.4,1.5
		c0,0.8-0.7,1.4-1.5,1.4c-0.8,0-1.4-0.7-1.4-1.5C718.1,436.5,718.8,435.9,719.6,435.9L719.6,435.9L719.6,435.9z M128.9,437.8
		L128.9,437.8c0,0.8-0.6,1.4-1.4,1.5c-0.8,0-1.4-0.6-1.5-1.4c0-0.8,0.6-1.4,1.4-1.5c0,0,0,0,0,0C128.2,436.4,128.8,437,128.9,437.8
		L128.9,437.8z M719.4,443.1c0.8,0,1.4,0.7,1.4,1.5c0,0.8-0.7,1.4-1.5,1.4c-0.8,0-1.4-0.7-1.4-1.5
		C717.9,443.7,718.5,443.1,719.4,443.1L719.4,443.1L719.4,443.1z M129.1,444.9c0,0.8-0.6,1.5-1.4,1.5c-0.8,0-1.5-0.6-1.5-1.4
		c0-0.8,0.6-1.5,1.4-1.5h0.1C128.5,443.6,129.1,444.2,129.1,444.9L129.1,444.9z M719,450.2c0.8,0.1,1.4,0.7,1.3,1.5
		c-0.1,0.8-0.7,1.4-1.5,1.3c-0.8-0.1-1.4-0.7-1.3-1.5c0.1-0.8,0.7-1.3,1.4-1.3C718.9,450.2,718.9,450.2,719,450.2L719,450.2z
		 M129.6,452c0.1,0.8-0.5,1.5-1.3,1.5c-0.8,0.1-1.5-0.5-1.5-1.3v0c-0.1-0.8,0.5-1.5,1.3-1.5c0,0,0.1,0,0.1,0
		C128.9,450.7,129.5,451.3,129.6,452L129.6,452z M718.4,457.3c0.8,0.1,1.4,0.8,1.3,1.6c-0.1,0.8-0.8,1.4-1.6,1.3
		c-0.8-0.1-1.4-0.8-1.3-1.5c0.1-0.7,0.7-1.3,1.4-1.3C718.3,457.3,718.4,457.3,718.4,457.3L718.4,457.3z M130.2,459.1
		c0.1,0.8-0.5,1.5-1.3,1.6c-0.8,0.1-1.5-0.5-1.6-1.3c-0.1-0.8,0.5-1.5,1.3-1.6c0.1,0,0.1,0,0.1,0
		C129.5,457.8,130.1,458.4,130.2,459.1L130.2,459.1z M717.7,464.5c0.8,0.1,1.3,0.8,1.2,1.6c-0.1,0.8-0.8,1.3-1.6,1.2
		c-0.8-0.1-1.3-0.8-1.3-1.6c0.1-0.7,0.7-1.3,1.4-1.3C717.6,464.5,717.6,464.5,717.7,464.5L717.7,464.5z M130.9,466.2
		c0.1,0.8-0.5,1.5-1.3,1.6c-0.8,0.1-1.5-0.5-1.6-1.2c-0.1-0.8,0.5-1.5,1.3-1.6c0.1,0,0.1,0,0.2,0
		C130.2,464.9,130.8,465.5,130.9,466.2L130.9,466.2z M716.8,471.6c0.8,0.1,1.3,0.8,1.2,1.6c-0.1,0.8-0.8,1.3-1.6,1.2
		c-0.8-0.1-1.3-0.8-1.2-1.6c0.1-0.7,0.7-1.2,1.4-1.2C716.6,471.6,716.7,471.6,716.8,471.6L716.8,471.6z M131.9,473.3
		c0.1,0.8-0.4,1.5-1.2,1.6c-0.8,0.1-1.5-0.4-1.6-1.2c-0.1-0.8,0.4-1.5,1.2-1.6c0.1,0,0.1,0,0.2,0C131.2,472,131.8,472.6,131.9,473.3
		L131.9,473.3z M715.7,478.6c0.8,0.1,1.3,0.9,1.2,1.6c-0.1,0.8-0.9,1.3-1.7,1.2c-0.8-0.1-1.3-0.9-1.2-1.7c0.1-0.7,0.7-1.2,1.4-1.2
		C715.6,478.6,715.6,478.6,715.7,478.6L715.7,478.6z M133,480.3c0.1,0.8-0.4,1.5-1.2,1.7c-0.8,0.1-1.5-0.4-1.6-1.2
		c-0.1-0.8,0.4-1.5,1.2-1.6c0.1,0,0.2,0,0.2,0C132.3,479.1,132.9,479.6,133,480.3L133,480.3z M714.5,485.7c0.8,0.1,1.3,0.9,1.1,1.7
		c-0.2,0.8-0.9,1.3-1.7,1.1c-0.8-0.1-1.3-0.9-1.1-1.7c0.1-0.7,0.7-1.2,1.4-1.2C714.3,485.7,714.4,485.7,714.5,485.7L714.5,485.7z
		 M134.3,487.3c0.1,0.8-0.4,1.5-1.1,1.7c-0.8,0.1-1.5-0.4-1.7-1.1c-0.1-0.8,0.4-1.5,1.1-1.7c0.1,0,0.2,0,0.3,0
		C133.5,486.2,134.1,486.6,134.3,487.3L134.3,487.3z M713.1,492.7c0.8,0.2,1.3,0.9,1.1,1.7c-0.2,0.8-0.9,1.3-1.7,1.1
		c-0.8-0.2-1.3-0.9-1.1-1.7c0.1-0.7,0.7-1.1,1.4-1.1C712.9,492.7,713,492.7,713.1,492.7L713.1,492.7z M135.7,494.3
		c0.2,0.8-0.3,1.5-1.1,1.7c-0.8,0.2-1.5-0.3-1.7-1.1c-0.2-0.8,0.3-1.5,1.1-1.7c0.1,0,0.2,0,0.3,0C135,493.2,135.6,493.6,135.7,494.3
		L135.7,494.3z M711.5,499.7c0.8,0.2,1.2,1,1.1,1.7c-0.2,0.8-1,1.2-1.7,1c-0.8-0.2-1.2-1-1-1.7c0.2-0.7,0.7-1.1,1.4-1.1
		C711.3,499.6,711.4,499.6,711.5,499.7z M137.3,501.2c0.2,0.8-0.3,1.5-1.1,1.7c-0.8,0.2-1.5-0.3-1.7-1c-0.2-0.8,0.3-1.5,1-1.7
		c0.1,0,0.2,0,0.4,0C136.6,500.1,137.2,500.6,137.3,501.2L137.3,501.2z M709.7,506.6c0.8,0.2,1.2,1,1,1.8c-0.2,0.8-1,1.2-1.7,1
		c-0.8-0.2-1.2-1-1-1.8c0.2-0.6,0.8-1.1,1.4-1.1C709.5,506.6,709.6,506.6,709.7,506.6L709.7,506.6z M139.1,508.1
		c0.2,0.8-0.2,1.6-1,1.8c-0.8,0.2-1.5-0.2-1.8-1c-0.2-0.8,0.2-1.5,1-1.8c0.1,0,0.3,0,0.4,0C138.4,507.1,139,507.5,139.1,508.1
		L139.1,508.1z M707.8,513.5c0.8,0.2,1.2,1,1,1.8c-0.2,0.8-1,1.2-1.8,1c-0.8-0.2-1.2-1-1-1.8c0.2-0.6,0.8-1,1.4-1
		C707.5,513.5,707.7,513.5,707.8,513.5L707.8,513.5z M141.1,515c0.2,0.8-0.2,1.6-1,1.8c-0.8,0.2-1.6-0.2-1.8-1
		c-0.2-0.8,0.2-1.6,0.9-1.8c0.1,0,0.3-0.1,0.4-0.1C140.3,513.9,140.9,514.3,141.1,515L141.1,515z M705.7,520.4
		c0.8,0.2,1.2,1.1,0.9,1.8c-0.2,0.8-1.1,1.2-1.8,0.9c-0.8-0.2-1.2-1-0.9-1.8c0.2-0.6,0.8-1,1.4-1
		C705.4,520.3,705.6,520.3,705.7,520.4L705.7,520.4z M143.2,521.7c0.2,0.8-0.2,1.6-0.9,1.8c-0.8,0.2-1.6-0.2-1.8-0.9
		c-0.3-0.7,0.2-1.6,0.9-1.8c0.1,0,0.3-0.1,0.4-0.1C142.5,520.8,143,521.1,143.2,521.7L143.2,521.7z M703.4,527.2
		c0.7,0.3,1.1,1.1,0.9,1.8c-0.3,0.7-1.1,1.1-1.8,0.9c-0.8-0.3-1.1-1.1-0.9-1.8c0.2-0.6,0.8-1,1.3-1
		C703.1,527.1,703.3,527.1,703.4,527.2L703.4,527.2z M145.5,528.5c0.3,0.7-0.1,1.6-0.9,1.8c-0.7,0.3-1.6-0.1-1.8-0.9
		c-0.3-0.7,0.1-1.6,0.9-1.8c0.2-0.1,0.3-0.1,0.5-0.1C144.8,527.5,145.3,527.9,145.5,528.5L145.5,528.5z M701,533.9
		c0.7,0.3,1.1,1.1,0.8,1.8c-0.3,0.7-1.1,1.1-1.8,0.8c-0.7-0.3-1.1-1.1-0.8-1.9c0.2-0.6,0.8-0.9,1.3-0.9
		C700.7,533.8,700.9,533.9,701,533.9L701,533.9z M148,535.2c0.3,0.7-0.1,1.6-0.8,1.8c-0.7,0.3-1.6-0.1-1.8-0.8
		c-0.3-0.7,0.1-1.6,0.8-1.8c0.2-0.1,0.4-0.1,0.5-0.1C147.2,534.3,147.7,534.6,148,535.2L148,535.2z M698.4,540.6
		c0.7,0.3,1.1,1.1,0.8,1.9c-0.3,0.7-1.1,1.1-1.9,0.8c-0.7-0.3-1.1-1.1-0.8-1.9c0.2-0.6,0.7-0.9,1.3-0.9
		C698.1,540.5,698.2,540.6,698.4,540.6L698.4,540.6z M150.6,541.8c0.3,0.7-0.1,1.6-0.8,1.9c-0.7,0.3-1.6,0-1.9-0.8h0
		c-0.3-0.7,0.1-1.6,0.8-1.9c0.2-0.1,0.4-0.1,0.5-0.1C149.8,540.9,150.3,541.2,150.6,541.8L150.6,541.8z M695.7,547.3
		c0.7,0.3,1.1,1.2,0.7,1.9c-0.3,0.7-1.2,1.1-1.9,0.7c-0.7-0.3-1.1-1.2-0.7-1.9c0.2-0.5,0.8-0.9,1.3-0.9
		C695.3,547.1,695.5,547.2,695.7,547.3L695.7,547.3z M153.3,548.3c0.3,0.7,0,1.6-0.7,1.9c-0.7,0.3-1.6,0-1.9-0.7
		c-0.3-0.7,0-1.6,0.7-1.9c0.2-0.1,0.4-0.1,0.6-0.1C152.6,547.5,153.1,547.8,153.3,548.3L153.3,548.3z M692.8,553.8
		c0.7,0.3,1,1.2,0.7,1.9c-0.3,0.7-1.2,1-1.9,0.7c-0.7-0.3-1-1.2-0.7-1.9c0.2-0.5,0.8-0.8,1.3-0.8
		C692.4,553.7,692.6,553.7,692.8,553.8L692.8,553.8z M156.3,554.8c0.3,0.7,0,1.6-0.7,1.9c-0.7,0.3-1.6,0-1.9-0.7
		c-0.3-0.7,0-1.6,0.7-1.9c0.2-0.1,0.4-0.1,0.6-0.1C155.5,554,156,554.3,156.3,554.8L156.3,554.8z M689.7,560.3
		c0.7,0.4,1,1.2,0.6,1.9c-0.3,0.7-1.2,1-1.9,0.7c-0.7-0.3-1-1.2-0.7-1.9c0.3-0.5,0.8-0.8,1.3-0.8
		C689.3,560.1,689.5,560.2,689.7,560.3L689.7,560.3z M159.3,561.2c0.3,0.7,0.1,1.6-0.6,1.9c-0.7,0.3-1.6,0.1-1.9-0.6
		c-0.3-0.7-0.1-1.6,0.6-1.9c0.2-0.1,0.4-0.1,0.6-0.1C158.6,560.4,159.1,560.7,159.3,561.2L159.3,561.2z M686.5,566.7
		c0.7,0.4,1,1.2,0.6,1.9c-0.4,0.7-1.2,1-1.9,0.6c-0.7-0.4-1-1.2-0.6-1.9c0.2-0.5,0.7-0.8,1.3-0.8C686,566.5,686.2,566.6,686.5,566.7
		L686.5,566.7z M162.6,567.5c0.4,0.7,0.1,1.6-0.6,1.9c-0.7,0.4-1.6,0.1-1.9-0.6c-0.4-0.7-0.1-1.6,0.6-1.9c0.2-0.1,0.4-0.2,0.7-0.2
		C161.8,566.8,162.3,567,162.6,567.5L162.6,567.5z M683.1,573c0.7,0.4,1,1.3,0.6,2c-0.4,0.7-1.3,0.9-1.9,0.5
		c-0.7-0.4-0.9-1.3-0.6-1.9c0.3-0.5,0.8-0.7,1.3-0.7C682.6,572.8,682.8,572.9,683.1,573L683.1,573z M166,573.8
		c0.4,0.7,0.1,1.6-0.6,2c-0.7,0.4-1.6,0.1-1.9-0.6c-0.4-0.7-0.1-1.6,0.5-1.9c0.2-0.1,0.5-0.2,0.7-0.2
		C165.2,573,165.7,573.3,166,573.8L166,573.8z M679.5,579.2c0.7,0.4,0.9,1.3,0.5,2c-0.4,0.7-1.3,0.9-2,0.5c-0.7-0.4-0.9-1.3-0.5-2
		c0.3-0.4,0.7-0.7,1.2-0.7C679.1,579.1,679.3,579.1,679.5,579.2L679.5,579.2z M169.5,579.9c0.4,0.7,0.2,1.6-0.5,2
		c-0.7,0.4-1.6,0.2-2-0.5c-0.4-0.7-0.2-1.6,0.5-2c0.2-0.1,0.5-0.2,0.7-0.2C168.8,579.2,169.2,579.5,169.5,579.9L169.5,579.9z
		 M675.9,585.4c0.7,0.4,0.9,1.3,0.5,2c-0.4,0.7-1.3,0.9-2,0.5c-0.7-0.4-0.9-1.3-0.5-2c0.3-0.4,0.7-0.7,1.2-0.7
		C675.4,585.2,675.6,585.2,675.9,585.4L675.9,585.4z M173.2,586c0.4,0.7,0.2,1.5-0.5,2c-0.7,0.4-1.6,0.2-2-0.5
		c-0.4-0.7-0.2-1.5,0.4-2c0.2-0.1,0.5-0.2,0.8-0.2C172.4,585.3,172.9,585.6,173.2,586L173.2,586z M672,591.5c0.7,0.4,0.8,1.3,0.4,2
		c-0.4,0.7-1.3,0.8-2,0.4c-0.7-0.4-0.8-1.3-0.4-2c0.3-0.4,0.7-0.6,1.2-0.6C671.5,591.2,671.8,591.3,672,591.5L672,591.5z M177,592
		c0.4,0.7,0.2,1.6-0.4,2c-0.6,0.4-1.5,0.2-2-0.4c-0.4-0.7-0.2-1.5,0.4-2c0.2-0.2,0.5-0.2,0.8-0.2C176.3,591.4,176.7,591.6,177,592
		L177,592z M668,597.4c0.7,0.4,0.8,1.3,0.4,2c-0.4,0.6-1.3,0.8-2,0.4c-0.7-0.5-0.8-1.3-0.4-2c0.3-0.4,0.7-0.6,1.2-0.6
		C667.5,597.2,667.8,597.2,668,597.4z M181,597.9c0.4,0.6,0.3,1.5-0.4,2c-0.6,0.4-1.5,0.3-2-0.4c-0.5-0.6-0.3-1.5,0.4-2
		c0.3-0.2,0.5-0.3,0.8-0.3C180.3,597.3,180.7,597.5,181,597.9L181,597.9z M663.9,603.3c0.6,0.5,0.8,1.4,0.3,2
		c-0.5,0.6-1.4,0.8-2,0.3c-0.6-0.5-0.8-1.4-0.3-2v0c0.3-0.4,0.7-0.6,1.2-0.6C663.4,603,663.7,603.1,663.9,603.3L663.9,603.3z
		 M185.1,603.7c0.5,0.6,0.3,1.5-0.3,2c-0.6,0.5-1.5,0.3-2-0.3c-0.5-0.6-0.3-1.5,0.3-2c0.3-0.2,0.5-0.3,0.9-0.3
		C184.4,603.1,184.8,603.3,185.1,603.7L185.1,603.7z M659.7,609c0.6,0.5,0.8,1.4,0.3,2c-0.5,0.6-1.4,0.7-2,0.3
		c-0.6-0.5-0.8-1.4-0.3-2c0.3-0.4,0.7-0.6,1.1-0.6C659.1,608.7,659.4,608.8,659.7,609L659.7,609z M189.4,609.4
		c0.5,0.6,0.4,1.5-0.3,2c-0.6,0.5-1.5,0.4-2-0.3c-0.5-0.6-0.4-1.5,0.3-2c0.3-0.2,0.6-0.3,0.9-0.3C188.7,608.8,189.1,609,189.4,609.4
		z M655.3,614.7c0.6,0.5,0.7,1.4,0.2,2c-0.5,0.6-1.4,0.7-2,0.2c-0.6-0.5-0.7-1.4-0.2-2c0.3-0.4,0.7-0.5,1.1-0.5
		C654.7,614.4,655,614.5,655.3,614.7L655.3,614.7z M193.8,615c0.5,0.6,0.4,1.5-0.2,2c-0.6,0.5-1.5,0.4-2-0.2c-0.5-0.6-0.4-1.5,0.2-2
		c0.3-0.2,0.6-0.3,0.9-0.3C193.1,614.4,193.5,614.6,193.8,615L193.8,615z M650.8,620.2c0.6,0.5,0.7,1.4,0.2,2
		c-0.5,0.6-1.4,0.7-2,0.2c-0.6-0.5-0.7-1.4-0.2-2c0.3-0.3,0.7-0.5,1.1-0.5C650.2,619.9,650.5,620,650.8,620.2L650.8,620.2z
		 M198.3,620.5c0.5,0.6,0.4,1.5-0.2,2c-0.6,0.5-1.5,0.4-2-0.2c-0.5-0.6-0.4-1.5,0.2-2c0.3-0.2,0.6-0.3,0.9-0.3
		C197.6,620,198,620.1,198.3,620.5L198.3,620.5z M646.1,625.7c0.6,0.5,0.6,1.4,0.1,2c-0.5,0.6-1.4,0.6-2,0.1c-0.6-0.5-0.7-1.4-0.1-2
		c0.3-0.3,0.7-0.5,1.1-0.5C645.5,625.3,645.8,625.4,646.1,625.7L646.1,625.7z M202.9,625.9c0.5,0.6,0.5,1.5-0.1,2
		c-0.6,0.5-1.5,0.5-2-0.1c-0.5-0.6-0.5-1.5,0.1-2c0.3-0.3,0.6-0.4,1-0.4C202.3,625.4,202.7,625.5,202.9,625.9L202.9,625.9z
		 M641.3,631c0.6,0.5,0.6,1.4,0.1,2c-0.5,0.6-1.5,0.6-2,0.1c-0.6-0.5-0.6-1.4-0.1-2c0.3-0.3,0.7-0.5,1-0.5
		C640.7,630.6,641,630.7,641.3,631L641.3,631z M207.7,631.1c0.5,0.6,0.5,1.5-0.1,2c-0.6,0.5-1.5,0.5-2-0.1c-0.5-0.6-0.5-1.5,0.1-2
		c0.3-0.3,0.6-0.4,1-0.4C207.1,630.7,207.4,630.8,207.7,631.1L207.7,631.1z M636.4,636.2c0.6,0.5,0.6,1.5,0,2c-0.5,0.6-1.5,0.6-2,0
		c-0.6-0.6-0.6-1.5,0-2c0.3-0.3,0.7-0.4,1-0.4C635.8,635.8,636.1,635.9,636.4,636.2L636.4,636.2z M212.6,636.3c0.6,0.6,0.5,1.5,0,2
		c-0.6,0.5-1.5,0.5-2,0c-0.6-0.6-0.6-1.5,0-2c0.3-0.3,0.6-0.4,1-0.4C212,635.8,212.4,636,212.6,636.3L212.6,636.3z M631.4,641.3
		c0.5,0.6,0.5,1.5,0,2c-0.6,0.5-1.5,0.5-2,0c-0.5-0.6-0.5-1.5,0-2c0.3-0.3,0.7-0.4,1-0.4C630.7,640.8,631.1,641,631.4,641.3
		L631.4,641.3z M217.7,641.3c0.6,0.6,0.6,1.5,0,2c-0.5,0.6-1.5,0.6-2,0c-0.6-0.6-0.6-1.5,0-2c0.3-0.3,0.7-0.4,1-0.4
		C217,640.9,217.4,641,217.7,641.3L217.7,641.3z M626.2,646.2c0.5,0.6,0.5,1.5-0.1,2c-0.6,0.5-1.5,0.5-2-0.1c-0.5-0.6-0.5-1.5,0.1-2
		c0.3-0.3,0.6-0.4,1-0.4C625.5,645.8,625.9,645.9,626.2,646.2L626.2,646.2z M222.8,646.2c0.6,0.5,0.6,1.4,0.1,2
		c-0.5,0.6-1.5,0.6-2,0.1c-0.6-0.5-0.6-1.4-0.1-2c0.3-0.3,0.7-0.5,1-0.5C222.2,645.8,222.6,646,222.8,646.2L222.8,646.2z
		 M620.9,651.1c0.5,0.6,0.5,1.5-0.1,2c-0.6,0.5-1.5,0.5-2-0.1c-0.5-0.6-0.5-1.5,0.1-2c0.3-0.3,0.6-0.4,1-0.4
		C620.3,650.6,620.7,650.8,620.9,651.1L620.9,651.1z M228.1,651c0.6,0.5,0.6,1.4,0.1,2c-0.5,0.6-1.4,0.6-2,0.1
		c-0.6-0.5-0.6-1.4-0.1-2c0.3-0.3,0.7-0.5,1.1-0.5C227.5,650.6,227.8,650.8,228.1,651L228.1,651z M615.6,655.8
		c0.5,0.6,0.4,1.5-0.2,2c-0.6,0.5-1.5,0.4-2-0.2c-0.5-0.6-0.4-1.5,0.2-2c0.3-0.2,0.6-0.3,0.9-0.3
		C614.9,655.3,615.3,655.4,615.6,655.8L615.6,655.8z M233.5,655.7c0.6,0.5,0.7,1.4,0.2,2c-0.5,0.6-1.4,0.7-2,0.2
		c-0.6-0.5-0.7-1.4-0.2-2c0.3-0.3,0.7-0.5,1.1-0.5C232.9,655.3,233.2,655.4,233.5,655.7L233.5,655.7z M610.1,660.4
		c0.5,0.6,0.4,1.5-0.2,2c-0.6,0.5-1.5,0.4-2-0.2c-0.5-0.6-0.4-1.5,0.2-2c0.3-0.2,0.6-0.3,0.9-0.3C609.4,659.8,609.8,660,610.1,660.4
		L610.1,660.4z M239,660.2c0.6,0.5,0.7,1.4,0.2,2c-0.5,0.6-1.4,0.7-2,0.2c-0.6-0.5-0.7-1.4-0.2-2c0.3-0.3,0.7-0.5,1.1-0.5
		C238.4,659.9,238.7,660,239,660.2L239,660.2z M604.5,664.8c0.5,0.6,0.4,1.5-0.3,2v0c-0.6,0.5-1.5,0.4-2-0.3c-0.5-0.6-0.4-1.5,0.3-2
		c0.3-0.2,0.6-0.3,0.9-0.3C603.7,664.2,604.2,664.4,604.5,664.8L604.5,664.8z M244.6,664.6c0.6,0.5,0.7,1.4,0.3,2
		c-0.5,0.6-1.4,0.8-2,0.3c-0.6-0.5-0.7-1.4-0.3-2c0.3-0.4,0.7-0.6,1.1-0.6C244,664.3,244.4,664.4,244.6,664.6L244.6,664.6z
		 M598.8,669.1c0.5,0.6,0.3,1.5-0.3,2c-0.6,0.5-1.5,0.3-2-0.3c-0.5-0.6-0.3-1.5,0.3-2c0.3-0.2,0.6-0.3,0.8-0.3
		C598,668.5,598.5,668.7,598.8,669.1L598.8,669.1z M250.3,668.9c0.6,0.5,0.8,1.4,0.3,2c-0.5,0.6-1.4,0.8-2,0.3
		c-0.6-0.5-0.8-1.4-0.3-2c0.3-0.4,0.7-0.6,1.2-0.6C249.8,668.6,250.1,668.7,250.3,668.9L250.3,668.9z M592.9,673.3
		c0.5,0.7,0.3,1.5-0.4,2c-0.7,0.5-1.5,0.3-2-0.4c-0.4-0.6-0.3-1.5,0.4-2c0.2-0.2,0.5-0.3,0.8-0.3
		C592.2,672.6,592.7,672.9,592.9,673.3L592.9,673.3z M256.1,673c0.6,0.4,0.8,1.3,0.4,2c-0.5,0.7-1.3,0.8-2,0.4
		c-0.6-0.4-0.8-1.3-0.4-2c0.3-0.4,0.7-0.6,1.2-0.6C255.6,672.7,255.9,672.8,256.1,673L256.1,673z M587,677.3c0.4,0.7,0.3,1.5-0.4,2
		c-0.7,0.4-1.6,0.3-2-0.4c-0.4-0.7-0.2-1.5,0.4-2c0.2-0.2,0.5-0.2,0.8-0.2C586.3,676.6,586.8,676.9,587,677.3L587,677.3z M262.1,677
		c0.6,0.4,0.8,1.3,0.4,2c-0.4,0.7-1.3,0.8-2,0.4c-0.7-0.4-0.8-1.3-0.4-2c0.3-0.4,0.7-0.6,1.2-0.6C261.5,676.7,261.8,676.8,262.1,677
		L262.1,677z M581,681.2c0.4,0.7,0.2,1.6-0.5,2c-0.7,0.4-1.5,0.2-2-0.5c-0.4-0.7-0.2-1.6,0.5-2c0.2-0.2,0.5-0.2,0.8-0.2
		C580.3,680.5,580.8,680.7,581,681.2L581,681.2z M268.1,680.8c0.7,0.4,0.9,1.3,0.5,2c-0.4,0.7-1.3,0.9-2,0.5c-0.7-0.4-0.9-1.3-0.5-2
		c0.3-0.4,0.7-0.7,1.2-0.7C267.6,680.6,267.8,680.7,268.1,680.8z M574.9,684.9c0.4,0.7,0.2,1.6-0.5,2c-0.7,0.4-1.6,0.2-2-0.5
		c-0.4-0.7-0.2-1.6,0.5-2c0.2-0.1,0.5-0.2,0.7-0.2C574.2,684.2,574.7,684.4,574.9,684.9L574.9,684.9z M274.2,684.5
		c0.7,0.4,0.9,1.3,0.5,2c-0.4,0.7-1.3,0.9-2,0.5c-0.7-0.4-0.9-1.3-0.5-2c0.3-0.4,0.7-0.7,1.2-0.7
		C273.7,684.3,273.9,684.4,274.2,684.5L274.2,684.5z M568.8,688.5c0.4,0.7,0.1,1.6-0.5,2c-0.7,0.4-1.6,0.1-2-0.6
		c-0.4-0.7-0.1-1.6,0.6-1.9c0.2-0.1,0.5-0.2,0.7-0.2C568,687.7,568.5,688,568.8,688.5L568.8,688.5z M280.3,688
		c0.7,0.4,0.9,1.3,0.5,2c-0.4,0.7-1.3,0.9-1.9,0.5c-0.7-0.4-0.9-1.3-0.5-1.9c0.3-0.5,0.7-0.7,1.3-0.7
		C279.9,687.9,280.1,687.9,280.3,688L280.3,688z M562.5,691.9c0.4,0.7,0.1,1.6-0.6,1.9c-0.7,0.4-1.6,0.1-1.9-0.6
		c-0.4-0.7-0.1-1.6,0.6-1.9c0.2-0.1,0.4-0.2,0.7-0.2C561.8,691.1,562.3,691.4,562.5,691.9L562.5,691.9z M286.6,691.4
		c0.7,0.4,1,1.2,0.6,1.9c-0.4,0.7-1.2,1-1.9,0.6c-0.7-0.4-1-1.2-0.6-1.9c0.3-0.5,0.8-0.8,1.3-0.8
		C286.2,691.3,286.4,691.3,286.6,691.4z M556.2,695.2c0.3,0.7,0.1,1.6-0.6,1.9c-0.7,0.3-1.6,0.1-1.9-0.6c-0.3-0.7-0.1-1.6,0.6-1.9
		c0.2-0.1,0.4-0.1,0.6-0.1C555.4,694.4,555.9,694.7,556.2,695.2L556.2,695.2z M293,694.7c0.7,0.3,1,1.2,0.6,1.9
		c-0.3,0.7-1.2,1-1.9,0.7c-0.7-0.3-1-1.2-0.6-1.9c0.2-0.5,0.8-0.8,1.3-0.8C292.6,694.5,292.8,694.6,293,694.7L293,694.7z
		 M549.8,698.3c0.3,0.7,0,1.6-0.7,1.9c-0.7,0.3-1.6,0-1.9-0.7c-0.3-0.7,0-1.6,0.7-1.9c0.2-0.1,0.4-0.1,0.6-0.1
		C549,697.5,549.5,697.8,549.8,698.3L549.8,698.3z M299.4,697.8c0.7,0.3,1,1.2,0.7,1.9c-0.3,0.7-1.2,1-1.9,0.7
		c-0.7-0.3-1-1.2-0.7-1.9c0.2-0.5,0.8-0.8,1.3-0.8C299,697.6,299.2,697.7,299.4,697.8L299.4,697.8z M543.3,701.3
		c0.3,0.7,0,1.6-0.7,1.9c-0.7,0.3-1.6,0-1.9-0.7c-0.3-0.7,0-1.6,0.7-1.9c0.2-0.1,0.4-0.1,0.6-0.1C542.5,700.4,543,700.7,543.3,701.3
		L543.3,701.3z M305.9,700.7c0.7,0.3,1.1,1.2,0.7,1.9c-0.3,0.7-1.2,1.1-1.9,0.7c-0.7-0.3-1.1-1.2-0.7-1.9c0.2-0.5,0.8-0.9,1.3-0.9
		C305.6,700.6,305.8,700.6,305.9,700.7L305.9,700.7z M536.7,704.1c0.3,0.7-0.1,1.6-0.8,1.9c-0.7,0.3-1.6-0.1-1.9-0.8
		c-0.3-0.7,0-1.6,0.8-1.9c0.2-0.1,0.4-0.1,0.5-0.1C536,703.2,536.5,703.5,536.7,704.1L536.7,704.1z M312.5,703.5
		c0.7,0.3,1.1,1.1,0.8,1.9c-0.3,0.7-1.1,1.1-1.9,0.8c-0.7-0.3-1.1-1.1-0.8-1.9c0.2-0.6,0.8-0.9,1.3-0.9
		C312.1,703.4,312.3,703.4,312.5,703.5L312.5,703.5z M530.1,706.7c0.3,0.7-0.1,1.6-0.8,1.8c-0.7,0.3-1.6-0.1-1.8-0.8
		c-0.3-0.7,0.1-1.6,0.8-1.8c0.2-0.1,0.3-0.1,0.5-0.1C529.3,705.8,529.9,706.2,530.1,706.7z M319.2,706.1c0.7,0.3,1.1,1.1,0.8,1.8
		c-0.3,0.7-1.1,1.1-1.8,0.8c-0.7-0.3-1.1-1.1-0.8-1.8c0.2-0.6,0.8-0.9,1.3-0.9C318.8,706,319,706,319.2,706.1L319.2,706.1z
		 M523.4,709.2c0.3,0.7-0.1,1.6-0.9,1.8c-0.7,0.3-1.6-0.1-1.8-0.9c-0.3-0.7,0.1-1.6,0.9-1.8l0,0c0.2-0.1,0.3-0.1,0.5-0.1
		C522.6,708.3,523.2,708.7,523.4,709.2L523.4,709.2z M325.9,708.5c0.7,0.3,1.1,1.1,0.9,1.8c-0.3,0.7-1.1,1.1-1.8,0.9
		c-0.8-0.3-1.1-1.1-0.9-1.8c0.2-0.6,0.8-1,1.3-1C325.6,708.4,325.7,708.5,325.9,708.5L325.9,708.5z M516.6,711.6
		c0.2,0.8-0.2,1.6-0.9,1.8c-0.8,0.2-1.6-0.2-1.8-0.9c-0.2-0.7,0.2-1.6,0.9-1.8c0.2-0.1,0.3-0.1,0.4-0.1
		C515.8,710.6,516.4,711,516.6,711.6L516.6,711.6z M332.6,710.8c0.7,0.2,1.2,1.1,0.9,1.8c-0.2,0.8-1,1.2-1.8,0.9
		c-0.7-0.2-1.2-1.1-0.9-1.8c0.2-0.6,0.8-1,1.4-1C332.3,710.7,332.5,710.8,332.6,710.8L332.6,710.8z M509.8,713.7
		c0.2,0.8-0.2,1.5-1,1.8c-0.8,0.2-1.6-0.2-1.8-1c-0.2-0.8,0.2-1.6,1-1.8c0.1,0,0.3-0.1,0.4-0.1C509,712.7,509.6,713.1,509.8,713.7z
		 M339.4,712.9c0.8,0.2,1.2,1,1,1.8c-0.2,0.8-1,1.2-1.8,1c-0.8-0.2-1.2-1-1-1.8c0.2-0.6,0.7-1,1.4-1
		C339.2,712.9,339.3,712.9,339.4,712.9z M502.9,715.7c0.2,0.8-0.2,1.5-1,1.8c-0.8,0.2-1.6-0.2-1.8-1c-0.2-0.8,0.3-1.5,1-1.8
		c0.1,0,0.3,0,0.4,0C502.2,714.7,502.7,715.1,502.9,715.7L502.9,715.7z M346.3,714.9c0.8,0.2,1.2,1,1,1.8c-0.2,0.8-1,1.2-1.8,1v0
		c-0.8-0.2-1.2-1-1-1.8c0.2-0.6,0.8-1,1.4-1C346,714.8,346.2,714.8,346.3,714.9L346.3,714.9z M496,717.6c0.2,0.8-0.3,1.5-1,1.7
		c-0.8,0.2-1.5-0.3-1.7-1c-0.2-0.8,0.3-1.5,1-1.7c0.1,0,0.2,0,0.4,0C495.2,716.5,495.8,716.9,496,717.6z M353.2,716.6
		c0.8,0.2,1.2,1,1.1,1.7c-0.2,0.8-1,1.2-1.7,1c-0.8-0.2-1.2-1-1-1.7c0.1-0.7,0.7-1.1,1.4-1.1C353,716.6,353.1,716.6,353.2,716.6
		L353.2,716.6z M489,719.2c0.2,0.8-0.3,1.5-1.1,1.7c-0.8,0.2-1.5-0.3-1.7-1.1c-0.2-0.8,0.3-1.5,1.1-1.7c0.1,0,0.2,0,0.3,0
		C488.3,718.1,488.9,718.6,489,719.2L489,719.2z M360.1,718.2c0.8,0.2,1.3,0.9,1.1,1.7c-0.2,0.8-0.9,1.3-1.7,1.1
		c-0.8-0.2-1.3-0.9-1.1-1.7c0.1-0.7,0.7-1.1,1.4-1.1C359.9,718.2,360,718.2,360.1,718.2L360.1,718.2z M482,720.7
		c0.2,0.8-0.4,1.5-1.1,1.7c-0.8,0.1-1.5-0.4-1.7-1.1c-0.1-0.8,0.4-1.5,1.1-1.7c0.1,0,0.2,0,0.3,0C481.3,719.6,481.9,720,482,720.7
		L482,720.7z M367.1,719.7L367.1,719.7c0.8,0.1,1.3,0.9,1.1,1.7c-0.1,0.8-0.9,1.3-1.7,1.1c-0.8-0.2-1.3-0.9-1.1-1.7
		c0.1-0.7,0.7-1.2,1.4-1.2C366.9,719.7,367,719.7,367.1,719.7L367.1,719.7z M475,722c0.1,0.8-0.4,1.5-1.2,1.6
		c-0.8,0.1-1.5-0.4-1.7-1.2c-0.1-0.8,0.4-1.5,1.2-1.7c0.1,0,0.2,0,0.2,0C474.3,720.9,474.9,721.3,475,722L475,722z M374.1,721
		c0.8,0.1,1.3,0.9,1.2,1.6c-0.1,0.8-0.9,1.3-1.6,1.2c-0.8-0.1-1.3-0.9-1.2-1.6c0.1-0.7,0.7-1.2,1.4-1.2
		C374,720.9,374,720.9,374.1,721L374.1,721z M468,723.2c0.1,0.8-0.4,1.5-1.2,1.6c-0.8,0.1-1.5-0.4-1.6-1.2c-0.1-0.8,0.4-1.5,1.2-1.6
		c0.1,0,0.1,0,0.2,0C467.2,722,467.8,722.5,468,723.2L468,723.2z M381.1,722.1c0.8,0.1,1.3,0.8,1.2,1.6c-0.1,0.8-0.8,1.3-1.6,1.2
		c-0.8-0.1-1.3-0.8-1.2-1.6c0.1-0.7,0.7-1.2,1.4-1.2C381,722,381.1,722,381.1,722.1L381.1,722.1z M460.9,724.2
		c0.1,0.8-0.5,1.5-1.3,1.6c-0.8,0.1-1.5-0.5-1.6-1.2c-0.1-0.8,0.5-1.5,1.3-1.6c0.1,0,0.1,0,0.2,0
		C460.2,722.9,460.8,723.4,460.9,724.2L460.9,724.2z M388.2,723c0.8,0.1,1.3,0.8,1.3,1.6c-0.1,0.8-0.8,1.4-1.6,1.3
		c-0.8-0.1-1.3-0.8-1.2-1.6c0.1-0.7,0.7-1.3,1.4-1.3C388.1,723,388.1,723,388.2,723L388.2,723z M453.7,725c0.1,0.8-0.5,1.5-1.3,1.6
		c-0.8,0.1-1.5-0.5-1.6-1.3c-0.1-0.8,0.5-1.5,1.3-1.6c0.1,0,0.1,0,0.1,0C453.1,723.7,453.7,724.2,453.7,725L453.7,725z M395.3,723.7
		c0.8,0.1,1.4,0.8,1.3,1.6c-0.1,0.8-0.8,1.4-1.6,1.3c-0.8-0.1-1.4-0.8-1.3-1.6c0.1-0.7,0.7-1.3,1.4-1.3
		C395.2,723.7,395.3,723.7,395.3,723.7L395.3,723.7z M446.6,725.6c0.1,0.8-0.5,1.5-1.3,1.5c-0.8,0.1-1.5-0.5-1.5-1.3
		c-0.1-0.8,0.5-1.5,1.3-1.5c0,0,0.1,0,0.1,0C445.9,724.3,446.6,724.9,446.6,725.6L446.6,725.6z M402.4,724.3c0.8,0,1.4,0.7,1.3,1.5
		c-0.1,0.8-0.7,1.4-1.5,1.3c-0.8-0.1-1.4-0.7-1.3-1.5c0.1-0.8,0.7-1.3,1.4-1.3C402.3,724.3,402.4,724.3,402.4,724.3L402.4,724.3z
		 M439.5,726.1c0,0.8-0.6,1.5-1.4,1.5c-0.8,0-1.5-0.6-1.5-1.4c0-0.8,0.6-1.5,1.3-1.5c0,0,0,0,0.1,0
		C438.8,724.7,439.4,725.3,439.5,726.1L439.5,726.1z M409.5,724.7c0.8,0,1.4,0.7,1.4,1.5c0,0.8-0.7,1.4-1.5,1.4
		c-0.8,0-1.4-0.7-1.4-1.5C408,725.3,408.7,724.7,409.5,724.7L409.5,724.7L409.5,724.7z M432.3,726.4c0,0.8-0.6,1.4-1.4,1.5
		c-0.8,0-1.4-0.6-1.5-1.4c0-0.8,0.6-1.4,1.4-1.5h0C431.7,725,432.3,725.6,432.3,726.4L432.3,726.4z M416.6,725
		c0.8,0,1.4,0.7,1.4,1.5c0,0.8-0.7,1.4-1.5,1.4c-0.8,0-1.4-0.7-1.4-1.5C415.2,725.6,415.8,725,416.6,725
		C416.6,725,416.6,725,416.6,725L416.6,725z M425.2,726.5c0,0.8-0.7,1.4-1.4,1.4c-0.8,0-1.4-0.6-1.4-1.4c0-0.8,0.6-1.4,1.4-1.4
		C424.5,725.1,425.2,725.7,425.2,726.5L425.2,726.5z"/>
</g>
</svg>
