<svg xmlns="http://www.w3.org/2000/svg" width="850.39" height="850.39" viewBox="0 0 850.39 850.39"><path opacity=".15" fill="#FFF" d="M652.132 307.7l-1.28.81-4.618-.217c-.056-.005-.18-.01-.356-.023-.188-.015-.312-.02-.377-.02h-.33c-.16-.004-.28 0-.357.01-.094.01-.197.033-.348.057-.143.024-.266.052-.358.09-.104.033-.217.08-.35.137-.122.057-.254.127-.387.207-.35.228-.603.5-.744.82-.15.33-.112.64.075.957.123.184.266.307.444.38.16.077.356.09.556.058.207-.027.405-.09.604-.17.197-.084.403-.187.61-.33l.32-.197.812 1.282-.32.207c-.838.527-1.603.754-2.3.692-.696-.07-1.28-.486-1.77-1.264-.46-.72-.61-1.408-.452-2.06.18-.63.633-1.195 1.366-1.657.273-.176.557-.315.82-.425.27-.104.546-.17.828-.198.293-.037.527-.057.734-.057.198-.004.462 0 .782.02l4.307.42-2.034-3.205 1.29-.814 2.836 4.49zm-3.213-5.074l-1.273.82-.81-1.292 1.28-.81.802 1.282zm-2.688-4.457c.188.3.312.61.368.932.057.315.047.612-.03.905-.073.282-.187.564-.375.843-.17.278-.387.532-.642.777-.265.235-.546.462-.886.66l-2.884 1.827c-.366.236-.706.43-1.055.584-.34.156-.697.27-1.037.34-.348.075-.687.094-.988.047-.31-.038-.603-.15-.876-.34-.292-.184-.536-.447-.754-.78-.462-.727-.603-1.41-.434-2.056.16-.646.612-1.206 1.348-1.668l.812 1.28c-.435.265-.697.538-.83.812-.122.277-.075.598.15.96.415.642 1.253.552 2.535-.254l1.28-.814c-.583.023-1.055-.27-1.45-.872-.227-.362-.357-.71-.396-1.046-.037-.334.01-.64.17-.94.142-.294.35-.567.612-.812.253-.255.573-.504.96-.75.425-.268.828-.466 1.234-.603.396-.137.79-.207 1.178-.212.396 0 .753.095 1.094.293.352.198.643.49.896.886zm-.893 1.22c.008-.184-.05-.373-.16-.557-.124-.184-.256-.31-.436-.38-.18-.077-.367-.096-.564-.063-.198.033-.405.09-.604.174-.196.08-.396.188-.61.32-.123.08-.218.142-.283.18-.066.047-.16.108-.273.184-.122.085-.207.146-.264.202-.066.047-.142.108-.235.188-.084.075-.15.146-.196.208-.037.05-.085.122-.133.207-.046.084-.084.16-.103.235-.01.07-.01.15-.01.23 0 .09.01.175.048.27.026.094.084.183.14.277.256.41.68.6 1.255.552l1.27-.81c.218-.134.406-.274.557-.416.16-.14.302-.3.415-.47.112-.168.176-.347.187-.53zm25.89 49.706l-1.405.6-4.53-.972c-.048-.014-.16-.038-.34-.08-.18-.038-.302-.07-.367-.075-.066-.016-.17-.04-.32-.063-.17-.023-.292-.043-.367-.043-.084 0-.187-.01-.34-.01-.15 0-.27.02-.376.034-.112.02-.227.052-.367.085-.14.037-.273.08-.405.137-.386.164-.678.396-.876.697-.188.29-.227.603-.075.94.086.204.208.35.368.458.15.1.34.146.547.146.207 0 .405-.022.612-.075.217-.047.434-.122.67-.216l.338-.152.594 1.404-.35.146c-.914.386-1.715.49-2.384.31-.67-.183-1.188-.687-1.545-1.53-.33-.79-.376-1.498-.094-2.102.265-.603.802-1.074 1.61-1.422.292-.133.584-.227.876-.273.273-.065.565-.09.85-.075.292.02.537.038.726.066.207.03.452.086.78.147l4.176 1.106-1.48-3.485 1.396-.594 2.08 4.892zm-2.355-5.522l-1.396.59-.595-1.396 1.403-.594.587 1.4zm-1.828-4.59c.366.858.387 1.594.047 2.188-.33.6-.96 1.093-1.884 1.488-.612.255-1.132.382-1.573.372-.443-.014-.857-.155-1.254-.42-.104.406-.292.764-.584 1.057-.274.3-.68.555-1.197.776-.81.344-1.508.42-2.12.22-.612-.196-1.084-.677-1.404-1.45-.32-.763-.34-1.427-.065-2.002.292-.57.818-1.03 1.63-1.37.537-.218.99-.325 1.396-.325.414 0 .812.106 1.18.314.074-.467.263-.867.573-1.188.293-.33.734-.617 1.338-.866.935-.396 1.726-.505 2.395-.335.656.18 1.163.683 1.522 1.54zm-5.89 2.508c-.075-.184-.188-.32-.31-.405-.144-.085-.303-.123-.49-.113-.19.01-.357.038-.52.085-.18.046-.367.112-.584.206-.934.4-1.27.886-1.026 1.47.244.585.838.688 1.77.283.217-.095.404-.18.547-.265.16-.095.302-.198.434-.33.122-.123.207-.264.245-.424.03-.15.002-.324-.066-.508zm4.854-1.508c.01-.155-.027-.33-.103-.514-.085-.174-.18-.315-.302-.42-.122-.107-.245-.173-.377-.206-.132-.028-.282-.028-.46-.005-.18.022-.352.07-.5.117-.15.056-.34.13-.548.217-.235.094-.434.197-.604.3-.17.114-.33.236-.462.388-.132.137-.217.297-.254.48-.028.18 0 .377.084.58.095.21.217.367.368.47.142.108.32.16.526.16.188.005.388-.014.584-.065.188-.052.415-.127.643-.222.216-.094.395-.174.536-.245.143-.084.293-.17.435-.282.15-.113.255-.226.32-.344.058-.118.105-.25.116-.41zM683 389.206l-2.656.65.716 2.948-1.64.39-6.66-1.115-.436-1.848 6.275-1.518-.273-1.14 1.387-.34.282 1.14 2.647-.64.358 1.472zm-3.685 2.46l-.367-1.47-4.42 1.062 4.787.407zm7.265 44.193c.066.937-.15 1.628-.648 2.06-.51.453-1.272.703-2.3.783l-.104-1.52.235-.017c.2-.01.368-.033.52-.06.15-.022.292-.063.442-.11.15-.057.283-.122.368-.202.104-.075.17-.185.217-.312.056-.127.085-.282.064-.457-.01-.146-.026-.265-.073-.37-.038-.11-.086-.208-.143-.28-.064-.08-.132-.145-.226-.197-.096-.064-.208-.107-.283-.14-.085-.04-.188-.067-.34-.08-.142-.02-.264-.028-.357-.04-.094-.008-.234-.008-.414 0l-.415.016c-.085.004-.235.01-.425.032-.094.005-.15.005-.197.015-.17.012-.312.02-.434.034-.123.02-.245.032-.396.062-.132.032-.243.062-.34.104-.094.027-.187.084-.27.146-.095.057-.16.127-.208.222-.047.08-.095.18-.122.303-.02.112-.028.25-.02.392.02.27.122.494.31.683.19.18.406.312.65.388l.085 1.29-5.71.397-.33-4.674 1.518-.112.228 3.316 2.58-.09c-.28-.405-.44-.904-.487-1.488-.02-.34.01-.646.095-.91.094-.277.207-.5.377-.687.17-.174.387-.334.66-.457.244-.133.526-.227.828-.297.293-.07.622-.107.99-.14.45-.023.865-.04 1.233-.016.367.02.734.08 1.073.18.35.1.64.244.886.424.236.165.452.42.604.727.16.302.245.664.282 1.084zm-.35-3.417l-1.516.113-.104-1.513 1.507-.112.114 1.513zm-.26-5.205c.026.36-.012.697-.114.998-.104.312-.254.564-.452.787-.198.21-.442.404-.726.564-.292.165-.612.287-.94.372-.34.084-.698.145-1.095.174l-3.4.25c-.434.023-.84.023-1.216.004-.367-.033-.725-.094-1.064-.193-.356-.098-.64-.24-.903-.424-.245-.178-.452-.417-.612-.72-.16-.297-.255-.64-.282-1.046-.057-.853.132-1.52.584-2.017.452-.484 1.11-.764 1.98-.82l.103 1.51c-.49.037-.866.145-1.11.32-.236.187-.34.498-.312.922.058.753.83 1.083 2.347.97l1.518-.104c-.528-.26-.81-.75-.867-1.46-.028-.425.02-.797.15-1.106.123-.312.312-.562.585-.75.273-.188.574-.33.924-.434.357-.104.754-.17 1.196-.197.5-.038.97-.02 1.376.05.425.07.8.198 1.148.383.34.18.613.434.82.764.203.34.326.738.363 1.2zm-1.367.657c.096-.16.133-.354.114-.566 0-.228-.075-.4-.188-.547-.113-.146-.272-.25-.47-.32-.2-.065-.397-.108-.614-.122-.217-.032-.44-.032-.697-.014-.14.015-.254.022-.34.028-.074.004-.178.014-.318.032-.143.01-.265.028-.33.048-.085.01-.17.036-.303.057-.094.028-.188.058-.254.09-.065.038-.142.08-.227.118-.094.057-.142.104-.197.164-.038.058-.085.123-.123.2-.037.073-.064.153-.084.257-.01.085-.01.187-.01.306.036.495.31.85.837 1.08l1.518-.11c.255-.013.48-.046.688-.098.198-.052.396-.127.584-.222.177-.09.31-.22.414-.38zm-2.75 51.575c-.255.91-.688 1.488-1.312 1.753-.64.272-1.44.272-2.42.01-.623-.175-1.122-.4-1.46-.675-.34-.287-.586-.653-.728-1.105-.34.26-.706.424-1.103.476-.415.06-.886.022-1.433-.128-.848-.227-1.45-.606-1.8-1.14-.357-.523-.424-1.192-.217-2.003.217-.802.612-1.334 1.188-1.616.584-.273 1.29-.302 2.13-.07.546.145.98.344 1.31.588.32.265.548.584.717.977.357-.313.744-.506 1.178-.58.435-.066.98-.03 1.603.145.98.265 1.668.67 2.083 1.22.414.533.5 1.26.264 2.145zm-6.192-1.658c.047-.192.047-.366-.01-.52-.047-.15-.15-.276-.302-.38-.15-.108-.3-.193-.46-.26-.16-.065-.36-.122-.585-.188-.99-.264-1.545-.094-1.714.523-.17.606.243 1.05 1.204 1.317.236.062.443.11.613.123.18.023.357.028.537.015.18-.02.33-.084.452-.185.126-.107.21-.252.266-.445zm4.75 1.804c.103-.118.18-.273.226-.462.057-.193.065-.362.047-.52-.046-.16-.093-.282-.178-.39-.086-.105-.207-.208-.367-.288-.15-.095-.312-.17-.462-.217-.15-.055-.34-.11-.565-.17-.245-.067-.462-.118-.67-.128-.197-.028-.404-.023-.593 0-.198.032-.358.116-.49.23-.14.126-.244.3-.292.522-.057.202-.065.4-.01.584.058.18.16.32.312.452.15.122.32.226.51.306.187.09.395.16.65.227.216.058.413.108.564.127.158.033.338.058.525.058.18 0 .32-.028.452-.075.123-.05.238-.135.34-.257zm-9.753 42.423l-8.064-2.107-.29 1.104-1.096-.288c-.074-.807-.32-1.386-.725-1.748l.29-1.104 10.27 2.672-.385 1.47zm.96-3.67l-8.074-2.098-.28 1.098-1.104-.287c-.065-.806-.312-1.39-.716-1.758l.292-1.103 10.26 2.677-.376 1.47zm-19.85 44.65l-7.312-4.03-.547 1-.998-.544c.13-.802.037-1.428-.265-1.884l.556-.994 9.29 5.136-.725 1.317zm2.79-4.847c-.17.325-.39.58-.644.787-.253.197-.507.334-.81.41-.272.074-.583.104-.913.08-.33-.024-.65-.09-.99-.198-.34-.113-.668-.264-.998-.448l-2.997-1.647c-.386-.218-.716-.43-1.025-.654-.293-.222-.558-.472-.792-.745-.235-.27-.405-.556-.52-.838-.122-.292-.15-.604-.132-.942.028-.335.15-.68.34-1.03.405-.74.94-1.197 1.583-1.37.642-.166 1.348-.04 2.11.385l-.735 1.324c-.434-.235-.81-.358-1.11-.335-.293.02-.558.222-.755.6-.366.663.104 1.36 1.433 2.09l1.33.73c-.304-.494-.274-1.056.074-1.687.206-.373.44-.66.716-.856.272-.187.575-.298.914-.304.33-.01.658.037 1.01.146.338.095.715.264 1.11.485.434.234.81.504 1.13.786.312.293.564.604.745.938.187.34.28.698.27 1.1-.007.387-.13.792-.346 1.193zm-1.492-.184c.16-.09.292-.218.405-.415.104-.193.15-.377.122-.566-.02-.185-.095-.354-.216-.522-.123-.16-.283-.312-.435-.438-.17-.137-.37-.26-.585-.38-.142-.072-.235-.128-.302-.17-.066-.038-.17-.08-.292-.147s-.227-.107-.29-.146c-.077-.023-.18-.062-.274-.095-.123-.052-.217-.07-.292-.075-.065-.01-.15-.014-.245-.02-.105-.005-.18 0-.245.023-.075.02-.143.066-.218.094-.085.043-.15.104-.217.18-.064.07-.112.147-.17.25-.235.43-.197.882.114 1.36l1.338.73c.216.128.424.222.62.288.208.075.406.122.612.137.212.023.392-.006.57-.09zm-31.404 41.004l-1.18-.956-1.252-4.47c-.01-.044-.037-.156-.085-.336-.047-.185-.075-.303-.104-.357-.02-.066-.048-.165-.105-.325-.047-.146-.094-.264-.122-.335-.038-.085-.095-.174-.16-.306-.065-.124-.132-.24-.198-.32-.064-.08-.15-.17-.244-.284-.085-.1-.196-.202-.31-.297-.33-.265-.67-.425-1.02-.448-.35-.043-.64.08-.875.372-.143.165-.217.345-.228.522-.02.203.02.373.113.557.104.185.217.357.356.522.143.16.312.32.5.472l.293.244-.963 1.17-.292-.24c-.772-.622-1.233-1.28-1.385-1.955-.15-.683.065-1.37.63-2.082.558-.665 1.16-1.02 1.81-1.068.68-.048 1.35.212 2.018.768.255.207.462.424.66.646.17.225.34.46.442.728.132.26.227.48.292.674.064.185.142.435.226.75l.97 4.21 2.404-2.93 1.168.957-3.36 4.114zm3.825-4.678l-1.178-.962-1.244-4.456c-.02-.058-.057-.165-.085-.345-.056-.175-.094-.297-.104-.357-.02-.062-.058-.17-.104-.32-.047-.155-.104-.264-.132-.344-.037-.07-.085-.165-.15-.297-.065-.133-.133-.235-.208-.32-.064-.09-.15-.188-.245-.282-.094-.107-.188-.212-.31-.297-.33-.27-.67-.425-1.02-.457-.35-.034-.64.088-.876.38-.143.16-.21.34-.228.528-.02.18.028.367.132.547.085.188.198.362.34.522.142.16.312.32.51.476l.292.236-.972 1.18-.292-.243c-.763-.622-1.225-1.28-1.395-1.955-.15-.68.064-1.38.66-2.083.535-.675 1.14-1.022 1.8-1.07.668-.046 1.328.208 2.016.76.245.202.462.43.65.654.188.227.34.462.46.726.124.26.218.49.273.68.076.184.15.434.236.748l.96 4.218 2.395-2.937 1.178.96-3.36 4.106z"/></svg>