<?xml version="1.0" encoding="utf-8"?>
<!-- Generator: Adobe Illustrator 22.1.0, SVG Export Plug-In . SVG Version: 6.00 Build 0)  -->
<svg version="1.1" id="圖層_1" xmlns="http://www.w3.org/2000/svg" xmlns:xlink="http://www.w3.org/1999/xlink" x="0px" y="0px"
	 viewBox="0 0 850.4 850.4" style="enable-background:new 0 0 850.4 850.4;" xml:space="preserve">
<style type="text/css">
	.st0{fill:#FFFFFF;enable-background:new    ;}
</style>
<path class="st0" d="M652.1,307.7l-1.3,0.8l-4.6-0.2c-0.1,0-0.2,0-0.4,0c-0.2,0-0.3,0-0.4,0h-0.3c-0.2,0-0.3,0-0.4,0
	c-0.1,0-0.2,0-0.3,0.1c-0.1,0-0.3,0.1-0.4,0.1c-0.1,0-0.2,0.1-0.3,0.1c-0.1,0.1-0.3,0.1-0.4,0.2c-0.3,0.2-0.6,0.5-0.7,0.8
	c-0.2,0.3-0.1,0.6,0.1,1c0.1,0.2,0.3,0.3,0.4,0.4c0.2,0.1,0.4,0.1,0.6,0.1c0.2,0,0.4-0.1,0.6-0.2c0.2-0.1,0.4-0.2,0.6-0.3l0.3-0.2
	l0.8,1.3l-0.3,0.2c-0.8,0.5-1.6,0.8-2.3,0.7c-0.7-0.1-1.3-0.5-1.8-1.3c-0.5-0.7-0.6-1.4-0.5-2.1c0.2-0.6,0.6-1.2,1.4-1.7
	c0.3-0.2,0.6-0.3,0.8-0.4c0.3-0.1,0.5-0.2,0.8-0.2c0.3,0,0.5-0.1,0.7-0.1c0.2,0,0.5,0,0.8,0l4.3,0.4l-2-3.2l1.3-0.8L652.1,307.7
	L652.1,307.7z M648.9,302.6l-1.3,0.8l-0.8-1.3l1.3-0.8L648.9,302.6L648.9,302.6z M646.2,298.2c0.2,0.3,0.3,0.6,0.4,0.9
	c0.1,0.3,0,0.6,0,0.9c-0.1,0.3-0.2,0.6-0.4,0.8c-0.2,0.3-0.4,0.5-0.6,0.8c-0.3,0.2-0.5,0.5-0.9,0.7l-2.9,1.8
	c-0.4,0.2-0.7,0.4-1.1,0.6c-0.3,0.2-0.7,0.3-1,0.3c-0.3,0.1-0.7,0.1-1,0c-0.3,0-0.6-0.1-0.9-0.3c-0.3-0.2-0.5-0.4-0.8-0.8
	c-0.5-0.7-0.6-1.4-0.4-2.1c0.2-0.6,0.6-1.2,1.3-1.7l0.8,1.3c-0.4,0.3-0.7,0.5-0.8,0.8c-0.1,0.3-0.1,0.6,0.2,1
	c0.4,0.6,1.3,0.6,2.5-0.3l1.3-0.8c-0.6,0-1.1-0.3-1.5-0.9c-0.2-0.4-0.4-0.7-0.4-1c0-0.3,0-0.6,0.2-0.9c0.1-0.3,0.3-0.6,0.6-0.8
	c0.3-0.3,0.6-0.5,1-0.8c0.4-0.3,0.8-0.5,1.2-0.6c0.4-0.1,0.8-0.2,1.2-0.2c0.4,0,0.8,0.1,1.1,0.3C645.7,297.5,646,297.8,646.2,298.2
	L646.2,298.2z M645.3,299.4c0-0.2,0-0.4-0.2-0.6c-0.1-0.2-0.3-0.3-0.4-0.4c-0.2-0.1-0.4-0.1-0.6-0.1c-0.2,0-0.4,0.1-0.6,0.2
	c-0.2,0.1-0.4,0.2-0.6,0.3c-0.1,0.1-0.2,0.1-0.3,0.2c-0.1,0-0.2,0.1-0.3,0.2c-0.1,0.1-0.2,0.1-0.3,0.2c-0.1,0-0.1,0.1-0.2,0.2
	c-0.1,0.1-0.2,0.1-0.2,0.2c0,0-0.1,0.1-0.1,0.2c0,0.1-0.1,0.2-0.1,0.2c0,0.1,0,0.1,0,0.2c0,0.1,0,0.2,0,0.3c0,0.1,0.1,0.2,0.1,0.3
	c0.3,0.4,0.7,0.6,1.3,0.6l1.3-0.8c0.2-0.1,0.4-0.3,0.6-0.4c0.2-0.1,0.3-0.3,0.4-0.5C645.3,299.8,645.3,299.6,645.3,299.4
	L645.3,299.4z M671.2,349.1l-1.4,0.6l-4.5-1c0,0-0.2,0-0.3-0.1c-0.2,0-0.3-0.1-0.4-0.1c-0.1,0-0.2,0-0.3-0.1c-0.2,0-0.3,0-0.4,0
	c-0.1,0-0.2,0-0.3,0c-0.2,0-0.3,0-0.4,0c-0.1,0-0.2,0.1-0.4,0.1c-0.1,0-0.3,0.1-0.4,0.1c-0.4,0.2-0.7,0.4-0.9,0.7
	c-0.2,0.3-0.2,0.6-0.1,0.9c0.1,0.2,0.2,0.4,0.4,0.5c0.2,0.1,0.3,0.1,0.5,0.1s0.4,0,0.6-0.1c0.2,0,0.4-0.1,0.7-0.2l0.3-0.2l0.6,1.4
	l-0.3,0.1c-0.9,0.4-1.7,0.5-2.4,0.3c-0.7-0.2-1.2-0.7-1.5-1.5c-0.3-0.8-0.4-1.5-0.1-2.1c0.3-0.6,0.8-1.1,1.6-1.4
	c0.3-0.1,0.6-0.2,0.9-0.3c0.3-0.1,0.6-0.1,0.8-0.1c0.3,0,0.5,0,0.7,0.1c0.2,0,0.5,0.1,0.8,0.1l4.2,1.1l-1.5-3.5l1.4-0.6L671.2,349.1
	L671.2,349.1z M668.9,343.6l-1.4,0.6l-0.6-1.4l1.4-0.6L668.9,343.6L668.9,343.6z M667,339c0.4,0.9,0.4,1.6,0,2.2
	c-0.3,0.6-1,1.1-1.9,1.5c-0.6,0.3-1.1,0.4-1.6,0.4c-0.4,0-0.9-0.2-1.3-0.4c-0.1,0.4-0.3,0.8-0.6,1.1c-0.3,0.3-0.7,0.6-1.2,0.8
	c-0.8,0.3-1.5,0.4-2.1,0.2c-0.6-0.2-1.1-0.7-1.4-1.5c-0.3-0.8-0.3-1.4-0.1-2c0.3-0.6,0.8-1,1.6-1.4c0.5-0.2,1-0.3,1.4-0.3
	c0.4,0,0.8,0.1,1.2,0.3c0.1-0.5,0.3-0.9,0.6-1.2c0.3-0.3,0.7-0.6,1.3-0.9c0.9-0.4,1.7-0.5,2.4-0.3C666.2,337.6,666.7,338.1,667,339
	L667,339z M661.2,341.5c-0.1-0.2-0.2-0.3-0.3-0.4c-0.1-0.1-0.3-0.1-0.5-0.1c-0.2,0-0.4,0-0.5,0.1c-0.2,0-0.4,0.1-0.6,0.2
	c-0.9,0.4-1.3,0.9-1,1.5c0.2,0.6,0.8,0.7,1.8,0.3c0.2-0.1,0.4-0.2,0.5-0.3c0.2-0.1,0.3-0.2,0.4-0.3c0.1-0.1,0.2-0.3,0.2-0.4
	C661.3,341.8,661.2,341.7,661.2,341.5L661.2,341.5z M666,340c0-0.2,0-0.3-0.1-0.5c-0.1-0.2-0.2-0.3-0.3-0.4
	c-0.1-0.1-0.2-0.2-0.4-0.2c-0.1,0-0.3,0-0.5,0c-0.2,0-0.4,0.1-0.5,0.1c-0.2,0.1-0.3,0.1-0.5,0.2c-0.2,0.1-0.4,0.2-0.6,0.3
	c-0.2,0.1-0.3,0.2-0.5,0.4c-0.1,0.1-0.2,0.3-0.3,0.5c0,0.2,0,0.4,0.1,0.6c0.1,0.2,0.2,0.4,0.4,0.5c0.1,0.1,0.3,0.2,0.5,0.2
	c0.2,0,0.4,0,0.6-0.1c0.2-0.1,0.4-0.1,0.6-0.2c0.2-0.1,0.4-0.2,0.5-0.2c0.1-0.1,0.3-0.2,0.4-0.3c0.2-0.1,0.3-0.2,0.3-0.3
	C666,340.3,666,340.1,666,340L666,340z M683,389.2l-2.7,0.6l0.7,2.9l-1.6,0.4l-6.7-1.1l-0.4-1.8l6.3-1.5l-0.3-1.1l1.4-0.3l0.3,1.1
	l2.6-0.6L683,389.2L683,389.2z M679.3,391.7l-0.4-1.5l-4.4,1.1L679.3,391.7L679.3,391.7z M686.6,435.9c0.1,0.9-0.2,1.6-0.6,2.1
	c-0.5,0.5-1.3,0.7-2.3,0.8l-0.1-1.5l0.2,0c0.2,0,0.4,0,0.5-0.1c0.2,0,0.3-0.1,0.4-0.1c0.2-0.1,0.3-0.1,0.4-0.2
	c0.1-0.1,0.2-0.2,0.2-0.3c0.1-0.1,0.1-0.3,0.1-0.5c0-0.1,0-0.3-0.1-0.4c0-0.1-0.1-0.2-0.1-0.3c-0.1-0.1-0.1-0.1-0.2-0.2
	c-0.1-0.1-0.2-0.1-0.3-0.1c-0.1,0-0.2-0.1-0.3-0.1c-0.1,0-0.3,0-0.4,0c-0.1,0-0.2,0-0.4,0l-0.4,0c-0.1,0-0.2,0-0.4,0
	c-0.1,0-0.2,0-0.2,0c-0.2,0-0.3,0-0.4,0c-0.1,0-0.2,0-0.4,0.1c-0.1,0-0.2,0.1-0.3,0.1c-0.1,0-0.2,0.1-0.3,0.1
	c-0.1,0.1-0.2,0.1-0.2,0.2c0,0.1-0.1,0.2-0.1,0.3c0,0.1,0,0.3,0,0.4c0,0.3,0.1,0.5,0.3,0.7c0.2,0.2,0.4,0.3,0.7,0.4l0.1,1.3L676,439
	l-0.3-4.7l1.5-0.1l0.2,3.3l2.6-0.1c-0.3-0.4-0.4-0.9-0.5-1.5c0-0.3,0-0.6,0.1-0.9c0.1-0.3,0.2-0.5,0.4-0.7c0.2-0.2,0.4-0.3,0.7-0.5
	c0.2-0.1,0.5-0.2,0.8-0.3c0.3-0.1,0.6-0.1,1-0.1c0.5,0,0.9,0,1.2,0c0.4,0,0.7,0.1,1.1,0.2c0.3,0.1,0.6,0.2,0.9,0.4
	c0.2,0.2,0.5,0.4,0.6,0.7C686.5,435.1,686.5,435.4,686.6,435.9L686.6,435.9z M686.2,432.4l-1.5,0.1l-0.1-1.5l1.5-0.1L686.2,432.4
	L686.2,432.4z M686,427.2c0,0.4,0,0.7-0.1,1c-0.1,0.3-0.3,0.6-0.5,0.8c-0.2,0.2-0.4,0.4-0.7,0.6c-0.3,0.2-0.6,0.3-0.9,0.4
	c-0.3,0.1-0.7,0.1-1.1,0.2l-3.4,0.3c-0.4,0-0.8,0-1.2,0c-0.4,0-0.7-0.1-1.1-0.2c-0.4-0.1-0.6-0.2-0.9-0.4c-0.2-0.2-0.5-0.4-0.6-0.7
	c-0.2-0.3-0.3-0.6-0.3-1c-0.1-0.9,0.1-1.5,0.6-2c0.5-0.5,1.1-0.8,2-0.8l0.1,1.5c-0.5,0-0.9,0.1-1.1,0.3c-0.2,0.2-0.3,0.5-0.3,0.9
	c0.1,0.8,0.8,1.1,2.3,1l1.5-0.1c-0.5-0.3-0.8-0.8-0.9-1.5c0-0.4,0-0.8,0.2-1.1c0.1-0.3,0.3-0.6,0.6-0.8s0.6-0.3,0.9-0.4
	c0.4-0.1,0.8-0.2,1.2-0.2c0.5,0,1,0,1.4,0c0.4,0.1,0.8,0.2,1.1,0.4c0.3,0.2,0.6,0.4,0.8,0.8C685.8,426.4,685.9,426.8,686,427.2
	L686,427.2z M684.6,427.9c0.1-0.2,0.1-0.4,0.1-0.6c0-0.2-0.1-0.4-0.2-0.5c-0.1-0.1-0.3-0.3-0.5-0.3c-0.2-0.1-0.4-0.1-0.6-0.1
	c-0.2,0-0.4,0-0.7,0c-0.1,0-0.3,0-0.3,0c-0.1,0-0.2,0-0.3,0c-0.1,0-0.3,0-0.3,0c-0.1,0-0.2,0-0.3,0.1c-0.1,0-0.2,0.1-0.3,0.1
	c-0.1,0-0.1,0.1-0.2,0.1c-0.1,0.1-0.1,0.1-0.2,0.2c0,0.1-0.1,0.1-0.1,0.2c0,0.1-0.1,0.2-0.1,0.3c0,0.1,0,0.2,0,0.3
	c0,0.5,0.3,0.9,0.8,1.1l1.5-0.1c0.3,0,0.5,0,0.7-0.1c0.2-0.1,0.4-0.1,0.6-0.2C684.4,428.2,684.5,428.1,684.6,427.9L684.6,427.9z
	 M681.9,479.5c-0.3,0.9-0.7,1.5-1.3,1.8c-0.6,0.3-1.4,0.3-2.4,0c-0.6-0.2-1.1-0.4-1.5-0.7c-0.3-0.3-0.6-0.7-0.7-1.1
	c-0.3,0.3-0.7,0.4-1.1,0.5c-0.4,0.1-0.9,0-1.4-0.1c-0.8-0.2-1.5-0.6-1.8-1.1c-0.4-0.5-0.4-1.2-0.2-2c0.2-0.8,0.6-1.3,1.2-1.6
	c0.6-0.3,1.3-0.3,2.1-0.1c0.5,0.1,1,0.3,1.3,0.6c0.3,0.3,0.5,0.6,0.7,1c0.4-0.3,0.7-0.5,1.2-0.6c0.4-0.1,1,0,1.6,0.1
	c1,0.3,1.7,0.7,2.1,1.2C682,477.9,682.1,478.6,681.9,479.5L681.9,479.5z M675.7,477.8c0-0.2,0-0.4,0-0.5c0-0.1-0.2-0.3-0.3-0.4
	c-0.2-0.1-0.3-0.2-0.5-0.3c-0.2-0.1-0.4-0.1-0.6-0.2c-1-0.3-1.5-0.1-1.7,0.5c-0.2,0.6,0.2,1,1.2,1.3c0.2,0.1,0.4,0.1,0.6,0.1
	c0.2,0,0.4,0,0.5,0c0.2,0,0.3-0.1,0.5-0.2C675.5,478.1,675.6,478,675.7,477.8L675.7,477.8z M680.4,479.6c0.1-0.1,0.2-0.3,0.2-0.5
	c0.1-0.2,0.1-0.4,0-0.5c0-0.2-0.1-0.3-0.2-0.4c-0.1-0.1-0.2-0.2-0.4-0.3c-0.2-0.1-0.3-0.2-0.5-0.2c-0.2-0.1-0.3-0.1-0.6-0.2
	c-0.2-0.1-0.5-0.1-0.7-0.1c-0.2,0-0.4,0-0.6,0c-0.2,0-0.4,0.1-0.5,0.2c-0.1,0.1-0.2,0.3-0.3,0.5c-0.1,0.2-0.1,0.4,0,0.6
	c0.1,0.2,0.2,0.3,0.3,0.5c0.2,0.1,0.3,0.2,0.5,0.3c0.2,0.1,0.4,0.2,0.7,0.2c0.2,0.1,0.4,0.1,0.6,0.1c0.2,0,0.3,0.1,0.5,0.1
	c0.2,0,0.3,0,0.5-0.1C680.2,479.8,680.3,479.7,680.4,479.6L680.4,479.6z M670.7,522l-8.1-2.1l-0.3,1.1l-1.1-0.3
	c-0.1-0.8-0.3-1.4-0.7-1.7l0.3-1.1l10.3,2.7L670.7,522L670.7,522z M671.6,518.4l-8.1-2.1l-0.3,1.1l-1.1-0.3
	c-0.1-0.8-0.3-1.4-0.7-1.8l0.3-1.1l10.3,2.7L671.6,518.4L671.6,518.4z M651.8,563l-7.3-4l-0.5,1l-1-0.5c0.1-0.8,0-1.4-0.3-1.9l0.6-1
	l9.3,5.1L651.8,563L651.8,563z M654.6,558.2c-0.2,0.3-0.4,0.6-0.6,0.8c-0.3,0.2-0.5,0.3-0.8,0.4c-0.3,0.1-0.6,0.1-0.9,0.1
	s-0.7-0.1-1-0.2c-0.3-0.1-0.7-0.3-1-0.4l-3-1.6c-0.4-0.2-0.7-0.4-1-0.7c-0.3-0.2-0.6-0.5-0.8-0.7c-0.2-0.3-0.4-0.6-0.5-0.8
	c-0.1-0.3-0.2-0.6-0.1-0.9c0-0.3,0.2-0.7,0.3-1c0.4-0.7,0.9-1.2,1.6-1.4c0.6-0.2,1.3,0,2.1,0.4l-0.7,1.3c-0.4-0.2-0.8-0.4-1.1-0.3
	c-0.3,0-0.6,0.2-0.8,0.6c-0.4,0.7,0.1,1.4,1.4,2.1l1.3,0.7c-0.3-0.5-0.3-1.1,0.1-1.7c0.2-0.4,0.4-0.7,0.7-0.9
	c0.3-0.2,0.6-0.3,0.9-0.3c0.3,0,0.7,0,1,0.1c0.3,0.1,0.7,0.3,1.1,0.5c0.4,0.2,0.8,0.5,1.1,0.8c0.3,0.3,0.6,0.6,0.7,0.9
	c0.2,0.3,0.3,0.7,0.3,1.1C654.9,557.4,654.8,557.8,654.6,558.2L654.6,558.2z M653.1,558c0.2-0.1,0.3-0.2,0.4-0.4
	c0.1-0.2,0.2-0.4,0.1-0.6c0-0.2-0.1-0.4-0.2-0.5c-0.1-0.2-0.3-0.3-0.4-0.4c-0.2-0.1-0.4-0.3-0.6-0.4c-0.1-0.1-0.2-0.1-0.3-0.2
	c-0.1,0-0.2-0.1-0.3-0.1s-0.2-0.1-0.3-0.1c-0.1,0-0.2-0.1-0.3-0.1c-0.1-0.1-0.2-0.1-0.3-0.1c-0.1,0-0.2,0-0.2,0c-0.1,0-0.2,0-0.2,0
	c-0.1,0-0.1,0.1-0.2,0.1c-0.1,0-0.2,0.1-0.2,0.2c-0.1,0.1-0.1,0.1-0.2,0.3c-0.2,0.4-0.2,0.9,0.1,1.4l1.3,0.7
	c0.2,0.1,0.4,0.2,0.6,0.3c0.2,0.1,0.4,0.1,0.6,0.1C652.7,558.1,652.9,558.1,653.1,558L653.1,558z M621.7,599l-1.2-1l-1.3-4.5
	c0,0,0-0.2-0.1-0.3c0-0.2-0.1-0.3-0.1-0.4c0-0.1,0-0.2-0.1-0.3c0-0.1-0.1-0.3-0.1-0.3c0-0.1-0.1-0.2-0.2-0.3
	c-0.1-0.1-0.1-0.2-0.2-0.3c-0.1-0.1-0.2-0.2-0.2-0.3c-0.1-0.1-0.2-0.2-0.3-0.3c-0.3-0.3-0.7-0.4-1-0.4c-0.3,0-0.6,0.1-0.9,0.4
	c-0.1,0.2-0.2,0.3-0.2,0.5c0,0.2,0,0.4,0.1,0.6c0.1,0.2,0.2,0.4,0.4,0.5c0.1,0.2,0.3,0.3,0.5,0.5l0.3,0.2l-1,1.2l-0.3-0.2
	c-0.8-0.6-1.2-1.3-1.4-2c-0.2-0.7,0.1-1.4,0.6-2.1c0.6-0.7,1.2-1,1.8-1.1c0.7,0,1.3,0.2,2,0.8c0.3,0.2,0.5,0.4,0.7,0.6
	c0.2,0.2,0.3,0.5,0.4,0.7c0.1,0.3,0.2,0.5,0.3,0.7c0.1,0.2,0.1,0.4,0.2,0.8l1,4.2l2.4-2.9l1.2,1L621.7,599L621.7,599z M625.5,594.3
	l-1.2-1l-1.2-4.5c0-0.1-0.1-0.2-0.1-0.3c-0.1-0.2-0.1-0.3-0.1-0.4c0-0.1-0.1-0.2-0.1-0.3c0-0.2-0.1-0.3-0.1-0.3
	c0-0.1-0.1-0.2-0.2-0.3c-0.1-0.1-0.1-0.2-0.2-0.3c-0.1-0.1-0.2-0.2-0.2-0.3c-0.1-0.1-0.2-0.2-0.3-0.3c-0.3-0.3-0.7-0.4-1-0.5
	c-0.3,0-0.6,0.1-0.9,0.4c-0.1,0.2-0.2,0.3-0.2,0.5c0,0.2,0,0.4,0.1,0.5c0.1,0.2,0.2,0.4,0.3,0.5s0.3,0.3,0.5,0.5l0.3,0.2l-1,1.2
	l-0.3-0.2c-0.8-0.6-1.2-1.3-1.4-2c-0.2-0.7,0.1-1.4,0.7-2.1c0.5-0.7,1.1-1,1.8-1.1c0.7,0,1.3,0.2,2,0.8c0.2,0.2,0.5,0.4,0.7,0.7
	c0.2,0.2,0.3,0.5,0.5,0.7c0.1,0.3,0.2,0.5,0.3,0.7c0.1,0.2,0.2,0.4,0.2,0.7l1,4.2l2.4-2.9l1.2,1L625.5,594.3L625.5,594.3z"/>
</svg>
